<svg xmlns="http://www.w3.org/2000/svg" width="25" height="19" viewBox="0 0 25 19">
  <path fill="#090909" fill-rule="evenodd" d="M24.52,8.12 C22.6959909,8.69600288 21.2440054,9.55999424 20.164,10.712 C19.0839946,11.8640058 18.6639988,13.3519909 18.904,15.176 C19.4320026,15.6080022 20.1759952,16.0519977 21.136,16.508 C22.0960048,16.9640023 22.9359964,17.3119988 23.656,17.552 C23.848001,18.3200038 23.848001,19.0639964 23.656,19.784 C23.463999,20.5040036 23.1520022,21.1399972 22.72,21.692 C22.2879978,22.2440028 21.7840029,22.6999982 21.208,23.06 C20.6319971,23.4200018 20.1040024,23.6239998 19.624,23.672 C17.9439916,23.5279993 16.4800062,22.9040055 15.232,21.8 C13.9839938,20.6959945 13.36,19.1120103 13.36,17.048 C13.36,15.847994 13.563998,14.648006 13.972,13.448 C14.380002,12.247994 14.9919959,11.1320052 15.808,10.1 C16.6240041,9.06799484 17.6559938,8.15600396 18.904,7.364 C20.1520062,6.57199604 21.6399914,6.00800168 23.368,5.672 L24.52,8.12 Z M11.416,8.12 C9.59199088,8.69600288 8.1400054,9.55999424 7.06,10.712 C5.9799946,11.8640058 5.5599988,13.3519909 5.8,15.176 C6.32800264,15.6080022 7.0719952,16.0519977 8.032,16.508 C8.9920048,16.9640023 9.8319964,17.3119988 10.552,17.552 C10.744001,18.3200038 10.744001,19.0639964 10.552,19.784 C10.359999,20.5040036 10.0480022,21.1399972 9.616,21.692 C9.18399784,22.2440028 8.68000288,22.6999982 8.104,23.06 C7.52799712,23.4200018 7.0000024,23.6239998 6.52,23.672 C4.8399916,23.5279993 3.37600624,22.9040055 2.128,21.8 C0.87999376,20.6959945 0.256,19.1120103 0.256,17.048 C0.256,15.847994 0.45999796,14.648006 0.868,13.448 C1.27600204,12.247994 1.88799592,11.1320052 2.704,10.1 C3.52000408,9.06799484 4.55199376,8.15600396 5.8,7.364 C7.04800624,6.57199604 8.53599136,6.00800168 10.264,5.672 L11.416,8.12 Z" opacity=".4" transform="translate(0 -5)"/>
</svg>
