<svg xmlns="http://www.w3.org/2000/svg" width="255" height="335" viewBox="0 0 255 335">
  <g fill="none" fill-rule="evenodd">
    <path fill="#FFE538" fill-rule="nonzero" stroke="#FFF" stroke-width="10" d="M5,5 L5,330 L172.083008,330 L250,330 L250,5 L5,5 Z"/>
    <g fill-rule="nonzero" transform="matrix(-1 0 0 1 91 254.5)">
      <polyline stroke="#FBD724" stroke-width="6" points="12 12 31.5 31.5 31.5 70.5"/>
      <circle cx="12" cy="12" r="12" fill="#FBD724"/>
      <circle cx="12" cy="12" r="6" fill="#FFE538"/>
    </g>
    <g fill-rule="nonzero" transform="matrix(0 1 1 0 125 271.5)">
      <polyline stroke="#FBD724" stroke-width="6" points="12 11 31.5 30.5 31.5 119.5"/>
      <path stroke="#FBD724" stroke-dasharray="9" stroke-width="6" d="M14.5,47.8320313 L14.5,116.146484"/>
      <circle cx="12" cy="12" r="12" fill="#FBD724"/>
      <circle cx="12" cy="12" r="6" fill="#FFE538"/>
    </g>
    <path fill="#323330" d="M103.176172,161.761719 L101.223047,157.269531 C100.585023,155.79817 99.920967,154.808596 99.2308594,154.300781 C98.5407518,153.792966 97.5186266,153.539062 96.1644531,153.539062 L95.5980469,153.539062 L95.5980469,150.160156 L96.3207031,150.160156 C98.8337365,150.160156 100.627338,150.537757 101.701562,151.292969 C102.775787,152.048181 103.872781,153.714831 104.992578,156.292969 L111.945703,172.152344 C113.260814,175.14715 114.790746,178.09634 116.535547,181 L112.199609,181 C110.91054,178.877594 109.706125,176.546888 108.586328,174.007812 L104.973047,165.84375 L98.0199219,181 L94.3089844,181 L103.176172,161.761719 Z M135.169922,171.32 C135.169922,172.440006 135.043256,173.613327 134.789922,174.84 C134.536587,176.066673 134.069925,177.193328 133.389922,178.22 C132.709918,179.246672 131.763261,180.09333 130.549922,180.76 C129.336582,181.42667 127.769931,181.76 125.849922,181.76 C123.44991,181.76 121.44993,181.140006 119.849922,179.9 C118.249914,178.659994 117.183258,177.066676 116.649922,175.12 L122.689922,173.08 C122.876589,173.82667 123.216586,174.426664 123.709922,174.88 C124.203258,175.333336 124.809918,175.56 125.529922,175.56 C126.649927,175.56 127.38992,175.173337 127.749922,174.4 C128.109924,173.626663 128.289922,172.61334 128.289922,171.36 L128.289922,152.68 L135.169922,152.68 L135.169922,171.32 Z M155.809922,160.04 C155.223252,159.29333 154.456593,158.700002 153.509922,158.26 C152.56325,157.819998 151.649926,157.6 150.769922,157.6 C150.316586,157.6 149.856591,157.64 149.389922,157.72 C148.923253,157.8 148.503257,157.953332 148.129922,158.18 C147.756587,158.406668 147.443256,158.699998 147.189922,159.06 C146.936587,159.420002 146.809922,159.879997 146.809922,160.44 C146.809922,160.920002 146.909921,161.319998 147.109922,161.64 C147.309923,161.960002 147.603253,162.239999 147.989922,162.48 C148.37659,162.720001 148.836586,162.939999 149.369922,163.14 C149.903258,163.340001 150.503252,163.546666 151.169922,163.76 C152.129927,164.080002 153.129917,164.433331 154.169922,164.82 C155.209927,165.206669 156.156584,165.719997 157.009922,166.36 C157.863259,167.000003 158.569919,167.793329 159.129922,168.74 C159.689925,169.686671 159.969922,170.86666 159.969922,172.28 C159.969922,173.906675 159.669925,175.313327 159.069922,176.5 C158.469919,177.686673 157.66326,178.666663 156.649922,179.44 C155.636583,180.213337 154.476595,180.786665 153.169922,181.16 C151.863249,181.533335 150.516595,181.72 149.129922,181.72 C147.103245,181.72 145.143265,181.36667 143.249922,180.66 C141.356579,179.95333 139.783261,178.946673 138.529922,177.64 L143.009922,173.08 C143.703259,173.933338 144.616583,174.646664 145.749922,175.22 C146.883261,175.793336 148.009916,176.08 149.129922,176.08 C149.636591,176.08 150.129919,176.026667 150.609922,175.92 C151.089924,175.813333 151.50992,175.640001 151.869922,175.4 C152.229924,175.159999 152.516587,174.840002 152.729922,174.44 C152.943256,174.039998 153.049922,173.560003 153.049922,173 C153.049922,172.466664 152.91659,172.013335 152.649922,171.64 C152.383254,171.266665 152.003258,170.926668 151.509922,170.62 C151.016586,170.313332 150.403259,170.033335 149.669922,169.78 C148.936585,169.526665 148.10326,169.253335 147.169922,168.96 C146.263251,168.666665 145.376593,168.320002 144.509922,167.92 C143.643251,167.519998 142.869925,167.00667 142.189922,166.38 C141.509918,165.75333 140.963257,164.993338 140.549922,164.1 C140.136586,163.206662 139.929922,162.120006 139.929922,160.84 C139.929922,159.266659 140.249919,157.920006 140.889922,156.8 C141.529925,155.679994 142.369917,154.760004 143.409922,154.04 C144.449927,153.319996 145.623249,152.793335 146.929922,152.46 C148.236595,152.126665 149.556582,151.96 150.889922,151.96 C152.48993,151.96 154.123247,152.25333 155.789922,152.84 C157.456597,153.42667 158.916582,154.293328 160.169922,155.44 L155.809922,160.04 Z"/>
  </g>
</svg>
