<svg xmlns="http://www.w3.org/2000/svg" xmlns:xlink="http://www.w3.org/1999/xlink" width="255" height="335" viewBox="0 0 255 335">
  <defs>
    <polygon id="react-native-kickoff-a" points="0 0 0 315 163.974 315 235 315 235 246.741 235 0"/>
    <linearGradient id="react-native-kickoff-c" x1="50%" x2="50%" y1="0%" y2="109.957%">
      <stop offset="0%" stop-color="#FFD865"/>
      <stop offset="54.532%" stop-color="#E3D679"/>
      <stop offset="100%" stop-color="#44C9ED"/>
    </linearGradient>
    <path id="react-native-kickoff-e" d="M34.5325816,11.9923467 C39.0687213,13.5385167 42,15.9605614 42,18.4648746 C42,21.0766707 38.8674167,23.6303082 34.0524615,25.2097905 C33.7979961,25.2933474 33.5372108,25.3735914 33.2714068,25.4512588 C33.366204,25.8289211 33.450778,26.1997737 33.52327,26.5628963 C34.4738445,31.3169872 33.7418612,35.2244667 31.4890333,36.5157331 C29.3077679,37.7659572 25.7824267,36.5378186 22.2128467,33.4964593 C21.8248497,33.165075 21.4462573,32.8230462 21.0775107,32.4707713 C20.7847546,32.7510732 20.4923702,33.018492 20.2011011,33.270635 C16.5159058,36.4601512 12.7314521,37.7834416 10.4765795,36.4960402 C8.29345536,35.2491289 7.60738374,31.6118288 8.48583795,27.0309252 C8.58182556,26.5330791 8.69184567,26.0379863 8.81576944,25.5462265 C8.43430937,25.4384114 8.0556225,25.3211991 7.6800616,25.1946987 C3.0483811,23.6273634 0,21.0422541 0,18.4648746 C0,15.9695796 2.83982722,13.563731 7.28637434,12.0287878 C7.78340916,11.857257 8.30293508,11.6960327 8.84086282,11.5447469 C8.72562533,11.0882911 8.62212046,10.6290096 8.53044841,10.1673471 C7.60905663,5.5054632 8.25739525,1.77982106 10.4462816,0.525179834 C12.7290357,-0.783202812 16.5307759,0.621803957 20.323594,3.95634845 C20.5595175,4.16421892 20.7915316,4.37639895 21.0195171,4.59277934 C21.3599601,4.2673663 21.7086525,3.95052212 22.0652605,3.64255011 C25.6842837,0.524259604 29.2676185,-0.780258077 31.4585495,0.470886279 C33.74372,1.77540396 34.4128768,5.73828132 33.3894387,10.6574614 C33.3254889,10.9630616 33.2558351,11.2674644 33.180513,11.5705134 C33.6347092,11.6998581 34.0855418,11.8405138 34.5325816,11.9923467 Z M33.4881393,23.5235615 L33.4883252,23.5235615 C37.6454619,22.159597 40.2059162,20.072516 40.2059162,18.4648746 C40.2059162,16.9556978 37.8352423,14.9968968 33.9485564,13.6723181 C33.5466905,13.5352039 33.1295828,13.4054515 32.7000212,13.2821407 C32.1832835,14.937634 31.4936802,16.6866226 30.655933,18.4737088 C31.5336437,20.3040458 32.2511285,22.0758561 32.7827365,23.7420241 C33.0228894,23.6715345 33.2585813,23.5988363 33.4881393,23.5235615 Z M31.7632017,26.9079825 C31.6975871,26.5798286 31.6213776,26.2443128 31.5358742,25.9019873 C29.7962524,26.3000787 27.8780028,26.5917915 25.8474836,26.7701321 C24.6931881,28.4247051 23.5104534,29.9147411 22.3269752,31.1964371 C22.680513,31.5332412 23.0331215,31.8516407 23.3831277,32.1497951 C26.4355981,34.7507325 29.2663173,35.7368507 30.5899467,34.9782133 C31.2118908,34.6217163 31.7148737,33.7316701 31.965064,32.3966007 C32.2435076,30.9107978 32.1834693,29.0101553 31.7632017,26.9079825 Z M14.318655,34.8471726 L14.3188408,34.8471726 C15.7578998,34.3438069 17.3908283,33.3433331 19.0204111,31.932805 C19.2931509,31.6961582 19.5599651,31.4528984 19.8206111,31.2032468 C18.5941953,29.9000175 17.3772593,28.4118219 16.2153428,26.7927697 C14.1799908,26.6293369 12.275682,26.3582372 10.5553913,25.9814952 C10.4402873,26.4388368 10.3380157,26.8992514 10.2486944,27.3622079 C9.4975659,31.2796259 10.0481333,34.2004351 11.3730638,34.9568639 C11.9955655,35.3122567 13.0255094,35.2993734 14.318655,34.8471726 Z M8.26036928,23.5136231 C8.60326499,23.6291333 8.94897652,23.7362804 9.2971906,23.8349673 C9.82768327,22.1224197 10.5269521,20.3244749 11.369718,18.5081254 C10.537733,16.7184626 9.8483156,14.9486768 9.32265574,13.2560062 C8.83646561,13.3921268 8.35440425,13.5423112 7.87709112,13.7063666 C4.07423569,15.0191664 1.7940838,16.9507286 1.7940838,18.4648746 C1.7940838,19.1765803 2.32011542,20.0535592 3.36176955,20.9369798 C4.52108375,21.9197851 6.21237763,22.820506 8.26036928,23.5136231 Z M10.2912602,9.82612588 L10.2912602,9.82594183 C10.3765949,10.2553847 10.4728477,10.6826296 10.5799271,11.1072697 C12.3182478,10.7172764 14.2091735,10.4261157 16.1844872,10.2448304 C17.3363664,8.63516455 18.5421498,7.15819581 19.7622457,5.86085592 C19.5516472,5.66153416 19.3414205,5.46883805 19.1321231,5.2847921 C15.8573439,2.40576133 12.7504116,1.25731462 11.3451822,2.06269969 C10.0260139,2.81876044 9.50184107,5.83177666 10.2912602,9.82612588 Z M28.4081237,14.2555597 C28.825365,14.968862 29.2281786,15.6903432 29.6163235,16.419572 C30.1475597,15.1883046 30.5986829,13.9872207 30.9605852,12.83859 C29.7549877,12.5660179 28.471136,12.3433223 27.1309636,12.1758405 C27.5717171,12.8599189 27.997536,13.5533195 28.4081237,14.2555597 Z M21.0200747,7.13040487 C20.1795394,8.02836505 19.343651,9.01816416 18.5276514,10.0836062 C20.1814311,10.0069654 21.8379351,10.0073339 23.4916798,10.0847104 C22.6764237,9.00932996 21.8475986,8.01805848 21.0200747,7.13040487 Z M13.5846271,14.2677067 C13.9971951,13.5594312 14.4265032,12.8608456 14.8721964,12.1725277 C13.5407601,12.3372488 12.2628565,12.554239 11.0645081,12.8198173 C11.4295704,13.9848281 11.8766043,15.1912493 12.3991043,16.4182837 C12.7773279,15.6923904 13.1726098,14.9753362 13.5846271,14.2677067 Z M14.910487,24.8840292 C14.4538711,24.1826167 14.0142093,23.4705246 13.5918763,22.74836 C13.1779859,22.0404129 12.780967,21.3229261 12.4011489,20.5964948 C11.8674963,21.8498477 11.4106109,23.0822194 11.0397865,24.2678433 C12.2377631,24.5260598 13.534998,24.7320072 14.910487,24.8840292 Z M21.0697038,29.9248637 C21.8916515,29.0287439 22.7175025,28.0223807 23.5353609,26.9217859 C22.7024465,26.9585951 21.856149,26.9775518 21,26.9775518 C20.1667139,26.9775518 19.3468109,26.9617239 18.5427074,26.9304361 C19.3711608,28.0113379 20.219317,29.0162288 21.0697038,29.9248637 Z M29.6334242,20.5326308 C29.2439675,21.2759538 28.8378498,22.0106018 28.4153729,22.7360289 C27.9997786,23.4498123 27.5698842,24.1553386 27.1259449,24.8521892 C28.5112854,24.6876522 29.8259927,24.4660608 31.0438581,24.1909121 C30.668015,23.0253492 30.1947724,21.7996031 29.6334242,20.5326308 Z M26.8610703,21.8485594 L26.8612562,21.8485594 C27.5029843,20.7480615 28.1049254,19.6252831 28.665935,18.482359 C28.0990946,17.350962 27.495233,16.2381224 26.8553081,15.1456059 C26.2189782,14.0559448 25.5440109,12.9888572 24.8316663,11.9463352 C23.5829454,11.8521037 22.3005806,11.8027794 21.0001859,11.8027794 C19.7055533,11.8027794 18.4248615,11.8517356 17.1757687,11.9452309 C16.4561453,12.9893597 15.7768333,14.0601746 15.1393015,15.1553604 L15.1393015,15.1549923 C14.5015696,16.2499448 13.9056607,17.3682624 13.3528386,18.5075733 C13.9070703,19.6465429 14.5047855,20.7642617 15.1446919,21.8583138 C15.7876034,22.9582014 16.4723058,24.0336146 17.1973305,25.0822467 C18.4217016,25.1608343 19.6930995,25.2011404 21,25.2011404 C22.3122909,25.2011404 23.600046,25.155681 24.8461647,25.067523 C25.5528606,24.0164437 26.2248508,22.9428885 26.8610703,21.8485594 Z M30.5624369,2.0098785 C29.2419675,1.25584225 26.3439608,2.31079362 23.2431624,4.9827727 C22.9139368,5.26719565 22.5918987,5.55967355 22.277346,5.85993569 C23.477739,7.1405274 24.6734851,8.62007278 25.8275948,10.247223 C27.8086707,10.431269 29.7008975,10.7275829 31.4433075,11.1256743 C31.5112788,10.8512442 31.5742394,10.5756212 31.6321585,10.2989399 C32.5158172,6.05171157 31.9687815,2.81305502 30.5624369,2.0098785 Z"/>
    <filter id="react-native-kickoff-d" width="102.4%" height="105.4%" x="-1.2%" y="-1.4%" filterUnits="objectBoundingBox">
      <feOffset dy="1" in="SourceAlpha" result="shadowOffsetOuter1"/>
      <feColorMatrix in="shadowOffsetOuter1" values="0 0 0 0 0   0 0 0 0 0   0 0 0 0 0  0 0 0 0.5 0"/>
    </filter>
    <path id="react-native-kickoff-g" d="M21.3043478,14.557377 C23.3214874,14.557377 24.9565217,16.1868077 24.9565217,18.1966311 C24.9565217,20.206635 23.3214874,21.8360656 21.3043478,21.8360656 C19.2873892,21.8360656 17.6521739,20.206635 17.6521739,18.1966311 C17.6521739,16.1868077 19.2873892,14.557377 21.3043478,14.557377"/>
    <filter id="react-native-kickoff-f" width="113.7%" height="127.5%" x="-6.8%" y="-6.9%" filterUnits="objectBoundingBox">
      <feOffset dy="1" in="SourceAlpha" result="shadowOffsetOuter1"/>
      <feColorMatrix in="shadowOffsetOuter1" values="0 0 0 0 0   0 0 0 0 0   0 0 0 0 0  0 0 0 0.5 0"/>
    </filter>
  </defs>
  <g fill="none" fill-rule="evenodd">
    <path fill="#38FFC3" fill-rule="nonzero" stroke="#FFF" stroke-width="10" d="M5,5 L5,330 L178,330 L250,330 L250,5 L5,5 Z"/>
    <g transform="translate(10 10)">
      <mask id="react-native-kickoff-b" fill="#fff">
        <use xlink:href="#react-native-kickoff-a"/>
      </mask>
      <use fill="#44C9ED" fill-rule="nonzero" xlink:href="#react-native-kickoff-a"/>
      <g mask="url(#react-native-kickoff-b)">
        <g transform="translate(28 78)">
          <path fill="#444" d="M147.996778,51.534679 C167.437377,58.1790312 180,68.5872773 180,79.3490557 C180,90.5727198 166.574643,101.546459 145.939121,108.333965 C144.848555,108.693033 143.730903,109.037866 142.591744,109.371626 C142.998017,110.994553 143.360477,112.588217 143.671157,114.148663 C147.745048,134.578405 144.607977,151.370006 134.953,156.918961 C125.60472,162.291546 110.496114,157.013869 95.1979146,143.944244 C93.5350702,142.520187 91.9125314,141.050388 90.3321886,139.536558 C89.0775195,140.741099 87.8244437,141.890276 86.5761476,142.97381 C70.7824532,156.680109 54.5633663,162.366682 44.8996265,156.834335 C35.5433801,151.475986 32.6030732,135.845427 36.3678769,116.159922 C36.7792524,114.020529 37.2507671,111.892968 37.781869,109.77973 C36.1470401,109.316417 34.5240964,108.812721 32.9145497,108.269111 C13.0644904,101.533805 0,90.4248215 0,79.3490557 C0,68.6260314 12.1706881,58.2873846 31.2273186,51.6912772 C33.3574678,50.9541583 35.5840075,50.2613298 37.8894121,49.6112098 C37.3955371,47.6496833 36.9519448,45.6760141 36.5590646,43.6921131 C32.6102427,23.6586121 35.3888368,7.64842025 44.7697782,2.25685388 C54.5530103,-3.36565533 70.8461824,2.67207646 87.101117,17.0016055 C88.1122177,17.8948867 89.1065641,18.8066874 90.0836446,19.7365382 C91.5426863,18.3381417 93.0370823,16.976568 94.5654021,15.6531207 C110.075501,2.25289938 125.432651,-3.35300093 134.822355,2.02353834 C144.615943,7.62943864 147.483758,24.6591008 143.097594,45.7982802 C142.823524,47.1115352 142.525007,48.4196442 142.202199,49.7219359 C144.148754,50.2777686 146.080893,50.8822081 147.996778,51.534679 Z M143.520597,101.087737 L143.521394,101.087737 C161.337694,95.2263763 172.311069,86.2575686 172.311069,79.3490557 C172.311069,72.8636744 162.151038,64.4461241 145.493813,58.7540156 C143.771531,58.164795 141.983926,57.6072104 140.142948,57.0773073 C137.928358,64.1914542 134.972915,71.7073784 131.38257,79.3870189 C135.144187,87.252521 138.219122,94.8665168 140.497442,102.026536 C141.526669,101.723621 142.536777,101.411216 143.520597,101.087737 Z M136.128007,115.6316 C135.846802,114.221425 135.52019,112.779614 135.153747,111.30854 C127.698224,113.019257 119.477155,114.272834 110.77493,115.039216 C105.827949,122.149409 100.759086,128.552536 95.6870364,134.060365 C97.2021987,135.507712 98.7133778,136.875969 100.213404,138.157228 C113.29542,149.334229 125.427074,153.571872 131.099772,150.311781 C133.765246,148.779808 135.920887,144.955015 136.993131,139.217825 C138.186461,132.832888 137.929154,124.665262 136.128007,115.6316 Z M61.3656641,149.74866 L61.3664607,149.74866 C67.5338561,147.585548 74.5321213,143.286215 81.5160474,137.224756 C82.6849324,136.207815 83.8284218,135.162455 84.9454761,134.089628 C79.6894086,128.489264 74.4739684,122.094046 69.4943263,115.136497 C60.7713891,114.434178 52.6100657,113.269182 45.2373914,111.650209 C44.7440886,113.615542 44.3057817,115.59408 43.9229762,117.583542 C40.7038538,134.417852 43.0634283,146.969437 48.7417019,150.220037 C51.4095665,151.747265 55.8236117,151.691902 61.3656641,149.74866 Z M35.4015826,101.045029 C36.8711357,101.541411 38.3527565,102.001854 39.8451026,102.42594 C42.1186426,95.0666145 45.1155092,87.3403109 48.7273628,79.5349172 C45.1617129,71.8442041 42.2070669,64.2389082 39.9542389,56.9649995 C37.8705669,57.5499501 35.8045896,58.1953375 33.7589619,58.9003322 C17.4610101,64.541823 7.68893059,72.8423201 7.68893059,79.3490557 C7.68893059,82.4074666 9.9433518,86.1761059 14.4075838,89.9724266 C19.3760732,94.1958334 26.6244756,98.0664988 35.4015826,101.045029 Z M44.1054011,42.2257842 L44.1054011,42.2249933 C44.471121,44.0704369 44.8836332,45.9064355 45.3425446,47.7312402 C52.7924906,46.0553227 60.8964577,44.8041187 69.3620882,44.025082 C74.298713,37.1078693 79.4663563,30.7608955 84.6953389,25.1858403 C83.7927738,24.3292954 82.8918019,23.501223 81.9948131,22.7103228 C67.9600453,10.3382717 54.6446211,5.4030547 48.6222096,8.86403379 C42.9686311,12.1130516 40.722176,25.0608781 44.1054011,42.2257842 Z M121.749102,61.2603782 C123.537279,64.3256502 125.263622,67.4260696 126.927101,70.5597823 C129.203827,65.2686602 131.137213,60.1072458 132.688222,55.1712379 C127.521376,53.9999148 122.019154,53.0429256 116.275558,52.3232065 C118.164502,55.2628948 119.98944,58.2426434 121.749102,61.2603782 Z M90.0860344,30.6414696 C86.4837402,34.5002715 82.9013613,38.7537325 79.4042203,43.3322535 C86.4918475,43.0029052 93.5911502,43.0044888 100.678628,43.3369989 C97.1846731,38.7157693 93.6325656,34.455981 90.0860344,30.6414696 Z M58.2198304,61.3125776 C59.9879791,58.268907 61.8278709,55.2668771 63.7379844,52.3089703 C58.0318292,53.0168259 52.5550992,53.9492972 47.4193206,55.0905661 C48.983873,60.0969641 50.8997327,65.2813146 53.1390182,70.554246 C54.7599766,67.4348668 56.4540419,64.3534717 58.2198304,61.3125776 Z M63.9020871,106.934071 C61.945162,103.919893 60.060897,100.859822 58.2508984,97.7564659 C56.4770824,94.7142066 54.7755729,91.6309527 53.147781,88.5092613 C50.8606985,93.8952914 48.9026182,99.1911588 47.3133707,104.286138 C52.4475562,105.395771 58.0071341,106.280788 63.9020871,106.934071 Z M90.2987307,128.596036 C93.8213635,124.745143 97.3607251,120.420501 100.865832,115.690918 C97.2961993,115.849098 93.6692099,115.930561 90,115.930561 C86.4287737,115.930561 82.9149038,115.862543 79.4687461,115.72809 C83.0192604,120.373047 86.6542159,124.691362 90.2987307,128.596036 Z M127.000389,88.234819 C125.331289,91.429099 123.590785,94.5860997 121.78017,97.7034756 C119.999051,100.770815 118.156647,103.802671 116.254049,106.797246 C122.191223,106.090181 127.825683,105.137937 133.045106,103.955541 C131.43435,98.9467707 129.406168,93.6793756 127.000389,88.234819 Z M115.118873,93.8897551 L115.119669,93.8897551 C117.869933,89.1605888 120.44968,84.3356761 122.854007,79.4241912 C120.424691,74.5622419 117.836713,69.7800396 115.094178,65.0851714 C112.367049,60.4025736 109.474332,55.816981 106.421427,51.336954 C101.069766,50.9320131 95.573917,50.7200519 90.0007966,50.7200519 C84.4523713,50.7200519 78.963692,50.9304313 73.6104374,51.3322086 C70.5263371,55.8191402 67.6149997,60.4207504 64.8827205,65.1270891 L64.8827205,65.1255073 C62.1495838,69.830844 59.5956885,74.6365873 57.2264512,79.5325445 C59.60173,84.4270355 62.1633662,89.2302058 64.9058224,93.9316728 C67.6611573,98.6582169 70.5955962,103.279587 73.7028448,107.785871 C78.9501496,108.123585 84.398998,108.296792 90,108.296792 C95.6241038,108.296792 101.143054,108.10144 106.483563,107.722599 C109.51226,103.205798 112.392218,98.5924127 115.118873,93.8897551 Z M130.981873,8.63704544 C125.322718,5.3967275 112.902689,9.9301672 99.6135531,21.4124557 C98.2025863,22.6347056 96.8224228,23.8915701 95.4743401,25.1818858 C100.618882,30.6849691 105.743508,37.0430155 110.689692,44.0353637 C119.180017,44.8262639 127.289561,46.0996131 134.757032,47.8103302 C135.048338,46.6310226 135.318169,45.4465883 135.566393,44.2576067 C139.353502,26.0060038 137.009064,12.0885337 130.981873,8.63704544 Z" opacity=".51" style="mix-blend-mode:overlay"/>
          <path fill="#FFF" d="M91,67 C97.6277445,67 103,72.3727171 103,78.9997026 C103,85.6272829 97.6277445,91 91,91 C84.3728503,91 79,85.6272829 79,78.9997026 C79,72.3727171 84.3728503,67 91,67"/>
        </g>
      </g>
      <g mask="url(#react-native-kickoff-b)">
        <g transform="translate(84 98)">
          <rect width="68" height="120" fill="#444" rx="7"/>
          <rect width="62" height="114" x="3" y="3" fill="#43A6DD" rx="5"/>
          <rect width="46" height="12" x="11" y="94" fill="#2179CB" fill-rule="nonzero" rx="2"/>
          <path fill="#FFF" stroke="#FFF" stroke-width=".5" d="M22.3160511,102 L22.3160511,98.3636364 L24.7663352,98.3636364 L24.7663352,98.9975142 L23.0848722,98.9975142 L23.0848722,99.8639915 L24.6402699,99.8639915 L24.6402699,100.497869 L23.0848722,100.497869 L23.0848722,101.366122 L24.7734375,101.366122 L24.7734375,102 L22.3160511,102 Z M29.9904546,98.3636364 L29.9904546,102 L29.3263921,102 L27.7443608,99.7112926 L27.7177273,99.7112926 L27.7177273,102 L26.9489063,102 L26.9489063,98.3636364 L27.6236222,98.3636364 L29.1932245,100.650568 L29.2251847,100.650568 L29.2251847,98.3636364 L29.9904546,98.3636364 Z M32.0558382,98.9975142 L32.0558382,98.3636364 L35.0423439,98.3636364 L35.0423439,98.9975142 L33.9290626,98.9975142 L33.9290626,102 L33.1691194,102 L33.1691194,98.9975142 L32.0558382,98.9975142 Z M37.1059519,102 L37.1059519,98.3636364 L39.556236,98.3636364 L39.556236,98.9975142 L37.8747729,98.9975142 L37.8747729,99.8639915 L39.4301706,99.8639915 L39.4301706,100.497869 L37.8747729,100.497869 L37.8747729,101.366122 L39.5633382,101.366122 L39.5633382,102 L37.1059519,102 Z M41.738807,102 L41.738807,98.3636364 L43.1734661,98.3636364 C43.5865837,98.3636364 43.9070706,98.4713531 44.1349363,98.6867898 C44.362802,98.9022265 44.4767332,99.1904575 44.4767332,99.5514915 C44.4767332,99.8000723 44.4213952,100.012546 44.3107175,100.18892 C44.2000399,100.365294 44.0411281,100.497869 43.8339775,100.586648 L44.6063496,102 L43.7576281,102 L43.0687076,100.710938 L42.5076281,100.710938 L42.5076281,102 L41.738807,102 Z M42.5076281,100.09304 L43.0296451,100.09304 C43.4664371,100.09304 43.6848298,99.9125255 43.6848298,99.5514915 C43.6848298,99.1786203 43.4652534,98.9921875 43.026094,98.9921875 L42.5076281,98.9921875 L42.5076281,100.09304 Z"/>
          <g transform="translate(36 98)">
            <path fill="url(#react-native-kickoff-c)" d="M7.96298864,4.82608696 L7.96298864,33.7826087 L5.73336173,33.7826087 C2.56947734,33.7888049 0.00616950107,36.378034 3.53775076e-05,39.573913 L3.53775076e-05,44.2391304 C-0.00738090259,47.2147806 1.151492,50.0724362 3.22343886,52.1876957 L9.9123196,60.5384348 C11.1574725,62.0895268 12.6519893,63.4180665 14.3333513,64.4684783 L14.3333513,72.3913043 C14.3333513,73.2797624 15.0463784,74 15.9259419,74 L38.2222111,74 C39.1017746,74 39.8148017,73.2797624 39.8148017,72.3913043 L39.8148017,61.9251304 C41.8629874,59.6702418 42.9995473,56.7214669 42.999983,53.6612609 L42.999983,32.173913 C43.0050272,30.2598764 41.8857486,28.5250932 40.1501597,27.7569379 C38.4145709,26.9887826 36.3932348,27.3335593 35.0035854,28.6347826 C34.8281183,26.0471748 32.6550175,24.0649637 30.0887478,24.1516745 C27.5224781,24.2383854 25.4853721,26.3628538 25.4814858,28.9565217 C25.4898422,27.0492289 24.3806378,25.3174943 22.6548788,24.5435088 C20.9291198,23.7695233 18.913538,24.0998228 17.5185326,25.3852174 L17.5185326,4.82608696 C17.5185326,2.16071273 15.3794512,3.57202191e-16 12.7407606,0 C10.10207,-3.57202191e-16 7.96298864,2.16071273 7.96298864,4.82608696 Z"/>
            <path fill="#E2AC4B" d="M5,34.099125 L5,45.375 C5,46.2724627 5.67157288,47 6.5,47 C7.32842712,47 8,46.2724627 8,45.375 L8,34 L5.9,34 C5.59793523,34.0050959 5.29683098,34.0382592 5,34.099125 Z"/>
          </g>
          <g transform="translate(14 42)">
            <use fill="#000" filter="url(#react-native-kickoff-d)" xlink:href="#react-native-kickoff-e"/>
            <use fill="#FFF" xlink:href="#react-native-kickoff-e"/>
            <g>
              <use fill="#000" filter="url(#react-native-kickoff-f)" xlink:href="#react-native-kickoff-g"/>
              <use fill="#FFF" xlink:href="#react-native-kickoff-g"/>
            </g>
          </g>
          <path fill="#444" fill-rule="nonzero" d="M20,1 L46,1 L46,3 C46,4.1045695 45.1045695,5 44,5 L22,5 C20.8954305,5 20,4.1045695 20,3 L20,1 Z"/>
        </g>
      </g>
    </g>
  </g>
</svg>
