<svg xmlns="http://www.w3.org/2000/svg" xmlns:xlink="http://www.w3.org/1999/xlink" width="255" height="335" viewBox="0 0 255 335">
  <defs>
    <polygon id="react-kickoff-a" points="0 0 0 315 163.974 315 235 315 235 246.741 235 0"/>
  </defs>
  <g fill="none" fill-rule="evenodd">
    <path fill="#38FFC3" fill-rule="nonzero" stroke="#FFF" stroke-width="10" d="M5,5 L5,330 L178,330 L250,330 L250,5 L5,5 Z"/>
    <g transform="translate(10 10)">
      <mask id="react-kickoff-b" fill="#fff">
        <use xlink:href="#react-kickoff-a"/>
      </mask>
      <use fill="#44C9ED" fill-rule="nonzero" xlink:href="#react-kickoff-a"/>
      <g fill="#FFF" mask="url(#react-kickoff-b)">
        <g transform="translate(85 127)">
          <path d="M56.7320983,19.7711662 C64.1843279,22.3202573 69,26.313358 69,30.4420906 C69,34.7480246 63.8536131,38.9580757 55.9433297,41.5620871 C55.5252793,41.699843 55.0968463,41.8321372 54.6601684,41.9601834 C54.8159066,42.5828158 54.9548496,43.1942215 55.0739436,43.7928831 C56.6356016,51.6307087 55.4330578,58.0727695 51.7319832,60.2016141 C48.1484758,62.2627944 42.3568438,60.2380253 36.4925339,55.2238924 C35.8551102,54.6775561 35.233137,54.1136707 34.627339,53.5328932 C34.1463825,53.9950126 33.6660368,54.4358922 33.1875232,54.8515874 C27.1332737,60.1099791 20.9159571,62.29162 17.2115235,60.1691474 C13.6249624,58.1134287 12.4978447,52.1167989 13.9410195,44.5644983 C14.0987134,43.743725 14.2794607,42.9274909 14.4830498,42.1167518 C13.8563654,41.9390026 13.234237,41.7457607 12.6172441,41.537206 C5.00805467,38.9532208 0,34.6912837 0,30.4420906 C0,26.3282259 4.66543044,22.3618268 11.9704721,19.8312447 C12.7870293,19.5484507 13.6405362,19.2826485 14.5242746,19.0332314 C14.3349559,18.2806961 14.1649122,17.5235023 14.0143081,16.762383 C12.500593,9.07657446 13.5657208,2.93429959 17.1617483,0.865837024 C20.9119873,-1.29122626 27.1577033,1.02513625 33.3887615,6.52262852 C33.7763501,6.8653339 34.1575163,7.21514422 34.5320638,7.57187945 C35.0913631,7.03538769 35.6642149,6.51302296 36.2500708,6.00528531 C42.1956089,0.864319888 48.0825161,-1.28637142 51.6819027,0.776326028 C55.4361115,2.92701734 56.5354405,9.46040974 54.8540778,17.5704094 C54.7490174,18.0742368 54.6345862,18.5760899 54.5108428,19.0757112 C55.2570222,19.2889553 55.9976758,19.5208472 56.7320983,19.7711662 Z M55.0162288,38.7820879 L55.0165342,38.7820879 C61.8461161,36.5333897 66.0525766,33.0925263 66.0525766,30.4420906 C66.0525766,27.9539883 62.157898,24.7246136 55.7726283,22.5408488 C55.1124201,22.3147956 54.4271717,22.1008795 53.7214635,21.8975833 C52.8725371,24.6269101 51.7396174,27.5103779 50.3633185,30.4566551 C51.8052718,33.4742376 52.9839969,36.3953303 53.8573528,39.1422559 C54.2518897,39.0260433 54.6390979,38.9061896 55.0162288,38.7820879 Z M52.1824028,44.361809 C52.0746074,43.8207984 51.9494061,43.2676508 51.8089363,42.7032764 C48.950986,43.3595892 45.799576,43.8405212 42.463723,44.134542 C40.5673804,46.8623517 38.6243162,49.3188975 36.6800306,51.4319639 C37.2608428,51.9872355 37.8401282,52.5121644 38.4151383,53.0037163 C43.4299111,57.2917481 48.0803785,58.9175106 50.2549125,57.666784 C51.2766778,57.0790457 52.1030068,55.6116723 52.5140337,53.410612 C52.9714767,50.961045 52.8728425,47.8275533 52.1824028,44.361809 Z M23.5235046,57.4507439 L23.5238099,57.4507439 C25.8879782,56.6208708 28.5706465,54.9714411 31.2478182,52.6459757 C31.6958908,52.2558283 32.1342284,51.8547785 32.5624325,51.4431907 C30.5476066,49.2946234 28.5483545,46.8411118 26.6394918,44.1718636 C23.2956992,43.9024203 20.1671918,43.4554722 17.341,42.8343569 C17.1519006,43.5883526 16.983883,44.3474145 16.8371409,45.110667 C15.603144,51.569113 16.5076475,56.3845011 18.6843191,57.6315865 C19.7070005,58.2175042 21.3990511,58.1962643 23.5235046,57.4507439 Z M13.5706067,38.7657029 C14.1339353,38.9561387 14.70189,39.1327866 15.273956,39.2954866 C16.1454797,36.4720974 17.2942785,33.507918 18.6788224,30.5133959 C17.3119899,27.5628708 16.1793756,24.6451157 15.3157916,21.8544967 C14.5170506,22.0789117 13.7250927,22.3265131 12.9409354,22.5969828 C6.69338721,24.7613283 2.94742339,27.9457958 2.94742339,30.4420906 C2.94742339,31.6154432 3.81161819,33.0612733 5.52290711,34.5177234 C7.42749473,36.1380242 10.206049,37.6229964 13.5706067,38.7657029 Z M16.9070704,16.1998291 L16.9070704,16.1995257 C17.0472631,16.9075261 17.2053927,17.6119029 17.3813088,18.3119852 C20.2371214,17.6690232 23.3436421,17.1890015 26.5888005,16.8901258 C28.4811733,14.2363524 30.4621032,11.8013499 32.4665466,9.66249219 C32.1205633,9.33388064 31.7751907,9.01619246 31.431345,8.71276536 C26.0513507,3.96625517 20.9471047,2.07287004 18.6385137,3.40066705 C16.4713086,4.64714559 15.6101675,9.61455071 16.9070704,16.1998291 Z M46.6704889,23.5024093 C47.3559568,24.6783941 48.017722,25.8678632 48.6553887,27.0701051 C49.5281338,25.0401778 50.2692648,23.0600125 50.8638186,21.166324 C48.8831941,20.7169484 46.7740091,20.3498017 44.5722973,20.073683 C45.2963924,21.201488 45.995952,22.3446619 46.6704889,23.5024093 Z M34.5329799,11.7555324 C33.1521004,13.2359532 31.7788552,14.8677842 30.4382844,16.6243237 C33.1552082,16.4979699 35.8766076,16.4985775 38.593474,16.6261442 C37.2541247,14.8532197 35.8924835,13.2189613 34.5329799,11.7555324 Z M22.3176017,23.5224354 C22.995392,22.3547379 23.7006838,21.2030158 24.432894,20.0682213 C22.2455345,20.3397886 20.1461214,20.6975291 18.1774062,21.1353744 C18.7771513,23.056068 19.5115642,25.0450327 20.369957,27.0679812 C20.9913244,25.8712382 21.6407161,24.6890678 22.3176017,23.5224354 Z M24.4958001,41.0250211 C23.7456454,39.8686383 23.0233439,38.6946487 22.3295111,37.504053 C21.6495483,36.3368969 20.9973029,35.1540133 20.373316,33.9563833 C19.4966011,36.0227219 18.7460036,38.0544697 18.1367921,40.0091471 C20.1048965,40.4348554 22.2360681,40.7743903 24.4958001,41.0250211 Z M34.6145134,49.335586 C35.964856,47.8581995 37.3216113,46.1990601 38.6652357,44.384566 C37.2968764,44.4452514 35.9065305,44.4765044 34.5,44.4765044 C33.1310299,44.4765044 31.7840465,44.4504097 30.4630193,44.3988271 C31.8240498,46.1808544 33.2174494,47.8375664 34.6145134,49.335586 Z M48.6834826,33.8510941 C48.0436609,35.0765726 47.3764675,36.2877489 46.6823983,37.4837234 C45.9996363,38.6605013 45.2933812,39.8236664 44.5640523,40.9725282 C46.8399688,40.7012644 48.9998451,40.3359381 51.000624,39.8823146 C50.3831675,37.9607108 49.6056976,35.9398863 48.6834826,33.8510941 Z M44.1289012,36.0205979 L44.1292066,36.0205979 C45.1834743,34.2062636 46.1723775,32.3551965 47.094036,30.4709161 C46.1627983,28.60564 45.1707399,26.7709586 44.1194348,24.9697827 C43.0740355,23.1733144 41.9651608,21.4140619 40.7948804,19.6953094 C38.7434102,19.5399547 36.6366682,19.4586362 34.5003054,19.4586362 C32.373409,19.4586362 30.2694153,19.5393479 28.2173343,19.6934888 C27.0350959,21.4148903 25.9190832,23.1802879 24.8717095,24.9858644 L24.8717095,24.9852575 C23.8240071,26.7904496 22.8450139,28.6341624 21.9368063,30.5124856 C22.8473298,32.3902463 23.8292904,34.2329721 24.8805652,36.0366795 C25.936777,37.8500077 27.0616452,39.6229863 28.2527572,41.3518121 C30.264224,41.4813755 32.3529492,41.547826 34.5,41.547826 C36.6559065,41.547826 38.7715042,41.4728795 40.8186992,41.3275379 C41.9796995,39.5946774 43.0836835,37.8247621 44.1289012,36.0205979 Z M50.2097178,3.31358347 C48.0403751,2.07044263 43.2793641,3.80968679 38.1851953,8.21484148 C37.6443248,8.68375498 37.1152621,9.16594828 36.5984971,9.66097506 C38.5705713,11.7722208 40.5350112,14.2114713 42.4310485,16.8940704 C45.6856733,17.1974975 48.7943316,17.6860151 51.6568624,18.3423279 C51.7685294,17.8898892 51.8719647,17.4354836 51.9671175,16.9793334 C53.4188426,9.9771461 52.5201411,4.63773935 50.2097178,3.31358347 Z"/>
          <path d="M35,24 C38.3138722,24 41,26.6863586 41,29.9998513 C41,33.3136414 38.3138722,36 35,36 C31.6864251,36 29,33.3136414 29,29.9998513 C29,26.6863586 31.6864251,24 35,24"/>
        </g>
      </g>
    </g>
  </g>
</svg>
