<svg xmlns="http://www.w3.org/2000/svg" xmlns:xlink="http://www.w3.org/1999/xlink" width="255" height="335" viewBox="0 0 255 335">
  <defs>
    <radialGradient id="universal-react-b" cx="70.482%" cy="78.57%" r="85.529%" fx="70.482%" fy="78.57%" gradientTransform="matrix(0 .74603 -1 0 1.49 .26)">
      <stop offset="0%" stop-color="#79D5F7"/>
      <stop offset="100%" stop-color="#44C9ED"/>
    </radialGradient>
    <polygon id="universal-react-a" points="0 0 0 315 163.974 315 177.186 315 235 256.357 235 246.741 235 0"/>
    <path id="universal-react-e" d="M56.7320983,19.7711662 C64.1843279,22.3202573 69,26.313358 69,30.4420906 C69,34.7480246 63.8536131,38.9580757 55.9433297,41.5620871 C55.5252793,41.699843 55.0968463,41.8321372 54.6601684,41.9601834 C54.8159066,42.5828158 54.9548496,43.1942215 55.0739436,43.7928831 C56.6356016,51.6307087 55.4330578,58.0727695 51.7319832,60.2016141 C48.1484758,62.2627944 42.3568438,60.2380253 36.4925339,55.2238924 C35.8551102,54.6775561 35.233137,54.1136707 34.627339,53.5328932 C34.1463825,53.9950126 33.6660368,54.4358922 33.1875232,54.8515874 C27.1332737,60.1099791 20.9159571,62.29162 17.2115235,60.1691474 C13.6249624,58.1134287 12.4978447,52.1167989 13.9410195,44.5644983 C14.0987134,43.743725 14.2794607,42.9274909 14.4830498,42.1167518 C13.8563654,41.9390026 13.234237,41.7457607 12.6172441,41.537206 C5.00805467,38.9532208 0,34.6912837 0,30.4420906 C0,26.3282259 4.66543044,22.3618268 11.9704721,19.8312447 C12.7870293,19.5484507 13.6405362,19.2826485 14.5242746,19.0332314 C14.3349559,18.2806961 14.1649122,17.5235023 14.0143081,16.762383 C12.500593,9.07657446 13.5657208,2.93429959 17.1617483,0.865837024 C20.9119873,-1.29122626 27.1577033,1.02513625 33.3887615,6.52262852 C33.7763501,6.8653339 34.1575163,7.21514422 34.5320638,7.57187945 C35.0913631,7.03538769 35.6642149,6.51302296 36.2500708,6.00528531 C42.1956089,0.864319888 48.0825161,-1.28637142 51.6819027,0.776326028 C55.4361115,2.92701734 56.5354405,9.46040974 54.8540778,17.5704094 C54.7490174,18.0742368 54.6345862,18.5760899 54.5108428,19.0757112 C55.2570222,19.2889553 55.9976758,19.5208472 56.7320983,19.7711662 Z M55.0162288,38.7820879 L55.0165342,38.7820879 C61.8461161,36.5333897 66.0525766,33.0925263 66.0525766,30.4420906 C66.0525766,27.9539883 62.157898,24.7246136 55.7726283,22.5408488 C55.1124201,22.3147956 54.4271717,22.1008795 53.7214635,21.8975833 C52.8725371,24.6269101 51.7396174,27.5103779 50.3633185,30.4566551 C51.8052718,33.4742376 52.9839969,36.3953303 53.8573528,39.1422559 C54.2518897,39.0260433 54.6390979,38.9061896 55.0162288,38.7820879 Z M52.1824028,44.361809 C52.0746074,43.8207984 51.9494061,43.2676508 51.8089363,42.7032764 C48.950986,43.3595892 45.799576,43.8405212 42.463723,44.134542 C40.5673804,46.8623517 38.6243162,49.3188975 36.6800306,51.4319639 C37.2608428,51.9872355 37.8401282,52.5121644 38.4151383,53.0037163 C43.4299111,57.2917481 48.0803785,58.9175106 50.2549125,57.666784 C51.2766778,57.0790457 52.1030068,55.6116723 52.5140337,53.410612 C52.9714767,50.961045 52.8728425,47.8275533 52.1824028,44.361809 Z M23.5235046,57.4507439 L23.5238099,57.4507439 C25.8879782,56.6208708 28.5706465,54.9714411 31.2478182,52.6459757 C31.6958908,52.2558283 32.1342284,51.8547785 32.5624325,51.4431907 C30.5476066,49.2946234 28.5483545,46.8411118 26.6394918,44.1718636 C23.2956992,43.9024203 20.1671918,43.4554722 17.341,42.8343569 C17.1519006,43.5883526 16.983883,44.3474145 16.8371409,45.110667 C15.603144,51.569113 16.5076475,56.3845011 18.6843191,57.6315865 C19.7070005,58.2175042 21.3990511,58.1962643 23.5235046,57.4507439 Z M13.5706067,38.7657029 C14.1339353,38.9561387 14.70189,39.1327866 15.273956,39.2954866 C16.1454797,36.4720974 17.2942785,33.507918 18.6788224,30.5133959 C17.3119899,27.5628708 16.1793756,24.6451157 15.3157916,21.8544967 C14.5170506,22.0789117 13.7250927,22.3265131 12.9409354,22.5969828 C6.69338721,24.7613283 2.94742339,27.9457958 2.94742339,30.4420906 C2.94742339,31.6154432 3.81161819,33.0612733 5.52290711,34.5177234 C7.42749473,36.1380242 10.206049,37.6229964 13.5706067,38.7657029 Z M16.9070704,16.1998291 L16.9070704,16.1995257 C17.0472631,16.9075261 17.2053927,17.6119029 17.3813088,18.3119852 C20.2371214,17.6690232 23.3436421,17.1890015 26.5888005,16.8901258 C28.4811733,14.2363524 30.4621032,11.8013499 32.4665466,9.66249219 C32.1205633,9.33388064 31.7751907,9.01619246 31.431345,8.71276536 C26.0513507,3.96625517 20.9471047,2.07287004 18.6385137,3.40066705 C16.4713086,4.64714559 15.6101675,9.61455071 16.9070704,16.1998291 Z M46.6704889,23.5024093 C47.3559568,24.6783941 48.017722,25.8678632 48.6553887,27.0701051 C49.5281338,25.0401778 50.2692648,23.0600125 50.8638186,21.166324 C48.8831941,20.7169484 46.7740091,20.3498017 44.5722973,20.073683 C45.2963924,21.201488 45.995952,22.3446619 46.6704889,23.5024093 Z M34.5329799,11.7555324 C33.1521004,13.2359532 31.7788552,14.8677842 30.4382844,16.6243237 C33.1552082,16.4979699 35.8766076,16.4985775 38.593474,16.6261442 C37.2541247,14.8532197 35.8924835,13.2189613 34.5329799,11.7555324 Z M22.3176017,23.5224354 C22.995392,22.3547379 23.7006838,21.2030158 24.432894,20.0682213 C22.2455345,20.3397886 20.1461214,20.6975291 18.1774062,21.1353744 C18.7771513,23.056068 19.5115642,25.0450327 20.369957,27.0679812 C20.9913244,25.8712382 21.6407161,24.6890678 22.3176017,23.5224354 Z M24.4958001,41.0250211 C23.7456454,39.8686383 23.0233439,38.6946487 22.3295111,37.504053 C21.6495483,36.3368969 20.9973029,35.1540133 20.373316,33.9563833 C19.4966011,36.0227219 18.7460036,38.0544697 18.1367921,40.0091471 C20.1048965,40.4348554 22.2360681,40.7743903 24.4958001,41.0250211 Z M34.6145134,49.335586 C35.964856,47.8581995 37.3216113,46.1990601 38.6652357,44.384566 C37.2968764,44.4452514 35.9065305,44.4765044 34.5,44.4765044 C33.1310299,44.4765044 31.7840465,44.4504097 30.4630193,44.3988271 C31.8240498,46.1808544 33.2174494,47.8375664 34.6145134,49.335586 Z M48.6834826,33.8510941 C48.0436609,35.0765726 47.3764675,36.2877489 46.6823983,37.4837234 C45.9996363,38.6605013 45.2933812,39.8236664 44.5640523,40.9725282 C46.8399688,40.7012644 48.9998451,40.3359381 51.000624,39.8823146 C50.3831675,37.9607108 49.6056976,35.9398863 48.6834826,33.8510941 Z M44.1289012,36.0205979 L44.1292066,36.0205979 C45.1834743,34.2062636 46.1723775,32.3551965 47.094036,30.4709161 C46.1627983,28.60564 45.1707399,26.7709586 44.1194348,24.9697827 C43.0740355,23.1733144 41.9651608,21.4140619 40.7948804,19.6953094 C38.7434102,19.5399547 36.6366682,19.4586362 34.5003054,19.4586362 C32.373409,19.4586362 30.2694153,19.5393479 28.2173343,19.6934888 C27.0350959,21.4148903 25.9190832,23.1802879 24.8717095,24.9858644 L24.8717095,24.9852575 C23.8240071,26.7904496 22.8450139,28.6341624 21.9368063,30.5124856 C22.8473298,32.3902463 23.8292904,34.2329721 24.8805652,36.0366795 C25.936777,37.8500077 27.0616452,39.6229863 28.2527572,41.3518121 C30.264224,41.4813755 32.3529492,41.547826 34.5,41.547826 C36.6559065,41.547826 38.7715042,41.4728795 40.8186992,41.3275379 C41.9796995,39.5946774 43.0836835,37.8247621 44.1289012,36.0205979 Z M50.2097178,3.31358347 C48.0403751,2.07044263 43.2793641,3.80968679 38.1851953,8.21484148 C37.6443248,8.68375498 37.1152621,9.16594828 36.5984971,9.66097506 C38.5705713,11.7722208 40.5350112,14.2114713 42.4310485,16.8940704 C45.6856733,17.1974975 48.7943316,17.6860151 51.6568624,18.3423279 C51.7685294,17.8898892 51.8719647,17.4354836 51.9671175,16.9793334 C53.4188426,9.9771461 52.5201411,4.63773935 50.2097178,3.31358347 Z"/>
    <filter id="universal-react-d" width="101.4%" height="103.3%" x="-.7%" y="-.8%" filterUnits="objectBoundingBox">
      <feOffset dy="1" in="SourceAlpha" result="shadowOffsetOuter1"/>
      <feColorMatrix in="shadowOffsetOuter1" values="0 0 0 0 0   0 0 0 0 0   0 0 0 0 0  0 0 0 0.5 0"/>
    </filter>
    <filter id="universal-react-f" width="101.4%" height="103.3%" x="-.7%" y="-.8%" filterUnits="objectBoundingBox">
      <feOffset dx="1" dy="1" in="SourceAlpha" result="shadowOffsetInner1"/>
      <feComposite in="shadowOffsetInner1" in2="SourceAlpha" k2="-1" k3="1" operator="arithmetic" result="shadowInnerInner1"/>
      <feColorMatrix in="shadowInnerInner1" values="0 0 0 0 1   0 0 0 0 1   0 0 0 0 1  0 0 0 1 0"/>
    </filter>
    <path id="universal-react-h" d="M35,24 C38.3138722,24 41,26.6863586 41,29.9998513 C41,33.3136414 38.3138722,36 35,36 C31.6864251,36 29,33.3136414 29,29.9998513 C29,26.6863586 31.6864251,24 35,24"/>
    <filter id="universal-react-g" width="108.3%" height="116.7%" x="-4.2%" y="-4.2%" filterUnits="objectBoundingBox">
      <feOffset dy="1" in="SourceAlpha" result="shadowOffsetOuter1"/>
      <feColorMatrix in="shadowOffsetOuter1" values="0 0 0 0 0   0 0 0 0 0   0 0 0 0 0  0 0 0 0.5 0"/>
    </filter>
    <filter id="universal-react-i" width="108.3%" height="116.7%" x="-4.2%" y="-4.2%" filterUnits="objectBoundingBox">
      <feOffset dx="1" dy="1" in="SourceAlpha" result="shadowOffsetInner1"/>
      <feComposite in="shadowOffsetInner1" in2="SourceAlpha" k2="-1" k3="1" operator="arithmetic" result="shadowInnerInner1"/>
      <feColorMatrix in="shadowInnerInner1" values="0 0 0 0 1   0 0 0 0 1   0 0 0 0 1  0 0 0 1 0"/>
    </filter>
    <linearGradient id="universal-react-l" x1="0%" x2="62.3%" y1="0%" y2="59.659%">
      <stop offset="0%" stop-color="#29BEFB"/>
      <stop offset="71.189%" stop-color="#17AEF4"/>
      <stop offset="100%" stop-color="#228CCB"/>
    </linearGradient>
    <path id="universal-react-k" d="M179.082353,258.929851 L227.897413,258.929851 C232.690877,258.553622 235.087609,255.910338 235.087609,251 C235.087609,251 235.844472,258.929851 234.19796,260.773084 C222.942634,273.319441 204.570765,291.333886 179.082353,314.816418 C170,314.816418 167.729412,314.816418 172.270588,314.816418 C176.811765,314.816418 179.082353,313.020057 179.082353,309.427335 L179.082353,258.929851 Z"/>
    <filter id="universal-react-j" width="230.2%" height="217.5%" x="-99.6%" y="-86.2%" filterUnits="objectBoundingBox">
      <feMorphology in="SourceAlpha" radius="7.5" result="shadowSpreadOuter1"/>
      <feOffset dy="10" in="shadowSpreadOuter1" result="shadowOffsetOuter1"/>
      <feGaussianBlur in="shadowOffsetOuter1" result="shadowBlurOuter1" stdDeviation="22.5"/>
      <feColorMatrix in="shadowBlurOuter1" values="0 0 0 0 0   0 0 0 0 0   0 0 0 0 0  0 0 0 0.204030797 0"/>
    </filter>
  </defs>
  <g fill="none" fill-rule="evenodd">
    <path fill="#187EB3" fill-rule="nonzero" stroke="#FFF" stroke-width="10" d="M5,5 L5,330 L178,330 L250,330 L250,5 L5,5 Z"/>
    <g transform="translate(10 10)">
      <mask id="universal-react-c" fill="#fff">
        <use xlink:href="#universal-react-a"/>
      </mask>
      <use fill="url(#universal-react-b)" fill-rule="nonzero" xlink:href="#universal-react-a"/>
      <path stroke="#FFF" stroke-dasharray="5 10" d="M42.4185843,-46.5 C95.1395281,-10.5 101.666667,38.6666667 62,101 C2.5,194.5 -29.5,219 -58,225" mask="url(#universal-react-c)"/>
      <path stroke="#73DDFC" stroke-width="3" d="M187.5,-53 C135,-29.3333333 99.75,0.333333333 81.75,36 C54.75,89.5 16.5,149.5 -24,194.5" mask="url(#universal-react-c)" opacity=".5"/>
      <g mask="url(#universal-react-c)">
        <g transform="translate(55 199)">
          <circle cx="106.5" cy="103.5" r="102.5" fill="#73DDFC" fill-rule="nonzero"/>
          <path fill="#1BA1E4" fill-rule="nonzero" d="M187.657258,36.8309133 C170.430256,16.6511828 146.190313,3.76121056 119.82813,0.752344833 C118.540919,0.601875866 117.412523,0.259134816 116.275654,0 L97.7446652,0 C92.9718688,0.877749905 88.1823821,1.63009474 83.4515256,2.67502287 C61.9616383,7.52344833 42.4852911,18.8922955 27.6907993,35.2268412 C12.9044388,51.5528268 3.51761831,72.0586961 0.810786937,93.9275431 C0.610181845,95.2065464 0.342708389,96.4688148 0,97.7143055 L0,116.247292 C0.919445354,121.146008 1.6717091,126.069548 2.75840025,130.909841 C10.3144184,163.979544 33.1177074,191.506599 64.2195208,205.082876 C95.3127751,218.650164 130.995874,216.643896 160.383717,199.691099 C189.763002,182.729742 209.357037,152.828979 213.167999,119.11513 C216.962698,89.2875554 207.659758,59.2780788 187.657451,36.8335669 L187.657258,36.8309133 Z M69.7357008,148.413607 C71.3154632,151.197343 76.3724661,153.337361 79.2810795,152.133601 C80.1002116,151.531721 80.8190519,150.812803 81.4208671,149.993583 C82.189864,149.20779 83.2513913,148.764742 84.35473,148.773109 C83.2597579,151.255958 82.2149423,153.713555 80.827504,156.714503 L80.8191439,156.714503 C82.4072729,157.433421 84.0705512,157.960058 85.7840932,158.277722 L81.7636461,158.645527 C79.6238585,158.327863 77.9772919,156.079217 76.071383,154.708321 L76.071383,154.69996 C75.1937277,153.746989 74.0987556,153.011358 72.8783919,152.559942 C66.8685843,152.284072 63.7842944,147.552727 59.7638474,144.259025 C59.0867972,143.774183 58.6187187,143.055265 58.4348467,142.24439 C58.8193452,135.264293 54.3726738,129.830572 52.7175481,123.544269 L52.7259061,123.544269 C52.4584327,122.273633 52.2829059,120.986305 52.1909592,119.690524 C52.2494696,118.888017 52.1073727,118.093877 51.7813824,117.358332 C48.2038715,115.218313 49.0816124,110.938277 46.8831945,108.096118 C46.6407994,107.828616 46.4986961,107.485871 46.4736178,107.126433 C46.7745147,100.706378 45.9135926,93.8600319 52.2743681,89.1284515 L56.2781248,91.6530311 L54.4141772,88.0334041 C55.1831527,86.6206497 56.0190179,85.2329762 56.7210822,83.7533675 L56.7294424,83.7617264 C57.4566278,82.4075015 57.3730477,80.7524327 56.5121255,79.4816899 C55.5007335,77.4587092 55.5007335,75.0845943 56.5121255,73.061635 C59.6800812,69.0991771 58.3510162,63.5569577 62.9314885,59.2769211 L59.4042625,60.0041849 L60.8837331,57.329162 L59.830551,57.329162 C59.7971147,55.105469 59.5714441,52.88199 59.1451556,50.7000274 C58.4681054,49.6300182 57.4818131,48.7940843 56.319994,48.3008528 C55.5175736,48.066799 54.7485982,47.7240537 54.0297793,47.2977193 C54.0966477,46.3112992 54.4142777,45.3583277 54.9492246,44.5306756 C55.517595,43.5609905 56.1277769,42.616365 56.788094,41.7052095 C60.6581139,44.572406 63.3996098,41.4711342 66.5258396,39.5651912 C67.6709683,38.8964354 68.9998621,38.6289331 70.3121938,38.7961114 C71.0226675,39.5986182 71.4155111,40.6184654 71.4238777,41.6885601 C71.8752445,44.7064139 72.1259848,47.7910363 72.3266113,49.5631854 C75.4526271,52.430382 79.8826294,54.7210575 79.8409036,56.8861141 L79.8325456,56.8777551 C79.740601,58.1818395 80.1835991,59.4691033 81.0612544,60.4306135 C81.9389097,61.4002986 83.1759638,61.9687517 84.4799932,61.9938327 C88.1409558,61.5424172 89.2945154,65.4797085 92.4205311,65.6971343 C93.4068448,64.9447895 94.4098703,64.2175043 95.6051771,63.3649424 C96.758651,66.5332395 98.4303387,68.9908365 94.1507848,70.6208884 C92.5877341,71.4401089 91.2252671,72.585361 90.1470282,73.9813592 C88.157689,76.1213775 86.4691611,78.4118391 88.5171091,81.5381918 L88.5254671,81.5381918 C88.700996,82.1149909 88.700996,82.7335846 88.5254671,83.3104051 C91.6181022,84.9906619 94.5603102,86.921686 97.3354008,89.0867425 C98.5975332,90.2236273 98.4303729,92.7900442 99.2578716,94.5455012 L99.2662296,94.5455012 C100.260889,96.0083963 101.422708,97.3542752 102.710004,98.5663816 C103.244951,95.2309491 103.587659,92.8484667 104.039005,90.4745444 C104.164383,89.8308697 104.76619,89.2958651 104.95845,88.6521904 L104.95845,88.6605515 C105.48503,87.0722513 105.88624,85.450524 106.153714,83.8037799 C106.304169,82.8006464 105.702347,81.6637616 105.836084,80.7024654 C106.111924,79.3231594 106.479689,77.960674 106.947768,76.6315086 C108.452295,77.5677666 109.78962,78.7464459 110.901453,80.1257305 C113.041241,83.9375311 113.701579,84.2553238 116.719108,81.9230035 C119.903754,85.0662623 123.138471,88.2176533 126.281391,91.4443729 L126.289749,91.4443729 C124.74341,93.7431805 122.152256,95.1393285 119.377165,95.1643667 C117.212342,95.5990472 115.248017,96.7526669 113.818639,98.4411627 C112.080061,100.44743 110.500256,102.595794 109.104473,104.861218 L109.76479,105.630297 L118.32394,102.545675 C115.54885,106.039897 113.409062,108.924 110.859719,111.599022 C109.697878,112.694113 108.394042,113.630371 106.989699,114.382758 C105.00036,115.645027 102.944216,116.823663 100.996582,118.002385 C104.849911,121.722379 104.849911,121.722379 101.615109,124.42244 L94.5771332,133.241669 C90.8325048,132.046277 86.770332,128.660746 81.4375532,130.566647 C80.8608162,130.700398 80.259001,130.700398 79.682264,130.566647 C73.2629011,129.454843 72.0425802,130.566647 69.3678456,136.643871 L69.3762036,136.643871 C67.5038894,140.37221 67.6376262,144.80269 69.7356238,148.413971 L69.7357008,148.413607 Z M134.4386,54.6551257 C131.763865,57.9738661 134.973547,62.9560427 130.526854,64.0930344 L129.18112,71.4576934 C127.200147,69.5935448 125.361171,67.5956024 123.681224,65.4639301 C123.41375,64.7868069 123.28838,64.0511757 123.313437,63.3239118 C122.995807,61.7606927 123.162984,59.7042849 122.218465,58.7010443 C118.816631,55.1231477 115.030062,51.8713899 110.725452,48.0009528 L114.862945,40.6613321 L121.282308,41.7564222 L121.282308,40.9873425 C123.422096,42.6174372 125.754036,44.1973699 127.893824,45.8860583 C130.033611,47.5746612 128.403692,48.7115245 127.442457,49.3302038 L134.4386,54.6551257 Z M172.954777,174.070287 C169.987534,179.144484 166.736126,184.03464 163.200341,188.732836 C161.060554,191.432897 157.382687,193.012873 154.423788,195.152891 L154.432146,195.152891 C151.030312,197.87799 147.452801,200.377532 143.733208,202.642955 L116.232657,204.415147 C116.767604,202.400512 116.918053,200.58644 114.243318,199.558375 C104.505572,195.897018 104.530608,195.838382 97.5762981,187.66287 L100.142331,184.043243 L98.0025438,182.505105 C99.2395978,181.518685 100.535196,180.607508 101.872564,179.763313 C105.249363,177.88243 103.218298,174.095689 104.848152,171.520819 C106.478071,168.954509 107.547923,166.705778 110.85796,166.705778 L112.228751,170.08294 L112.228751,170.091302 C112.964303,170.08294 113.691488,169.94083 114.368538,169.664967 C116.917881,167.884408 120.002171,167.023328 123.103152,167.224062 C124.733071,167.073591 126.371249,167.073591 128.00134,167.224062 C130.592408,167.88445 132.982979,169.196902 135.557358,169.899085 C137.49654,170.358847 139.485794,170.592922 141.4835,170.601268 C143.00476,170.601268 144.542754,170.024469 146.038893,170.133139 C149.357276,170.350479 150.101066,171.888617 148.780389,174.98991 C148.245442,176.55313 147.802442,178.149861 147.451389,179.763221 C150.686106,178.308672 153.034951,177.06316 155.517318,176.168632 C157.055291,175.968006 158.609953,175.968006 160.139687,176.168632 L172.719285,172.590736 C172.886456,173.075578 172.995125,173.568788 173.04526,174.070366 L172.954777,174.070287 Z M184.146937,41.3891523 L183.37794,41.7987732 L179.098364,67.4789928 C173.966298,65.5730497 174.008024,60.7997817 172.679001,56.9963271 C171.199531,52.7162905 170.706374,48.2021359 169.636437,43.8133864 L169.644795,43.8050275 C169.352244,42.5678401 168.750428,41.4225451 167.906218,40.469595 C165.164722,37.4769934 162.322656,34.5177761 159.347067,31.7590785 C158.151803,31.0819553 156.847795,30.6305613 155.502083,30.4131996 C156.03703,32.5532179 156.379738,33.9910962 156.939763,36.3232881 L156.931405,36.3149292 C155.493725,35.0860879 153.939126,33.9910834 152.292346,33.0631714 C151.063637,32.8207501 149.801419,32.7705881 148.564408,32.9377792 C148.865305,34.183334 149.458775,35.3452998 150.294619,36.3149421 C153.312147,38.2208852 156.713982,39.6754128 159.73151,41.4058316 L159.73151,41.4141905 C160.751247,42.0829462 161.695771,42.8436585 162.581707,43.6796139 L157.382665,46.270962 C156.78085,44.9668777 155.995141,43.7630746 155.050725,42.6930654 C152.910937,40.5530471 150.169441,38.9063031 147.987714,36.7662848 C146.583478,35.1027629 145.338015,33.3137932 144.268121,31.416239 C146.21567,30.5384891 147.201984,30.1790302 148.12145,29.6607606 C149.040896,29.150837 150.261238,28.2898221 151.164014,27.5207423 L151.155656,27.5207423 C150.353236,26.291901 149.366922,25.1885504 148.246829,24.2439463 C144.393499,21.9785229 140.306291,20.114353 136.503033,17.8238914 C134.806245,16.561623 131.705201,16.2439587 131.621749,12.8417148 C131.162037,12.1813266 130.426485,11.7633382 129.624065,11.7048301 C126.138564,11.8803779 122.653064,12.2565482 119.20929,12.8417148 C115.355961,13.5689786 111.552916,14.7476579 106.930547,15.9430293 C107.507284,14.1039404 107.741334,13.3097368 108.084021,12.2230355 C104.598521,12.4821703 101.238412,12.7329591 97.8783035,12.9252183 L97.8699433,12.9252183 C96.3988393,12.7663904 94.9193901,12.7663904 93.4482861,12.9252183 C90.5644943,13.7360926 87.756023,14.7977343 85.0562529,16.0935154 C82.6990629,17.2304001 80.7766777,19.2367743 78.2690605,20.2064166 C74.7418346,21.59409 71.724306,22.9651142 71.038932,27.3789019 C70.8216152,28.5993757 68.7069915,29.5189202 68.1467951,30.0121944 L61.2761509,27.5963278 C61.0003109,26.0581896 60.465364,24.3195317 64.2517396,23.9180643 C65.8147903,23.7508754 67.0769012,20.6663065 68.4059233,18.8438669 L68.4059233,18.8355059 C68.6817634,18.0246315 69.0662404,17.2555732 69.5426855,16.5450443 C73.3290398,13.8449832 77.0069068,11.12823 78.7035444,6.4886703 C79.3471497,5.97037927 80.1412249,5.67779597 80.9687236,5.65273635 C109.346587,-1.28563097 136.093933,2.95267527 161.253556,17.5732803 C163.318109,19.103051 165.207242,20.8417302 166.903879,22.7728827 C167.823325,24.0100701 169.026955,25.0132679 170.414415,25.6820236 C177.301963,27.2034482 180.110221,33.447936 185.652057,37.769703 L182.718194,37.769703 L184.146937,41.3891523 Z M209.013409,112.285818 C207.667675,117.267995 205.803727,122.150019 204.198887,127.098811 C203.321231,129.798872 202.059099,130.267108 199.4094,128.829209 C196.751356,127.399741 194.720269,125.510468 194.720269,121.982862 C194.720269,120.795815 194.402639,119.625418 193.800824,118.605699 C190.440715,112.996497 190.950627,107.002734 191.510609,100.800105 C191.552401,98.7102486 191.234769,96.6287812 190.566086,94.6558983 C189.496192,90.7854612 188.426298,86.9986989 190.348769,83.0779713 L190.357129,83.0779713 C190.708182,82.2085889 190.925499,81.2974119 190.975656,80.3612181 L194.528131,71.8011449 C194.795605,71.792786 195.063078,71.7175515 195.297128,71.5838047 C197.604033,68.2483721 201.348662,65.3141931 197.436916,60.4991519 C196.450602,59.2368835 197.052417,56.7290816 197.737813,54.4636583 C200.24543,60.1312827 203.02052,65.6987543 205.22707,71.5838047 C208.829616,80.7792493 210.802286,90.5263906 211.06976,100.390591 C210.952741,104.43651 210.258973,108.440698 209.013552,112.286097 L209.013409,112.285818 Z"/>
          <path fill="#1BA1E4" d="M91.3466861,101.959058 L90.0017217,111.869822 L91.076064,112 C91.2236822,110.706906 91.5353238,109.448604 91.9945835,108.242223 C92.7080685,107.226841 93.5445825,106.324277 94.4958958,105.560636 L96.0458948,107.912524 L97.4072771,110.13422 C98.0797593,107.912524 101.606223,106.888544 99.1294959,103.798831 L95.8981968,103.798831 C94.2989862,101.80277 93.339359,99.4856303 91.8877833,99.0690622 C90.4361866,98.6438074 88.6564843,100.292728 87,101.004359 L87.2952489,101.91561 L91.3466021,101.91561 L91.3466861,101.959058 Z"/>
        </g>
      </g>
      <g mask="url(#universal-react-c)">
        <g transform="translate(84 127)">
          <use fill="#000" filter="url(#universal-react-d)" xlink:href="#universal-react-e"/>
          <use fill="#F6F6F6" xlink:href="#universal-react-e"/>
          <use fill="#000" filter="url(#universal-react-f)" xlink:href="#universal-react-e"/>
          <g>
            <use fill="#000" filter="url(#universal-react-g)" xlink:href="#universal-react-h"/>
            <use fill="#F6F6F6" xlink:href="#universal-react-h"/>
            <use fill="#000" filter="url(#universal-react-i)" xlink:href="#universal-react-h"/>
          </g>
        </g>
      </g>
      <g fill-rule="nonzero" mask="url(#universal-react-c)">
        <use fill="#000" filter="url(#universal-react-j)" xlink:href="#universal-react-k"/>
        <use fill="#FFF" xlink:href="#universal-react-k"/>
        <use fill="#F5D118" xlink:href="#universal-react-k"/>
        <use fill="url(#universal-react-l)" xlink:href="#universal-react-k"/>
      </g>
    </g>
  </g>
</svg>
