<svg xmlns="http://www.w3.org/2000/svg" xmlns:xlink="http://www.w3.org/1999/xlink" width="253" height="313" viewBox="0 0 253 313">
  <defs>
    <path id="continuous-stack-c" d="M3,0 L190,0 C191.656854,-3.04359188e-16 193,1.34314575 193,3 L193,197.113433 L193,250 C193,251.656854 191.656854,253 190,253 L134.721569,253 L3,253 C1.34314575,253 1.07695378e-14,251.656854 -4.88498131e-15,250 L0,3 C-2.02906125e-16,1.34314575 1.34314575,3.04359188e-16 3,0 Z"/>
    <filter id="continuous-stack-b" width="157%" height="143.5%" x="-28.5%" y="-13.8%" filterUnits="objectBoundingBox">
      <feMorphology in="SourceAlpha" radius="7.5" result="shadowSpreadOuter1"/>
      <feOffset dy="20" in="shadowSpreadOuter1" result="shadowOffsetOuter1"/>
      <feGaussianBlur in="shadowOffsetOuter1" result="shadowBlurOuter1" stdDeviation="22.5"/>
      <feComposite in="shadowBlurOuter1" in2="SourceAlpha" operator="out" result="shadowBlurOuter1"/>
      <feColorMatrix in="shadowBlurOuter1" values="0 0 0 0 0   0 0 0 0 0   0 0 0 0 0  0 0 0 0.204030797 0"/>
    </filter>
    <rect id="continuous-stack-a" width="84.012" height="74.767" x="101.42" y="170.681" rx="3"/>
    <mask id="continuous-stack-d" width="84.012" height="74.767" x="0" y="0" fill="#fff">
      <use xlink:href="#continuous-stack-a"/>
    </mask>
    <path id="continuous-stack-e" d="M0,0 L0,237.895522 L121.476471,237.895522 C131.173479,229.235355 140.88655,219.920927 150.615686,209.952239 C160.344822,199.983551 169.427175,190.039769 177.862745,180.120896 L177.862745,0 L0,0 Z"/>
    <linearGradient id="continuous-stack-h" x1=".656%" x2="60.906%" y1=".628%" y2="58.324%">
      <stop offset="0%" stop-color="#5EDBB5"/>
      <stop offset="72.205%" stop-color="#2FE5AE"/>
      <stop offset="100%" stop-color="#0DB381"/>
    </linearGradient>
    <path id="continuous-stack-g" d="M121.854902,182.386567 L170.669962,182.386567 C175.463426,182.010338 177.860158,179.367055 177.860158,174.456716 C177.860158,174.456716 178.617021,182.386567 176.970509,184.229801 C165.715183,196.776158 147.343314,214.790602 121.854902,238.273134 C112.772549,238.273134 110.501961,238.273134 115.043137,238.273134 C119.584314,238.273134 121.854902,236.476773 121.854902,232.884051 L121.854902,182.386567 Z"/>
    <linearGradient id="continuous-stack-j" x1="50%" x2="50%" y1="100%" y2="-33.359%">
      <stop offset="0%" stop-color="#FFF" stop-opacity=".5"/>
      <stop offset="100%" stop-opacity=".5"/>
    </linearGradient>
    <path id="continuous-stack-i" d="M2,2 L166,2 L166,3 C166,3.55228475 165.552285,4 165,4 L3,4 C2.44771525,4 2,3.55228475 2,3 L2,2 Z"/>
    <path id="continuous-stack-k" d="M2,2 L152,2 L152,3 C152,3.55228475 151.552285,4 151,4 L3,4 C2.44771525,4 2,3.55228475 2,3 L2,2 Z"/>
    <path id="continuous-stack-l" d="M2,2 L180,2 L180,3 C180,3.55228475 179.552285,4 179,4 L3,4 C2.44771525,4 2,3.55228475 2,3 L2,2 Z"/>
  </defs>
  <g fill="none" fill-rule="evenodd" transform="translate(30 10)">
    <g fill-rule="nonzero">
      <use fill="#000" filter="url(#continuous-stack-b)" xlink:href="#continuous-stack-c"/>
      <path fill="#FFF" fill-rule="evenodd" stroke="#FFF" stroke-linejoin="square" stroke-width="10" d="M5,5 L5,248 L134.721569,248 L188,248 L188,5 L5,5 Z"/>
    </g>
    <use fill="#FAFAFA" fill-rule="nonzero" stroke="#C3C3C3" stroke-dasharray="2" stroke-width="2" mask="url(#continuous-stack-d)" opacity=".5" xlink:href="#continuous-stack-a"/>
    <g transform="translate(7.569 7.552)">
      <mask id="continuous-stack-f" fill="#fff">
        <use xlink:href="#continuous-stack-e"/>
      </mask>
      <use fill="#38FFC3" fill-rule="nonzero" xlink:href="#continuous-stack-e"/>
      <path fill="#04BBA0" fill-rule="nonzero" stroke="#04BBA0" stroke-width="2" d="M51.5615336,90.4477612 C44.1139798,90.4477612 36.5129102,93.1324142 30.8063185,98.920744 C25.2420273,104.567418 22.4427678,112.054897 22.4314071,119.445667 C22.4200289,126.882109 25.2193058,134.256495 30.8063185,139.925643 C36.5072299,145.708318 44.0685368,148.56841 51.5615336,148.443863 L51.6070494,148.443863 C61.5238183,148.426871 69.9663116,142.423402 77.7790115,134.624483 L77.7790115,142.644224 C77.7733224,143.035018 77.9269343,143.408819 78.2000292,143.680677 C78.4731242,143.958204 78.8429457,144.116781 79.2355178,144.116781 C79.62809,144.116781 79.9979115,143.95819 80.2710064,143.680677 C80.5441014,143.408819 80.6977191,143.035018 80.6920242,142.644224 L80.6920242,131.044945 C80.6920242,130.246364 80.0377324,129.595035 79.2355178,129.595035 L67.5834673,129.595035 C67.4924356,129.583709 67.401404,129.583709 67.3103723,129.595035 C66.5081578,129.668663 65.9164521,130.382293 65.9904135,131.180947 C66.0643749,131.979601 66.7812527,132.568554 67.5835401,132.494928 L75.8218311,132.494928 C68.1978944,140.118263 60.3522775,145.544116 51.5622618,145.544116 L51.516746,145.544116 C44.7804043,145.668718 38.0440625,143.108702 32.9011387,137.886852 C27.8546356,132.766931 25.3341514,126.157372 25.3455121,119.445449 C25.3568903,112.773545 27.8489552,106.039439 32.85555,100.9591 C37.9703633,95.7711775 44.8204582,93.3470733 51.5629172,93.3470733 C58.3846103,93.3470733 64.5861229,96.5470242 70.6344111,101.593435 C76.6826992,106.639846 82.5139679,113.464572 88.3397019,120.352368 C94.1654359,127.240164 99.9860721,134.188857 106.318816,139.473778 C112.65156,144.758699 119.558167,148.445095 127.301246,148.445095 C134.629221,148.445095 142.441629,145.624586 148.056461,139.926875 C153.615072,134.291511 156.431373,126.787068 156.431373,119.446899 C156.431373,112.004802 153.660661,104.608523 148.056461,98.9219764 C142.338509,93.1166826 134.765841,90.4489936 127.301246,90.4489936 C119.620506,90.4489936 112.793132,94.0227313 106.500879,99.2390717 C100.504151,104.211827 94.9455407,110.713803 89.4320817,117.226653 C83.9645026,110.770059 78.4855627,104.33043 72.5453473,99.3753632 C66.2128948,94.091167 59.3059962,90.4494286 51.5629172,90.4494286 L51.5615336,90.4477612 Z M127.287597,93.4477612 C134.039007,93.4477612 140.824549,95.8400368 145.942426,101.031052 C150.986231,106.143057 153.431373,112.738932 153.431373,119.447617 C153.431373,126.020958 150.878316,132.769221 145.896966,137.819404 C140.909951,142.874931 133.846417,145.447761 127.288614,145.447761 C120.486079,145.447761 114.301983,142.214679 108.270681,137.187318 C102.523472,132.396989 96.9633339,125.976036 91.4313725,119.448195 C97.0254973,112.846687 102.596819,106.34109 108.407209,101.528516 C114.392759,96.5688994 120.542869,93.4486279 127.288614,93.4486279 L127.287597,93.4477612 Z" mask="url(#continuous-stack-f)"/>
      <g fill-rule="nonzero" mask="url(#continuous-stack-f)">
        <use fill="#FFF" xlink:href="#continuous-stack-g"/>
        <use fill="#F5D118" xlink:href="#continuous-stack-g"/>
        <use fill="url(#continuous-stack-h)" xlink:href="#continuous-stack-g"/>
      </g>
    </g>
    <g fill-rule="nonzero" opacity=".5" transform="translate(5 253)">
      <g transform="translate(7 6)">
        <path fill="#F4F4F4" d="M0,0 L169,0 L169,4 C169,5.1045695 168.104569,6 167,6 L2,6 C0.8954305,6 1.3527075e-16,5.1045695 0,4 L0,0 Z"/>
        <use fill="#F4DA2C" xlink:href="#continuous-stack-i"/>
        <use fill="url(#continuous-stack-j)" fill-opacity=".4" xlink:href="#continuous-stack-i"/>
      </g>
      <g transform="translate(14 12)">
        <path fill="#F1F1F1" d="M0,0 L155,0 L155,4 C155,5.1045695 154.104569,6 153,6 L2,6 C0.8954305,6 1.3527075e-16,5.1045695 0,4 L0,0 Z"/>
        <use fill="#FFD4D4" xlink:href="#continuous-stack-k"/>
        <use fill="url(#continuous-stack-j)" fill-opacity=".4" xlink:href="#continuous-stack-k"/>
      </g>
      <path fill="#FAFAFA" d="M0,0 L183,0 L183,4 C183,5.1045695 182.104569,6 181,6 L2,6 C0.8954305,6 1.3527075e-16,5.1045695 0,4 L0,0 Z"/>
      <use fill="#DAE2E5" xlink:href="#continuous-stack-l"/>
      <use fill="url(#continuous-stack-j)" fill-opacity=".2" xlink:href="#continuous-stack-l"/>
    </g>
  </g>
</svg>
