<svg xmlns="http://www.w3.org/2000/svg" xmlns:xlink="http://www.w3.org/1999/xlink" width="255" height="335" viewBox="0 0 255 335">
  <defs>
    <path id="continuous-group-a" d="M245,255.077493 L245,322.332691 C245,323.989545 243.656854,325.332691 242,325.332691 L165.57513,325.332691 L239.906724,252.928494 C241.093583,251.77241 242.992914,251.797358 244.148999,252.984217 C244.694649,253.544393 245,254.295489 245,255.077493 Z"/>
    <mask id="continuous-group-b" width="79.425" height="73.255" x="0" y="0" fill="#fff">
      <use xlink:href="#continuous-group-a"/>
    </mask>
    <polygon id="continuous-group-c" points="0 0 235 0 235 243.5 157 316 0 316"/>
    <linearGradient id="continuous-group-f" x1=".656%" x2="60.906%" y1=".628%" y2="58.324%">
      <stop offset="0%" stop-color="#5EDBB5"/>
      <stop offset="72.205%" stop-color="#2FE5AE"/>
      <stop offset="100%" stop-color="#0DB381"/>
    </linearGradient>
    <path id="continuous-group-e" d="M159.990747,243.032485 L230.94381,243.032485 C233.647937,243.032485 235,239.021656 235,231 C235,231 235,244.341727 235,244.341727 C220.140441,260.9472 194.140441,284.833291 157,316 C152.356036,316 149.96814,316 149.836309,316 C156.304677,316 159.689489,313.955797 159.990747,309.86739 L159.990747,243.032485 Z"/>
  </defs>
  <g fill="none" fill-rule="evenodd">
    <path fill="#FDFDFD" fill-rule="nonzero" stroke="#FFF" stroke-width="10" d="M5,5 L5,330 L250,330 L250,5 L5,5 Z"/>
    <use fill="#FFF" fill-rule="nonzero" stroke="#C3C3C3" stroke-dasharray="2" stroke-width="2" mask="url(#continuous-group-b)" opacity=".5" xlink:href="#continuous-group-a"/>
    <g transform="translate(10 9)">
      <mask id="continuous-group-d" fill="#fff">
        <use xlink:href="#continuous-group-c"/>
      </mask>
      <use fill="#38FFC3" fill-rule="nonzero" xlink:href="#continuous-group-c"/>
      <g fill-rule="nonzero" mask="url(#continuous-group-d)">
        <use fill="#FFF" xlink:href="#continuous-group-e"/>
        <use fill="#F5D118" xlink:href="#continuous-group-e"/>
        <use fill="url(#continuous-group-f)" xlink:href="#continuous-group-e"/>
      </g>
      <g fill="#04BBA0" fill-rule="nonzero" stroke="#04BBA0" stroke-width="2" mask="url(#continuous-group-d)" opacity=".6">
        <path d="M72.6080133,-4.54747351e-13 C54.0447076,-4.54747351e-13 35.0987581,6.66534528 20.8748652,21.0363711 C7.00566196,35.0556988 0.0284032003,53.6453022 8.6108686e-05,71.9948005 C-0.0282745477,90.4576917 6.94902778,108.766513 20.8748652,122.841637 C35.0845996,137.198623 53.9314392,144.299542 72.6080133,143.990321 L72.7214632,143.990321 C97.4393798,143.948135 118.482609,129.042971 137.956055,109.680136 L137.956055,129.591217 C137.941875,130.561464 138.324758,131.489523 139.005458,132.164481 C139.686157,132.853514 140.607951,133.247221 141.586452,133.247221 C142.564952,133.247221 143.486746,132.853478 144.167446,132.164481 C144.848145,131.489523 145.231043,130.561464 145.216848,129.591217 L145.216848,100.793009 C145.216848,98.810324 143.586001,97.1932326 141.586452,97.1932326 L112.543281,97.1932326 C112.316381,97.1651112 112.089481,97.1651112 111.862582,97.1932326 C109.863032,97.3760328 108.388183,99.147803 108.572535,101.130668 C108.756886,103.113532 110.543731,104.575761 112.543462,104.392965 L133.07771,104.392965 C114.074764,123.319867 94.5192705,136.790949 72.6098285,136.790949 L72.4963786,136.790949 C55.7057954,137.100306 38.9152123,130.744405 26.0962827,117.779812 C13.5176854,105.068283 7.23528453,88.6583437 7.26360162,71.9942605 C7.29196228,55.4295312 13.5035269,38.7103714 25.9826513,26.0971162 C38.7315142,13.2167577 55.8056313,7.19829212 72.6114622,7.19829212 C89.6147865,7.19829212 105.072288,15.1429978 120.147872,27.6720182 C135.223456,40.2010387 149.758111,57.1451844 164.27897,74.2459204 C178.79983,91.3466564 193.307983,108.598583 209.092583,121.719767 C224.877183,134.84095 242.09216,143.993381 261.392073,143.993381 C279.657323,143.993381 299.130043,136.990736 313.125221,122.844697 C326.980266,108.853447 334,90.2217264 334,71.9978603 C334,53.5209299 327.093897,35.1577525 313.125221,21.0394309 C298.873011,6.62628771 279.997854,0.00305980962 261.392073,0.00305980962 C242.247541,0.00305980962 225.230058,8.87578775 209.546382,21.8267019 C194.599315,34.1728538 180.74427,50.3156893 167.001767,66.4855233 C153.373623,50.4553607 139.717161,34.4673154 124.910952,22.1650809 C109.127078,9.04569718 91.9113753,0.00413974242 72.6114622,0.00413974242 L72.6080133,-4.54747351e-13 Z M261.388624,7.19955204 C278.264158,7.19955204 295.225007,13.1615011 308.017435,26.0983762 C320.624712,38.8383435 326.736484,55.2763607 326.736484,71.9955204 C326.736484,88.3773811 320.354974,105.195175 307.903803,117.781072 C295.438474,130.380288 277.782768,136.792209 261.391165,136.792209 C244.387841,136.792209 228.930339,128.73483 213.854755,116.20581 C199.489277,104.267512 185.591394,88.2654281 171.76394,71.9969603 C185.746775,55.544904 199.672612,39.3318728 214.196013,27.338139 C229.157239,14.9779481 244.529789,7.20171191 261.391165,7.20171191 L261.388624,7.19955204 Z" transform="matrix(1 0 0 -1 -51 229)"/>
      </g>
    </g>
  </g>
</svg>
