<svg xmlns="http://www.w3.org/2000/svg" xmlns:xlink="http://www.w3.org/1999/xlink" width="275" height="321" viewBox="0 0 275 321">
  <defs>
    <path id="posral-c" d="M3,0 L190,0 C191.656854,-3.04359188e-16 193,1.34314575 193,3 L193,197.113433 L193,250 C193,251.656854 191.656854,253 190,253 L134.721569,253 L3,253 C1.34314575,253 1.07695378e-14,251.656854 -4.88498131e-15,250 L0,3 C-2.02906125e-16,1.34314575 1.34314575,3.04359188e-16 3,0 Z"/>
    <filter id="posral-b" width="157%" height="143.5%" x="-28.5%" y="-13.8%" filterUnits="objectBoundingBox">
      <feMorphology in="SourceAlpha" radius="7.5" result="shadowSpreadOuter1"/>
      <feOffset dy="20" in="shadowSpreadOuter1" result="shadowOffsetOuter1"/>
      <feGaussianBlur in="shadowOffsetOuter1" result="shadowBlurOuter1" stdDeviation="22.5"/>
      <feComposite in="shadowBlurOuter1" in2="SourceAlpha" operator="out" result="shadowBlurOuter1"/>
      <feColorMatrix in="shadowBlurOuter1" values="0 0 0 0 0   0 0 0 0 0   0 0 0 0 0  0 0 0 0.204030797 0"/>
    </filter>
    <rect id="posral-a" width="84.012" height="74.767" x="101.42" y="170.681" rx="3"/>
    <mask id="posral-d" width="84.012" height="74.767" x="0" y="0" fill="#fff">
      <use xlink:href="#posral-a"/>
    </mask>
    <path id="posral-e" d="M0,0 L0,237.895522 L121.476471,237.895522 C131.173479,229.235355 140.88655,219.920927 150.615686,209.952239 C160.344822,199.983551 169.427175,190.039769 177.862745,180.120896 L177.862745,0 L0,0 Z"/>
    <linearGradient id="posral-g" x1="97.701%" x2="13.861%" y1="-17.206%" y2="111.544%">
      <stop offset="0%" stop-color="#2965F1" stop-opacity="0"/>
      <stop offset="100%" stop-color="#2965F1"/>
    </linearGradient>
    <linearGradient id="posral-j" x1="0%" x2="62.3%" y1="0%" y2="59.659%">
      <stop offset="0%" stop-color="#29BEFB"/>
      <stop offset="71.189%" stop-color="#17AEF4"/>
      <stop offset="100%" stop-color="#228CCB"/>
    </linearGradient>
    <path id="posral-i" d="M121.854902,182.386567 L170.669962,182.386567 C175.463426,182.010338 177.860158,179.367055 177.860158,174.456716 C177.860158,174.456716 178.617021,182.386567 176.970509,184.229801 C165.715183,196.776158 147.343314,214.790602 121.854902,238.273134 C112.772549,238.273134 110.501961,238.273134 115.043137,238.273134 C119.584314,238.273134 121.854902,236.476773 121.854902,232.884051 L121.854902,182.386567 Z"/>
    <filter id="posral-h" width="230.2%" height="217.5%" x="-99.6%" y="-86.2%" filterUnits="objectBoundingBox">
      <feMorphology in="SourceAlpha" radius="7.5" result="shadowSpreadOuter1"/>
      <feOffset dy="10" in="shadowSpreadOuter1" result="shadowOffsetOuter1"/>
      <feGaussianBlur in="shadowOffsetOuter1" result="shadowBlurOuter1" stdDeviation="22.5"/>
      <feColorMatrix in="shadowBlurOuter1" values="0 0 0 0 0   0 0 0 0 0   0 0 0 0 0  0 0 0 0.204030797 0"/>
    </filter>
    <linearGradient id="posral-l" x1="50%" x2="50%" y1="100%" y2="-33.359%">
      <stop offset="0%" stop-color="#FFF" stop-opacity=".5"/>
      <stop offset="100%" stop-opacity=".5"/>
    </linearGradient>
    <path id="posral-k" d="M2,2 L166,2 L166,3 C166,3.55228475 165.552285,4 165,4 L3,4 C2.44771525,4 2,3.55228475 2,3 L2,2 Z"/>
    <path id="posral-m" d="M2,2 L152,2 L152,3 C152,3.55228475 151.552285,4 151,4 L3,4 C2.44771525,4 2,3.55228475 2,3 L2,2 Z"/>
    <path id="posral-n" d="M2,2 L180,2 L180,3 C180,3.55228475 179.552285,4 179,4 L3,4 C2.44771525,4 2,3.55228475 2,3 L2,2 Z"/>
  </defs>
  <g fill="none" fill-rule="evenodd">
    <g transform="translate(41 14)">
      <g fill-rule="nonzero">
        <use fill="#000" filter="url(#posral-b)" xlink:href="#posral-c"/>
        <path fill="#FFF" fill-rule="evenodd" stroke="#FFF" stroke-linejoin="square" stroke-width="10" d="M5,5 L5,248 L134.721569,248 L188,248 L188,5 L5,5 Z"/>
      </g>
      <use fill="#FAFAFA" fill-rule="nonzero" stroke="#C3C3C3" stroke-dasharray="2" stroke-width="2" mask="url(#posral-d)" opacity=".5" xlink:href="#posral-a"/>
      <g transform="translate(7.569 7.552)">
        <mask id="posral-f" fill="#fff">
          <use xlink:href="#posral-e"/>
        </mask>
        <use fill="#2965F1" fill-rule="nonzero" xlink:href="#posral-e"/>
        <g mask="url(#posral-f)">
          <g transform="translate(0 3)">
            <path fill="#1D54D6" d="M15.6339608,35.9854328 C15.6339608,36.9561044 15.4846289,37.8894284 15.1859608,38.7854328 C14.8872926,39.6814373 14.453297,40.4700961 13.8839608,41.1514328 C13.3146246,41.8327696 12.6192982,42.3787641 11.7979608,42.7894328 C10.9766233,43.2001016 10.0432993,43.4054328 8.99796078,43.4054328 C8.06462278,43.4054328 7.1826316,43.2141014 6.35196078,42.8314328 C5.52128996,42.4487643 4.88196302,41.9027697 4.43396078,41.1934328 L4.37796078,41.1934328 L4.37796078,43.0134328 L0.149960784,43.0134328 L0.149960784,21.8454328 L4.74196078,21.8454328 L4.74196078,30.5534328 L4.79796078,30.5534328 C5.18996274,30.0867638 5.7406239,29.6574348 6.44996078,29.2654328 C7.15929766,28.8734309 8.02728898,28.6774328 9.05396078,28.6774328 C10.0619658,28.6774328 10.9719567,28.8734309 11.7839608,29.2654328 C12.5959648,29.6574348 13.2866246,30.1894295 13.8559608,30.8614328 C14.425297,31.5334362 14.8639592,32.3127617 15.1719608,33.1994328 C15.4799623,34.0861039 15.6339608,35.0147613 15.6339608,35.9854328 Z M11.2099608,35.9854328 C11.2099608,35.5374306 11.1399615,35.0987683 10.9999608,34.6694328 C10.8599601,34.2400974 10.6499622,33.8621011 10.3699608,33.5354328 C10.0899594,33.2087645 9.7446295,32.9427672 9.33396078,32.7374328 C8.92329206,32.5320985 8.44729682,32.4294328 7.90596078,32.4294328 C7.3832915,32.4294328 6.9166295,32.5320985 6.50596078,32.7374328 C6.09529206,32.9427672 5.74529556,33.2134312 5.45596078,33.5494328 C5.166626,33.8854345 4.94262824,34.2680974 4.78396078,34.6974328 C4.62529332,35.1267683 4.54596078,35.5654306 4.54596078,36.0134328 C4.54596078,36.4614351 4.62529332,36.9000974 4.78396078,37.3294328 C4.94262824,37.7587683 5.166626,38.1414312 5.45596078,38.4774328 C5.74529556,38.8134345 6.09529206,39.0840985 6.50596078,39.2894328 C6.9166295,39.4947672 7.3832915,39.5974328 7.90596078,39.5974328 C8.44729682,39.5974328 8.92329206,39.4947672 9.33396078,39.2894328 C9.7446295,39.0840985 10.0899594,38.8134345 10.3699608,38.4774328 C10.6499622,38.1414312 10.8599601,37.7541017 10.9999608,37.3154328 C11.1399615,36.876764 11.2099608,36.4334351 11.2099608,35.9854328 Z M33.3299608,35.9854328 C33.3299608,37.1241052 33.1246295,38.1554282 32.7139608,39.0794328 C32.3032921,40.0034375 31.7432977,40.7874296 31.0339608,41.4314328 C30.3246239,42.0754361 29.5032988,42.5747644 28.5699608,42.9294328 C27.6366228,43.2841013 26.6379661,43.4614328 25.5739608,43.4614328 C24.5286222,43.4614328 23.5346322,43.2841013 22.5919608,42.9294328 C21.6492894,42.5747644 20.8279643,42.0754361 20.1279608,41.4314328 C19.4279573,40.7874296 18.8726295,40.0034375 18.4619608,39.0794328 C18.0512921,38.1554282 17.8459608,37.1241052 17.8459608,35.9854328 C17.8459608,34.8467605 18.0512921,33.8201041 18.4619608,32.9054328 C18.8726295,31.9907616 19.4279573,31.2161027 20.1279608,30.5814328 C20.8279643,29.946763 21.6492894,29.4614345 22.5919608,29.1254328 C23.5346322,28.7894312 24.5286222,28.6214328 25.5739608,28.6214328 C26.6379661,28.6214328 27.6366228,28.7894312 28.5699608,29.1254328 C29.5032988,29.4614345 30.3246239,29.946763 31.0339608,30.5814328 C31.7432977,31.2161027 32.3032921,31.9907616 32.7139608,32.9054328 C33.1246295,33.8201041 33.3299608,34.8467605 33.3299608,35.9854328 Z M28.9059608,35.9854328 C28.9059608,35.5374306 28.8312949,35.0987683 28.6819608,34.6694328 C28.5326267,34.2400974 28.3179622,33.8621011 28.0379608,33.5354328 C27.7579594,33.2087645 27.4126295,32.9427672 27.0019608,32.7374328 C26.5912921,32.5320985 26.1152968,32.4294328 25.5739608,32.4294328 C25.0326247,32.4294328 24.5566295,32.5320985 24.1459608,32.7374328 C23.7352921,32.9427672 23.3946288,33.2087645 23.1239608,33.5354328 C22.8532928,33.8621011 22.6479615,34.2400974 22.5079608,34.6694328 C22.3679601,35.0987683 22.2979608,35.5374306 22.2979608,35.9854328 C22.2979608,36.4334351 22.3679601,36.8720974 22.5079608,37.3014328 C22.6479615,37.7307683 22.8579594,38.1180978 23.1379608,38.4634328 C23.4179622,38.8087679 23.7632921,39.0840985 24.1739608,39.2894328 C24.5846295,39.4947672 25.0606247,39.5974328 25.6019608,39.5974328 C26.1432968,39.5974328 26.6192921,39.4947672 27.0299608,39.2894328 C27.4406295,39.0840985 27.7859594,38.8087679 28.0659608,38.4634328 C28.3459622,38.1180978 28.5559601,37.7307683 28.6959608,37.3014328 C28.8359615,36.8720974 28.9059608,36.4334351 28.9059608,35.9854328 Z M46.7979608,43.0134328 L46.7979608,41.1934328 L46.7419608,41.1934328 C46.2939585,41.9027697 45.6546316,42.4487643 44.8239608,42.8314328 C43.99329,43.2141014 43.1112988,43.4054328 42.1779608,43.4054328 C41.1326222,43.4054328 40.1992982,43.2001016 39.3779608,42.7894328 C38.5566233,42.3787641 37.861297,41.8327696 37.2919608,41.1514328 C36.7226246,40.4700961 36.2886289,39.6814373 35.9899608,38.7854328 C35.6912926,37.8894284 35.5419608,36.9561044 35.5419608,35.9854328 C35.5419608,35.0147613 35.6959592,34.0861039 36.0039608,33.1994328 C36.3119623,32.3127617 36.7506246,31.5334362 37.3199608,30.8614328 C37.889297,30.1894295 38.5799567,29.6574348 39.3919608,29.2654328 C40.2039648,28.8734309 41.1139557,28.6774328 42.1219608,28.6774328 C43.1486326,28.6774328 44.0166239,28.8734309 44.7259608,29.2654328 C45.4352977,29.6574348 45.9859588,30.0867638 46.3779608,30.5534328 L46.4339608,30.5534328 L46.4339608,21.8454328 L51.0259608,21.8454328 L51.0259608,43.0134328 L46.7979608,43.0134328 Z M46.6299608,36.0134328 C46.6299608,35.5654306 46.5506282,35.1267683 46.3919608,34.6974328 C46.2332933,34.2680974 46.0092956,33.8854345 45.7199608,33.5494328 C45.430626,33.2134312 45.0806295,32.9427672 44.6699608,32.7374328 C44.2592921,32.5320985 43.7926301,32.4294328 43.2699608,32.4294328 C42.7286247,32.4294328 42.2526295,32.5320985 41.8419608,32.7374328 C41.4312921,32.9427672 41.0859622,33.2087645 40.8059608,33.5354328 C40.5259594,33.8621011 40.3159615,34.2400974 40.1759608,34.6694328 C40.0359601,35.0987683 39.9659608,35.5374306 39.9659608,35.9854328 C39.9659608,36.4334351 40.0359601,36.876764 40.1759608,37.3154328 C40.3159615,37.7541017 40.5259594,38.1414312 40.8059608,38.4774328 C41.0859622,38.8134345 41.4312921,39.0840985 41.8419608,39.2894328 C42.2526295,39.4947672 42.7286247,39.5974328 43.2699608,39.5974328 C43.7926301,39.5974328 44.2592921,39.4947672 44.6699608,39.2894328 C45.0806295,39.0840985 45.430626,38.8134345 45.7199608,38.4774328 C46.0092956,38.1414312 46.2332933,37.7587683 46.3919608,37.3294328 C46.5506282,36.9000974 46.6299608,36.4614351 46.6299608,36.0134328 Z M62.5339608,45.1134328 C62.2539594,45.8414365 61.9412958,46.4900967 61.5959608,47.0594328 C61.2506257,47.628769 60.8399632,48.1140975 60.3639608,48.5154328 C59.8879584,48.9167682 59.327964,49.2200985 58.6839608,49.4254328 C58.0399576,49.6307672 57.2792985,49.7334328 56.4019608,49.7334328 C55.9726253,49.7334328 55.5292964,49.7054331 55.0719608,49.6494328 C54.6146252,49.5934326 54.2179625,49.5187666 53.8819608,49.4254328 L54.3859608,45.5614328 C54.6099619,45.6360999 54.8572928,45.6967659 55.1279608,45.7434328 C55.3986288,45.7900997 55.6459597,45.8134328 55.8699608,45.8134328 C56.5792977,45.8134328 57.0926259,45.6501011 57.4099608,45.3234328 C57.7272957,44.9967645 57.9979597,44.5347692 58.2219608,43.9374328 L58.6699608,42.7894328 L52.8459608,29.0694328 L57.9419608,29.0694328 L61.0499608,38.0294328 L61.1339608,38.0294328 L63.9059608,29.0694328 L68.7779608,29.0694328 L62.5339608,45.1134328 Z M81.6299608,47.3814328 C80.4539549,47.3814328 79.5206309,47.0081032 78.8299608,46.2614328 C78.1392907,45.5147624 77.7939608,44.5067725 77.7939608,43.2374328 L77.7939608,38.5614328 C77.7939608,38.1320974 77.7379613,37.7821009 77.6259608,37.5114328 C77.5139602,37.2407648 77.369295,37.0307669 77.1919608,36.8814328 C77.0146266,36.7320988 76.8139619,36.6294331 76.5899608,36.5734328 C76.3659597,36.5174326 76.1419619,36.4894328 75.9179608,36.4894328 L75.9179608,33.4094328 C76.1419619,33.4094328 76.3659597,33.3814331 76.5899608,33.3254328 C76.8139619,33.2694326 77.0146266,33.1714335 77.1919608,33.0314328 C77.369295,32.8914321 77.5139602,32.6907675 77.6259608,32.4294328 C77.7379613,32.1680982 77.7939608,31.8414348 77.7939608,31.4494328 L77.7939608,26.6614328 C77.7939608,25.3920932 78.1392907,24.3841032 78.8299608,23.6374328 C79.5206309,22.8907624 80.4539549,22.5174328 81.6299608,22.5174328 L83.9259608,22.5174328 L83.9259608,25.4574328 L82.6099608,25.4574328 C82.0686247,25.4574328 81.7186282,25.6347644 81.5599608,25.9894328 C81.4012933,26.3441013 81.3219608,26.7267641 81.3219608,27.1374328 L81.3219608,31.8134328 C81.3219608,32.3547689 81.2286284,32.8167643 81.0419608,33.1994328 C80.8552932,33.5821014 80.6266288,33.894765 80.3559608,34.1374328 C80.0852928,34.3801007 79.8006289,34.5667655 79.5019608,34.6974328 C79.2032926,34.8281002 78.9419619,34.9027661 78.7179608,34.9214328 L78.7179608,34.9774328 C78.9419619,34.9960996 79.2032926,35.0614323 79.5019608,35.1734328 C79.8006289,35.2854334 80.0852928,35.462765 80.3559608,35.7054328 C80.6266288,35.9481007 80.8552932,36.2700975 81.0419608,36.6714328 C81.2286284,37.0727682 81.3219608,37.5814298 81.3219608,38.1974328 L81.3219608,42.7614328 C81.3219608,43.1721016 81.4012933,43.5547644 81.5599608,43.9094328 C81.7186282,44.2641013 82.0686247,44.4414328 82.6099608,44.4414328 L83.9259608,44.4414328 L83.9259608,47.3814328 L81.6299608,47.3814328 Z M65.6979608,58.7774328 C65.4366261,58.4414312 65.081963,58.1707672 64.6339608,57.9654328 C64.1859585,57.7600985 63.7286298,57.6574328 63.2619608,57.6574328 C62.776625,57.6574328 62.3379627,57.7554319 61.9459608,57.9514328 C61.5539588,58.1474338 61.2179622,58.4087645 60.9379608,58.7354328 C60.6579594,59.0621011 60.4386282,59.4400974 60.2799608,59.8694328 C60.1212933,60.2987683 60.0419608,60.7560971 60.0419608,61.2414328 C60.0419608,61.7267686 60.1166267,62.1840974 60.2659608,62.6134328 C60.4152949,63.0427683 60.634626,63.4207645 60.9239608,63.7474328 C61.2132956,64.0741011 61.5586254,64.3307652 61.9599608,64.5174328 C62.3612961,64.7041004 62.8139583,64.7974328 63.3179608,64.7974328 C63.7846298,64.7974328 64.2466252,64.7087671 64.7039608,64.5314328 C65.1612964,64.3540986 65.5299594,64.0974345 65.8099608,63.7614328 L68.3579608,66.8694328 C67.7792912,67.4294356 67.032632,67.8680979 66.1179608,68.1854328 C65.2032895,68.5027678 64.2326326,68.6614328 63.2059608,68.6614328 C62.1046219,68.6614328 61.0779655,68.4934345 60.1259608,68.1574328 C59.173956,67.8214312 58.3479643,67.3314361 57.6479608,66.6874328 C56.9479573,66.0434296 56.3972961,65.2641041 55.9959608,64.3494328 C55.5946254,63.4347616 55.3939608,62.398772 55.3939608,61.2414328 C55.3939608,60.1027605 55.5946254,59.0761041 55.9959608,58.1614328 C56.3972961,57.2467616 56.9479573,56.4674361 57.6479608,55.8234328 C58.3479643,55.1794296 59.173956,54.6847679 60.1259608,54.3394328 C61.0779655,53.9940978 62.0952887,53.8214328 63.1779608,53.8214328 C63.6819633,53.8214328 64.1812916,53.868099 64.6759608,53.9614328 C65.1706299,54.0547666 65.6466252,54.1807654 66.1039608,54.3394328 C66.5612964,54.4981003 66.9812922,54.6940983 67.3639608,54.9274328 C67.7466294,55.1607673 68.0779594,55.4174314 68.3579608,55.6974328 L65.6979608,58.7774328 Z M84.9619608,61.1854328 C84.9619608,62.3241052 84.7566295,63.3554282 84.3459608,64.2794328 C83.9352921,65.2034375 83.3752977,65.9874296 82.6659608,66.6314328 C81.9566239,67.2754361 81.1352988,67.7747644 80.2019608,68.1294328 C79.2686228,68.4841013 78.2699661,68.6614328 77.2059608,68.6614328 C76.1606222,68.6614328 75.1666322,68.4841013 74.2239608,68.1294328 C73.2812894,67.7747644 72.4599643,67.2754361 71.7599608,66.6314328 C71.0599573,65.9874296 70.5046295,65.2034375 70.0939608,64.2794328 C69.6832921,63.3554282 69.4779608,62.3241052 69.4779608,61.1854328 C69.4779608,60.0467605 69.6832921,59.0201041 70.0939608,58.1054328 C70.5046295,57.1907616 71.0599573,56.4161027 71.7599608,55.7814328 C72.4599643,55.146763 73.2812894,54.6614345 74.2239608,54.3254328 C75.1666322,53.9894312 76.1606222,53.8214328 77.2059608,53.8214328 C78.2699661,53.8214328 79.2686228,53.9894312 80.2019608,54.3254328 C81.1352988,54.6614345 81.9566239,55.146763 82.6659608,55.7814328 C83.3752977,56.4161027 83.9352921,57.1907616 84.3459608,58.1054328 C84.7566295,59.0201041 84.9619608,60.0467605 84.9619608,61.1854328 Z M80.5379608,61.1854328 C80.5379608,60.7374306 80.4632949,60.2987683 80.3139608,59.8694328 C80.1646267,59.4400974 79.9499622,59.0621011 79.6699608,58.7354328 C79.3899594,58.4087645 79.0446295,58.1427672 78.6339608,57.9374328 C78.2232921,57.7320985 77.7472968,57.6294328 77.2059608,57.6294328 C76.6646247,57.6294328 76.1886295,57.7320985 75.7779608,57.9374328 C75.3672921,58.1427672 75.0266288,58.4087645 74.7559608,58.7354328 C74.4852928,59.0621011 74.2799615,59.4400974 74.1399608,59.8694328 C73.9999601,60.2987683 73.9299608,60.7374306 73.9299608,61.1854328 C73.9299608,61.6334351 73.9999601,62.0720974 74.1399608,62.5014328 C74.2799615,62.9307683 74.4899594,63.3180978 74.7699608,63.6634328 C75.0499622,64.0087679 75.3952921,64.2840985 75.8059608,64.4894328 C76.2166295,64.6947672 76.6926247,64.7974328 77.2339608,64.7974328 C77.7752968,64.7974328 78.2512921,64.6947672 78.6619608,64.4894328 C79.0726295,64.2840985 79.4179594,64.0087679 79.6979608,63.6634328 C79.9779622,63.3180978 80.1879601,62.9307683 80.3279608,62.5014328 C80.4679615,62.0720974 80.5379608,61.6334351 80.5379608,61.1854328 Z M87.9299608,68.2134328 L87.9299608,47.0454328 L92.5779608,47.0454328 L92.5779608,68.2134328 L87.9299608,68.2134328 Z M111.001961,61.1854328 C111.001961,62.3241052 110.79663,63.3554282 110.385961,64.2794328 C109.975292,65.2034375 109.415298,65.9874296 108.705961,66.6314328 C107.996624,67.2754361 107.175299,67.7747644 106.241961,68.1294328 C105.308623,68.4841013 104.309966,68.6614328 103.245961,68.6614328 C102.200622,68.6614328 101.206632,68.4841013 100.263961,68.1294328 C99.3212894,67.7747644 98.4999643,67.2754361 97.7999608,66.6314328 C97.0999573,65.9874296 96.5446295,65.2034375 96.1339608,64.2794328 C95.7232921,63.3554282 95.5179608,62.3241052 95.5179608,61.1854328 C95.5179608,60.0467605 95.7232921,59.0201041 96.1339608,58.1054328 C96.5446295,57.1907616 97.0999573,56.4161027 97.7999608,55.7814328 C98.4999643,55.146763 99.3212894,54.6614345 100.263961,54.3254328 C101.206632,53.9894312 102.200622,53.8214328 103.245961,53.8214328 C104.309966,53.8214328 105.308623,53.9894312 106.241961,54.3254328 C107.175299,54.6614345 107.996624,55.146763 108.705961,55.7814328 C109.415298,56.4161027 109.975292,57.1907616 110.385961,58.1054328 C110.79663,59.0201041 111.001961,60.0467605 111.001961,61.1854328 Z M106.577961,61.1854328 C106.577961,60.7374306 106.503295,60.2987683 106.353961,59.8694328 C106.204627,59.4400974 105.989962,59.0621011 105.709961,58.7354328 C105.429959,58.4087645 105.08463,58.1427672 104.673961,57.9374328 C104.263292,57.7320985 103.787297,57.6294328 103.245961,57.6294328 C102.704625,57.6294328 102.22863,57.7320985 101.817961,57.9374328 C101.407292,58.1427672 101.066629,58.4087645 100.795961,58.7354328 C100.525293,59.0621011 100.319961,59.4400974 100.179961,59.8694328 C100.03996,60.2987683 99.9699608,60.7374306 99.9699608,61.1854328 C99.9699608,61.6334351 100.03996,62.0720974 100.179961,62.5014328 C100.319961,62.9307683 100.529959,63.3180978 100.809961,63.6634328 C101.089962,64.0087679 101.435292,64.2840985 101.845961,64.4894328 C102.25663,64.6947672 102.732625,64.7974328 103.273961,64.7974328 C103.815297,64.7974328 104.291292,64.6947672 104.701961,64.4894328 C105.11263,64.2840985 105.457959,64.0087679 105.737961,63.6634328 C106.017962,63.3180978 106.22796,62.9307683 106.367961,62.5014328 C106.507961,62.0720974 106.577961,61.6334351 106.577961,61.1854328 Z M122.957961,58.0214328 C122.752626,57.9654326 122.551962,57.9280996 122.355961,57.9094328 C122.15996,57.8907661 121.968628,57.8814328 121.781961,57.8814328 C121.165958,57.8814328 120.647963,57.9934317 120.227961,58.2174328 C119.807959,58.441434 119.471962,58.7120979 119.219961,59.0294328 C118.96796,59.3467678 118.785961,59.6920976 118.673961,60.0654328 C118.56196,60.438768 118.505961,60.7654314 118.505961,61.0454328 L118.505961,68.2134328 L113.913961,68.2134328 L113.913961,54.2694328 L118.337961,54.2694328 L118.337961,56.2854328 L118.393961,56.2854328 C118.748629,55.576096 119.252624,54.9974351 119.905961,54.5494328 C120.559297,54.1014306 121.31529,53.8774328 122.173961,53.8774328 C122.360628,53.8774328 122.542627,53.8867661 122.719961,53.9054328 C122.897295,53.9240996 123.04196,53.9520993 123.153961,53.9894328 L122.957961,58.0214328 Z M130.601961,56.7334328 C130.601961,57.106768 130.527295,57.4567645 130.377961,57.7834328 C130.228627,58.1101011 130.032629,58.394765 129.789961,58.6374328 C129.547293,58.8801007 129.257962,59.0714321 128.921961,59.2114328 C128.585959,59.3514335 128.240629,59.4214328 127.885961,59.4214328 C127.512626,59.4214328 127.157962,59.3561002 126.821961,59.2254328 C126.485959,59.0947655 126.191962,58.9081007 125.939961,58.6654328 C125.68796,58.422765 125.487295,58.1427678 125.337961,57.8254328 C125.188627,57.5080979 125.113961,57.162768 125.113961,56.7894328 C125.113961,56.4160976 125.188627,56.0661011 125.337961,55.7394328 C125.487295,55.4127645 125.68796,55.1281007 125.939961,54.8854328 C126.191962,54.642765 126.485959,54.4514335 126.821961,54.3114328 C127.157962,54.1714321 127.512626,54.1014328 127.885961,54.1014328 C128.240629,54.1014328 128.585959,54.1714321 128.921961,54.3114328 C129.257962,54.4514335 129.547293,54.6380983 129.789961,54.8714328 C130.032629,55.1047673 130.228627,55.3847645 130.377961,55.7114328 C130.527295,56.0381011 130.601961,56.3787644 130.601961,56.7334328 Z M130.601961,65.7214328 C130.601961,66.094768 130.527295,66.4447645 130.377961,66.7714328 C130.228627,67.0981011 130.032629,67.3780983 129.789961,67.6114328 C129.547293,67.8447673 129.257962,68.0314321 128.921961,68.1714328 C128.585959,68.3114335 128.240629,68.3814328 127.885961,68.3814328 C127.512626,68.3814328 127.157962,68.3161002 126.821961,68.1854328 C126.485959,68.0547655 126.191962,67.8681007 125.939961,67.6254328 C125.68796,67.382765 125.487295,67.1027678 125.337961,66.7854328 C125.188627,66.4680979 125.113961,66.122768 125.113961,65.7494328 C125.113961,65.3760976 125.188627,65.0261011 125.337961,64.6994328 C125.487295,64.3727645 125.68796,64.0881007 125.939961,63.8454328 C126.191962,63.602765 126.485959,63.4114335 126.821961,63.2714328 C127.157962,63.1314321 127.512626,63.0614328 127.885961,63.0614328 C128.240629,63.0614328 128.585959,63.1314321 128.921961,63.2714328 C129.257962,63.4114335 129.547293,63.5980983 129.789961,63.8314328 C130.032629,64.0647673 130.228627,64.3447645 130.377961,64.6714328 C130.527295,64.9981011 130.601961,65.3480976 130.601961,65.7214328 Z M156.837961,61.1854328 C156.837961,62.1561044 156.688629,63.0894284 156.389961,63.9854328 C156.091293,64.8814373 155.657297,65.6700961 155.087961,66.3514328 C154.518625,67.0327696 153.823298,67.5787641 153.001961,67.9894328 C152.180623,68.4001016 151.247299,68.6054328 150.201961,68.6054328 C149.268623,68.6054328 148.386632,68.4141014 147.555961,68.0314328 C146.72529,67.6487643 146.085963,67.1027697 145.637961,66.3934328 L145.581961,66.3934328 L145.581961,68.2134328 L141.353961,68.2134328 L141.353961,47.0454328 L145.945961,47.0454328 L145.945961,55.7534328 L146.001961,55.7534328 C146.393963,55.2867638 146.944624,54.8574348 147.653961,54.4654328 C148.363298,54.0734309 149.231289,53.8774328 150.257961,53.8774328 C151.265966,53.8774328 152.175957,54.0734309 152.987961,54.4654328 C153.799965,54.8574348 154.490625,55.3894295 155.059961,56.0614328 C155.629297,56.7334362 156.067959,57.5127617 156.375961,58.3994328 C156.683962,59.2861039 156.837961,60.2147613 156.837961,61.1854328 Z M152.413961,61.1854328 C152.413961,60.7374306 152.343961,60.2987683 152.203961,59.8694328 C152.06396,59.4400974 151.853962,59.0621011 151.573961,58.7354328 C151.293959,58.4087645 150.94863,58.1427672 150.537961,57.9374328 C150.127292,57.7320985 149.651297,57.6294328 149.109961,57.6294328 C148.587292,57.6294328 148.12063,57.7320985 147.709961,57.9374328 C147.299292,58.1427672 146.949296,58.4134312 146.659961,58.7494328 C146.370626,59.0854345 146.146628,59.4680974 145.987961,59.8974328 C145.829293,60.3267683 145.749961,60.7654306 145.749961,61.2134328 C145.749961,61.6614351 145.829293,62.1000974 145.987961,62.5294328 C146.146628,62.9587683 146.370626,63.3414312 146.659961,63.6774328 C146.949296,64.0134345 147.299292,64.2840985 147.709961,64.4894328 C148.12063,64.6947672 148.587292,64.7974328 149.109961,64.7974328 C149.651297,64.7974328 150.127292,64.6947672 150.537961,64.4894328 C150.94863,64.2840985 151.293959,64.0134345 151.573961,63.6774328 C151.853962,63.3414312 152.06396,62.9541017 152.203961,62.5154328 C152.343961,62.076764 152.413961,61.6334351 152.413961,61.1854328 Z M159.805961,68.2134328 L159.805961,47.0454328 L164.453961,47.0454328 L164.453961,68.2134328 L159.805961,68.2134328 Z M177.277961,68.2134328 L177.277961,66.2814328 L177.221961,66.2814328 C177.05396,66.5987678 176.834629,66.8974314 176.563961,67.1774328 C176.293293,67.4574342 175.975963,67.7000985 175.611961,67.9054328 C175.247959,68.1107672 174.84663,68.2787655 174.407961,68.4094328 C173.969292,68.5401002 173.507297,68.6054328 173.021961,68.6054328 C172.088623,68.6054328 171.299964,68.4374345 170.655961,68.1014328 C170.011958,67.7654312 169.489296,67.3314355 169.087961,66.7994328 C168.686625,66.2674302 168.397295,65.6607696 168.219961,64.9794328 C168.042627,64.2980961 167.953961,63.6027697 167.953961,62.8934328 L167.953961,54.2694328 L172.573961,54.2694328 L172.573961,61.8294328 C172.573961,62.2214348 172.601961,62.5947644 172.657961,62.9494328 C172.713961,63.3041013 172.821293,63.6214314 172.979961,63.9014328 C173.138628,64.1814342 173.348626,64.4007654 173.609961,64.5594328 C173.871295,64.7181003 174.216625,64.7974328 174.645961,64.7974328 C175.448631,64.7974328 176.059959,64.4987692 176.479961,63.9014328 C176.899963,63.3040965 177.109961,62.6041035 177.109961,61.8014328 L177.109961,54.2694328 L181.701961,54.2694328 L181.701961,68.2134328 L177.277961,68.2134328 Z M64.3259608,87.3374328 L63.7379608,87.3374328 C63.2339583,87.3374328 62.7252967,87.3607659 62.2119608,87.4074328 C61.6986249,87.4540997 61.2412961,87.5427655 60.8399608,87.6734328 C60.4386254,87.8041002 60.1072954,87.9954316 59.8459608,88.2474328 C59.5846261,88.4994341 59.4539608,88.8307641 59.4539608,89.2414328 C59.4539608,89.5027675 59.5146268,89.7267652 59.6359608,89.9134328 C59.7572947,90.1001004 59.9112932,90.2494323 60.0979608,90.3614328 C60.2846284,90.4734334 60.4992929,90.5527659 60.7419608,90.5994328 C60.9846287,90.6460997 61.2179597,90.6694328 61.4419608,90.6694328 C62.3752988,90.6694328 63.0892916,90.4127687 63.5839608,89.8994328 C64.0786299,89.3860969 64.3259608,88.6907706 64.3259608,87.8134328 L64.3259608,87.3374328 Z M55.8979608,81.3734328 C56.7192982,80.5894289 57.6759553,80.0014348 58.7679608,79.6094328 C59.8599662,79.2174309 60.9752884,79.0214328 62.1139608,79.0214328 C63.2899667,79.0214328 64.2839567,79.1660981 65.0959608,79.4554328 C65.9079648,79.7447676 66.5659583,80.1927631 67.0699608,80.7994328 C67.5739633,81.4061025 67.9426263,82.1714282 68.1759608,83.0954328 C68.4092953,84.0194375 68.5259608,85.1160932 68.5259608,86.3854328 L68.5259608,93.4134328 L64.3259608,93.4134328 L64.3259608,91.9294328 L64.2419608,91.9294328 C63.8872923,92.5081024 63.350631,92.9560979 62.6319608,93.2734328 C61.9132905,93.5907678 61.133965,93.7494328 60.2939608,93.7494328 C59.733958,93.7494328 59.1552971,93.6747669 58.5579608,93.5254328 C57.9606245,93.3760988 57.4146299,93.1334345 56.9199608,92.7974328 C56.4252916,92.4614312 56.0192957,92.0134356 55.7019608,91.4534328 C55.3846259,90.89343 55.2259608,90.2027703 55.2259608,89.3814328 C55.2259608,88.3734278 55.5012914,87.5614359 56.0519608,86.9454328 C56.6026302,86.3294298 57.3119564,85.8534345 58.1799608,85.5174328 C59.0479651,85.1814312 60.0139555,84.9574334 61.0779608,84.8454328 C62.1419661,84.7334323 63.1779557,84.6774328 64.1859608,84.6774328 L64.1859608,84.4534328 C64.1859608,83.7627627 63.9432965,83.2541011 63.4579608,82.9274328 C62.972625,82.6007645 62.3752977,82.4374328 61.6659608,82.4374328 C61.0126242,82.4374328 60.3826305,82.5774314 59.7759608,82.8574328 C59.1692911,83.1374342 58.6512963,83.4734309 58.2219608,83.8654328 L55.8979608,81.3734328 Z M83.0299608,97.7814328 C81.8539549,97.7814328 80.9206309,97.4081032 80.2299608,96.6614328 C79.5392907,95.9147624 79.1939608,94.9067725 79.1939608,93.6374328 L79.1939608,88.9614328 C79.1939608,88.5320974 79.1379613,88.1821009 79.0259608,87.9114328 C78.9139602,87.6407648 78.769295,87.4307669 78.5919608,87.2814328 C78.4146266,87.1320988 78.2139619,87.0294331 77.9899608,86.9734328 C77.7659597,86.9174326 77.5419619,86.8894328 77.3179608,86.8894328 L77.3179608,83.8094328 C77.5419619,83.8094328 77.7659597,83.7814331 77.9899608,83.7254328 C78.2139619,83.6694326 78.4146266,83.5714335 78.5919608,83.4314328 C78.769295,83.2914321 78.9139602,83.0907675 79.0259608,82.8294328 C79.1379613,82.5680982 79.1939608,82.2414348 79.1939608,81.8494328 L79.1939608,77.0614328 C79.1939608,75.7920932 79.5392907,74.7841032 80.2299608,74.0374328 C80.9206309,73.2907624 81.8539549,72.9174328 83.0299608,72.9174328 L85.3259608,72.9174328 L85.3259608,75.8574328 L84.0099608,75.8574328 C83.4686247,75.8574328 83.1186282,76.0347644 82.9599608,76.3894328 C82.8012933,76.7441013 82.7219608,77.1267641 82.7219608,77.5374328 L82.7219608,82.2134328 C82.7219608,82.7547689 82.6286284,83.2167643 82.4419608,83.5994328 C82.2552932,83.9821014 82.0266288,84.294765 81.7559608,84.5374328 C81.4852928,84.7801007 81.2006289,84.9667655 80.9019608,85.0974328 C80.6032926,85.2281002 80.3419619,85.3027661 80.1179608,85.3214328 L80.1179608,85.3774328 C80.3419619,85.3960996 80.6032926,85.4614323 80.9019608,85.5734328 C81.2006289,85.6854334 81.4852928,85.862765 81.7559608,86.1054328 C82.0266288,86.3481007 82.2552932,86.6700975 82.4419608,87.0714328 C82.6286284,87.4727682 82.7219608,87.9814298 82.7219608,88.5974328 L82.7219608,93.1614328 C82.7219608,93.5721016 82.8012933,93.9547644 82.9599608,94.3094328 C83.1186282,94.6641013 83.4686247,94.8414328 84.0099608,94.8414328 L85.3259608,94.8414328 L85.3259608,97.7814328 L83.0299608,97.7814328 Z M117.077961,108.113433 L117.077961,113.433433 C117.077961,114.086769 117.20396,114.576765 117.455961,114.903433 C117.707962,115.230101 118.160624,115.393433 118.813961,115.393433 C119.037962,115.393433 119.27596,115.374766 119.527961,115.337433 C119.779962,115.300099 119.98996,115.2441 120.157961,115.169433 L120.213961,118.529433 C119.896626,118.641433 119.495297,118.739432 119.009961,118.823433 C118.524625,118.907433 118.039297,118.949433 117.553961,118.949433 C116.620623,118.949433 115.836631,118.832767 115.201961,118.599433 C114.567291,118.366098 114.058629,118.030102 113.675961,117.591433 C113.293292,117.152764 113.017962,116.630103 112.849961,116.023433 C112.68196,115.416763 112.597961,114.740103 112.597961,113.993433 L112.597961,108.113433 L110.357961,108.113433 L110.357961,104.669433 L112.569961,104.669433 L112.569961,101.001433 L117.077961,101.001433 L117.077961,104.669433 L120.353961,104.669433 L120.353961,108.113433 L117.077961,108.113433 Z M132.113961,110.045433 C132.113961,109.317429 131.885296,108.692102 131.427961,108.169433 C130.970625,107.646764 130.284632,107.385433 129.369961,107.385433 C128.921959,107.385433 128.511296,107.455432 128.137961,107.595433 C127.764626,107.735434 127.437962,107.926765 127.157961,108.169433 C126.877959,108.412101 126.653962,108.696765 126.485961,109.023433 C126.31796,109.350101 126.224628,109.690764 126.205961,110.045433 L132.113961,110.045433 Z M136.341961,111.809433 L136.341961,112.369433 C136.341961,112.5561 136.332628,112.733432 136.313961,112.901433 L126.205961,112.901433 C126.243294,113.293435 126.35996,113.648098 126.555961,113.965433 C126.751962,114.282768 127.003959,114.558098 127.311961,114.791433 C127.619962,115.024767 127.965292,115.206766 128.347961,115.337433 C128.730629,115.4681 129.127292,115.533433 129.537961,115.533433 C130.265964,115.533433 130.881958,115.398101 131.385961,115.127433 C131.889963,114.856765 132.300626,114.506768 132.617961,114.077433 L135.809961,116.093433 C135.156624,117.045438 134.293299,117.778097 133.219961,118.291433 C132.146622,118.804769 130.900635,119.061433 129.481961,119.061433 C128.436622,119.061433 127.447299,118.898101 126.513961,118.571433 C125.580623,118.244765 124.763964,117.768769 124.063961,117.143433 C123.363957,116.518096 122.813296,115.748104 122.411961,114.833433 C122.010625,113.918762 121.809961,112.873439 121.809961,111.697433 C121.809961,110.55876 122.005959,109.527437 122.397961,108.603433 C122.789963,107.679428 123.321957,106.895436 123.993961,106.251433 C124.665964,105.60743 125.45929,105.108101 126.373961,104.753433 C127.288632,104.398764 128.277955,104.221433 129.341961,104.221433 C130.368633,104.221433 131.31129,104.394098 132.169961,104.739433 C133.028632,105.084768 133.765958,105.584096 134.381961,106.237433 C134.997964,106.890769 135.478626,107.684095 135.823961,108.617433 C136.169296,109.550771 136.341961,110.61476 136.341961,111.809433 Z M148.717961,118.613433 L145.721961,114.329433 L142.641961,118.613433 L137.321961,118.613433 L142.893961,111.305433 L137.853961,104.669433 L143.201961,104.669433 L145.805961,108.393433 L148.437961,104.669433 L153.617961,104.669433 L148.605961,111.305433 L154.121961,118.613433 L148.717961,118.613433 Z M160.813961,108.113433 L160.813961,113.433433 C160.813961,114.086769 160.93996,114.576765 161.191961,114.903433 C161.443962,115.230101 161.896624,115.393433 162.549961,115.393433 C162.773962,115.393433 163.01196,115.374766 163.263961,115.337433 C163.515962,115.300099 163.72596,115.2441 163.893961,115.169433 L163.949961,118.529433 C163.632626,118.641433 163.231297,118.739432 162.745961,118.823433 C162.260625,118.907433 161.775297,118.949433 161.289961,118.949433 C160.356623,118.949433 159.572631,118.832767 158.937961,118.599433 C158.303291,118.366098 157.794629,118.030102 157.411961,117.591433 C157.029292,117.152764 156.753962,116.630103 156.585961,116.023433 C156.41796,115.416763 156.333961,114.740103 156.333961,113.993433 L156.333961,108.113433 L154.093961,108.113433 L154.093961,104.669433 L156.305961,104.669433 L156.305961,101.001433 L160.813961,101.001433 L160.813961,104.669433 L164.089961,104.669433 L164.089961,108.113433 L160.813961,108.113433 Z M165.461961,113.097433 L165.461961,109.457433 L172.573961,109.457433 L172.573961,113.097433 L165.461961,113.097433 Z M183.955961,118.431433 C183.12529,118.814101 182.243299,119.005433 181.309961,119.005433 C180.264622,119.005433 179.331298,118.800102 178.509961,118.389433 C177.688623,117.978764 176.993297,117.43277 176.423961,116.751433 C175.854625,116.070096 175.420629,115.281437 175.121961,114.385433 C174.823293,113.489428 174.673961,112.556104 174.673961,111.585433 C174.673961,110.614761 174.827959,109.686104 175.135961,108.799433 C175.443962,107.912762 175.882625,107.133436 176.451961,106.461433 C177.021297,105.789429 177.711957,105.257435 178.523961,104.865433 C179.335965,104.473431 180.245956,104.277433 181.253961,104.277433 C182.280633,104.277433 183.148624,104.473431 183.857961,104.865433 C184.567298,105.257435 184.786632,118.048764 183.955961,118.431433 Z M183.801961,108.337433 C183.391292,108.132098 182.92463,108.029433 182.401961,108.029433 C181.860625,108.029433 181.38463,108.132098 180.973961,108.337433 C180.563292,108.542767 180.217962,108.808765 179.937961,109.135433 C179.657959,109.462101 179.447961,109.840097 179.307961,110.269433 C179.16796,110.698768 179.097961,111.137431 179.097961,111.585433 C179.097961,112.033435 179.16796,112.476764 179.307961,112.915433 C179.447961,113.354102 179.657959,113.741431 179.937961,114.077433 C180.217962,114.413435 180.563292,114.684098 180.973961,114.889433 C181.38463,115.094767 181.860625,115.197433 182.401961,115.197433 C182.92463,115.197433 183.391292,115.094767 183.801961,114.889433 C184.21263,114.684098 184.21263,108.542767 183.801961,108.337433 Z M121.697961,134.377433 C121.436626,134.041431 121.081963,133.770767 120.633961,133.565433 C120.185959,133.360098 119.72863,133.257433 119.261961,133.257433 C118.776625,133.257433 118.337963,133.355432 117.945961,133.551433 C117.553959,133.747434 117.217962,134.008765 116.937961,134.335433 C116.657959,134.662101 116.438628,135.040097 116.279961,135.469433 C116.121293,135.898768 116.041961,136.356097 116.041961,136.841433 C116.041961,137.326769 116.116627,137.784097 116.265961,138.213433 C116.415295,138.642768 116.634626,139.020765 116.923961,139.347433 C117.213296,139.674101 117.558625,139.930765 117.959961,140.117433 C118.361296,140.3041 118.813958,140.397433 119.317961,140.397433 C119.78463,140.397433 120.246625,140.308767 120.703961,140.131433 C121.161296,139.954099 121.529959,139.697435 121.809961,139.361433 L124.357961,142.469433 C123.779291,143.029436 123.032632,143.468098 122.117961,143.785433 C121.20329,144.102768 120.232633,144.261433 119.205961,144.261433 C118.104622,144.261433 117.077966,144.093435 116.125961,143.757433 C115.173956,143.421431 114.347964,142.931436 113.647961,142.287433 C112.947957,141.64343 112.397296,140.864104 111.995961,139.949433 C111.594625,139.034762 111.393961,137.998772 111.393961,136.841433 C111.393961,135.70276 111.594625,134.676104 111.995961,133.761433 C112.397296,132.846762 112.947957,132.067436 113.647961,131.423433 C114.347964,130.77943 115.173956,130.284768 116.125961,129.939433 C117.077966,129.594098 118.095289,129.421433 119.177961,129.421433 C119.681963,129.421433 120.181292,129.468099 120.675961,129.561433 C121.17063,129.654767 121.646625,129.780765 122.103961,129.939433 C122.561296,130.0981 122.981292,130.294098 123.363961,130.527433 C123.746629,130.760767 124.077959,131.017431 124.357961,131.297433 L121.697961,134.377433 Z M140.961961,136.785433 C140.961961,137.924105 140.75663,138.955428 140.345961,139.879433 C139.935292,140.803437 139.375298,141.58743 138.665961,142.231433 C137.956624,142.875436 137.135299,143.374764 136.201961,143.729433 C135.268623,144.084101 134.269966,144.261433 133.205961,144.261433 C132.160622,144.261433 131.166632,144.084101 130.223961,143.729433 C129.281289,143.374764 128.459964,142.875436 127.759961,142.231433 C127.059957,141.58743 126.50463,140.803437 126.093961,139.879433 C125.683292,138.955428 125.477961,137.924105 125.477961,136.785433 C125.477961,135.64676 125.683292,134.620104 126.093961,133.705433 C126.50463,132.790762 127.059957,132.016103 127.759961,131.381433 C128.459964,130.746763 129.281289,130.261435 130.223961,129.925433 C131.166632,129.589431 132.160622,129.421433 133.205961,129.421433 C134.269966,129.421433 135.268623,129.589431 136.201961,129.925433 C137.135299,130.261435 137.956624,130.746763 138.665961,131.381433 C139.375298,132.016103 139.935292,132.790762 140.345961,133.705433 C140.75663,134.620104 140.961961,135.64676 140.961961,136.785433 Z M136.537961,136.785433 C136.537961,136.337431 136.463295,135.898768 136.313961,135.469433 C136.164627,135.040097 135.949962,134.662101 135.669961,134.335433 C135.389959,134.008765 135.04463,133.742767 134.633961,133.537433 C134.223292,133.332098 133.747297,133.229433 133.205961,133.229433 C132.664625,133.229433 132.18863,133.332098 131.777961,133.537433 C131.367292,133.742767 131.026629,134.008765 130.755961,134.335433 C130.485293,134.662101 130.279961,135.040097 130.139961,135.469433 C129.99996,135.898768 129.929961,136.337431 129.929961,136.785433 C129.929961,137.233435 129.99996,137.672097 130.139961,138.101433 C130.279961,138.530768 130.489959,138.918098 130.769961,139.263433 C131.049962,139.608768 131.395292,139.884098 131.805961,140.089433 C132.21663,140.294767 132.692625,140.397433 133.233961,140.397433 C133.775297,140.397433 134.251292,140.294767 134.661961,140.089433 C135.07263,139.884098 135.417959,139.608768 135.697961,139.263433 C135.977962,138.918098 136.18796,138.530768 136.327961,138.101433 C136.467961,137.672097 136.537961,137.233435 136.537961,136.785433 Z M143.929961,143.813433 L143.929961,122.645433 L148.577961,122.645433 L148.577961,143.813433 L143.929961,143.813433 Z M167.001961,136.785433 C167.001961,137.924105 166.79663,138.955428 166.385961,139.879433 C165.975292,140.803437 165.415298,141.58743 164.705961,142.231433 C163.996624,142.875436 163.175299,143.374764 162.241961,143.729433 C161.308623,144.084101 160.309966,144.261433 159.245961,144.261433 C158.200622,144.261433 157.206632,144.084101 156.263961,143.729433 C155.321289,143.374764 154.499964,142.875436 153.799961,142.231433 C153.099957,141.58743 152.54463,140.803437 152.133961,139.879433 C151.723292,138.955428 151.517961,137.924105 151.517961,136.785433 C151.517961,135.64676 151.723292,134.620104 152.133961,133.705433 C152.54463,132.790762 153.099957,132.016103 153.799961,131.381433 C154.499964,130.746763 155.321289,130.261435 156.263961,129.925433 C157.206632,129.589431 158.200622,129.421433 159.245961,129.421433 C160.309966,129.421433 161.308623,129.589431 162.241961,129.925433 C163.175299,130.261435 163.996624,130.746763 164.705961,131.381433 C165.415298,132.016103 165.975292,132.790762 166.385961,133.705433 C166.79663,134.620104 167.001961,135.64676 167.001961,136.785433 Z M162.577961,136.785433 C162.577961,136.337431 162.503295,135.898768 162.353961,135.469433 C162.204627,135.040097 161.989962,134.662101 161.709961,134.335433 C161.429959,134.008765 161.08463,133.742767 160.673961,133.537433 C160.263292,133.332098 159.787297,133.229433 159.245961,133.229433 C158.704625,133.229433 158.22863,133.332098 157.817961,133.537433 C157.407292,133.742767 157.066629,134.008765 156.795961,134.335433 C156.525293,134.662101 156.319961,135.040097 156.179961,135.469433 C156.03996,135.898768 155.969961,136.337431 155.969961,136.785433 C155.969961,137.233435 156.03996,137.672097 156.179961,138.101433 C156.319961,138.530768 156.529959,138.918098 156.809961,139.263433 C157.089962,139.608768 157.435292,139.884098 157.845961,140.089433 C158.25663,140.294767 158.732625,140.397433 159.273961,140.397433 C159.815297,140.397433 160.291292,140.294767 160.701961,140.089433 C161.11263,139.884098 161.457959,139.608768 161.737961,139.263433 C162.017962,138.918098 162.22796,138.530768 162.367961,138.101433 C162.507961,137.672097 162.577961,137.233435 162.577961,136.785433 Z M178.957961,133.621433 C178.752626,133.565433 178.551962,133.5281 178.355961,133.509433 C178.15996,133.490766 177.968628,133.481433 177.781961,133.481433 C177.165958,133.481433 176.647963,133.593432 176.227961,133.817433 C175.807959,134.041434 175.471962,134.312098 175.219961,134.629433 C174.96796,134.946768 174.785961,135.292098 174.673961,135.665433 C174.56196,136.038768 174.505961,136.365431 174.505961,136.645433 L174.505961,143.813433 L169.913961,143.813433 L169.913961,129.869433 L174.337961,129.869433 L174.337961,131.885433 L174.393961,131.885433 C174.748629,131.176096 175.252624,130.597435 175.905961,130.149433 C176.559297,129.701431 177.31529,129.477433 178.173961,129.477433 C178.360628,129.477433 178.542627,129.486766 178.719961,129.505433 C178.897295,129.5241 179.04196,129.552099 179.153961,129.589433 L178.957961,133.621433 Z M183.885961,135.021433 C183.512626,135.021433 183.157962,134.9561 182.821961,134.825433 C182.485959,134.694766 182.191962,134.508101 181.939961,134.265433 C181.68796,134.022765 181.487295,133.742768 181.337961,133.425433 C181.188627,133.108098 181.113961,132.762768 181.113961,132.389433 C181.113961,132.016098 181.188627,131.666101 181.337961,131.339433 C181.487295,131.012765 181.68796,130.728101 181.939961,130.485433 C182.191962,130.242765 182.485959,130.051434 182.821961,129.911433 C183.157962,129.771432 183.512626,129.701433 183.885961,129.701433 C184.240629,129.701433 184.240629,135.021433 183.885961,135.021433 Z M183.885961,143.981433 C183.512626,143.981433 183.157962,143.9161 182.821961,143.785433 C182.485959,143.654766 182.191962,143.468101 181.939961,143.225433 C181.68796,142.982765 181.487295,142.702768 181.337961,142.385433 C181.188627,142.068098 181.113961,141.722768 181.113961,141.349433 C181.113961,140.976098 181.188627,140.626101 181.337961,140.299433 C181.487295,139.972765 181.68796,139.688101 181.939961,139.445433 C182.191962,139.202765 182.485959,139.011434 182.821961,138.871433 C183.157962,138.731432 183.512626,138.661433 183.885961,138.661433 C184.240629,138.661433 184.240629,143.981433 183.885961,143.981433 Z M0.513960784,187.185433 L0.513960784,184.301433 L14.7379608,178.309433 L14.7379608,182.117433 L6.16996078,185.785433 L14.7379608,189.341433 L14.7379608,193.177433 L0.513960784,187.185433 Z M29.2979608,194.213433 L29.2979608,192.393433 L29.2419608,192.393433 C28.7939585,193.10277 28.1546316,193.648764 27.3239608,194.031433 C26.49329,194.414101 25.6112988,194.605433 24.6779608,194.605433 C23.6326222,194.605433 22.6992982,194.400102 21.8779608,193.989433 C21.0566233,193.578764 20.361297,193.03277 19.7919608,192.351433 C19.2226246,191.670096 18.7886289,190.881437 18.4899608,189.985433 C18.1912926,189.089428 18.0419608,188.156104 18.0419608,187.185433 C18.0419608,186.214761 18.1959592,185.286104 18.5039608,184.399433 C18.8119623,183.512762 19.2506246,182.733436 19.8199608,182.061433 C20.389297,181.389429 21.0799567,180.857435 21.8919608,180.465433 C22.7039648,180.073431 23.6139557,179.877433 24.6219608,179.877433 C25.6486326,179.877433 26.5166239,180.073431 27.2259608,180.465433 C27.9352977,180.857435 28.4859588,181.286764 28.8779608,181.753433 L28.9339608,181.753433 L28.9339608,173.045433 L33.5259608,173.045433 L33.5259608,194.213433 L29.2979608,194.213433 Z M29.1299608,187.213433 C29.1299608,186.765431 29.0506282,186.326768 28.8919608,185.897433 C28.7332933,185.468097 28.5092956,185.085435 28.2199608,184.749433 C27.930626,184.413431 27.5806295,184.142767 27.1699608,183.937433 C26.7592921,183.732098 26.2926301,183.629433 25.7699608,183.629433 C25.2286247,183.629433 24.7526295,183.732098 24.3419608,183.937433 C23.9312921,184.142767 23.5859622,184.408765 23.3059608,184.735433 C23.0259594,185.062101 22.8159615,185.440097 22.6759608,185.869433 C22.5359601,186.298768 22.4659608,186.737431 22.4659608,187.185433 C22.4659608,187.633435 22.5359601,188.076764 22.6759608,188.515433 C22.8159615,188.954102 23.0259594,189.341431 23.3059608,189.677433 C23.5859622,190.013435 23.9312921,190.284098 24.3419608,190.489433 C24.7526295,190.694767 25.2286247,190.797433 25.7699608,190.797433 C26.2926301,190.797433 26.7592921,190.694767 27.1699608,190.489433 C27.5806295,190.284098 27.930626,190.013435 28.2199608,189.677433 C28.5092956,189.341431 28.7332933,188.958768 28.8919608,188.529433 C29.0506282,188.100097 29.1299608,187.661435 29.1299608,187.213433 Z M42.1499608,175.817433 C42.1499608,176.172101 42.0799615,176.503431 41.9399608,176.811433 C41.7999601,177.119434 41.6132953,177.385432 41.3799608,177.609433 C41.1466263,177.833434 40.8666291,178.010766 40.5399608,178.141433 C40.2132925,178.2721 39.8726292,178.337433 39.5179608,178.337433 C38.7712904,178.337433 38.1459633,178.090102 37.6419608,177.595433 C37.1379583,177.100764 36.8859608,176.508103 36.8859608,175.817433 C36.8859608,175.481431 36.9512935,175.159434 37.0819608,174.851433 C37.2126281,174.543431 37.3992929,174.277434 37.6419608,174.053433 C37.8846287,173.829432 38.1646259,173.647434 38.4819608,173.507433 C38.7992957,173.367432 39.1446256,173.297433 39.5179608,173.297433 C39.8726292,173.297433 40.2132925,173.362766 40.5399608,173.493433 C40.8666291,173.6241 41.1466263,173.801432 41.3799608,174.025433 C41.6132953,174.249434 41.7999601,174.515431 41.9399608,174.823433 C42.0799615,175.131434 42.1499608,175.462764 42.1499608,175.817433 Z M37.2219608,194.213433 L37.2219608,180.269433 L41.8139608,180.269433 L41.8139608,194.213433 L37.2219608,194.213433 Z M54.0779608,194.213433 L49.1219608,194.213433 L43.6339608,180.269433 L48.7019608,180.269433 L51.6419608,189.313433 L51.7259608,189.313433 L54.6659608,180.269433 L59.5659608,180.269433 L54.0779608,194.213433 Z M77.9339608,184.777433 C77.6726261,184.441431 77.317963,184.170767 76.8699608,183.965433 C76.4219585,183.760098 75.9646298,183.657433 75.4979608,183.657433 C75.012625,183.657433 74.5739627,183.755432 74.1819608,183.951433 C73.7899588,184.147434 73.4539622,184.408765 73.1739608,184.735433 C72.8939594,185.062101 72.6746282,185.440097 72.5159608,185.869433 C72.3572933,186.298768 72.2779608,186.756097 72.2779608,187.241433 C72.2779608,187.726769 72.3526267,188.184097 72.5019608,188.613433 C72.6512949,189.042768 72.870626,189.420765 73.1599608,189.747433 C73.4492956,190.074101 73.7946254,190.330765 74.1959608,190.517433 C74.5972961,190.7041 75.0499583,190.797433 75.5539608,190.797433 C76.0206298,190.797433 76.4826252,190.708767 76.9399608,190.531433 C77.3972964,190.354099 77.7659594,190.097435 78.0459608,189.761433 L80.5939608,192.869433 C80.0152912,193.429436 79.268632,193.868098 78.3539608,194.185433 C77.4392895,194.502768 76.4686326,194.661433 75.4419608,194.661433 C74.3406219,194.661433 73.3139655,194.493435 72.3619608,194.157433 C71.409956,193.821431 70.5839643,193.331436 69.8839608,192.687433 C69.1839573,192.04343 68.6332961,191.264104 68.2319608,190.349433 C67.8306254,189.434762 67.6299608,188.398772 67.6299608,187.241433 C67.6299608,186.10276 67.8306254,185.076104 68.2319608,184.161433 C68.6332961,183.246762 69.1839573,182.467436 69.8839608,181.823433 C70.5839643,181.17943 71.409956,180.684768 72.3619608,180.339433 C73.3139655,179.994098 74.3312887,179.821433 75.4139608,179.821433 C75.9179633,179.821433 76.4172916,179.868099 76.9119608,179.961433 C77.4066299,180.054767 77.8826252,180.180765 78.3399608,180.339433 C78.7972964,180.4981 79.2172922,180.694098 79.5999608,180.927433 C79.9826294,181.160767 80.3139594,181.417431 80.5939608,181.697433 L77.9339608,184.777433 Z M82.4699608,194.213433 L82.4699608,173.045433 L87.1179608,173.045433 L87.1179608,194.213433 L82.4699608,194.213433 Z M98.9899608,188.137433 L98.4019608,188.137433 C97.8979583,188.137433 97.3892967,188.160766 96.8759608,188.207433 C96.3626249,188.2541 95.9052961,188.342766 95.5039608,188.473433 C95.1026254,188.6041 94.7712954,188.795432 94.5099608,189.047433 C94.2486261,189.299434 94.1179608,189.630764 94.1179608,190.041433 C94.1179608,190.302767 94.1786268,190.526765 94.2999608,190.713433 C94.4212947,190.9001 94.5752932,191.049432 94.7619608,191.161433 C94.9486284,191.273433 95.1632929,191.352766 95.4059608,191.399433 C95.6486287,191.4461 95.8819597,191.469433 96.1059608,191.469433 C97.0392988,191.469433 97.7532916,191.212769 98.2479608,190.699433 C98.7426299,190.186097 98.9899608,189.490771 98.9899608,188.613433 L98.9899608,188.137433 Z M90.5619608,182.173433 C91.3832982,181.389429 92.3399553,180.801435 93.4319608,180.409433 C94.5239662,180.017431 95.6392884,179.821433 96.7779608,179.821433 C97.9539667,179.821433 98.9479567,179.966098 99.7599608,180.255433 C100.571965,180.544768 101.229958,180.992763 101.733961,181.599433 C102.237963,182.206103 102.606626,182.971428 102.839961,183.895433 C103.073295,184.819437 103.189961,185.916093 103.189961,187.185433 L103.189961,194.213433 L98.9899608,194.213433 L98.9899608,192.729433 L98.9059608,192.729433 C98.5512923,193.308102 98.014631,193.756098 97.2959608,194.073433 C96.5772905,194.390768 95.797965,194.549433 94.9579608,194.549433 C94.397958,194.549433 93.8192971,194.474767 93.2219608,194.325433 C92.6246245,194.176099 92.0786299,193.933435 91.5839608,193.597433 C91.0892916,193.261431 90.6832957,192.813436 90.3659608,192.253433 C90.0486259,191.69343 89.8899608,191.00277 89.8899608,190.181433 C89.8899608,189.173428 90.1652914,188.361436 90.7159608,187.745433 C91.2666302,187.12943 91.9759564,186.653435 92.8439608,186.317433 C93.7119651,185.981431 94.6779555,185.757433 95.7419608,185.645433 C96.8059661,185.533432 97.8419557,185.477433 98.8499608,185.477433 L98.8499608,185.253433 C98.8499608,184.562763 98.6072965,184.054101 98.1219608,183.727433 C97.636625,183.400765 97.0392977,183.237433 96.3299608,183.237433 C95.6766242,183.237433 95.0466305,183.377431 94.4399608,183.657433 C93.8332911,183.937434 93.3152963,184.273431 92.8859608,184.665433 L90.5619608,182.173433 Z M114.809961,184.385433 C114.436626,184.030764 113.997963,183.732101 113.493961,183.489433 C112.989958,183.246765 112.457964,183.125433 111.897961,183.125433 C111.468625,183.125433 111.071963,183.209432 110.707961,183.377433 C110.343959,183.545434 110.161961,183.834764 110.161961,184.245433 C110.161961,184.637435 110.362625,184.917432 110.763961,185.085433 C111.165296,185.253434 111.813956,185.440098 112.709961,185.645433 C113.23263,185.757433 113.759958,185.916098 114.291961,186.121433 C114.823963,186.326767 115.304625,186.597431 115.733961,186.933433 C116.163296,187.269435 116.508626,187.680097 116.769961,188.165433 C117.031295,188.650769 117.161961,189.229429 117.161961,189.901433 C117.161961,190.778771 116.984629,191.520763 116.629961,192.127433 C116.275292,192.734103 115.813297,193.224098 115.243961,193.597433 C114.674625,193.970768 114.035298,194.241432 113.325961,194.409433 C112.616624,194.577434 111.907298,194.661433 111.197961,194.661433 C110.059288,194.661433 108.943966,194.479435 107.851961,194.115433 C106.759955,193.751431 105.849964,193.21477 105.121961,192.505433 L107.697961,189.789433 C108.10863,190.237435 108.612624,190.610765 109.209961,190.909433 C109.807297,191.208101 110.441957,191.357433 111.113961,191.357433 C111.487296,191.357433 111.855959,191.268767 112.219961,191.091433 C112.583963,190.914099 112.765961,190.601435 112.765961,190.153433 C112.765961,189.724097 112.541963,189.406767 112.093961,189.201433 C111.645959,188.996098 110.945966,188.781434 109.993961,188.557433 C109.508625,188.445432 109.023297,188.2961 108.537961,188.109433 C108.052625,187.922765 107.618629,187.670768 107.235961,187.353433 C106.853292,187.036098 106.540629,186.644102 106.297961,186.177433 C106.055293,185.710764 105.933961,185.150769 105.933961,184.497433 C105.933961,183.657429 106.111292,182.943436 106.465961,182.355433 C106.820629,181.76743 107.277958,181.286768 107.837961,180.913433 C108.397964,180.540098 109.018624,180.264767 109.699961,180.087433 C110.381298,179.910099 111.057957,179.821433 111.729961,179.821433 C112.775299,179.821433 113.797289,179.984765 114.795961,180.311433 C115.794632,180.638101 116.639291,181.128096 117.329961,181.781433 L114.809961,184.385433 Z M128.025961,184.385433 C127.652626,184.030764 127.213963,183.732101 126.709961,183.489433 C126.205958,183.246765 125.673964,183.125433 125.113961,183.125433 C124.684625,183.125433 124.287963,183.209432 123.923961,183.377433 C123.559959,183.545434 123.377961,183.834764 123.377961,184.245433 C123.377961,184.637435 123.578625,184.917432 123.979961,185.085433 C124.381296,185.253434 125.029956,185.440098 125.925961,185.645433 C126.44863,185.757433 126.975958,185.916098 127.507961,186.121433 C128.039963,186.326767 128.520625,186.597431 128.949961,186.933433 C129.379296,187.269435 129.724626,187.680097 129.985961,188.165433 C130.247295,188.650769 130.377961,189.229429 130.377961,189.901433 C130.377961,190.778771 130.200629,191.520763 129.845961,192.127433 C129.491292,192.734103 129.029297,193.224098 128.459961,193.597433 C127.890625,193.970768 127.251298,194.241432 126.541961,194.409433 C125.832624,194.577434 125.123298,194.661433 124.413961,194.661433 C123.275288,194.661433 122.159966,194.479435 121.067961,194.115433 C119.975955,193.751431 119.065964,193.21477 118.337961,192.505433 L120.913961,189.789433 C121.32463,190.237435 121.828624,190.610765 122.425961,190.909433 C123.023297,191.208101 123.657957,191.357433 124.329961,191.357433 C124.703296,191.357433 125.071959,191.268767 125.435961,191.091433 C125.799963,190.914099 125.981961,190.601435 125.981961,190.153433 C125.981961,189.724097 125.757963,189.406767 125.309961,189.201433 C124.861959,188.996098 124.161966,188.781434 123.209961,188.557433 C122.724625,188.445432 122.239297,188.2961 121.753961,188.109433 C121.268625,187.922765 120.834629,187.670768 120.451961,187.353433 C120.069292,187.036098 119.756629,186.644102 119.513961,186.177433 C119.271293,185.710764 119.149961,185.150769 119.149961,184.497433 C119.149961,183.657429 119.327292,182.943436 119.681961,182.355433 C120.036629,181.76743 120.493958,181.286768 121.053961,180.913433 C121.613964,180.540098 122.234624,180.264767 122.915961,180.087433 C123.597298,179.910099 124.273957,179.821433 124.945961,179.821433 C125.991299,179.821433 127.013289,179.984765 128.011961,180.311433 C129.010632,180.638101 129.855291,181.128096 130.545961,181.781433 L128.025961,184.385433 Z M133.149961,184.833433 L133.149961,181.389433 L147.989961,181.389433 L147.989961,184.833433 L133.149961,184.833433 Z M133.149961,190.013433 L133.149961,186.569433 L147.989961,186.569433 L147.989961,190.013433 L133.149961,190.013433 Z M160.953961,181.977433 L156.921961,181.977433 L159.413961,174.389433 L162.941961,174.389433 L160.953961,181.977433 Z M155.073961,181.977433 L151.069961,181.977433 L153.617961,174.389433 L157.145961,174.389433 L155.073961,181.977433 Z M174.589961,181.977433 L171.033961,181.977433 L173.105961,174.389433 L177.109961,174.389433 L174.589961,181.977433 Z M168.765961,181.977433 L165.237961,181.977433 L167.253961,174.389433 L171.257961,174.389433 L168.765961,181.977433 Z M180.497961,193.177433 L180.497961,189.341433 L180.497961,182.117433 L180.497961,178.309433 L180.497961,193.177433 Z M56.5139608,212.385433 L56.5139608,209.501433 L70.7379608,203.509433 L70.7379608,207.317433 L62.1699608,210.985433 L70.7379608,214.541433 L70.7379608,218.377433 L56.5139608,212.385433 Z M83.9259608,219.413433 L83.9259608,211.853433 C83.9259608,211.461431 83.8979611,211.088101 83.8419608,210.733433 C83.7859605,210.378764 83.6786282,210.066101 83.5199608,209.795433 C83.3612933,209.524765 83.1512954,209.3101 82.8899608,209.151433 C82.6286261,208.992765 82.2926295,208.913433 81.8819608,208.913433 C81.0792901,208.913433 80.4632963,209.198097 80.0339608,209.767433 C79.6046253,210.336769 79.3899608,211.041429 79.3899608,211.881433 L79.3899608,219.413433 L74.7979608,219.413433 L74.7979608,198.245433 L79.3899608,198.245433 L79.3899608,207.233433 L79.4459608,207.233433 C79.7632957,206.67343 80.2672907,206.174102 80.9579608,205.735433 C81.6486309,205.296764 82.4792893,205.077433 83.4499608,205.077433 C84.4019655,205.077433 85.1999576,205.245431 85.8439608,205.581433 C86.487964,205.917435 87.0106254,206.35143 87.4119608,206.883433 C87.8132961,207.415435 88.1026266,208.026763 88.2799608,208.717433 C88.457295,209.408103 88.5459608,210.098763 88.5459608,210.789433 L88.5459608,219.413433 L83.9259608,219.413433 Z M98.1499608,219.413433 L98.1499608,204.853433 L94.4539608,207.709433 L92.0179608,204.377433 L98.5419608,199.589433 L102.853961,199.589433 L102.853961,219.413433 L98.1499608,219.413433 Z M110.525961,218.377433 L110.525961,214.541433 L119.093961,210.985433 L110.525961,207.317433 L110.525961,203.509433 L124.749961,209.501433 L124.749961,212.385433 L110.525961,218.377433 Z M141.521961,219.413433 L141.521961,211.125433 L133.793961,211.125433 L133.793961,219.413433 L129.005961,219.413433 L129.005961,199.589433 L133.793961,199.589433 L133.793961,207.093433 L141.521961,207.093433 L141.521961,199.589433 L146.309961,199.589433 L146.309961,219.413433 L141.521961,219.413433 Z M155.129961,201.017433 C155.129961,201.372101 155.059961,201.703431 154.919961,202.011433 C154.77996,202.319434 154.593295,202.585432 154.359961,202.809433 C154.126626,203.033434 153.846629,203.210766 153.519961,203.341433 C153.193292,203.4721 152.852629,203.537433 152.497961,203.537433 C151.75129,203.537433 151.125963,203.290102 150.621961,202.795433 C150.117958,202.300764 149.865961,201.708103 149.865961,201.017433 C149.865961,200.681431 149.931293,200.359434 150.061961,200.051433 C150.192628,199.743431 150.379293,199.477434 150.621961,199.253433 C150.864629,199.029432 151.144626,198.847434 151.461961,198.707433 C151.779296,198.567432 152.124626,198.497433 152.497961,198.497433 C152.852629,198.497433 153.193292,198.562766 153.519961,198.693433 C153.846629,198.8241 154.126626,199.001432 154.359961,199.225433 C154.593295,199.449434 154.77996,199.715431 154.919961,200.023433 C155.059961,200.331434 155.129961,200.662764 155.129961,201.017433 Z M150.201961,219.413433 L150.201961,205.469433 L154.793961,205.469433 L154.793961,219.413433 L150.201961,219.413433 Z M159.273961,212.777433 L159.273961,199.589433 L163.977961,199.589433 L163.977961,212.777433 L159.273961,212.777433 Z M164.369961,217.033433 C164.369961,217.406768 164.299961,217.756765 164.159961,218.083433 C164.01996,218.410101 163.823962,218.690098 163.571961,218.923433 C163.31996,219.156767 163.025962,219.343432 162.689961,219.483433 C162.353959,219.623434 161.999296,219.693433 161.625961,219.693433 C161.252626,219.693433 160.902629,219.6281 160.575961,219.497433 C160.249292,219.366766 159.964629,219.180101 159.721961,218.937433 C159.479293,218.694765 159.283295,218.414768 159.133961,218.097433 C158.984627,217.780098 158.909961,217.434768 158.909961,217.061433 C158.909961,216.706764 158.97996,216.366101 159.119961,216.039433 C159.259961,215.712765 159.451293,215.428101 159.693961,215.185433 C159.936629,214.942765 160.225959,214.751434 160.561961,214.611433 C160.897962,214.471432 161.252626,214.401433 161.625961,214.401433 C161.999296,214.401433 162.353959,214.471432 162.689961,214.611433 C163.025962,214.751434 163.31996,214.938098 163.571961,215.171433 C163.823962,215.404767 164.01996,215.684765 164.159961,216.011433 C164.299961,216.338101 164.369961,216.678764 164.369961,217.033433 Z M168.849961,212.385433 L168.849961,209.501433 L183.073961,203.509433 L183.073961,207.317433 L174.505961,210.985433 L183.073961,214.541433 L183.073961,218.377433 L168.849961,212.385433 Z"/>
            <path fill="url(#posral-g)" fill-rule="nonzero" d="M0,43.1696203 L30.2234217,13.4558889 C38.9948444,4.83238814 50.8030155,-1.19512871e-14 63.1035286,-1.42108547e-14 L177.5,0 L177.5,235.2 L0,235.2 L0,62.1493671 L0,43.1696203 Z"/>
          </g>
        </g>
        <g fill-rule="nonzero" mask="url(#posral-f)">
          <use fill="#000" filter="url(#posral-h)" xlink:href="#posral-i"/>
          <use fill="#FFF" xlink:href="#posral-i"/>
          <use fill="#F5D118" xlink:href="#posral-i"/>
          <use fill="url(#posral-j)" xlink:href="#posral-i"/>
        </g>
      </g>
    </g>
    <g fill-rule="nonzero" opacity=".5" transform="translate(46 267)">
      <g transform="translate(7 6)">
        <path fill="#F4F4F4" d="M0,0 L169,0 L169,4 C169,5.1045695 168.104569,6 167,6 L2,6 C0.8954305,6 1.3527075e-16,5.1045695 0,4 L0,0 Z"/>
        <use fill="#8E5DDC" xlink:href="#posral-k"/>
        <use fill="url(#posral-l)" fill-opacity=".4" xlink:href="#posral-k"/>
      </g>
      <g transform="translate(14 12)">
        <path fill="#F1F1F1" d="M0,0 L155,0 L155,4 C155,5.1045695 154.104569,6 153,6 L2,6 C0.8954305,6 1.3527075e-16,5.1045695 0,4 L0,0 Z"/>
        <use fill="#44C9ED" xlink:href="#posral-m"/>
        <use fill="url(#posral-l)" fill-opacity=".4" xlink:href="#posral-m"/>
      </g>
      <path fill="#FAFAFA" d="M0,0 L183,0 L183,4 C183,5.1045695 182.104569,6 181,6 L2,6 C0.8954305,6 1.3527075e-16,5.1045695 0,4 L0,0 Z"/>
      <use fill="#DE5246" xlink:href="#posral-n"/>
      <use fill="url(#posral-l)" fill-opacity=".2" xlink:href="#posral-n"/>
    </g>
  </g>
</svg>
