<svg xmlns="http://www.w3.org/2000/svg" xmlns:xlink="http://www.w3.org/1999/xlink" width="255" height="335" viewBox="0 0 255 335">
  <defs>
    <rect id="html-group-a" width="111" height="98.786" x="134" y="225.511" rx="3"/>
    <mask id="html-group-b" width="111" height="98.786" x="0" y="0" fill="#fff">
      <use xlink:href="#html-group-a"/>
    </mask>
    <path id="html-group-c" d="M0,0 L0,314.317918 L160.5,314.317918 C173.312109,302.875728 186.145442,290.5691 199,277.398036 C211.854558,264.226971 223.854558,251.088815 235,237.983567 L235,0 L0,0 Z"/>
    <linearGradient id="html-group-e" x1="97.701%" x2="13.861%" y1="-17.206%" y2="111.544%">
      <stop offset="0%" stop-color="#2965F1" stop-opacity="0"/>
      <stop offset="100%" stop-color="#2965F1"/>
    </linearGradient>
    <linearGradient id="html-group-h" x1="0%" x2="62.3%" y1="0%" y2="59.659%">
      <stop offset="0%" stop-color="#29BEFB"/>
      <stop offset="71.189%" stop-color="#17AEF4"/>
      <stop offset="100%" stop-color="#228CCB"/>
    </linearGradient>
    <path id="html-group-g" d="M161,240.977071 L225.496582,240.977071 C231.829915,240.479981 234.996582,236.987559 234.996582,230.499807 C234.996582,230.499807 235.996582,240.977071 233.821138,243.412431 C218.950112,259.989224 194.6764,283.790692 161,314.816836 C149,314.816836 146,314.816836 152,314.816836 C158,314.816836 161,312.443405 161,307.696545 L161,240.977071 Z"/>
    <filter id="html-group-f" width="198.6%" height="189%" x="-75.4%" y="-65.2%" filterUnits="objectBoundingBox">
      <feMorphology in="SourceAlpha" radius="7.5" result="shadowSpreadOuter1"/>
      <feOffset dy="10" in="shadowSpreadOuter1" result="shadowOffsetOuter1"/>
      <feGaussianBlur in="shadowOffsetOuter1" result="shadowBlurOuter1" stdDeviation="22.5"/>
      <feColorMatrix in="shadowBlurOuter1" values="0 0 0 0 0   0 0 0 0 0   0 0 0 0 0  0 0 0 0.204030797 0"/>
    </filter>
  </defs>
  <g fill="none" fill-rule="evenodd">
    <path fill="#FFF" fill-rule="nonzero" stroke="#FFF" stroke-width="10" d="M5,5 L5,329.274611 L178,329.274611 L250,329.274611 L250,5 L5,5 Z"/>
    <use fill="#FAFAFA" fill-rule="nonzero" stroke="#C3C3C3" stroke-dasharray="2" stroke-width="2" mask="url(#html-group-b)" opacity=".5" xlink:href="#html-group-a"/>
    <g transform="translate(10 9.978)">
      <mask id="html-group-d" fill="#fff">
        <use xlink:href="#html-group-c"/>
      </mask>
      <use fill="#2965F1" fill-rule="nonzero" xlink:href="#html-group-c"/>
      <g mask="url(#html-group-d)">
        <g transform="translate(0 3.964)">
          <path fill="#1D54D6" d="M20.6562694,47.5455201 C20.6562694,48.8280135 20.4589657,50.0611618 20.0643523,51.2450019 C19.669739,52.428842 19.096325,53.4708524 18.3440933,54.3710641 C17.5918615,55.2712759 16.673166,55.9926676 15.5879793,56.535261 C14.5027925,57.0778544 13.2696442,57.349147 11.8884974,57.349147 C10.6553306,57.349147 9.49000549,57.0963516 8.39248705,56.5907532 C7.29496861,56.0851548 6.45026203,55.3637631 5.85834197,54.4265563 L5.78435233,54.4265563 L5.78435233,56.8312195 L0.198134715,56.8312195 L0.198134715,28.8631366 L6.26528497,28.8631366 L6.26528497,40.3685252 L6.33927461,40.3685252 C6.85720466,39.7519419 7.58476215,39.1846936 8.52196891,38.6667636 C9.45917567,38.1488335 10.6060036,37.8898724 11.962487,37.8898724 C13.2943072,37.8898724 14.4966268,38.1488335 15.5694819,38.6667636 C16.642337,39.1846936 17.5548667,39.8875882 18.3070984,40.7754683 C19.0593302,41.6633483 19.6389099,42.6930272 20.0458549,43.8645356 C20.4528,45.0360441 20.6562694,46.2630266 20.6562694,47.5455201 Z M14.8110881,47.5455201 C14.8110881,46.9536 14.718602,46.3740203 14.5336269,45.8067636 C14.3486519,45.2395069 14.0711936,44.7400818 13.7012435,44.3084734 C13.3312935,43.8768651 12.8750286,43.5254178 12.3324352,43.2541211 C11.7898418,42.9828244 11.1609362,42.8471781 10.4456995,42.8471781 C9.75512608,42.8471781 9.13855194,42.9828244 8.59595855,43.2541211 C8.05336516,43.5254178 7.59093455,43.8830308 7.20865285,44.3269708 C6.82637115,44.7709109 6.53041556,45.2765017 6.3207772,45.8437584 C6.11113885,46.4110151 6.00632124,46.9905948 6.00632124,47.5825149 C6.00632124,48.1744349 6.11113885,48.7540146 6.3207772,49.3212714 C6.53041556,49.8885281 6.82637115,50.3941189 7.20865285,50.8380589 C7.59093455,51.281999 8.05336516,51.639612 8.59595855,51.9109087 C9.13855194,52.1822054 9.75512608,52.3178517 10.4456995,52.3178517 C11.1609362,52.3178517 11.7898418,52.1822054 12.3324352,51.9109087 C12.8750286,51.639612 13.3312935,51.281999 13.7012435,50.8380589 C14.0711936,50.3941189 14.3486519,49.8823623 14.5336269,49.302774 C14.718602,48.7231856 14.8110881,48.1374401 14.8110881,47.5455201 Z M44.0369948,47.5455201 C44.0369948,49.0499835 43.7657022,50.4126124 43.2231088,51.6334475 C42.6805154,52.8542826 41.9406264,53.8901272 41.0034197,54.7410123 C40.0662129,55.5918974 38.9810424,56.2516317 37.7478756,56.7202351 C36.5147089,57.1888385 35.1952402,57.4231366 33.7894301,57.4231366 C32.4082832,57.4231366 31.0949803,57.1888385 29.8494819,56.7202351 C28.6039834,56.2516317 27.5188129,55.5918974 26.5939378,54.7410123 C25.6690627,53.8901272 24.9353395,52.8542826 24.3927461,51.6334475 C23.8501527,50.4126124 23.5788601,49.0499835 23.5788601,47.5455201 C23.5788601,46.0410566 23.8501527,44.6845935 24.3927461,43.47609 C24.9353395,42.2675866 25.6690627,41.2440735 26.5939378,40.4055201 C27.5188129,39.5669667 28.6039834,38.9257295 29.8494819,38.4817895 C31.0949803,38.0378495 32.4082832,37.8158828 33.7894301,37.8158828 C35.1952402,37.8158828 36.5147089,38.0378495 37.7478756,38.4817895 C38.9810424,38.9257295 40.0662129,39.5669667 41.0034197,40.4055201 C41.9406264,41.2440735 42.6805154,42.2675866 43.2231088,43.47609 C43.7657022,44.6845935 44.0369948,46.0410566 44.0369948,47.5455201 Z M38.1918135,47.5455201 C38.1918135,46.9536 38.0931616,46.3740203 37.8958549,45.8067636 C37.6985482,45.2395069 37.4149241,44.7400818 37.0449741,44.3084734 C36.6750241,43.8768651 36.2187592,43.5254178 35.6761658,43.2541211 C35.1335724,42.9828244 34.5046668,42.8471781 33.7894301,42.8471781 C33.0741933,42.8471781 32.4452877,42.9828244 31.9026943,43.2541211 C31.3601009,43.5254178 30.9100018,43.8768651 30.5523834,44.3084734 C30.1947651,44.7400818 29.9234724,45.2395069 29.7384974,45.8067636 C29.5535224,46.3740203 29.4610363,46.9536 29.4610363,47.5455201 C29.4610363,48.1374401 29.5535224,48.7170198 29.7384974,49.2842765 C29.9234724,49.8515333 30.2009308,50.3632898 30.5708808,50.8195615 C30.9408309,51.2758332 31.3970957,51.639612 31.9396891,51.9109087 C32.4822825,52.1822054 33.1111881,52.3178517 33.8264249,52.3178517 C34.5416616,52.3178517 35.1705672,52.1822054 35.7131606,51.9109087 C36.255754,51.639612 36.7120189,51.2758332 37.0819689,50.8195615 C37.4519189,50.3632898 37.7293773,49.8515333 37.9143523,49.2842765 C38.0993273,48.7170198 38.1918135,48.1374401 38.1918135,47.5455201 Z M61.8315026,56.8312195 L61.8315026,54.4265563 L61.757513,54.4265563 C61.1655929,55.3637631 60.3208863,56.0851548 59.2233679,56.5907532 C58.1258494,57.0963516 56.9605243,57.349147 55.7273575,57.349147 C54.3462107,57.349147 53.1130624,57.0778544 52.0278756,56.535261 C50.9426889,55.9926676 50.0239934,55.2712759 49.2717617,54.3710641 C48.5195299,53.4708524 47.946116,52.428842 47.5515026,51.2450019 C47.1568892,50.0611618 46.9595855,48.8280135 46.9595855,47.5455201 C46.9595855,46.2630266 47.163055,45.0360441 47.57,43.8645356 C47.976945,42.6930272 48.5565247,41.6633483 49.3087565,40.7754683 C50.0609882,39.8875882 50.973518,39.1846936 52.0463731,38.6667636 C53.1192282,38.1488335 54.3215477,37.8898724 55.6533679,37.8898724 C57.0098513,37.8898724 58.1566793,38.1488335 59.093886,38.6667636 C60.0310928,39.1846936 60.7586503,39.7519419 61.2765803,40.3685252 L61.3505699,40.3685252 L61.3505699,28.8631366 L67.4177202,28.8631366 L67.4177202,56.8312195 L61.8315026,56.8312195 Z M61.6095337,47.5825149 C61.6095337,46.9905948 61.5047161,46.4110151 61.2950777,45.8437584 C61.0854394,45.2765017 60.7894838,44.7709109 60.4072021,44.3269708 C60.0249204,43.8830308 59.5624898,43.5254178 59.0198964,43.2541211 C58.477303,42.9828244 57.8607288,42.8471781 57.1701554,42.8471781 C56.4549187,42.8471781 55.8260131,42.9828244 55.2834197,43.2541211 C54.7408263,43.5254178 54.2845614,43.8768651 53.9146114,44.3084734 C53.5446614,44.7400818 53.267203,45.2395069 53.082228,45.8067636 C52.897253,46.3740203 52.8047668,46.9536 52.8047668,47.5455201 C52.8047668,48.1374401 52.897253,48.7231856 53.082228,49.302774 C53.267203,49.8823623 53.5446614,50.3941189 53.9146114,50.8380589 C54.2845614,51.281999 54.7408263,51.639612 55.2834197,51.9109087 C55.8260131,52.1822054 56.4549187,52.3178517 57.1701554,52.3178517 C57.8607288,52.3178517 58.477303,52.1822054 59.0198964,51.9109087 C59.5624898,51.639612 60.0249204,51.281999 60.4072021,50.8380589 C60.7894838,50.3941189 61.0854394,49.8885281 61.2950777,49.3212714 C61.5047161,48.7540146 61.6095337,48.1744349 61.6095337,47.5825149 Z M82.6225907,59.6058309 C82.2526406,60.567701 81.839536,61.4247391 81.3832642,62.1769708 C80.9269925,62.9292026 80.3844073,63.5704397 79.7554922,64.1007014 C79.1265772,64.6309631 78.3866882,65.0317363 77.5358031,65.303033 C76.684918,65.5743297 75.6799022,65.709976 74.5207254,65.709976 C73.9534687,65.709976 73.3677232,65.6729816 72.7634715,65.5989916 C72.1592198,65.5250016 71.6351318,65.4263497 71.1911917,65.303033 L71.8570984,60.197748 C72.1530585,60.2964014 72.4798428,60.376556 72.8374611,60.4382144 C73.1950795,60.4998727 73.5218638,60.5307014 73.8178238,60.5307014 C74.7550306,60.5307014 75.4332622,60.3149005 75.8525389,59.8832921 C76.2718156,59.4516837 76.6294286,58.8412753 76.9253886,58.0520486 L77.5173057,56.535261 L69.8223834,38.4077999 L76.5554404,38.4077999 L80.6618653,50.2461418 L80.7728497,50.2461418 L84.4353368,38.4077999 L90.8724352,38.4077999 L82.6225907,59.6058309 Z M107.853057,62.6024113 C106.299267,62.6024113 105.066119,62.1091519 104.153575,61.1226185 C103.241032,60.1360851 102.784767,58.8042849 102.784767,57.1271781 L102.784767,50.9490434 C102.784767,50.3817867 102.710778,49.9193561 102.562798,49.5617377 C102.414818,49.2041193 102.22368,48.926661 101.989378,48.7293543 C101.755077,48.5320476 101.48995,48.3964013 101.19399,48.3224113 C100.89803,48.2484213 100.602074,48.2114268 100.306114,48.2114268 L100.306114,44.1419968 C100.602074,44.1419968 100.89803,44.1050023 101.19399,44.0310123 C101.48995,43.9570223 101.755077,43.8275417 101.989378,43.6425667 C102.22368,43.4575917 102.414818,43.1924648 102.562798,42.8471781 C102.710778,42.5018914 102.784767,42.0702895 102.784767,41.5523594 L102.784767,35.2262455 C102.784767,33.5491386 103.241032,32.2173385 104.153575,31.230805 C105.066119,30.2442716 106.299267,29.7510123 107.853057,29.7510123 L110.886632,29.7510123 L110.886632,33.6354683 L109.147876,33.6354683 C108.432639,33.6354683 107.970208,33.8697664 107.76057,34.3383698 C107.550932,34.8069732 107.446114,35.312564 107.446114,35.8551574 L107.446114,42.0332921 C107.446114,42.7485288 107.322799,43.3589372 107.076166,43.8645356 C106.829532,44.370134 106.527411,44.7832387 106.169793,45.103862 C105.812174,45.4244854 105.436064,45.6711151 105.041451,45.8437584 C104.646837,46.0164018 104.301556,46.1150536 104.005596,46.139717 L104.005596,46.2137066 C104.301556,46.2383699 104.646837,46.3246903 105.041451,46.4726703 C105.436064,46.6206503 105.812174,46.8549485 106.169793,47.1755719 C106.527411,47.4961952 106.829532,47.9216314 107.076166,48.4518931 C107.322799,48.9821548 107.446114,49.6542207 107.446114,50.4681107 L107.446114,56.4982662 C107.446114,57.0408596 107.550932,57.5464504 107.76057,58.0150537 C107.970208,58.4836571 108.432639,58.7179553 109.147876,58.7179553 L110.886632,58.7179553 L110.886632,62.6024113 L107.853057,62.6024113 Z M86.8030052,77.6593025 C86.4577185,77.2153624 85.9891221,76.8577494 85.3972021,76.5864527 C84.805282,76.315156 84.2010394,76.1795097 83.584456,76.1795097 C82.9432092,76.1795097 82.3636295,76.3089903 81.8456995,76.5679553 C81.3277694,76.8269203 80.883836,77.1722018 80.513886,77.6038102 C80.143936,78.0354186 79.8541461,78.5348437 79.6445078,79.1021004 C79.4348694,79.6693571 79.3300518,80.2735998 79.3300518,80.9148465 C79.3300518,81.5560932 79.4287037,82.1603359 79.6260104,82.7275926 C79.823317,83.2948493 80.1131069,83.7942744 80.4953886,84.2258828 C80.8776703,84.6574911 81.3339352,84.9966069 81.8641969,85.2432403 C82.3944586,85.4898736 82.9925355,85.6131885 83.6584456,85.6131885 C84.275029,85.6131885 84.8854374,85.4960394 85.4896891,85.2617377 C86.0939408,85.027436 86.5810344,84.6883202 86.9509845,84.2443802 L90.317513,88.350805 C89.5529495,89.0907051 88.5664309,89.6702848 87.3579275,90.0895615 C86.149424,90.5088382 84.8669498,90.7184734 83.5104663,90.7184734 C82.0553295,90.7184734 80.6988664,90.4965067 79.4410363,90.0525667 C78.1832061,89.6086267 77.0918699,88.9612238 76.1669948,88.1103387 C75.2421197,87.2594536 74.5145622,86.2297748 73.9843005,85.0212714 C73.4540388,83.8127679 73.1889119,82.4439733 73.1889119,80.9148465 C73.1889119,79.410383 73.4540388,78.0539199 73.9843005,76.8454164 C74.5145622,75.636913 75.2421197,74.6072342 76.1669948,73.7563491 C77.0918699,72.905464 78.1832061,72.2518954 79.4410363,71.7956237 C80.6988664,71.339352 82.042998,71.1112195 83.4734715,71.1112195 C84.1393816,71.1112195 84.7991159,71.172877 85.4526943,71.2961936 C86.1062727,71.4195103 86.7351783,71.5859853 87.3394301,71.7956237 C87.9436818,72.005262 88.4985985,72.2642232 89.0041969,72.5725149 C89.5097953,72.8808066 89.9475629,73.2199224 90.317513,73.5898724 L86.8030052,77.6593025 Z M112.25544,80.8408569 C112.25544,82.3453203 111.984148,83.7079492 111.441554,84.9287843 C110.898961,86.1496194 110.159072,87.185464 109.221865,88.0363491 C108.284659,88.8872342 107.199488,89.5469685 105.966321,90.0155719 C104.733154,90.4841753 103.413686,90.7184734 102.007876,90.7184734 C100.626729,90.7184734 99.3134259,90.4841753 98.0679275,90.0155719 C96.822429,89.5469685 95.7372585,88.8872342 94.8123834,88.0363491 C93.8875083,87.185464 93.1537851,86.1496194 92.6111917,84.9287843 C92.0685983,83.7079492 91.7973057,82.3453203 91.7973057,80.8408569 C91.7973057,79.3363934 92.0685983,77.9799303 92.6111917,76.7714268 C93.1537851,75.5629234 93.8875083,74.5394103 94.8123834,73.7008569 C95.7372585,72.8623034 96.822429,72.2210663 98.0679275,71.7771263 C99.3134259,71.3331862 100.626729,71.1112195 102.007876,71.1112195 C103.413686,71.1112195 104.733154,71.3331862 105.966321,71.7771263 C107.199488,72.2210663 108.284659,72.8623034 109.221865,73.7008569 C110.159072,74.5394103 110.898961,75.5629234 111.441554,76.7714268 C111.984148,77.9799303 112.25544,79.3363934 112.25544,80.8408569 Z M106.410259,80.8408569 C106.410259,80.2489368 106.311607,79.6693571 106.114301,79.1021004 C105.916994,78.5348437 105.63337,78.0354186 105.26342,77.6038102 C104.89347,77.1722018 104.437205,76.8207546 103.894611,76.5494579 C103.352018,76.2781612 102.723112,76.1425149 102.007876,76.1425149 C101.292639,76.1425149 100.663733,76.2781612 100.12114,76.5494579 C99.5785465,76.8207546 99.1284474,77.1722018 98.770829,77.6038102 C98.4132106,78.0354186 98.141918,78.5348437 97.956943,79.1021004 C97.771968,79.6693571 97.6794819,80.2489368 97.6794819,80.8408569 C97.6794819,81.4327769 97.771968,82.0123566 97.956943,82.5796133 C98.141918,83.1468701 98.4193764,83.6586266 98.7893264,84.1148983 C99.1592765,84.57117 99.6155413,84.9349488 100.158135,85.2062455 C100.700728,85.4775421 101.329634,85.6131885 102.04487,85.6131885 C102.760107,85.6131885 103.389013,85.4775421 103.931606,85.2062455 C104.4742,84.9349488 104.930464,84.57117 105.300415,84.1148983 C105.670365,83.6586266 105.947823,83.1468701 106.132798,82.5796133 C106.317773,82.0123566 106.410259,81.4327769 106.410259,80.8408569 Z M116.176891,90.1265563 L116.176891,62.1584734 L122.318031,62.1584734 L122.318031,90.1265563 L116.176891,90.1265563 Z M146.660622,80.8408569 C146.660622,82.3453203 146.389329,83.7079492 145.846736,84.9287843 C145.304142,86.1496194 144.564253,87.185464 143.627047,88.0363491 C142.68984,88.8872342 141.604669,89.5469685 140.371503,90.0155719 C139.138336,90.4841753 137.818867,90.7184734 136.413057,90.7184734 C135.03191,90.7184734 133.718607,90.4841753 132.473109,90.0155719 C131.22761,89.5469685 130.14244,88.8872342 129.217565,88.0363491 C128.29269,87.185464 127.558966,86.1496194 127.016373,84.9287843 C126.47378,83.7079492 126.202487,82.3453203 126.202487,80.8408569 C126.202487,79.3363934 126.47378,77.9799303 127.016373,76.7714268 C127.558966,75.5629234 128.29269,74.5394103 129.217565,73.7008569 C130.14244,72.8623034 131.22761,72.2210663 132.473109,71.7771263 C133.718607,71.3331862 135.03191,71.1112195 136.413057,71.1112195 C137.818867,71.1112195 139.138336,71.3331862 140.371503,71.7771263 C141.604669,72.2210663 142.68984,72.8623034 143.627047,73.7008569 C144.564253,74.5394103 145.304142,75.5629234 145.846736,76.7714268 C146.389329,77.9799303 146.660622,79.3363934 146.660622,80.8408569 Z M140.81544,80.8408569 C140.81544,80.2489368 140.716789,79.6693571 140.519482,79.1021004 C140.322175,78.5348437 140.038551,78.0354186 139.668601,77.6038102 C139.298651,77.1722018 138.842386,76.8207546 138.299793,76.5494579 C137.757199,76.2781612 137.128294,76.1425149 136.413057,76.1425149 C135.69782,76.1425149 135.068915,76.2781612 134.526321,76.5494579 C133.983728,76.8207546 133.533629,77.1722018 133.17601,77.6038102 C132.818392,78.0354186 132.547099,78.5348437 132.362124,79.1021004 C132.177149,79.6693571 132.084663,80.2489368 132.084663,80.8408569 C132.084663,81.4327769 132.177149,82.0123566 132.362124,82.5796133 C132.547099,83.1468701 132.824558,83.6586266 133.194508,84.1148983 C133.564458,84.57117 134.020723,84.9349488 134.563316,85.2062455 C135.105909,85.4775421 135.734815,85.6131885 136.450052,85.6131885 C137.165289,85.6131885 137.794194,85.4775421 138.336788,85.2062455 C138.879381,84.9349488 139.335646,84.57117 139.705596,84.1148983 C140.075546,83.6586266 140.353004,83.1468701 140.537979,82.5796133 C140.722954,82.0123566 140.81544,81.4327769 140.81544,80.8408569 Z M162.457409,76.6604423 C162.186113,76.5864523 161.920986,76.5371264 161.662021,76.5124631 C161.403056,76.4877997 161.15026,76.4754683 160.903627,76.4754683 C160.089737,76.4754683 159.40534,76.623446 158.850415,76.9194061 C158.295489,77.2153661 157.851556,77.5729791 157.518601,77.9922558 C157.185646,78.4115325 156.945182,78.8677974 156.797202,79.3610641 C156.649222,79.8543308 156.575233,80.2859327 156.575233,80.6558828 L156.575233,90.1265563 L150.508083,90.1265563 L150.508083,71.7031366 L156.353264,71.7031366 L156.353264,74.3667636 L156.427254,74.3667636 C156.895857,73.4295568 157.561757,72.6650049 158.424974,72.0730848 C159.288191,71.4811648 160.287041,71.1852092 161.421554,71.1852092 C161.668188,71.1852092 161.908652,71.1975407 162.142953,71.222204 C162.377255,71.2468673 162.568393,71.2838618 162.716373,71.3331885 L162.457409,76.6604423 Z M172.556995,74.9586807 C172.556995,75.4519474 172.458343,75.914378 172.261036,76.3459864 C172.06373,76.7775948 171.804768,77.153705 171.484145,77.4743284 C171.163522,77.7949517 170.781246,78.0477471 170.337306,78.2327221 C169.893366,78.4176972 169.437101,78.5101833 168.968497,78.5101833 C168.475231,78.5101833 168.006634,78.4238629 167.562694,78.2512195 C167.118754,78.0785762 166.730313,77.8319465 166.397358,77.5113232 C166.064402,77.1906998 165.799276,76.8207553 165.601969,76.4014786 C165.404662,75.9822019 165.30601,75.525937 165.30601,75.0326703 C165.30601,74.5394036 165.404662,74.076973 165.601969,73.6453646 C165.799276,73.2137563 166.064402,72.837646 166.397358,72.5170227 C166.730313,72.1963993 167.118754,71.9436039 167.562694,71.7586289 C168.006634,71.5736539 168.475231,71.4811677 168.968497,71.4811677 C169.437101,71.4811677 169.893366,71.5736539 170.337306,71.7586289 C170.781246,71.9436039 171.163522,72.1902336 171.484145,72.4985252 C171.804768,72.8068169 172.06373,73.1767614 172.261036,73.6083698 C172.458343,74.0399782 172.556995,74.4900773 172.556995,74.9586807 Z M172.556995,86.8340175 C172.556995,87.3272842 172.458343,87.7897148 172.261036,88.2213232 C172.06373,88.6529316 171.804768,89.022876 171.484145,89.3311677 C171.163522,89.6394594 170.781246,89.8860891 170.337306,90.0710641 C169.893366,90.2560391 169.437101,90.3485252 168.968497,90.3485252 C168.475231,90.3485252 168.006634,90.2622049 167.562694,90.0895615 C167.118754,89.9169182 166.730313,89.6702885 166.397358,89.3496651 C166.064402,89.0290418 165.799276,88.6590973 165.601969,88.2398206 C165.404662,87.8205439 165.30601,87.364279 165.30601,86.8710123 C165.30601,86.3777456 165.404662,85.915315 165.601969,85.4837066 C165.799276,85.0520982 166.064402,84.675988 166.397358,84.3553646 C166.730313,84.0347413 167.118754,83.7819459 167.562694,83.5969708 C168.006634,83.4119958 168.475231,83.3195097 168.968497,83.3195097 C169.437101,83.3195097 169.893366,83.4119958 170.337306,83.5969708 C170.781246,83.7819459 171.163522,84.0285755 171.484145,84.3368672 C171.804768,84.6451589 172.06373,85.0151034 172.261036,85.4467118 C172.458343,85.8783202 172.556995,86.3407508 172.556995,86.8340175 Z M207.22114,80.8408569 C207.22114,82.1233503 207.023836,83.3564986 206.629223,84.5403387 C206.234609,85.7241788 205.661195,86.7661891 204.908964,87.6664009 C204.156732,88.5666127 203.238037,89.2880044 202.15285,89.8305978 C201.067663,90.3731912 199.834515,90.6444838 198.453368,90.6444838 C197.220201,90.6444838 196.054876,90.3916884 194.957358,89.88609 C193.859839,89.3804916 193.015132,88.6590999 192.423212,87.7218931 L192.349223,87.7218931 L192.349223,90.1265563 L186.763005,90.1265563 L186.763005,62.1584734 L192.830155,62.1584734 L192.830155,73.663862 L192.904145,73.663862 C193.422075,73.0472786 194.149633,72.4800304 195.086839,71.9621004 C196.024046,71.4441703 197.170874,71.1852092 198.527358,71.1852092 C199.859178,71.1852092 201.061497,71.4441703 202.134352,71.9621004 C203.207207,72.4800304 204.119737,73.182925 204.871969,74.070805 C205.624201,74.9586851 206.20378,75.988364 206.610725,77.1598724 C207.01767,78.3313808 207.22114,79.5583634 207.22114,80.8408569 Z M201.375959,80.8408569 C201.375959,80.2489368 201.283472,79.6693571 201.098497,79.1021004 C200.913522,78.5348437 200.636064,78.0354186 200.266114,77.6038102 C199.896164,77.1722018 199.439899,76.8207546 198.897306,76.5494579 C198.354712,76.2781612 197.725807,76.1425149 197.01057,76.1425149 C196.319997,76.1425149 195.703422,76.2781612 195.160829,76.5494579 C194.618236,76.8207546 194.155805,77.1783676 193.773523,77.6223076 C193.391242,78.0662477 193.095286,78.5718385 192.885648,79.1390952 C192.676009,79.7063519 192.571192,80.2859316 192.571192,80.8778517 C192.571192,81.4697717 192.676009,82.0493514 192.885648,82.6166082 C193.095286,83.1838649 193.391242,83.6894557 193.773523,84.1333957 C194.155805,84.5773358 194.618236,84.9349488 195.160829,85.2062455 C195.703422,85.4775421 196.319997,85.6131885 197.01057,85.6131885 C197.725807,85.6131885 198.354712,85.4775421 198.897306,85.2062455 C199.439899,84.9349488 199.896164,84.5773358 200.266114,84.1333957 C200.636064,83.6894557 200.913522,83.1776991 201.098497,82.5981107 C201.283472,82.0185224 201.375959,81.4327769 201.375959,80.8408569 Z M211.142591,90.1265563 L211.142591,62.1584734 L217.283731,62.1584734 L217.283731,90.1265563 L211.142591,90.1265563 Z M234.227358,90.1265563 L234.227358,87.5739139 L234.153368,87.5739139 C233.931398,87.9931906 233.641608,88.387798 233.28399,88.757748 C232.926371,89.1276981 232.507101,89.4483166 232.026166,89.7196133 C231.545231,89.99091 231.014977,90.2128767 230.435389,90.3855201 C229.8558,90.5581634 229.245392,90.6444838 228.604145,90.6444838 C227.370978,90.6444838 226.328968,90.4225171 225.478083,89.9785771 C224.627198,89.534637 223.936635,88.9612231 223.406373,88.258318 C222.876111,87.5554129 222.493835,86.7538665 222.259534,85.8536548 C222.025232,84.953443 221.908083,84.0347476 221.908083,83.0975408 L221.908083,71.7031366 L228.012228,71.7031366 L228.012228,81.6917377 C228.012228,82.2096677 228.049222,82.7029271 228.123212,83.1715304 C228.197202,83.6401338 228.339014,84.0594042 228.548653,84.4293543 C228.758291,84.7993043 229.03575,85.0890941 229.381036,85.2987325 C229.726323,85.5083709 230.182588,85.6131885 230.749845,85.6131885 C231.810368,85.6131885 232.61808,85.218581 233.173005,84.4293543 C233.72793,83.6401275 234.005389,82.7152663 234.005389,81.6547429 L234.005389,71.7031366 L240.072539,71.7031366 L240.072539,90.1265563 L234.227358,90.1265563 Z M84.9902591,115.394017 L84.2133679,115.394017 C83.5474578,115.394017 82.875392,115.424846 82.1971503,115.486505 C81.5189085,115.548163 80.9146659,115.665312 80.3844041,115.837955 C79.8541424,116.010599 79.4163748,116.263394 79.0710881,116.596349 C78.7258014,116.929304 78.5531606,117.367072 78.5531606,117.909665 C78.5531606,118.254952 78.6333153,118.550907 78.7936269,118.797541 C78.9539386,119.044174 79.1574081,119.241478 79.4040415,119.389458 C79.6506748,119.537438 79.9342989,119.642256 80.2549223,119.703914 C80.5755456,119.765572 80.8838327,119.796401 81.1797927,119.796401 C82.4129595,119.796401 83.356318,119.457285 84.0098964,118.779043 C84.6634748,118.100802 84.9902591,117.182106 84.9902591,116.022929 L84.9902591,115.394017 Z M73.8548187,107.514121 C74.9400054,106.478261 76.2039824,105.701378 77.6467876,105.183448 C79.0895927,104.665517 80.5632049,104.406556 82.0676684,104.406556 C83.6214585,104.406556 84.9347615,104.597694 86.0076166,104.979976 C87.0804717,105.362258 87.9498412,105.954169 88.6157513,106.755727 C89.2816614,107.557286 89.7687549,108.568467 90.0770466,109.789302 C90.3853383,111.010138 90.5394819,112.459087 90.5394819,114.136194 L90.5394819,123.421893 L84.9902591,123.421893 L84.9902591,121.461168 L84.8792746,121.461168 C84.4106712,122.225731 83.701611,122.817642 82.7520725,123.236919 C81.8025341,123.656196 80.7728553,123.865831 79.6630052,123.865831 C78.9231051,123.865831 78.1585532,123.767179 77.3693264,123.569872 C76.5800997,123.372566 75.8587079,123.051947 75.2051295,122.608007 C74.5515511,122.164067 74.0151316,121.572156 73.5958549,120.832256 C73.1765782,120.092356 72.966943,119.179826 72.966943,118.094639 C72.966943,116.762819 73.3307218,115.68998 74.0582902,114.87609 C74.7858586,114.0622 75.7230513,113.433294 76.8698964,112.989354 C78.0167415,112.545414 79.29305,112.249459 80.6988601,112.101479 C82.1046702,111.953499 83.4734648,111.87951 84.805285,111.87951 L84.805285,111.583551 C84.805285,110.671008 84.4846664,109.998942 83.8434197,109.567334 C83.202173,109.135725 82.4129581,108.919924 81.4757513,108.919924 C80.6125345,108.919924 79.7801594,109.104896 78.978601,109.474846 C78.1770426,109.844797 77.4926453,110.28873 76.9253886,110.80666 L73.8548187,107.514121 Z M109.702798,129.193085 C108.149008,129.193085 106.915859,128.699826 106.003316,127.713292 C105.090773,126.726759 104.634508,125.394959 104.634508,123.717852 L104.634508,117.539717 C104.634508,116.97246 104.560519,116.51003 104.412539,116.152411 C104.264559,115.794793 104.073421,115.517335 103.839119,115.320028 C103.604817,115.122721 103.339691,114.987075 103.043731,114.913085 C102.747771,114.839095 102.451815,114.8021 102.155855,114.8021 L102.155855,110.73267 C102.451815,110.73267 102.747771,110.695676 103.043731,110.621686 C103.339691,110.547696 103.604817,110.418215 103.839119,110.23324 C104.073421,110.048265 104.264559,109.783138 104.412539,109.437852 C104.560519,109.092565 104.634508,108.660963 104.634508,108.143033 L104.634508,101.816919 C104.634508,100.139812 105.090773,98.808012 106.003316,97.8214786 C106.915859,96.8349452 108.149008,96.3416859 109.702798,96.3416859 L112.736373,96.3416859 L112.736373,100.226142 L110.997617,100.226142 C110.28238,100.226142 109.819949,100.46044 109.610311,100.929043 C109.400673,101.397647 109.295855,101.903238 109.295855,102.445831 L109.295855,108.623966 C109.295855,109.339202 109.17254,109.949611 108.925907,110.455209 C108.679273,110.960808 108.377152,111.373912 108.019534,111.694536 C107.661915,112.015159 107.285805,112.261789 106.891192,112.434432 C106.496578,112.607075 106.151297,112.705727 105.855337,112.730391 L105.855337,112.80438 C106.151297,112.829044 106.496578,112.915364 106.891192,113.063344 C107.285805,113.211324 107.661915,113.445622 108.019534,113.766245 C108.377152,114.086869 108.679273,114.512305 108.925907,115.042567 C109.17254,115.572828 109.295855,116.244894 109.295855,117.058784 L109.295855,123.08894 C109.295855,123.631533 109.400673,124.137124 109.610311,124.605727 C109.819949,125.074331 110.28238,125.308629 110.997617,125.308629 L112.736373,125.308629 L112.736373,129.193085 L109.702798,129.193085 Z M154.688497,142.844173 L154.688497,149.873188 C154.688497,150.736405 154.854972,151.383808 155.187927,151.815416 C155.520882,152.247025 156.118959,152.462826 156.982176,152.462826 C157.278136,152.462826 157.592589,152.438163 157.925544,152.388836 C158.258499,152.339509 158.535957,152.265521 158.757927,152.166867 L158.831917,156.606245 C158.41264,156.754225 157.882387,156.883706 157.24114,156.994691 C156.599893,157.105676 155.958656,157.161168 155.317409,157.161168 C154.084243,157.161168 153.048398,157.007024 152.209845,156.698733 C151.371291,156.390441 150.699225,155.946507 150.193627,155.366919 C149.688029,154.787331 149.32425,154.096768 149.10228,153.295209 C148.88031,152.493651 148.769326,151.599618 148.769326,150.613085 L148.769326,142.844173 L145.809741,142.844173 L145.809741,138.29381 L148.732332,138.29381 L148.732332,133.447489 L154.688497,133.447489 L154.688497,138.29381 L159.016891,138.29381 L159.016891,142.844173 L154.688497,142.844173 Z M174.554715,145.396815 C174.554715,144.434945 174.252594,143.608736 173.648342,142.918163 C173.04409,142.227589 172.137726,141.882308 170.929223,141.882308 C170.337303,141.882308 169.794717,141.974794 169.301451,142.159769 C168.808184,142.344744 168.376582,142.597539 168.006632,142.918163 C167.636682,143.238786 167.340726,143.614896 167.118756,144.046505 C166.896786,144.478113 166.773472,144.928212 166.748808,145.396815 L174.554715,145.396815 Z M180.140933,147.727489 L180.140933,148.467385 C180.140933,148.714019 180.128601,148.948317 180.103938,149.170287 L166.748808,149.170287 C166.798135,149.688217 166.952278,150.156813 167.211244,150.57609 C167.470209,150.995367 167.803159,151.359145 168.210104,151.667437 C168.617049,151.975729 169.073314,152.216193 169.578912,152.388836 C170.08451,152.561479 170.608598,152.6478 171.151192,152.6478 C172.113062,152.6478 172.92694,152.468993 173.59285,152.111375 C174.25876,151.753757 174.801345,151.291326 175.220622,150.724069 L179.438031,153.387696 C178.574814,154.645526 177.434152,155.613548 176.01601,156.291789 C174.597869,156.970031 172.951616,157.309147 171.077202,157.309147 C169.696055,157.309147 168.388918,157.093346 167.155751,156.661738 C165.922585,156.230129 164.84358,155.601224 163.918705,154.775002 C162.99383,153.94878 162.266272,152.931433 161.73601,151.722929 C161.205749,150.514426 160.940622,149.1333 160.940622,147.57951 C160.940622,146.075046 161.199583,144.712417 161.717513,143.491582 C162.235443,142.270747 162.938338,141.234903 163.826218,140.384017 C164.714098,139.533132 165.762274,138.873398 166.970777,138.404795 C168.179281,137.936191 169.486418,137.701893 170.892228,137.701893 C172.248711,137.701893 173.494191,137.930026 174.628705,138.386297 C175.763218,138.842569 176.737405,139.502303 177.551295,140.36552 C178.365185,141.228737 179.000257,142.276913 179.456528,143.51008 C179.9128,144.743246 180.140933,146.149035 180.140933,147.727489 Z M196.492642,156.71723 L192.534197,151.057023 L188.464767,156.71723 L181.435751,156.71723 L188.79772,147.061582 L182.138653,138.29381 L189.204663,138.29381 L192.645181,143.214121 L196.122694,138.29381 L202.966736,138.29381 L196.344663,147.061582 L203.632642,156.71723 L196.492642,156.71723 Z M212.474404,142.844173 L212.474404,149.873188 C212.474404,150.736405 212.640879,151.383808 212.973834,151.815416 C213.306789,152.247025 213.904866,152.462826 214.768083,152.462826 C215.064043,152.462826 215.378496,152.438163 215.711451,152.388836 C216.044406,152.339509 216.321864,152.265521 216.543834,152.166867 L216.617824,156.606245 C216.198547,156.754225 215.668293,156.883706 215.027047,156.994691 C214.3858,157.105676 213.744563,157.161168 213.103316,157.161168 C211.870149,157.161168 210.834305,157.007024 209.995751,156.698733 C209.157198,156.390441 208.485132,155.946507 207.979534,155.366919 C207.473935,154.787331 207.110157,154.096768 206.888187,153.295209 C206.666217,152.493651 206.555233,151.599618 206.555233,150.613085 L206.555233,142.844173 L203.595648,142.844173 L203.595648,138.29381 L206.518238,138.29381 L206.518238,133.447489 L212.474404,133.447489 L212.474404,138.29381 L216.802798,138.29381 L216.802798,142.844173 L212.474404,142.844173 Z M218.615544,149.429251 L218.615544,144.619924 L228.012228,144.619924 L228.012228,149.429251 L218.615544,149.429251 Z M243.050622,156.476764 C241.953103,156.982362 240.787778,157.235157 239.554611,157.235157 C238.173465,157.235157 236.940316,156.963865 235.85513,156.421271 C234.769943,155.878678 233.851247,155.157286 233.099016,154.257074 C232.346784,153.356863 231.77337,152.314852 231.378756,151.131012 C230.984143,149.947172 230.786839,148.714024 230.786839,147.43153 C230.786839,146.149037 230.990309,144.922054 231.397254,143.750546 C231.804199,142.579038 232.383779,141.549359 233.13601,140.661479 C233.888242,139.773599 234.800772,139.070704 235.873627,138.552774 C236.946482,138.034844 238.148802,137.775883 239.480622,137.775883 C240.837105,137.775883 241.983933,138.034844 242.92114,138.552774 C243.858347,139.070704 244.14814,155.971165 243.050622,156.476764 Z M242.84715,143.140131 C242.304557,142.868835 241.687983,142.733188 240.997409,142.733188 C240.282173,142.733188 239.653267,142.868835 239.110674,143.140131 C238.56808,143.411428 238.111815,143.762875 237.741865,144.194484 C237.371915,144.626092 237.094457,145.125517 236.909482,145.692774 C236.724507,146.260031 236.632021,146.83961 236.632021,147.43153 C236.632021,148.02345 236.724507,148.609196 236.909482,149.188784 C237.094457,149.768373 237.371915,150.280129 237.741865,150.724069 C238.111815,151.168009 238.56808,151.525622 239.110674,151.796919 C239.653267,152.068216 240.282173,152.203862 240.997409,152.203862 C241.687983,152.203862 242.304557,152.068216 242.84715,151.796919 C243.389744,151.525622 243.389744,143.411428 242.84715,143.140131 Z M160.792642,177.545313 C160.447356,177.101373 159.978759,176.74376 159.386839,176.472463 C158.794919,176.201166 158.190677,176.06552 157.574093,176.06552 C156.932847,176.06552 156.353267,176.195001 155.835337,176.453966 C155.317407,176.712931 154.873473,177.058212 154.503523,177.489821 C154.133573,177.921429 153.843783,178.420854 153.634145,178.988111 C153.424507,179.555367 153.319689,180.15961 153.319689,180.800857 C153.319689,181.442104 153.418341,182.046346 153.615648,182.613603 C153.812954,183.18086 154.102744,183.680285 154.485026,184.111893 C154.867308,184.543502 155.323572,184.882617 155.853834,185.129251 C156.384096,185.375884 156.982173,185.499199 157.648083,185.499199 C158.264666,185.499199 158.875075,185.38205 159.479326,185.147748 C160.083578,184.913446 160.570672,184.574331 160.940622,184.130391 L164.30715,188.236815 C163.542587,188.976715 162.556068,189.556295 161.347565,189.975572 C160.139061,190.394849 158.856587,190.604484 157.500104,190.604484 C156.044967,190.604484 154.688504,190.382517 153.430674,189.938577 C152.172843,189.494637 151.081507,188.847234 150.156632,187.996349 C149.231757,187.145464 148.5042,186.115785 147.973938,184.907282 C147.443676,183.698778 147.178549,182.329984 147.178549,180.800857 C147.178549,179.296393 147.443676,177.93993 147.973938,176.731427 C148.5042,175.522923 149.231757,174.493245 150.156632,173.642359 C151.081507,172.791474 152.172843,172.137906 153.430674,171.681634 C154.688504,171.225362 156.032635,170.99723 157.463109,170.99723 C158.129019,170.99723 158.788753,171.058887 159.442332,171.182204 C160.09591,171.305521 160.724816,171.471996 161.329067,171.681634 C161.933319,171.891272 162.488236,172.150234 162.993834,172.458525 C163.499433,172.766817 163.9372,173.105933 164.30715,173.475883 L160.792642,177.545313 Z M186.245078,180.726867 C186.245078,182.231331 185.973785,183.59396 185.431192,184.814795 C184.888598,186.03563 184.148709,187.071474 183.211503,187.922359 C182.274296,188.773245 181.189125,189.432979 179.955959,189.901582 C178.722792,190.370186 177.403323,190.604484 175.997513,190.604484 C174.616366,190.604484 173.303063,190.370186 172.057565,189.901582 C170.812066,189.432979 169.726896,188.773245 168.802021,187.922359 C167.877146,187.071474 167.143422,186.03563 166.600829,184.814795 C166.058236,183.59396 165.786943,182.231331 165.786943,180.726867 C165.786943,179.222404 166.058236,177.865941 166.600829,176.657437 C167.143422,175.448934 167.877146,174.425421 168.802021,173.586867 C169.726896,172.748314 170.812066,172.107077 172.057565,171.663137 C173.303063,171.219197 174.616366,170.99723 175.997513,170.99723 C177.403323,170.99723 178.722792,171.219197 179.955959,171.663137 C181.189125,172.107077 182.274296,172.748314 183.211503,173.586867 C184.148709,174.425421 184.888598,175.448934 185.431192,176.657437 C185.973785,177.865941 186.245078,179.222404 186.245078,180.726867 Z M180.399896,180.726867 C180.399896,180.134947 180.301245,179.555367 180.103938,178.988111 C179.906631,178.420854 179.623007,177.921429 179.253057,177.489821 C178.883107,177.058212 178.426842,176.706765 177.884249,176.435468 C177.341655,176.164172 176.71275,176.028525 175.997513,176.028525 C175.282276,176.028525 174.653371,176.164172 174.110777,176.435468 C173.568184,176.706765 173.118085,177.058212 172.760466,177.489821 C172.402848,177.921429 172.131555,178.420854 171.94658,178.988111 C171.761605,179.555367 171.669119,180.134947 171.669119,180.726867 C171.669119,181.318787 171.761605,181.898367 171.94658,182.465624 C172.131555,183.03288 172.409014,183.544637 172.778964,184.000909 C173.148914,184.45718 173.605179,184.820959 174.147772,185.092256 C174.690365,185.363553 175.319271,185.499199 176.034508,185.499199 C176.749745,185.499199 177.37865,185.363553 177.921244,185.092256 C178.463837,184.820959 178.920102,184.45718 179.290052,184.000909 C179.660002,183.544637 179.93746,183.03288 180.122435,182.465624 C180.30741,181.898367 180.399896,181.318787 180.399896,180.726867 Z M190.166528,190.012567 L190.166528,162.044484 L196.307668,162.044484 L196.307668,190.012567 L190.166528,190.012567 Z M220.650259,180.726867 C220.650259,182.231331 220.378966,183.59396 219.836373,184.814795 C219.29378,186.03563 218.553891,187.071474 217.616684,187.922359 C216.679477,188.773245 215.594307,189.432979 214.36114,189.901582 C213.127973,190.370186 211.808504,190.604484 210.402694,190.604484 C209.021547,190.604484 207.708245,190.370186 206.462746,189.901582 C205.217248,189.432979 204.132077,188.773245 203.207202,187.922359 C202.282327,187.071474 201.548604,186.03563 201.00601,184.814795 C200.463417,183.59396 200.192124,182.231331 200.192124,180.726867 C200.192124,179.222404 200.463417,177.865941 201.00601,176.657437 C201.548604,175.448934 202.282327,174.425421 203.207202,173.586867 C204.132077,172.748314 205.217248,172.107077 206.462746,171.663137 C207.708245,171.219197 209.021547,170.99723 210.402694,170.99723 C211.808504,170.99723 213.127973,171.219197 214.36114,171.663137 C215.594307,172.107077 216.679477,172.748314 217.616684,173.586867 C218.553891,174.425421 219.29378,175.448934 219.836373,176.657437 C220.378966,177.865941 220.650259,179.222404 220.650259,180.726867 Z M214.805078,180.726867 C214.805078,180.134947 214.706426,179.555367 214.509119,178.988111 C214.311812,178.420854 214.028188,177.921429 213.658238,177.489821 C213.288288,177.058212 212.832023,176.706765 212.28943,176.435468 C211.746837,176.164172 211.117931,176.028525 210.402694,176.028525 C209.687458,176.028525 209.058552,176.164172 208.515959,176.435468 C207.973365,176.706765 207.523266,177.058212 207.165648,177.489821 C206.808029,177.921429 206.536737,178.420854 206.351762,178.988111 C206.166787,179.555367 206.074301,180.134947 206.074301,180.726867 C206.074301,181.318787 206.166787,181.898367 206.351762,182.465624 C206.536737,183.03288 206.814195,183.544637 207.184145,184.000909 C207.554095,184.45718 208.01036,184.820959 208.552953,185.092256 C209.095547,185.363553 209.724452,185.499199 210.439689,185.499199 C211.154926,185.499199 211.783831,185.363553 212.326425,185.092256 C212.869018,184.820959 213.325283,184.45718 213.695233,184.000909 C214.065183,183.544637 214.342642,183.03288 214.527617,182.465624 C214.712592,181.898367 214.805078,181.318787 214.805078,180.726867 Z M236.447047,176.546453 C236.17575,176.472463 235.910623,176.423137 235.651658,176.398473 C235.392693,176.37381 235.139898,176.361479 234.893264,176.361479 C234.079374,176.361479 233.394977,176.509456 232.840052,176.805416 C232.285127,177.101376 231.841193,177.458989 231.508238,177.878266 C231.175283,178.297543 230.934819,178.753808 230.786839,179.247074 C230.638859,179.740341 230.56487,180.171943 230.56487,180.541893 L230.56487,190.012567 L224.49772,190.012567 L224.49772,171.589147 L230.342902,171.589147 L230.342902,174.252774 L230.416891,174.252774 C230.885495,173.315567 231.551395,172.551015 232.414611,171.959095 C233.277828,171.367175 234.276678,171.07122 235.411192,171.07122 C235.657825,171.07122 235.898289,171.083551 236.132591,171.108214 C236.366892,171.132878 236.55803,171.169872 236.70601,171.219199 L236.447047,176.546453 Z M242.958135,178.396194 C242.464868,178.396194 241.996272,178.309873 241.552332,178.13723 C241.108392,177.964587 240.71995,177.717957 240.386995,177.397334 C240.05404,177.07671 239.788913,176.706766 239.591606,176.287489 C239.3943,175.868212 239.295648,175.411947 239.295648,174.918681 C239.295648,174.425414 239.3943,173.962983 239.591606,173.531375 C239.788913,173.099767 240.05404,172.723656 240.386995,172.403033 C240.71995,172.08241 241.108392,171.829614 241.552332,171.644639 C241.996272,171.459664 242.464868,171.367178 242.958135,171.367178 C243.426738,171.367178 243.426738,178.396194 242.958135,178.396194 Z M242.958135,190.234536 C242.464868,190.234536 241.996272,190.148215 241.552332,189.975572 C241.108392,189.802929 240.71995,189.556299 240.386995,189.235676 C240.05404,188.915052 239.788913,188.545108 239.591606,188.125831 C239.3943,187.706554 239.295648,187.250289 239.295648,186.757023 C239.295648,186.263756 239.3943,185.801325 239.591606,185.369717 C239.788913,184.938109 240.05404,184.561998 240.386995,184.241375 C240.71995,183.920752 241.108392,183.667956 241.552332,183.482981 C241.996272,183.298006 242.464868,183.20552 242.958135,183.20552 C243.426738,183.20552 243.426738,190.234536 242.958135,190.234536 Z M0.679067358,247.317541 L0.679067358,243.507074 L19.4724352,235.590183 L19.4724352,240.621479 L8.15202073,245.4678 L19.4724352,250.166142 L19.4724352,255.234432 L0.679067358,247.317541 Z M38.7097409,256.60324 L38.7097409,254.198577 L38.6357513,254.198577 C38.0438312,255.135784 37.1991247,255.857176 36.1016062,256.362774 C35.0040878,256.868372 33.8387626,257.121168 32.6055959,257.121168 C31.2244491,257.121168 29.9913008,256.849875 28.906114,256.307282 C27.8209272,255.764688 26.9022317,255.043297 26.15,254.143085 C25.3977683,253.242873 24.8243543,252.200863 24.4297409,251.017023 C24.0351276,249.833183 23.8378238,248.600034 23.8378238,247.317541 C23.8378238,246.035047 24.0412933,244.808065 24.4482383,243.636556 C24.8551834,242.465048 25.4347631,241.435369 26.1869948,240.547489 C26.9392266,239.659609 27.8517563,238.956714 28.9246114,238.438784 C29.9974665,237.920854 31.1997861,237.661893 32.5316062,237.661893 C33.8880897,237.661893 35.0349176,237.920854 35.9721244,238.438784 C36.9093311,238.956714 37.6368886,239.523963 38.1548187,240.140546 L38.2288083,240.140546 L38.2288083,228.635157 L44.2959585,228.635157 L44.2959585,256.60324 L38.7097409,256.60324 Z M38.487772,247.354536 C38.487772,246.762616 38.3829544,246.183036 38.1733161,245.615779 C37.9636777,245.048522 37.6677221,244.542932 37.2854404,244.098992 C36.9031587,243.655052 36.4407281,243.297439 35.8981347,243.026142 C35.3555413,242.754845 34.7389672,242.619199 34.0483938,242.619199 C33.333157,242.619199 32.7042514,242.754845 32.161658,243.026142 C31.6190646,243.297439 31.1627998,243.648886 30.7928497,244.080494 C30.4228997,244.512103 30.1454413,245.011528 29.9604663,245.578784 C29.7754913,246.146041 29.6830052,246.725621 29.6830052,247.317541 C29.6830052,247.909461 29.7754913,248.495206 29.9604663,249.074795 C30.1454413,249.654383 30.4228997,250.16614 30.7928497,250.61008 C31.1627998,251.05402 31.6190646,251.411633 32.161658,251.682929 C32.7042514,251.954226 33.333157,252.089872 34.0483938,252.089872 C34.7389672,252.089872 35.3555413,251.954226 35.8981347,251.682929 C36.4407281,251.411633 36.9031587,251.05402 37.2854404,250.61008 C37.6677221,250.16614 37.9636777,249.660549 38.1733161,249.093292 C38.3829544,248.526035 38.487772,247.946456 38.487772,247.354536 Z M55.6903627,232.297644 C55.6903627,232.766248 55.5978766,233.204015 55.4129016,233.61096 C55.2279265,234.017906 54.9812969,234.369353 54.6730052,234.665313 C54.3647135,234.961273 53.994769,235.195571 53.5631606,235.368214 C53.1315522,235.540858 52.6814531,235.627178 52.2128497,235.627178 C51.2263163,235.627178 50.400107,235.300394 49.7341969,234.646815 C49.0682868,233.993237 48.7353368,233.210188 48.7353368,232.297644 C48.7353368,231.853704 48.8216572,231.428268 48.9943005,231.021323 C49.1669439,230.614378 49.4135735,230.262931 49.7341969,229.966971 C50.0548203,229.671011 50.4247647,229.430547 50.8440415,229.245572 C51.2633182,229.060597 51.719583,228.968111 52.2128497,228.968111 C52.6814531,228.968111 53.1315522,229.054431 53.5631606,229.227074 C53.994769,229.399718 54.3647135,229.634016 54.6730052,229.929976 C54.9812969,230.225936 55.2279265,230.577383 55.4129016,230.984328 C55.5978766,231.391273 55.6903627,231.829041 55.6903627,232.297644 Z M49.1792746,256.60324 L49.1792746,238.179821 L55.2464249,238.179821 L55.2464249,256.60324 L49.1792746,256.60324 Z M71.4501554,256.60324 L64.9020725,256.60324 L57.6510881,238.179821 L64.3471503,238.179821 L68.2316062,250.129147 L68.3425907,250.129147 L72.2270466,238.179821 L78.7011399,238.179821 L71.4501554,256.60324 Z M102.969741,244.135986 C102.624454,243.692046 102.155858,243.334433 101.563938,243.063137 C100.972018,242.79184 100.367775,242.656194 99.7511917,242.656194 C99.109945,242.656194 98.5303653,242.785674 98.0124352,243.044639 C97.4945052,243.303604 97.0505718,243.648886 96.6806218,244.080494 C96.3106717,244.512103 96.0208819,245.011528 95.8112435,245.578784 C95.6016052,246.146041 95.4967876,246.750284 95.4967876,247.39153 C95.4967876,248.032777 95.5954394,248.63702 95.7927461,249.204277 C95.9900528,249.771533 96.2798426,250.270958 96.6621244,250.702567 C97.0444061,251.134175 97.5006709,251.473291 98.0309326,251.719924 C98.5611944,251.966558 99.1592713,252.089872 99.8251813,252.089872 C100.441765,252.089872 101.052173,251.972723 101.656425,251.738422 C102.260677,251.50412 102.74777,251.165004 103.11772,250.721064 L106.484249,254.827489 C105.719685,255.567389 104.733167,256.146969 103.524663,256.566245 C102.31616,256.985522 101.033686,257.195157 99.6772021,257.195157 C98.2220653,257.195157 96.8656021,256.973191 95.607772,256.529251 C94.3499419,256.085311 93.2586057,255.437908 92.3337306,254.587023 C91.4088555,253.736138 90.681298,252.706459 90.1510363,251.497955 C89.6207746,250.289452 89.3556477,248.920657 89.3556477,247.39153 C89.3556477,245.887067 89.6207746,244.530604 90.1510363,243.3221 C90.681298,242.113597 91.4088555,241.083918 92.3337306,240.233033 C93.2586057,239.382148 94.3499419,238.728579 95.607772,238.272308 C96.8656021,237.816036 98.2097338,237.587903 99.6402073,237.587903 C100.306117,237.587903 100.965852,237.649561 101.61943,237.772878 C102.273008,237.896194 102.901914,238.062669 103.506166,238.272308 C104.110418,238.481946 104.665334,238.740907 105.170933,239.049199 C105.676531,239.357491 106.114299,239.696606 106.484249,240.066556 L102.969741,244.135986 Z M108.962902,256.60324 L108.962902,228.635157 L115.104041,228.635157 L115.104041,256.60324 L108.962902,256.60324 Z M130.789845,248.575365 L130.012953,248.575365 C129.347043,248.575365 128.674977,248.606193 127.996736,248.667852 C127.318494,248.72951 126.714251,248.846659 126.18399,249.019302 C125.653728,249.191946 125.21596,249.444741 124.870674,249.777696 C124.525387,250.110651 124.352746,250.548419 124.352746,251.091012 C124.352746,251.436299 124.432901,251.732255 124.593212,251.978888 C124.753524,252.225521 124.956994,252.422825 125.203627,252.570805 C125.45026,252.718785 125.733884,252.823603 126.054508,252.885261 C126.375131,252.946919 126.683418,252.977748 126.979378,252.977748 C128.212545,252.977748 129.155903,252.638632 129.809482,251.960391 C130.46306,251.282149 130.789845,250.363453 130.789845,249.204277 L130.789845,248.575365 Z M119.654404,240.695468 C120.739591,239.659608 122.003568,238.882725 123.446373,238.364795 C124.889178,237.846865 126.36279,237.587903 127.867254,237.587903 C129.421044,237.587903 130.734347,237.779041 131.807202,238.161323 C132.880057,238.543605 133.749427,239.135516 134.415337,239.937074 C135.081247,240.738633 135.56834,241.749814 135.876632,242.97065 C136.184924,244.191485 136.339067,245.640434 136.339067,247.317541 L136.339067,256.60324 L130.789845,256.60324 L130.789845,254.642515 L130.67886,254.642515 C130.210257,255.407078 129.501196,255.998989 128.551658,256.418266 C127.60212,256.837543 126.572441,257.047178 125.462591,257.047178 C124.722691,257.047178 123.958139,256.948526 123.168912,256.75122 C122.379685,256.553913 121.658293,256.233294 121.004715,255.789354 C120.351137,255.345414 119.814717,254.753503 119.39544,254.013603 C118.976164,253.273703 118.766528,252.361173 118.766528,251.275986 C118.766528,249.944166 119.130307,248.871327 119.857876,248.057437 C120.585444,247.243547 121.522637,246.614641 122.669482,246.170701 C123.816327,245.726761 125.092635,245.430806 126.498446,245.282826 C127.904256,245.134846 129.27305,245.060857 130.60487,245.060857 L130.60487,244.764898 C130.60487,243.852355 130.284252,243.180289 129.643005,242.748681 C129.001758,242.317072 128.212544,242.101271 127.275337,242.101271 C126.41212,242.101271 125.579745,242.286244 124.778187,242.656194 C123.976628,243.026144 123.292231,243.470077 122.724974,243.988007 L119.654404,240.695468 Z M151.691917,243.618059 C151.19865,243.149456 150.619071,242.754848 149.953161,242.434225 C149.287251,242.113601 148.584356,241.953292 147.844456,241.953292 C147.277199,241.953292 146.753111,242.064275 146.272176,242.286245 C145.791241,242.508215 145.550777,242.890491 145.550777,243.433085 C145.550777,243.951015 145.815904,244.320959 146.346166,244.542929 C146.876428,244.764899 147.733466,245.011529 148.917306,245.282826 C149.607879,245.430806 150.304608,245.640441 151.007513,245.911738 C151.710418,246.183034 152.345489,246.540647 152.912746,246.984587 C153.480003,247.428527 153.936268,247.971113 154.281554,248.612359 C154.626841,249.253606 154.799482,250.018158 154.799482,250.906038 C154.799482,252.065215 154.565184,253.045568 154.09658,253.847126 C153.627977,254.648685 153.017569,255.296088 152.265337,255.789354 C151.513105,256.282621 150.668398,256.640234 149.731192,256.862204 C148.793985,257.084174 147.856792,257.195157 146.919585,257.195157 C145.415122,257.195157 143.94151,256.954693 142.498705,256.473758 C141.0559,255.992823 139.85358,255.283763 138.89171,254.346556 L142.295233,250.758059 C142.837827,251.349979 143.503727,251.843238 144.292953,252.237852 C145.08218,252.632465 145.920721,252.829769 146.808601,252.829769 C147.301868,252.829769 147.788961,252.71262 148.269896,252.478318 C148.750831,252.244016 148.991295,251.830912 148.991295,251.238992 C148.991295,250.671735 148.69534,250.252464 148.10342,249.981168 C147.5115,249.709871 146.586638,249.426247 145.328808,249.130287 C144.687562,248.982307 144.046324,248.785003 143.405078,248.53837 C142.763831,248.291736 142.190417,247.958786 141.684819,247.53951 C141.17922,247.120233 140.766116,246.602311 140.445492,245.985727 C140.124869,245.369144 139.96456,244.629255 139.96456,243.766038 C139.96456,242.656188 140.198858,241.71283 140.667461,240.935935 C141.136065,240.159039 141.740307,239.523968 142.480207,239.030701 C143.220107,238.537435 144.040151,238.173656 144.940363,237.939354 C145.840574,237.705053 146.734607,237.587903 147.622487,237.587903 C149.003634,237.587903 150.353931,237.803704 151.67342,238.235313 C152.992908,238.666921 154.108907,239.314324 155.021451,240.177541 L151.691917,243.618059 Z M169.153472,243.618059 C168.660205,243.149456 168.080625,242.754848 167.414715,242.434225 C166.748805,242.113601 166.04591,241.953292 165.30601,241.953292 C164.738754,241.953292 164.214666,242.064275 163.733731,242.286245 C163.252796,242.508215 163.012332,242.890491 163.012332,243.433085 C163.012332,243.951015 163.277458,244.320959 163.80772,244.542929 C164.337982,244.764899 165.19502,245.011529 166.37886,245.282826 C167.069434,245.430806 167.766162,245.640441 168.469067,245.911738 C169.171972,246.183034 169.807044,246.540647 170.374301,246.984587 C170.941557,247.428527 171.397822,247.971113 171.743109,248.612359 C172.088396,249.253606 172.261036,250.018158 172.261036,250.906038 C172.261036,252.065215 172.026738,253.045568 171.558135,253.847126 C171.089531,254.648685 170.479123,255.296088 169.726891,255.789354 C168.974659,256.282621 168.129953,256.640234 167.192746,256.862204 C166.255539,257.084174 165.318347,257.195157 164.38114,257.195157 C162.876676,257.195157 161.403064,256.954693 159.960259,256.473758 C158.517454,255.992823 157.315134,255.283763 156.353264,254.346556 L159.756788,250.758059 C160.299381,251.349979 160.965281,251.843238 161.754508,252.237852 C162.543735,252.632465 163.382275,252.829769 164.270155,252.829769 C164.763422,252.829769 165.250516,252.71262 165.731451,252.478318 C166.212386,252.244016 166.45285,251.830912 166.45285,251.238992 C166.45285,250.671735 166.156894,250.252464 165.564974,249.981168 C164.973054,249.709871 164.048193,249.426247 162.790363,249.130287 C162.149116,248.982307 161.507879,248.785003 160.866632,248.53837 C160.225385,248.291736 159.651971,247.958786 159.146373,247.53951 C158.640775,247.120233 158.22767,246.602311 157.907047,245.985727 C157.586423,245.369144 157.426114,244.629255 157.426114,243.766038 C157.426114,242.656188 157.660412,241.71283 158.129016,240.935935 C158.597619,240.159039 159.201862,239.523968 159.941762,239.030701 C160.681662,238.537435 161.501705,238.173656 162.401917,237.939354 C163.302129,237.705053 164.196161,237.587903 165.084041,237.587903 C166.465188,237.587903 167.815486,237.803704 169.134974,238.235313 C170.454463,238.666921 171.570462,239.314324 172.483005,240.177541 L169.153472,243.618059 Z M175.923523,244.209976 L175.923523,239.659613 L195.530777,239.659613 L195.530777,244.209976 L175.923523,244.209976 Z M175.923523,251.054017 L175.923523,246.503655 L195.530777,246.503655 L195.530777,251.054017 L175.923523,251.054017 Z M212.659378,240.436505 L207.332124,240.436505 L210.624663,230.410909 L215.28601,230.410909 L212.659378,240.436505 Z M204.890466,240.436505 L199.600207,240.436505 L202.966736,230.410909 L207.628083,230.410909 L204.890466,240.436505 Z M230.675855,240.436505 L225.977513,240.436505 L228.71513,230.410909 L234.005389,230.410909 L230.675855,240.436505 Z M222.980933,240.436505 L218.319585,240.436505 L220.983212,230.410909 L226.273472,230.410909 L222.980933,240.436505 Z M238.481762,255.234432 L238.481762,250.166142 L238.481762,240.621479 L238.481762,235.590183 L238.481762,255.234432 Z M74.6687047,280.612878 L74.6687047,276.802411 L93.4620725,268.88552 L93.4620725,273.916815 L82.141658,278.763137 L93.4620725,283.461479 L93.4620725,288.529769 L74.6687047,280.612878 Z M110.886632,289.898577 L110.886632,279.909976 C110.886632,279.392046 110.849638,278.898787 110.775648,278.430183 C110.701658,277.96158 110.559846,277.548475 110.350207,277.190857 C110.140569,276.833238 109.863111,276.549614 109.517824,276.339976 C109.172537,276.130338 108.728604,276.02552 108.18601,276.02552 C107.125487,276.02552 106.311609,276.40163 105.744352,277.153862 C105.177096,277.906094 104.893472,278.837121 104.893472,279.946971 L104.893472,289.898577 L98.8263212,289.898577 L98.8263212,261.930494 L104.893472,261.930494 L104.893472,273.805831 L104.967461,273.805831 C105.386738,273.065931 106.052638,272.406197 106.965181,271.826608 C107.877725,271.24702 108.975227,270.95723 110.25772,270.95723 C111.51555,270.95723 112.569892,271.179197 113.420777,271.623137 C114.271662,272.067077 114.962225,272.640491 115.492487,273.343396 C116.022749,274.046301 116.405025,274.854013 116.639326,275.766556 C116.873628,276.6791 116.990777,277.591629 116.990777,278.504173 L116.990777,289.898577 L110.886632,289.898577 Z M129.68,289.898577 L129.68,270.661271 L124.796684,274.434743 L121.578135,270.032359 L130.197927,263.706245 L135.89513,263.706245 L135.89513,289.898577 L129.68,289.898577 Z M146.03171,288.529769 L146.03171,283.461479 L157.352124,278.763137 L146.03171,273.916815 L146.03171,268.88552 L164.825078,276.802411 L164.825078,280.612878 L146.03171,288.529769 Z M186.984974,289.898577 L186.984974,278.948111 L176.774404,278.948111 L176.774404,289.898577 L170.44829,289.898577 L170.44829,263.706245 L176.774404,263.706245 L176.774404,273.620857 L186.984974,273.620857 L186.984974,263.706245 L193.311088,263.706245 L193.311088,289.898577 L186.984974,289.898577 Z M204.964456,265.592981 C204.964456,266.061585 204.87197,266.499352 204.686995,266.906297 C204.50202,267.313242 204.25539,267.66469 203.947098,267.96065 C203.638807,268.25661 203.268862,268.490908 202.837254,268.663551 C202.405646,268.836195 201.955546,268.922515 201.486943,268.922515 C200.50041,268.922515 199.6742,268.595731 199.00829,267.942152 C198.34238,267.288574 198.00943,266.505525 198.00943,265.592981 C198.00943,265.149041 198.09575,264.723605 198.268394,264.31666 C198.441037,263.909715 198.687667,263.558268 199.00829,263.262308 C199.328914,262.966348 199.698858,262.725884 200.118135,262.540909 C200.537411,262.355934 200.993676,262.263448 201.486943,262.263448 C201.955546,262.263448 202.405646,262.349768 202.837254,262.522411 C203.268862,262.695055 203.638807,262.929353 203.947098,263.225313 C204.25539,263.521273 204.50202,263.87272 204.686995,264.279665 C204.87197,264.68661 204.964456,265.124378 204.964456,265.592981 Z M198.453368,289.898577 L198.453368,271.475157 L204.520518,271.475157 L204.520518,289.898577 L198.453368,289.898577 Z M210.439689,281.130805 L210.439689,263.706245 L216.654819,263.706245 L216.654819,281.130805 L210.439689,281.130805 Z M217.172746,286.754017 C217.172746,287.247284 217.08026,287.709715 216.895285,288.141323 C216.71031,288.572932 216.451349,288.942876 216.118394,289.251168 C215.785439,289.559459 215.396997,289.806089 214.953057,289.991064 C214.509117,290.176039 214.040521,290.268525 213.547254,290.268525 C213.053987,290.268525 212.591557,290.182205 212.159948,290.009562 C211.72834,289.836918 211.35223,289.590289 211.031606,289.269665 C210.710983,288.949042 210.452022,288.579097 210.254715,288.159821 C210.057408,287.740544 209.958756,287.284279 209.958756,286.791012 C209.958756,286.322409 210.051243,285.87231 210.236218,285.440701 C210.421193,285.009093 210.673988,284.632983 210.994611,284.312359 C211.315235,283.991736 211.697511,283.738941 212.141451,283.553966 C212.585391,283.368991 213.053987,283.276505 213.547254,283.276505 C214.040521,283.276505 214.509117,283.368991 214.953057,283.553966 C215.396997,283.738941 215.785439,283.98557 216.118394,284.293862 C216.451349,284.602154 216.71031,284.972098 216.895285,285.403707 C217.08026,285.835315 217.172746,286.285414 217.172746,286.754017 Z M223.091917,280.612878 L223.091917,276.802411 L241.885285,268.88552 L241.885285,273.916815 L230.56487,278.763137 L241.885285,283.461479 L241.885285,288.529769 L223.091917,280.612878 Z"/>
          <path fill="url(#html-group-e)" fill-rule="nonzero" d="M0,57.0375812 L44.3292647,13.4558889 C53.1006874,4.83238814 64.9088585,-1.19512871e-14 77.2093716,-1.42108547e-14 L234.520725,0 L234.520725,310.756477 L0,310.756477 L0,82.1144487 L0,57.0375812 Z"/>
          <path fill="#FFF" d="M54,145.36 L56.52,145.36 L56.52,151.08 L63.14,151.08 L63.14,145.36 L65.66,145.36 L65.66,159.52 L63.14,159.52 L63.14,153.24 L56.52,153.24 L56.52,159.52 L54,159.52 L54,145.36 Z M71.64,147.56 L67.3,147.56 L67.3,145.36 L78.5,145.36 L78.5,147.56 L74.16,147.56 L74.16,159.52 L71.64,159.52 L71.64,147.56 Z M80.14,145.36 L84.08,145.36 L87.76,155.42 L87.82,155.42 L91.46,145.36 L95.42,145.36 L95.42,159.52 L92.92,159.52 L92.92,148.14 L92.88,148.14 L88.58,159.52 L86.82,159.52 L82.58,148.14 L82.54,148.14 L82.54,159.52 L80.14,159.52 L80.14,145.36 Z M98.54,145.36 L101.06,145.36 L101.06,157.28 L107.08,157.28 L107.08,159.52 L98.54,159.52 L98.54,145.36 Z M109.08,156.76 L111.4,156.76 L109.7,162.04 L107.68,162.04 L109.08,156.76 Z M129.18,148.68 C128.806665,148.173331 128.320003,147.803335 127.72,147.57 C127.119997,147.336666 126.533336,147.22 125.96,147.22 C125.226663,147.22 124.560003,147.353332 123.96,147.62 C123.359997,147.886668 122.843336,148.253331 122.41,148.72 C121.976665,149.186669 121.643335,149.73333 121.41,150.36 C121.176665,150.98667 121.06,151.666663 121.06,152.4 C121.06,153.173337 121.173332,153.879997 121.4,154.52 C121.626668,155.160003 121.949998,155.709998 122.37,156.17 C122.790002,156.630002 123.29333,156.986665 123.88,157.24 C124.46667,157.493335 125.126663,157.62 125.86,157.62 C126.620004,157.62 127.29333,157.470001 127.88,157.17 C128.46667,156.869999 128.939998,156.473336 129.3,155.98 L131.32,157.4 C130.69333,158.186671 129.926671,158.796665 129.02,159.23 C128.113329,159.663336 127.053339,159.88 125.84,159.88 C124.733328,159.88 123.716671,159.696669 122.79,159.33 C121.863329,158.963332 121.06667,158.450003 120.4,157.79 C119.73333,157.129997 119.213335,156.343338 118.84,155.43 C118.466665,154.516662 118.28,153.506672 118.28,152.4 C118.28,151.266661 118.476665,150.243338 118.87,149.33 C119.263335,148.416662 119.80333,147.640003 120.49,147 C121.17667,146.359997 121.986662,145.866668 122.92,145.52 C123.853338,145.173332 124.866661,145 125.96,145 C126.413336,145 126.886664,145.043333 127.38,145.13 C127.873336,145.216667 128.346664,145.349999 128.8,145.53 C129.253336,145.710001 129.679998,145.933332 130.08,146.2 C130.480002,146.466668 130.819999,146.786665 131.1,147.16 L129.18,148.68 Z M140.1,148.32 C139.833332,147.973332 139.456669,147.683335 138.97,147.45 C138.483331,147.216666 137.993336,147.1 137.5,147.1 C137.206665,147.1 136.913335,147.136666 136.62,147.21 C136.326665,147.283334 136.060001,147.396666 135.82,147.55 C135.579999,147.703334 135.383334,147.903332 135.23,148.15 C135.076666,148.396668 135,148.693332 135,149.04 C135,149.360002 135.066666,149.633332 135.2,149.86 C135.333334,150.086668 135.516665,150.279999 135.75,150.44 C135.983335,150.600001 136.266665,150.739999 136.6,150.86 C136.933335,150.980001 137.299998,151.099999 137.7,151.22 C138.153336,151.366667 138.623331,151.533332 139.11,151.72 C139.596669,151.906668 140.043331,152.153332 140.45,152.46 C140.856669,152.766668 141.189999,153.153331 141.45,153.62 C141.710001,154.086669 141.84,154.666663 141.84,155.36 C141.84,156.120004 141.700001,156.783331 141.42,157.35 C141.139999,157.91667 140.766669,158.386665 140.3,158.76 C139.833331,159.133335 139.28667,159.413332 138.66,159.6 C138.03333,159.786668 137.373337,159.88 136.68,159.88 C135.759995,159.88 134.860004,159.710002 133.98,159.37 C133.099996,159.029998 132.380003,158.52667 131.82,157.86 L133.62,156.18 C133.966668,156.660002 134.429997,157.039999 135.01,157.32 C135.590003,157.600001 136.159997,157.74 136.72,157.74 C137.013335,157.74 137.313332,157.703334 137.62,157.63 C137.926668,157.556666 138.203332,157.433334 138.45,157.26 C138.696668,157.086666 138.896666,156.870001 139.05,156.61 C139.203334,156.349999 139.28,156.026669 139.28,155.64 C139.28,155.266665 139.193334,154.956668 139.02,154.71 C138.846666,154.463332 138.613335,154.250001 138.32,154.07 C138.026665,153.889999 137.680002,153.733334 137.28,153.6 L136.02,153.18 C135.593331,153.046666 135.166669,152.886668 134.74,152.7 C134.313331,152.513332 133.930002,152.266668 133.59,151.96 C133.249998,151.653332 132.973334,151.276669 132.76,150.83 C132.546666,150.383331 132.44,149.82667 132.44,149.16 C132.44,148.439996 132.589999,147.820003 132.89,147.3 C133.190001,146.779997 133.583331,146.350002 134.07,146.01 C134.556669,145.669998 135.109997,145.416668 135.73,145.25 C136.350003,145.083333 136.979997,145 137.62,145 C138.340004,145 139.069996,145.126665 139.81,145.38 C140.550004,145.633335 141.193331,146.013331 141.74,146.52 L140.1,148.32 Z M151.58,148.32 C151.313332,147.973332 150.936669,147.683335 150.45,147.45 C149.963331,147.216666 149.473336,147.1 148.98,147.1 C148.686665,147.1 148.393335,147.136666 148.1,147.21 C147.806665,147.283334 147.540001,147.396666 147.3,147.55 C147.059999,147.703334 146.863334,147.903332 146.71,148.15 C146.556666,148.396668 146.48,148.693332 146.48,149.04 C146.48,149.360002 146.546666,149.633332 146.68,149.86 C146.813334,150.086668 146.996666,150.279999 147.23,150.44 C147.463335,150.600001 147.746665,150.739999 148.08,150.86 C148.413335,150.980001 148.779998,151.099999 149.18,151.22 C149.633336,151.366667 150.103331,151.533332 150.59,151.72 C151.076669,151.906668 151.523331,152.153332 151.93,152.46 C152.336669,152.766668 152.669999,153.153331 152.93,153.62 C153.190001,154.086669 153.32,154.666663 153.32,155.36 C153.32,156.120004 153.180001,156.783331 152.9,157.35 C152.619999,157.91667 152.246669,158.386665 151.78,158.76 C151.313331,159.133335 150.76667,159.413332 150.14,159.6 C149.51333,159.786668 148.853337,159.88 148.16,159.88 C147.239995,159.88 146.340004,159.710002 145.46,159.37 C144.579996,159.029998 143.860003,158.52667 143.3,157.86 L145.1,156.18 C145.446668,156.660002 145.909997,157.039999 146.49,157.32 C147.070003,157.600001 147.639997,157.74 148.2,157.74 C148.493335,157.74 148.793332,157.703334 149.1,157.63 C149.406668,157.556666 149.683332,157.433334 149.93,157.26 C150.176668,157.086666 150.376666,156.870001 150.53,156.61 C150.683334,156.349999 150.76,156.026669 150.76,155.64 C150.76,155.266665 150.673334,154.956668 150.5,154.71 C150.326666,154.463332 150.093335,154.250001 149.8,154.07 C149.506665,153.889999 149.160002,153.733334 148.76,153.6 L147.5,153.18 C147.073331,153.046666 146.646669,152.886668 146.22,152.7 C145.793331,152.513332 145.410002,152.266668 145.07,151.96 C144.729998,151.653332 144.453334,151.276669 144.24,150.83 C144.026666,150.383331 143.92,149.82667 143.92,149.16 C143.92,148.439996 144.069998,147.820003 144.37,147.3 C144.670002,146.779997 145.063331,146.350002 145.55,146.01 C146.036669,145.669998 146.589997,145.416668 147.21,145.25 C147.830003,145.083333 148.459997,145 149.1,145 C149.820004,145 150.549996,145.126665 151.29,145.38 C152.030004,145.633335 152.673331,146.013331 153.22,146.52 L151.58,148.32 Z M156.16,156.76 L158.48,156.76 L156.78,162.04 L154.76,162.04 L156.16,156.76 Z M173,154.94 C173,155.460003 172.943334,156.006664 172.83,156.58 C172.716666,157.153336 172.506668,157.686664 172.2,158.18 C171.893332,158.673336 171.460003,159.079998 170.9,159.4 C170.339997,159.720002 169.620004,159.88 168.74,159.88 C167.593328,159.88 166.67667,159.593336 165.99,159.02 C165.30333,158.446664 164.833335,157.693338 164.58,156.76 L166.9,156.1 C167.020001,156.566669 167.239998,156.936665 167.56,157.21 C167.880002,157.483335 168.259998,157.62 168.7,157.62 C169.060002,157.62 169.356666,157.553334 169.59,157.42 C169.823335,157.286666 170.003333,157.096668 170.13,156.85 C170.256667,156.603332 170.346666,156.310002 170.4,155.97 C170.453334,155.629998 170.48,155.260002 170.48,154.86 L170.48,145.36 L173,145.36 L173,154.94 Z M183.22,148.32 C182.953332,147.973332 182.576669,147.683335 182.09,147.45 C181.603331,147.216666 181.113336,147.1 180.62,147.1 C180.326665,147.1 180.033335,147.136666 179.74,147.21 C179.446665,147.283334 179.180001,147.396666 178.94,147.55 C178.699999,147.703334 178.503334,147.903332 178.35,148.15 C178.196666,148.396668 178.12,148.693332 178.12,149.04 C178.12,149.360002 178.186666,149.633332 178.32,149.86 C178.453334,150.086668 178.636665,150.279999 178.87,150.44 C179.103335,150.600001 179.386665,150.739999 179.72,150.86 C180.053335,150.980001 180.419998,151.099999 180.82,151.22 C181.273336,151.366667 181.743331,151.533332 182.23,151.72 C182.716669,151.906668 183.163331,152.153332 183.57,152.46 C183.976669,152.766668 184.309999,153.153331 184.57,153.62 C184.830001,154.086669 184.96,154.666663 184.96,155.36 C184.96,156.120004 184.820001,156.783331 184.54,157.35 C184.259999,157.91667 183.886669,158.386665 183.42,158.76 C182.953331,159.133335 182.40667,159.413332 181.78,159.6 C181.15333,159.786668 180.493337,159.88 179.8,159.88 C178.879995,159.88 177.980004,159.710002 177.1,159.37 C176.219996,159.029998 175.500003,158.52667 174.94,157.86 L176.74,156.18 C177.086668,156.660002 177.549997,157.039999 178.13,157.32 C178.710003,157.600001 179.279997,157.74 179.84,157.74 C180.133335,157.74 180.433332,157.703334 180.74,157.63 C181.046668,157.556666 181.323332,157.433334 181.57,157.26 C181.816668,157.086666 182.016666,156.870001 182.17,156.61 C182.323334,156.349999 182.4,156.026669 182.4,155.64 C182.4,155.266665 182.313334,154.956668 182.14,154.71 C181.966666,154.463332 181.733335,154.250001 181.44,154.07 C181.146665,153.889999 180.800002,153.733334 180.4,153.6 L179.14,153.18 C178.713331,153.046666 178.286669,152.886668 177.86,152.7 C177.433331,152.513332 177.050002,152.266668 176.71,151.96 C176.369998,151.653332 176.093334,151.276669 175.88,150.83 C175.666666,150.383331 175.56,149.82667 175.56,149.16 C175.56,148.439996 175.709999,147.820003 176.01,147.3 C176.310001,146.779997 176.703331,146.350002 177.19,146.01 C177.676669,145.669998 178.229997,145.416668 178.85,145.25 C179.470003,145.083333 180.099997,145 180.74,145 C181.460004,145 182.189996,145.126665 182.93,145.38 C183.670004,145.633335 184.313331,146.013331 184.86,146.52 L183.22,148.32 Z"/>
        </g>
      </g>
      <g fill-rule="nonzero" mask="url(#html-group-d)">
        <use fill="#000" filter="url(#html-group-f)" xlink:href="#html-group-g"/>
        <use fill="#FFF" xlink:href="#html-group-g"/>
        <use fill="#F5D118" xlink:href="#html-group-g"/>
        <use fill="url(#html-group-h)" xlink:href="#html-group-g"/>
      </g>
    </g>
  </g>
</svg>
