<svg xmlns="http://www.w3.org/2000/svg" xmlns:xlink="http://www.w3.org/1999/xlink" width="275" height="321" viewBox="0 0 275 321">
  <defs>
    <path id="react-stack-c" d="M3,0 L190,0 C191.656854,-3.04359188e-16 193,1.34314575 193,3 L193,197.113433 L193,250 C193,251.656854 191.656854,253 190,253 L134.721569,253 L3,253 C1.34314575,253 1.07695378e-14,251.656854 -4.88498131e-15,250 L0,3 C-2.02906125e-16,1.34314575 1.34314575,3.04359188e-16 3,0 Z"/>
    <filter id="react-stack-b" width="157%" height="143.5%" x="-28.5%" y="-13.8%" filterUnits="objectBoundingBox">
      <feMorphology in="SourceAlpha" radius="7.5" result="shadowSpreadOuter1"/>
      <feOffset dy="20" in="shadowSpreadOuter1" result="shadowOffsetOuter1"/>
      <feGaussianBlur in="shadowOffsetOuter1" result="shadowBlurOuter1" stdDeviation="22.5"/>
      <feComposite in="shadowBlurOuter1" in2="SourceAlpha" operator="out" result="shadowBlurOuter1"/>
      <feColorMatrix in="shadowBlurOuter1" values="0 0 0 0 0   0 0 0 0 0   0 0 0 0 0  0 0 0 0.204030797 0"/>
    </filter>
    <rect id="react-stack-a" width="84.012" height="74.767" x="101.42" y="170.681" rx="3"/>
    <mask id="react-stack-d" width="84.012" height="74.767" x="0" y="0" fill="#fff">
      <use xlink:href="#react-stack-a"/>
    </mask>
    <path id="react-stack-e" d="M0,0 L0,237.895522 L121.476471,237.895522 C131.173479,229.235355 140.88655,219.920927 150.615686,209.952239 C160.344822,199.983551 169.427175,190.039769 177.862745,180.120896 L177.862745,0 L0,0 Z"/>
    <linearGradient id="react-stack-i" x1="0%" x2="62.3%" y1="0%" y2="59.659%">
      <stop offset="0%" stop-color="#29BEFB"/>
      <stop offset="71.189%" stop-color="#17AEF4"/>
      <stop offset="100%" stop-color="#228CCB"/>
    </linearGradient>
    <path id="react-stack-h" d="M121.854902,182.386567 L170.669962,182.386567 C175.463426,182.010338 177.860158,179.367055 177.860158,174.456716 C177.860158,174.456716 178.617021,182.386567 176.970509,184.229801 C165.715183,196.776158 147.343314,214.790602 121.854902,238.273134 C112.772549,238.273134 110.501961,238.273134 115.043137,238.273134 C119.584314,238.273134 121.854902,236.476773 121.854902,232.884051 L121.854902,182.386567 Z"/>
    <filter id="react-stack-g" width="230.2%" height="217.5%" x="-99.6%" y="-86.2%" filterUnits="objectBoundingBox">
      <feMorphology in="SourceAlpha" radius="7.5" result="shadowSpreadOuter1"/>
      <feOffset dy="10" in="shadowSpreadOuter1" result="shadowOffsetOuter1"/>
      <feGaussianBlur in="shadowOffsetOuter1" result="shadowBlurOuter1" stdDeviation="22.5"/>
      <feColorMatrix in="shadowBlurOuter1" values="0 0 0 0 0   0 0 0 0 0   0 0 0 0 0  0 0 0 0.204030797 0"/>
    </filter>
    <linearGradient id="react-stack-k" x1="50%" x2="50%" y1="100%" y2="-33.359%">
      <stop offset="0%" stop-color="#FFF" stop-opacity=".5"/>
      <stop offset="100%" stop-opacity=".5"/>
    </linearGradient>
    <path id="react-stack-j" d="M2,2 L166,2 L166,3 C166,3.55228475 165.552285,4 165,4 L3,4 C2.44771525,4 2,3.55228475 2,3 L2,2 Z"/>
    <path id="react-stack-l" d="M2,2 L152,2 L152,3 C152,3.55228475 151.552285,4 151,4 L3,4 C2.44771525,4 2,3.55228475 2,3 L2,2 Z"/>
    <path id="react-stack-m" d="M2,2 L180,2 L180,3 C180,3.55228475 179.552285,4 179,4 L3,4 C2.44771525,4 2,3.55228475 2,3 L2,2 Z"/>
  </defs>
  <g fill="none" fill-rule="evenodd" transform="translate(41 15)">
    <g fill-rule="nonzero">
      <use fill="#000" filter="url(#react-stack-b)" xlink:href="#react-stack-c"/>
      <path fill="#FFF" fill-rule="evenodd" stroke="#FFF" stroke-linejoin="square" stroke-width="10" d="M5,5 L5,248 L134.721569,248 L188,248 L188,5 L5,5 Z"/>
    </g>
    <use fill="#FAFAFA" fill-rule="nonzero" stroke="#C3C3C3" stroke-dasharray="2" stroke-width="2" mask="url(#react-stack-d)" opacity=".5" xlink:href="#react-stack-a"/>
    <g transform="translate(7.569 7.552)">
      <mask id="react-stack-f" fill="#fff">
        <use xlink:href="#react-stack-e"/>
      </mask>
      <use fill="#44C9ED" fill-rule="nonzero" xlink:href="#react-stack-e"/>
      <g fill-rule="nonzero" mask="url(#react-stack-f)">
        <use fill="#000" filter="url(#react-stack-g)" xlink:href="#react-stack-h"/>
        <use fill="#FFF" xlink:href="#react-stack-h"/>
        <use fill="#F5D118" xlink:href="#react-stack-h"/>
        <use fill="url(#react-stack-i)" xlink:href="#react-stack-h"/>
      </g>
      <g fill="#FFF" mask="url(#react-stack-f)">
        <g transform="translate(64.333 95.913)">
          <path d="M42.9384116,14.9316568 C48.5787266,16.8567913 52.2235294,19.8724763 52.2235294,22.9905938 C52.2235294,26.242538 48.3284209,29.4220691 42.3414221,31.3886807 C42.0250153,31.4927172 41.7007503,31.592629 41.3702451,31.6893326 C41.4881176,32.1595594 41.5932783,32.6213075 41.6834161,33.0734311 C42.8653769,38.9927441 41.9552163,43.8579423 39.1540108,45.4656966 C36.4417876,47.0223492 32.0583171,45.4931952 27.6198394,41.7064023 C27.1373972,41.2937961 26.6666488,40.8679364 26.2081428,40.4293193 C25.8441248,40.778323 25.480569,41.1112858 25.1183999,41.4252287 C20.536164,45.3964917 15.8305087,47.0441189 13.0267609,45.441177 C10.3122264,43.8886492 9.45915306,39.3598511 10.5514383,33.6561733 C10.6707909,33.0363057 10.8075919,32.4198663 10.9616808,31.8075767 C10.4873667,31.6733363 10.0165009,31.5273954 9.54952198,31.3698899 C3.79041,29.4184026 0,26.1996859 0,22.9905938 C0,19.8837049 3.53109049,16.8881856 9.06000439,14.9770296 C9.67802612,14.7634568 10.3240137,14.5627166 10.9928824,14.3743509 C10.8495941,13.8060183 10.7208943,13.2341674 10.6069077,12.6593519 C9.46123316,6.85484578 10.2673887,2.21605312 12.9890879,0.653900797 C15.8275041,-0.975164906 20.5546538,0.774207379 25.2707097,4.92604482 C25.5640611,5.18486411 25.8525515,5.44904921 26.1360326,5.71846418 C26.5593454,5.31329279 26.9929156,4.91879048 27.4363281,4.53533488 C31.9362844,0.65275502 36.3918651,-0.971498419 39.1161067,0.586299956 C41.9575275,2.21055339 42.7895687,7.14472736 41.5170079,13.2695928 C41.4374916,13.6500952 41.3508829,14.0291067 41.2572261,14.4064327 C41.8219815,14.5674796 42.3825546,14.7426099 42.9384116,14.9316568 Z M41.639734,29.2891589 L41.6399651,29.2891589 C46.8090212,27.5908883 49.9927345,24.9922661 49.9927345,22.9905938 C49.9927345,21.1115195 47.0449973,18.6726187 42.2122246,17.0233873 C41.7125376,16.8526665 41.1938986,16.691112 40.6597743,16.5375778 C40.0172536,18.5988306 39.1597889,20.7764943 38.1181195,23.0015932 C39.2094802,25.2805436 40.1016133,27.4866226 40.7626239,29.5611664 C41.0612342,29.4733999 41.3542976,29.3828835 41.639734,29.2891589 Z M39.4949166,33.5030975 C39.4133303,33.0945134 39.3185701,32.6767632 39.2122537,32.2505341 C37.0491777,32.7461972 34.6639928,33.1094085 32.13921,33.3314601 C30.7039389,35.3915671 29.233306,37.2468092 27.7617487,38.8426474 C28.2013438,39.2620017 28.6397833,39.6584406 29.0749871,40.0296723 C32.8704818,43.2680964 36.3902472,44.495911 38.036071,43.5513324 C38.8094071,43.1074584 39.4348247,41.9992629 39.7459157,40.3369697 C40.0921373,38.4869982 40.0174847,36.1205104 39.4949166,33.5030975 Z M17.8040642,43.3881738 L17.8042954,43.3881738 C19.5936462,42.7614338 21.6240579,41.515745 23.6503094,39.7594981 C23.9894389,39.4648495 24.3212003,39.161967 24.6452921,38.8511261 C23.1203454,37.2284768 21.607186,35.3755262 20.1624389,33.3596462 C17.6316468,33.1561562 15.2637962,32.8186103 13.1247569,32.3495292 C12.9816346,32.9189648 12.8544683,33.4922265 12.7434047,34.068653 C11.8094384,38.9462256 12.4940234,42.5829217 14.141465,43.5247504 C14.9154945,43.9672495 16.1961446,43.9512086 17.8040642,43.3881738 Z M10.2710866,29.2767846 C10.6974491,29.4206062 11.1273128,29.554015 11.5602883,29.6768899 C12.219912,27.5445989 13.0893951,25.3059799 14.1373048,23.0444453 C13.1028002,20.8161382 12.2455667,18.6125799 11.5919521,16.5050378 C10.9874148,16.6745214 10.3880113,16.8615159 9.79451189,17.065781 C5.06597542,18.7003465 2.23079496,21.1053323 2.23079496,22.9905938 C2.23079496,23.8767377 2.88487181,24.9686631 4.18008264,26.068609 C5.62159405,27.2922988 7.72457824,28.4137853 10.2710866,29.2767846 Z M12.7963317,12.2344978 L12.7963317,12.2342687 C12.9024383,12.7689675 13.0221208,13.3009297 13.1552651,13.8296485 C15.3167232,13.3440683 17.6679331,12.9815444 20.1240725,12.7558264 C21.556339,10.7516333 23.0556311,8.91266123 24.5727196,7.29734485 C24.3108577,7.04916956 24.0494581,6.80924386 23.7892141,6.58008847 C19.7172968,2.99541062 15.8540832,1.56548096 14.1067966,2.56826497 C12.4665198,3.50963533 11.8147542,7.2611383 12.7963317,12.2344978 Z M35.3231544,17.7495807 C35.8419595,18.6377126 36.3428248,19.536028 36.825451,20.4439899 C37.4859993,18.9109403 38.0469338,17.4154722 38.4969294,15.9853133 C36.9978685,15.6459342 35.4015049,15.3686562 33.7351113,15.1601248 C34.2831519,16.01187 34.8126225,16.8752223 35.3231544,17.7495807 Z M26.1367259,8.87805877 C25.0915897,9.99610794 24.0522316,11.2285057 23.0376035,12.5550862 C25.0939419,12.4596609 27.1536677,12.4601197 29.2099626,12.5564612 C28.1962591,11.2175062 27.1656836,9.98327524 26.1367259,8.87805877 Z M16.8913613,17.764705 C17.4043555,16.8828319 17.9381646,16.0130238 18.4923472,15.156 C16.8368163,15.361094 15.2478487,15.6312683 13.7578016,15.9619395 C14.2117263,17.4124931 14.767576,18.9146068 15.4172616,20.4423858 C15.8875514,19.5385769 16.3790518,18.6457736 16.8913613,17.764705 Z M18.5399585,30.9830756 C17.9721944,30.1097477 17.4255112,29.2231227 16.900375,28.3239564 C16.3857365,27.4424923 15.8920763,26.5491503 15.4198039,25.6446715 C14.756251,27.2052198 14.1881518,28.7396443 13.7270623,30.2158634 C15.2166472,30.5373684 16.8296515,30.7937933 18.5399585,30.9830756 Z M26.1984357,37.2594127 C27.2204596,36.1436551 28.2473372,34.8906334 29.2642764,33.5202842 C28.2286162,33.5661152 27.1763152,33.5897182 26.1117647,33.5897182 C25.0756423,33.5897182 24.0561606,33.5700109 23.0563244,33.5310545 C24.0864377,34.8768841 25.1410499,36.1280726 26.1984357,37.2594127 Z M36.8467143,25.5651546 C36.362457,26.4906652 35.8574833,27.4053746 35.3321682,28.308603 C34.815411,29.1973338 34.2808728,30.0757839 33.728871,30.9434317 C35.4514274,30.7385668 37.0861573,30.4626637 38.6004723,30.1200764 C38.1331425,28.6688353 37.5447044,27.1426604 36.8467143,25.5651546 Z M33.3995213,27.2036157 L33.3997524,27.2036157 C34.1976884,25.8333871 34.9461524,24.4354171 35.6437214,23.0123635 C34.9389022,21.6036624 34.1880502,20.2180672 33.3923565,18.8577762 C32.6011328,17.5010404 31.7618668,16.1724109 30.8761252,14.874368 C29.3234438,14.7570404 27.7289293,14.6956268 26.1119958,14.6956268 C24.5022272,14.6956268 22.9097927,14.7565821 21.3566491,14.8729931 C20.4618569,16.1730365 19.6171885,17.506307 18.8244704,18.8699215 L18.8244704,18.8694631 C18.0315034,20.2327873 17.29054,21.6252033 16.6031514,23.0437578 C17.2922928,24.4618875 18.0355021,25.853558 18.8311729,27.2157609 C19.6305802,28.5852297 20.4819511,29.9242254 21.3834594,31.229876 C22.9058637,31.3277253 24.486742,31.3779104 26.1117647,31.3779104 C27.74349,31.3779104 29.3447071,31.321309 30.8941527,31.2115436 C31.7728706,29.9028459 32.608435,28.5661636 33.3995213,27.2036157 Z M38.0018649,2.50249737 C36.3599702,1.56364771 32.7565383,2.87716644 28.9009518,6.20404446 C28.491587,6.55817914 28.0911592,6.92234303 27.7000389,7.29619907 C29.1926284,8.89066231 30.6794399,10.7328425 32.1144799,12.7588054 C34.5777841,12.9879608 36.9306118,13.356901 39.0971547,13.8525641 C39.1816713,13.5108715 39.2599576,13.1676936 39.3319752,12.823198 C40.4307319,7.534979 39.7505382,3.50253151 38.0018649,2.50249737 Z"/>
          <path d="M26.4901961,18.1253731 C28.9983425,18.1253731 31.0313725,20.1541753 31.0313725,22.6566041 C31.0313725,25.1592576 28.9983425,27.1880597 26.4901961,27.1880597 C23.9822747,27.1880597 21.9490196,25.1592576 21.9490196,22.6566041 C21.9490196,20.1541753 23.9822747,18.1253731 26.4901961,18.1253731"/>
        </g>
      </g>
    </g>
    <g fill-rule="nonzero" opacity=".5" transform="translate(5 253)">
      <g transform="translate(7 6)">
        <path fill="#F4F4F4" d="M0,0 L169,0 L169,4 C169,5.1045695 168.104569,6 167,6 L2,6 C0.8954305,6 1.3527075e-16,5.1045695 0,4 L0,0 Z"/>
        <use fill="#8E5DDC" xlink:href="#react-stack-j"/>
        <use fill="url(#react-stack-k)" fill-opacity=".4" xlink:href="#react-stack-j"/>
      </g>
      <g transform="translate(14 12)">
        <path fill="#F1F1F1" d="M0,0 L155,0 L155,4 C155,5.1045695 154.104569,6 153,6 L2,6 C0.8954305,6 1.3527075e-16,5.1045695 0,4 L0,0 Z"/>
        <use fill="#44C9ED" xlink:href="#react-stack-l"/>
        <use fill="url(#react-stack-k)" fill-opacity=".4" xlink:href="#react-stack-l"/>
      </g>
      <path fill="#FAFAFA" d="M0,0 L183,0 L183,4 C183,5.1045695 182.104569,6 181,6 L2,6 C0.8954305,6 1.3527075e-16,5.1045695 0,4 L0,0 Z"/>
      <use fill="#44C9ED" xlink:href="#react-stack-m"/>
      <use fill="url(#react-stack-k)" fill-opacity=".2" xlink:href="#react-stack-m"/>
    </g>
  </g>
</svg>
