<svg xmlns="http://www.w3.org/2000/svg" xmlns:xlink="http://www.w3.org/1999/xlink" width="255" height="335" viewBox="0 0 255 335">
  <defs>
    <rect id="react-group-a" width="111" height="98.786" x="134" y="225.511" rx="3"/>
    <mask id="react-group-b" width="111" height="98.786" x="0" y="0" fill="#fff">
      <use xlink:href="#react-group-a"/>
    </mask>
    <path id="react-group-c" d="M0,0 L0,314.317918 L160.5,314.317918 C173.312109,302.875728 186.145442,290.5691 199,277.398036 C211.854558,264.226971 223.854558,251.088815 235,237.983567 L235,0 L0,0 Z"/>
    <linearGradient id="react-group-g" x1="0%" x2="62.3%" y1="0%" y2="59.659%">
      <stop offset="0%" stop-color="#29BEFB"/>
      <stop offset="71.189%" stop-color="#17AEF4"/>
      <stop offset="100%" stop-color="#228CCB"/>
    </linearGradient>
    <path id="react-group-f" d="M161,240.977071 L225.496582,240.977071 C231.829915,240.479981 234.996582,236.987559 234.996582,230.499807 C234.996582,230.499807 235.996582,240.977071 233.821138,243.412431 C218.950112,259.989224 194.6764,283.790692 161,314.816836 C149,314.816836 146,314.816836 152,314.816836 C158,314.816836 161,312.443405 161,307.696545 L161,240.977071 Z"/>
    <filter id="react-group-e" width="198.6%" height="189%" x="-75.4%" y="-65.2%" filterUnits="objectBoundingBox">
      <feMorphology in="SourceAlpha" radius="7.5" result="shadowSpreadOuter1"/>
      <feOffset dy="10" in="shadowSpreadOuter1" result="shadowOffsetOuter1"/>
      <feGaussianBlur in="shadowOffsetOuter1" result="shadowBlurOuter1" stdDeviation="22.5"/>
      <feColorMatrix in="shadowBlurOuter1" values="0 0 0 0 0   0 0 0 0 0   0 0 0 0 0  0 0 0 0.204030797 0"/>
    </filter>
  </defs>
  <g fill="none" fill-rule="evenodd">
    <path fill="#FFF" fill-rule="nonzero" stroke="#FFF" stroke-width="10" d="M5,5 L5,329.274611 L178,329.274611 L250,329.274611 L250,5 L5,5 Z"/>
    <use fill="#FAFAFA" fill-rule="nonzero" stroke="#C3C3C3" stroke-dasharray="2" stroke-width="2" mask="url(#react-group-b)" opacity=".5" xlink:href="#react-group-a"/>
    <g transform="translate(10 9.978)">
      <mask id="react-group-d" fill="#fff">
        <use xlink:href="#react-group-c"/>
      </mask>
      <use fill="#44C9ED" fill-rule="nonzero" xlink:href="#react-group-c"/>
      <g fill-rule="nonzero" mask="url(#react-group-d)">
        <use fill="#000" filter="url(#react-group-e)" xlink:href="#react-group-f"/>
        <use fill="#FFF" xlink:href="#react-group-f"/>
        <use fill="#F5D118" xlink:href="#react-group-f"/>
        <use fill="url(#react-group-g)" xlink:href="#react-group-f"/>
      </g>
      <g fill="#FFF" mask="url(#react-group-d)">
        <g transform="translate(96 136)">
          <path d="M39.6977768,13.6608775 C44.9124076,15.4221708 48.282131,18.1812017 48.282131,21.0339475 C48.282131,24.0091305 44.6809929,26.9180632 39.145843,28.7173036 C38.853316,28.812486 38.5535239,28.9038946 38.2479624,28.9923681 C38.3569389,29.4225756 38.454163,29.8450261 38.5374979,30.258671 C39.6302541,35.6742127 38.7887849,40.1253515 36.1989911,41.5962756 C33.691464,43.0204471 29.6388215,41.6214339 25.5353232,38.1569213 C25.0892917,37.7794305 24.6540715,37.3898141 24.2301698,36.9885262 C23.8936248,37.3078274 23.5575072,37.6124529 23.2226716,37.8996773 C18.9862649,41.5329605 14.6357533,43.0403641 12.0436091,41.5738428 C9.53394519,40.153445 8.74525471,36.0100765 9.75510332,30.7918181 C9.86544823,30.2247052 9.99192454,29.6607287 10.1343842,29.1005489 C9.69586737,28.9777332 9.26053858,28.8442128 8.82880334,28.7001121 C3.50434132,26.9147088 0,23.9699254 0,21.0339475 C0,18.1914747 3.26459309,15.4508932 8.37623048,13.7023888 C8.94760906,13.5069924 9.54484284,13.3233365 10.1632309,13.1510019 C10.0307568,12.631038 9.91177022,12.1078553 9.80638636,11.5819603 C8.74717783,6.27145465 9.4924914,2.02745286 12.0087794,0.598249665 C14.6329755,-0.892172148 19.0033592,0.70831739 23.3634863,4.50680697 C23.634698,4.74359908 23.9014156,4.98530035 24.1635018,5.23178638 C24.5548665,4.86109766 24.9557144,4.50017001 25.3656618,4.14934893 C29.5259988,0.597201401 33.6453092,-0.888817703 36.1639477,0.536402087 C38.7909216,2.02242119 39.5601673,6.53666546 38.3836488,12.1402657 C38.3101338,12.488385 38.2300615,12.8351402 38.1434732,13.1803533 C38.6656056,13.3276941 39.1838712,13.4879197 39.6977768,13.6608775 Z M38.4971125,26.7964646 L38.4973262,26.7964646 C43.2762649,25.2427276 46.2196979,22.8652648 46.2196979,21.0339475 C46.2196979,19.3147945 43.4944315,17.0834596 39.0263963,15.5745884 C38.5644215,15.418397 38.0849251,15.2705918 37.5911121,15.1301244 C36.9970835,17.0159514 36.2043331,19.0082821 35.2412803,21.0440108 C36.2502742,23.129008 37.0750765,25.1473356 37.6861994,27.0453225 C37.9622731,26.9650254 38.2332185,26.8822126 38.4971125,26.7964646 Z M36.5141682,30.6517701 C36.4387394,30.2779591 36.3511308,29.895762 36.2528383,29.5058078 C34.2530133,29.9592868 32.0478424,30.2915865 29.7136092,30.4947401 C28.3866605,32.3795189 27.0270188,34.076868 25.6665224,35.5368901 C26.0729405,35.9205548 26.4782902,36.2832541 26.8806484,36.6228917 C30.3896907,39.5857052 33.6438135,40.7090249 35.1654241,39.844836 C35.8803952,39.4387386 36.4586116,38.4248576 36.746224,36.9040361 C37.0663156,35.211509 36.9972972,33.0464244 36.5141682,30.6517701 Z M16.4603613,39.6955632 L16.460575,39.6955632 C18.1148805,39.1221628 19.9920536,37.9824901 21.8653804,36.375711 C22.1789152,36.1061389 22.485638,35.8290337 22.78527,35.5446473 C21.3754137,34.0600958 19.976455,32.3648432 18.6407454,30.5205274 C16.3009565,30.3343557 14.1118116,30.0255371 12.1342092,29.5963778 C12.0018886,30.1173508 11.8843197,30.6418242 11.7816383,31.1691932 C10.91816,35.6316532 11.5510782,38.9588433 13.0741846,39.8205163 C13.7897968,40.2253559 14.9737941,40.2106802 16.4603613,39.6955632 Z M9.49591027,26.7851433 C9.89009446,26.9167249 10.2875156,27.0387797 10.6878137,27.1511971 C11.2976545,25.2003777 12.1015162,23.1522795 13.0703384,21.0832159 C12.1139096,19.044552 11.3213729,17.0285306 10.7170877,15.1003537 C10.1581759,15.2554132 9.60401048,15.4264933 9.05530345,15.6133741 C4.68363765,17.1088276 2.06243308,19.3091338 2.06243308,21.0339475 C2.06243308,21.8446749 2.66714563,22.8436705 3.8646047,23.850004 C5.1973228,24.96955 7.1415912,25.9955908 9.49591027,26.7851433 Z M11.8305708,11.193264 L11.8305708,11.1930543 C11.9286694,11.6822468 12.0393192,12.1689357 12.1624149,12.6526572 C14.1607441,12.2084029 16.3345041,11.8767321 18.6052746,11.6702241 C19.9294455,9.83660066 21.3155835,8.15413687 22.7181747,6.67629423 C22.476076,6.44924023 22.2344047,6.22973374 21.9938017,6.02008094 C18.2291989,2.74048206 14.6575486,1.43224854 13.0421327,2.34968922 C11.5256504,3.21094296 10.9230746,6.64316908 11.8305708,11.193264 Z M32.6572559,16.2389781 C33.1369059,17.0515243 33.5999701,17.8733873 34.0461717,18.7040758 C34.6568673,17.3014985 35.1754671,15.9333043 35.5915008,14.6248611 C34.2055765,14.3143653 32.7296932,14.0606854 31.1890651,13.8699014 C31.6957442,14.6491577 32.1852547,15.4390332 32.6572559,16.2389781 Z M24.1641429,8.1224793 C23.1978848,9.14537535 22.2369688,10.2728881 21.2989165,11.4865683 C23.2000595,11.3992642 25.1043343,11.399684 27.0054372,11.4878262 C26.0682395,10.2628248 25.1154433,9.13363479 24.1641429,8.1224793 Z M15.6165415,16.2528152 C16.0908192,15.4459952 16.5843409,14.6502133 17.0966984,13.8661276 C15.5661132,14.0537669 14.0970677,14.3009476 12.7194769,14.6034766 C13.1391432,15.9305788 13.653042,17.304853 14.2536946,18.7026083 C14.6884909,17.8757193 15.1428969,17.0588992 15.6165415,16.2528152 Z M17.1407163,28.3462181 C16.6158023,27.547216 16.1103783,26.7360484 15.624875,25.9134069 C15.1490772,25.106961 14.6926744,24.2896482 14.2560451,23.4621463 C13.6425717,24.8898819 13.1173479,26.2937171 12.6910576,27.6443005 C14.068221,27.9384434 15.5594892,28.1730449 17.1407163,28.3462181 Z M24.2211952,34.0883989 C25.1660853,33.0675994 26.1154627,31.9212178 27.0556518,30.667494 C26.0981546,30.7094246 25.1252726,30.7310188 24.1410655,30.7310188 C23.183141,30.7310188 22.2406014,30.7129887 21.3162245,30.6773477 C22.2685933,31.9086386 23.2436122,33.053343 24.2211952,34.0883989 Z M34.0658302,23.3893968 C33.6181207,24.2361405 33.1512581,25.0730023 32.6655894,25.8993602 C32.1878328,26.7124544 31.6936372,27.5161427 31.1832958,28.3099482 C32.775848,28.1225186 34.287202,27.8700966 35.6872291,27.5566657 C35.2551695,26.2289344 34.7111418,24.8326467 34.0658302,23.3893968 Z M30.8788027,24.8884144 L30.8790164,24.8884144 C31.6167308,23.634801 32.3087069,22.3558071 32.9536292,21.0538645 C32.302004,19.7650529 31.60782,18.4973807 30.8721787,17.2528591 C30.1406699,16.0115902 29.3647447,14.7960355 28.5458516,13.6084643 C27.1103537,13.5011221 25.6361799,13.4449351 24.1412792,13.4449351 C22.6530025,13.4449351 21.1807518,13.5007028 19.7448266,13.6072064 C18.9175658,14.7966079 18.136646,16.0164085 17.4037556,17.2639707 L17.4037556,17.2635514 C16.6706353,18.5108479 15.9855935,19.7847604 15.3500834,21.0825869 C15.9872141,22.3800248 16.6743322,23.6532552 17.4099523,24.899526 C18.149027,26.1524442 18.9361435,27.3774829 19.7696134,28.5720142 C21.1771192,28.661536 22.638686,28.7074499 24.1410655,28.7074499 C25.6496417,28.7074499 27.1300122,28.6556657 28.5625186,28.555242 C29.3749181,27.3579228 30.147421,26.1350008 30.8788027,24.8884144 Z M35.1337996,2.28951887 C33.6158215,1.43057131 30.2843468,2.63230121 26.7197479,5.67604068 C26.3412785,6.00003623 25.9710717,6.33320745 25.60947,6.67524596 C26.9894112,8.1340102 28.3640105,9.81940913 29.6907455,11.6729496 C31.96814,11.8826024 34.1433958,12.2201434 36.146426,12.6736225 C36.224564,12.3610101 36.2969419,12.0470388 36.3635242,11.731862 C37.3793559,6.89370419 36.7504975,3.20444372 35.1337996,2.28951887 Z"/>
          <path d="M24.490936,16.5827882 C26.8097884,16.5827882 28.6893822,18.4389263 28.6893822,20.7283825 C28.6893822,23.0180442 26.8097884,24.8741823 24.490936,24.8741823 C22.1722917,24.8741823 20.2924898,23.0180442 20.2924898,20.7283825 C20.2924898,18.4389263 22.1722917,16.5827882 24.490936,16.5827882"/>
        </g>
      </g>
    </g>
  </g>
</svg>
