<svg xmlns="http://www.w3.org/2000/svg" width="255" height="335" viewBox="0 0 255 335">
  <g fill="none" fill-rule="evenodd">
    <path fill="#00AAA7" fill-rule="nonzero" stroke="#FFF" stroke-width="10" d="M5,5 L5,330 L172.083008,330 L250,330 L250,5 L5,5 Z"/>
    <g transform="translate(54 49)">
      <g stroke="#009F9D" transform="translate(0 14)">
        <rect width="141" height="60" x="2.5" y="161" stroke-width="5" rx="5"/>
        <g fill-rule="nonzero" stroke-width="5" transform="translate(2 160)">
          <path d="M25.1005859.899414063L0 26M41 1L0 42M56.7089844 1.29101562L0 58M71.7089844 1.29101562L13 60M86.7089844 1.29101562L28 60M64.7275391 38.2724609L43 60"/>
        </g>
        <g fill="#009F9D" transform="translate(92 171)">
          <path d="M17.6160299,39.9319149 C17.1198037,39.9319149 16.4995209,39.8075164 16.1273513,39.5587194 L11.2891459,36.6975542 C10.5448066,36.1999602 10.9169762,36.0755617 11.1650893,35.9511633 C12.1575417,35.5779678 12.2815983,35.5779678 13.3981072,34.9559753 C13.5221638,34.9559753 13.6462203,34.9559753 13.7702769,34.9559753 L17.4919733,37.1951481 C17.6160299,37.3195466 17.864143,37.3195466 17.9881995,37.1951481 L32.6268722,28.7360509 C32.7509287,28.6116524 32.8749853,28.4872539 32.8749853,28.3628554 L32.8749853,11.5690595 C32.8749853,11.444661 32.7509287,11.195864 32.6268722,11.195864 L17.864143,2.61236826 C17.7400864,2.48796978 17.4919733,2.48796978 17.3679168,2.61236826 L2.85330061,11.0714655 C2.72924406,11.195864 2.60518751,11.3202625 2.60518751,11.5690595 L2.60518751,28.4872539 C2.60518751,28.6116524 2.72924406,28.8604494 2.85330061,28.8604494 L6.82311015,31.0996222 C8.93207148,32.2192086 10.2966935,30.8508252 10.2966935,29.6068403 L10.2966935,12.9374428 C10.2966935,12.6886459 10.5448066,12.5642474 10.6688632,12.5642474 L12.5297114,12.5642474 C12.7778245,12.5642474 12.901881,12.6886459 12.901881,12.9374428 L12.901881,29.6068403 C12.901881,32.4680056 11.2891459,34.2095844 8.55990183,34.2095844 C7.69150599,34.2095844 7.07122325,34.2095844 5.21037503,33.338795 L1.48867858,31.0996222 C0.620282741,30.4776297 0,29.4824418 0,28.3628554 L0,11.5690595 C0,10.4494731 0.620282741,9.45428515 1.48867858,8.95669119 L16.1273513,0.373195466 C16.9957471,-0.124398489 18.2363126,-0.124398489 19.228765,0.373195466 L33.8674377,8.8322927 C34.8598901,9.32988666 35.3561163,10.4494731 35.3561163,11.444661 L35.3561163,28.3628554 C35.3561163,29.4824418 34.7358335,30.4776297 33.8674377,30.9752237 L19.228765,39.4343209 C18.7325388,39.8075164 18.2363126,39.9319149 17.6160299,39.9319149 Z"/>
          <path d="M22.1715133,28.6468085 C15.992567,28.6468085 14.6598531,25.6018331 14.6598531,23.1912275 C14.6598531,22.9374795 14.9021647,22.8106056 15.0233205,22.8106056 L16.8406577,22.8106056 C17.0829693,22.8106056 17.2041251,22.9374795 17.2041251,23.1912275 C17.4464367,25.0943372 18.2945274,26.109329 22.0503575,26.109329 C25.0792528,26.109329 26.2908109,25.3480851 26.2908109,23.6987234 C26.2908109,22.6837316 25.9273435,22.0493617 21.3234227,21.5418658 C17.4464367,21.1612439 15.0233205,20.273126 15.0233205,16.9744026 C15.0233205,13.9294272 17.4464367,12.1531915 21.5657343,12.1531915 C26.1696551,12.1531915 28.3504597,13.8025532 28.7139271,17.3550245 C28.7139271,17.4818985 28.7139271,17.6087725 28.5927713,17.7356465 C28.4716155,17.8625205 28.3504597,17.8625205 28.3504597,17.8625205 L26.5331225,17.8625205 C26.2908109,17.8625205 26.1696551,17.7356465 26.1696551,17.4818985 C25.6850318,15.4519149 24.5946296,14.817545 21.6868901,14.817545 C18.4156832,14.817545 18.0522158,15.9594108 18.0522158,16.8475286 C18.0522158,17.9893944 18.536839,18.2431424 22.8984482,18.8775123 C27.2600574,19.5118822 29.3197062,20.4 29.3197062,23.5718494 C29.1985504,26.8705728 26.6542783,28.6468085 22.1715133,28.6468085 Z"/>
        </g>
        <g fill="#009F9D" transform="translate(17)">
          <path d="M17.6160299,39.9319149 C17.1198037,39.9319149 16.4995209,39.8075164 16.1273513,39.5587194 L11.2891459,36.6975542 C10.5448066,36.1999602 10.9169762,36.0755617 11.1650893,35.9511633 C12.1575417,35.5779678 12.2815983,35.5779678 13.3981072,34.9559753 C13.5221638,34.9559753 13.6462203,34.9559753 13.7702769,34.9559753 L17.4919733,37.1951481 C17.6160299,37.3195466 17.864143,37.3195466 17.9881995,37.1951481 L32.6268722,28.7360509 C32.7509287,28.6116524 32.8749853,28.4872539 32.8749853,28.3628554 L32.8749853,11.5690595 C32.8749853,11.444661 32.7509287,11.195864 32.6268722,11.195864 L17.864143,2.61236826 C17.7400864,2.48796978 17.4919733,2.48796978 17.3679168,2.61236826 L2.85330061,11.0714655 C2.72924406,11.195864 2.60518751,11.3202625 2.60518751,11.5690595 L2.60518751,28.4872539 C2.60518751,28.6116524 2.72924406,28.8604494 2.85330061,28.8604494 L6.82311015,31.0996222 C8.93207148,32.2192086 10.2966935,30.8508252 10.2966935,29.6068403 L10.2966935,12.9374428 C10.2966935,12.6886459 10.5448066,12.5642474 10.6688632,12.5642474 L12.5297114,12.5642474 C12.7778245,12.5642474 12.901881,12.6886459 12.901881,12.9374428 L12.901881,29.6068403 C12.901881,32.4680056 11.2891459,34.2095844 8.55990183,34.2095844 C7.69150599,34.2095844 7.07122325,34.2095844 5.21037503,33.338795 L1.48867858,31.0996222 C0.620282741,30.4776297 0,29.4824418 0,28.3628554 L0,11.5690595 C0,10.4494731 0.620282741,9.45428515 1.48867858,8.95669119 L16.1273513,0.373195466 C16.9957471,-0.124398489 18.2363126,-0.124398489 19.228765,0.373195466 L33.8674377,8.8322927 C34.8598901,9.32988666 35.3561163,10.4494731 35.3561163,11.444661 L35.3561163,28.3628554 C35.3561163,29.4824418 34.7358335,30.4776297 33.8674377,30.9752237 L19.228765,39.4343209 C18.7325388,39.8075164 18.2363126,39.9319149 17.6160299,39.9319149 Z"/>
          <path d="M22.1715133,28.6468085 C15.992567,28.6468085 14.6598531,25.6018331 14.6598531,23.1912275 C14.6598531,22.9374795 14.9021647,22.8106056 15.0233205,22.8106056 L16.8406577,22.8106056 C17.0829693,22.8106056 17.2041251,22.9374795 17.2041251,23.1912275 C17.4464367,25.0943372 18.2945274,26.109329 22.0503575,26.109329 C25.0792528,26.109329 26.2908109,25.3480851 26.2908109,23.6987234 C26.2908109,22.6837316 25.9273435,22.0493617 21.3234227,21.5418658 C17.4464367,21.1612439 15.0233205,20.273126 15.0233205,16.9744026 C15.0233205,13.9294272 17.4464367,12.1531915 21.5657343,12.1531915 C26.1696551,12.1531915 28.3504597,13.8025532 28.7139271,17.3550245 C28.7139271,17.4818985 28.7139271,17.6087725 28.5927713,17.7356465 C28.4716155,17.8625205 28.3504597,17.8625205 28.3504597,17.8625205 L26.5331225,17.8625205 C26.2908109,17.8625205 26.1696551,17.7356465 26.1696551,17.4818985 C25.6850318,15.4519149 24.5946296,14.817545 21.6868901,14.817545 C18.4156832,14.817545 18.0522158,15.9594108 18.0522158,16.8475286 C18.0522158,17.9893944 18.536839,18.2431424 22.8984482,18.8775123 C27.2600574,19.5118822 29.3197062,20.4 29.3197062,23.5718494 C29.1985504,26.8705728 26.6542783,28.6468085 22.1715133,28.6468085 Z"/>
        </g>
      </g>
      <g transform="translate(2 86)">
        <rect width="139" height="60" x="2.5" y="3" stroke="#009F9D" stroke-width="5" rx="5"/>
        <g fill="#FFF" transform="translate(54 13)">
          <path d="M17.6160299,39.9319149 C17.1198037,39.9319149 16.4995209,39.8075164 16.1273513,39.5587194 L11.2891459,36.6975542 C10.5448066,36.1999602 10.9169762,36.0755617 11.1650893,35.9511633 C12.1575417,35.5779678 12.2815983,35.5779678 13.3981072,34.9559753 C13.5221638,34.9559753 13.6462203,34.9559753 13.7702769,34.9559753 L17.4919733,37.1951481 C17.6160299,37.3195466 17.864143,37.3195466 17.9881995,37.1951481 L32.6268722,28.7360509 C32.7509287,28.6116524 32.8749853,28.4872539 32.8749853,28.3628554 L32.8749853,11.5690595 C32.8749853,11.444661 32.7509287,11.195864 32.6268722,11.195864 L17.864143,2.61236826 C17.7400864,2.48796978 17.4919733,2.48796978 17.3679168,2.61236826 L2.85330061,11.0714655 C2.72924406,11.195864 2.60518751,11.3202625 2.60518751,11.5690595 L2.60518751,28.4872539 C2.60518751,28.6116524 2.72924406,28.8604494 2.85330061,28.8604494 L6.82311015,31.0996222 C8.93207148,32.2192086 10.2966935,30.8508252 10.2966935,29.6068403 L10.2966935,12.9374428 C10.2966935,12.6886459 10.5448066,12.5642474 10.6688632,12.5642474 L12.5297114,12.5642474 C12.7778245,12.5642474 12.901881,12.6886459 12.901881,12.9374428 L12.901881,29.6068403 C12.901881,32.4680056 11.2891459,34.2095844 8.55990183,34.2095844 C7.69150599,34.2095844 7.07122325,34.2095844 5.21037503,33.338795 L1.48867858,31.0996222 C0.620282741,30.4776297 0,29.4824418 0,28.3628554 L0,11.5690595 C0,10.4494731 0.620282741,9.45428515 1.48867858,8.95669119 L16.1273513,0.373195466 C16.9957471,-0.124398489 18.2363126,-0.124398489 19.228765,0.373195466 L33.8674377,8.8322927 C34.8598901,9.32988666 35.3561163,10.4494731 35.3561163,11.444661 L35.3561163,28.3628554 C35.3561163,29.4824418 34.7358335,30.4776297 33.8674377,30.9752237 L19.228765,39.4343209 C18.7325388,39.8075164 18.2363126,39.9319149 17.6160299,39.9319149 Z"/>
          <path d="M22.1715133,28.6468085 C15.992567,28.6468085 14.6598531,25.6018331 14.6598531,23.1912275 C14.6598531,22.9374795 14.9021647,22.8106056 15.0233205,22.8106056 L16.8406577,22.8106056 C17.0829693,22.8106056 17.2041251,22.9374795 17.2041251,23.1912275 C17.4464367,25.0943372 18.2945274,26.109329 22.0503575,26.109329 C25.0792528,26.109329 26.2908109,25.3480851 26.2908109,23.6987234 C26.2908109,22.6837316 25.9273435,22.0493617 21.3234227,21.5418658 C17.4464367,21.1612439 15.0233205,20.273126 15.0233205,16.9744026 C15.0233205,13.9294272 17.4464367,12.1531915 21.5657343,12.1531915 C26.1696551,12.1531915 28.3504597,13.8025532 28.7139271,17.3550245 C28.7139271,17.4818985 28.7139271,17.6087725 28.5927713,17.7356465 C28.4716155,17.8625205 28.3504597,17.8625205 28.3504597,17.8625205 L26.5331225,17.8625205 C26.2908109,17.8625205 26.1696551,17.7356465 26.1696551,17.4818985 C25.6850318,15.4519149 24.5946296,14.817545 21.6868901,14.817545 C18.4156832,14.817545 18.0522158,15.9594108 18.0522158,16.8475286 C18.0522158,17.9893944 18.536839,18.2431424 22.8984482,18.8775123 C27.2600574,19.5118822 29.3197062,20.4 29.3197062,23.5718494 C29.1985504,26.8705728 26.6542783,28.6468085 22.1715133,28.6468085 Z"/>
        </g>
      </g>
      <g fill-rule="nonzero">
        <rect width="141" height="60" x="2.5" y="3" stroke="#009F9D" stroke-width="5" rx="5"/>
        <g transform="matrix(0 1 1 0 68 21)">
          <path stroke="#009F9D" stroke-width="6" d="M12.5,0.24609375 L12.5,45"/>
          <circle cx="12" cy="47" r="12" fill="#009F9D"/>
          <circle cx="12" cy="47" r="6" fill="#00AAA7"/>
        </g>
      </g>
    </g>
  </g>
</svg>
