<svg xmlns="http://www.w3.org/2000/svg" width="255" height="335" viewBox="0 0 255 335">
  <g fill="none" fill-rule="evenodd">
    <path fill="#00AAA7" fill-rule="nonzero" stroke="#FFF" stroke-width="10" d="M5,5 L5,330 L249.815334,330 L250,261 L250,5 L5,5 Z"/>
    <g fill="#FFF" transform="translate(105 141)">
      <path d="M22.0200373,49.9148936 C21.3997546,49.9148936 20.6244011,49.7593955 20.1591891,49.4483993 L14.1114324,45.8719427 C13.1810083,45.2499503 13.6462203,45.0944522 13.9563617,44.9389541 C15.1969272,44.4724597 15.3519978,44.4724597 16.747634,43.6949692 C16.9027047,43.6949692 17.0577754,43.6949692 17.2128461,43.6949692 L21.8649666,46.4939352 C22.0200373,46.6494333 22.3301787,46.6494333 22.4852494,46.4939352 L40.7835902,35.9200636 C40.9386609,35.7645655 41.0937316,35.6090674 41.0937316,35.4535693 L41.0937316,14.4613243 C41.0937316,14.3058262 40.9386609,13.99483 40.7835902,13.99483 L22.3301787,3.26546033 C22.175108,3.10996222 21.8649666,3.10996222 21.7098959,3.26546033 L3.56662576,13.8393319 C3.41155508,13.99483 3.25648439,14.1503281 3.25648439,14.4613243 L3.25648439,35.6090674 C3.25648439,35.7645655 3.41155508,36.0755617 3.56662576,36.0755617 L8.52888769,38.8745277 C11.1650893,40.2740107 12.8708669,38.5635315 12.8708669,37.0085504 L12.8708669,16.1718035 C12.8708669,15.8608073 13.1810083,15.7053092 13.3360789,15.7053092 L15.6621392,15.7053092 C15.9722806,15.7053092 16.1273513,15.8608073 16.1273513,16.1718035 L16.1273513,37.0085504 C16.1273513,40.585007 14.1114324,42.7619805 10.6998773,42.7619805 C9.61438249,42.7619805 8.83902906,42.7619805 6.51296878,41.6734937 L1.86084822,38.8745277 C0.775353427,38.0970372 0,36.8530523 0,35.4535693 L0,14.4613243 C0,13.0618413 0.775353427,11.8178564 1.86084822,11.195864 L20.1591891,0.466494333 C21.2446839,-0.155498111 22.7953907,-0.155498111 24.0359562,0.466494333 L42.3342971,11.0403659 C43.5748626,11.6623583 44.1951453,13.0618413 44.1951453,14.3058262 L44.1951453,35.4535693 C44.1951453,36.8530523 43.4197919,38.0970372 42.3342971,38.7190296 L24.0359562,49.2929012 C23.4156735,49.7593955 22.7953907,49.9148936 22.0200373,49.9148936 Z"/>
      <path d="M27.7143917,35.8085106 C19.9907087,35.8085106 18.3248164,32.0022913 18.3248164,28.9890344 C18.3248164,28.6718494 18.6277059,28.513257 18.7791506,28.513257 L21.0508221,28.513257 C21.3537116,28.513257 21.5051564,28.6718494 21.5051564,28.9890344 C21.8080459,31.3679214 22.8681592,32.6366612 27.5629469,32.6366612 C31.349066,32.6366612 32.8635136,31.6851064 32.8635136,29.6234043 C32.8635136,28.3546645 32.4091793,27.5617021 26.6542783,26.9273322 C21.8080459,26.4515548 18.7791506,25.3414075 18.7791506,21.2180033 C18.7791506,17.411784 21.8080459,15.1914894 26.9571679,15.1914894 C32.7120689,15.1914894 35.4380746,17.2531915 35.8924089,21.6937807 C35.8924089,21.8523732 35.8924089,22.0109656 35.7409641,22.1695581 C35.5895194,22.3281506 35.4380746,22.3281506 35.4380746,22.3281506 L33.1664032,22.3281506 C32.8635136,22.3281506 32.7120689,22.1695581 32.7120689,21.8523732 C32.1062898,19.3148936 30.7432869,18.5219313 27.1086126,18.5219313 C23.019604,18.5219313 22.5652697,19.9492635 22.5652697,21.0594108 C22.5652697,22.486743 23.1710488,22.803928 28.6230603,23.5968903 C34.0750717,24.3898527 36.6496327,25.5 36.6496327,29.4648118 C36.4981879,33.588216 33.3178479,35.8085106 27.7143917,35.8085106 Z"/>
    </g>
    <g fill-rule="nonzero" opacity=".3" transform="matrix(-1 0 0 1 126 266)">
      <polyline stroke="#008785" stroke-width="6" points="51 12 70.5 31.5 70.5 58.942"/>
      <path stroke="#008785" stroke-width="6" d="M40.3401469,11.5 L0.635253906,11.5"/>
      <circle cx="51" cy="12" r="12" fill="#008785"/>
      <circle cx="51" cy="12" r="6" fill="#00AAA7"/>
    </g>
    <g fill-rule="nonzero" transform="matrix(0 1 1 0 123 265.5)">
      <polyline stroke="#009F9D" stroke-width="6" points="12 11 31.5 30.5 31.5 119.5"/>
      <path stroke="#009F9D" stroke-dasharray="9" stroke-width="6" d="M14.5,46.8320313 L14.5,119.5"/>
      <circle cx="12" cy="12" r="12" fill="#009F9D"/>
      <circle cx="12" cy="12" r="6" fill="#00AAA7"/>
    </g>
  </g>
</svg>
