<svg xmlns="http://www.w3.org/2000/svg" xmlns:xlink="http://www.w3.org/1999/xlink" width="255" height="335" viewBox="0 0 255 335">
  <defs>
    <rect id="graphql-for-everyone-a" width="235" height="315"/>
    <linearGradient id="graphql-for-everyone-c" x1="50%" x2="50%" y1="0%" y2="100%">
      <stop offset="0%" stop-color="#00AAA6"/>
      <stop offset="100%" stop-color="#00AAA7"/>
    </linearGradient>
  </defs>
  <g fill="none" fill-rule="evenodd">
    <path fill="#FFF" fill-rule="nonzero" stroke="#FFF" stroke-width="10" d="M5,5 L5,330 L249.815334,330 L250,261 L250,5 L5,5 Z"/>
    <g transform="translate(10 10)">
      <mask id="graphql-for-everyone-b" fill="#fff">
        <use xlink:href="#graphql-for-everyone-a"/>
      </mask>
      <path stroke="#EDEDED" stroke-width="6" d="M204 228L8 89M203.5 250L98.5 324M-3 90L71 317M13.4209414 70.4679553L183.920941 40.5M189.5 62.5974069L70.1255 325" mask="url(#graphql-for-everyone-b)"/>
      <circle cx="226" cy="238" r="31" fill="#EDEDED" fill-rule="nonzero" stroke="#EDEDED" stroke-width="3" mask="url(#graphql-for-everyone-b)"/>
      <circle cx="76" cy="325" r="49" fill="#EDEDED" fill-rule="nonzero" stroke="#EDEDED" stroke-width="3" mask="url(#graphql-for-everyone-b)"/>
      <circle cx="203.5" cy="25.5" r="45.5" fill="#EDEDED" fill-rule="nonzero" stroke="#EDEDED" stroke-width="3" mask="url(#graphql-for-everyone-b)"/>
      <circle cx="-10" cy="78" r="31" fill="#EDEDED" fill-rule="nonzero" stroke="#EDEDED" stroke-width="3" mask="url(#graphql-for-everyone-b)"/>
      <path fill="url(#graphql-for-everyone-c)" fill-rule="nonzero" d="M120.5,110.443376 L157.935245,132.056624 C159.48225,132.949788 160.435245,134.600423 160.435245,136.386751 L160.435245,179.613249 C160.435245,181.399577 159.48225,183.050212 157.935245,183.943376 L120.5,205.556624 C118.952995,206.449788 117.047005,206.449788 115.5,205.556624 L78.0647552,183.943376 C76.5177498,183.050212 75.5647552,181.399577 75.5647552,179.613249 L75.5647552,136.386751 C75.5647552,134.600423 76.5177498,132.949788 78.0647552,132.056624 L115.5,110.443376 C117.047005,109.550212 118.952995,109.550212 120.5,110.443376 Z" mask="url(#graphql-for-everyone-b)"/>
      <g mask="url(#graphql-for-everyone-b)">
        <g transform="translate(96 133)">
          <polygon fill="#FFF" points="4.174 38.856 2.326 37.776 22.917 1.689 24.765 2.769"/>
          <polygon fill="#FFF" points="1.903 34.893 43.084 34.893 43.084 37.053 1.903 37.053"/>
          <path fill="#FFF" fill-rule="nonzero" d="M23.3161714,48.1411378 L2.71774286,36.106699 L3.78488571,34.236352 L24.3833143,46.2707908 L23.3161714,48.1411378 Z M41.2099714,16.7762679 L20.6115429,4.74182908 L21.6786857,2.87148214 L42.2771143,14.9059209 L41.2099714,16.7762679 Z"/>
          <polygon fill="#FFF" points="3.791 16.768 2.723 14.898 23.322 2.863 24.389 4.734"/>
          <path fill="#FFF" fill-rule="nonzero" d="M40.8301714,38.8566658 L20.2394571,2.76896173 L22.0878,1.6891148 L42.6785143,37.7768189 L40.8301714,38.8566658 Z M3.53571429,13.4655612 L5.67,13.4655612 L5.67,37.5344388 L3.53571429,37.5344388 L3.53571429,13.4655612 Z M39.33,13.4655612 L41.4642857,13.4655612 L41.4642857,37.5344388 L39.33,37.5344388 L39.33,13.4655612 Z"/>
          <polygon fill="#FFF" points="22.953 47.227 22.021 45.593 39.936 35.127 40.868 36.76"/>
          <path fill="#F6F6F6" d="M44.2928571,38.2369898 C43.0585714,40.4096939 40.3071429,41.1512755 38.16,39.9022959 C36.0128571,38.6533163 35.28,35.8691327 36.5142857,33.6964286 C37.7485714,31.5237245 40.5,30.7821429 42.6471429,32.0311224 C44.8071429,33.2931122 45.54,36.0642857 44.2928571,38.2369898 M8.47285714,17.3035714 C7.23857143,19.4762755 4.48714286,20.2178571 2.34,18.9688776 C0.192857143,17.719898 -0.54,14.9357143 0.694285714,12.7630102 C1.92857143,10.5903061 4.68,9.84872449 6.82714286,11.0977041 C8.97428571,12.3596939 9.70714286,15.1308673 8.47285714,17.3035714 M0.707142857,38.2369898 C-0.527142857,36.0642857 0.205714286,33.2931122 2.35285714,32.0311224 C4.5,30.7821429 7.23857143,31.5237245 8.48571429,33.6964286 C9.72,35.8691327 8.98714286,38.6403061 6.84,39.9022959 C4.68,41.1512755 1.94142857,40.4096939 0.707142857,38.2369898 M36.5271429,17.3035714 C35.2928571,15.1308673 36.0257143,12.3596939 38.1728571,11.0977041 C40.32,9.84872449 43.0585714,10.5903061 44.3057143,12.7630102 C45.54,14.9357143 44.8071429,17.7068878 42.66,18.9688776 C40.5128571,20.2178571 37.7614286,19.4762755 36.5271429,17.3035714 M22.5,50.9739796 C20.0185714,50.9739796 18.0128571,48.9443878 18.0128571,46.4334184 C18.0128571,43.922449 20.0185714,41.8928571 22.5,41.8928571 C24.9814286,41.8928571 26.9871429,43.922449 26.9871429,46.4334184 C26.9871429,48.9313776 24.9814286,50.9739796 22.5,50.9739796 M22.5,9.10714286 C20.0185714,9.10714286 18.0128571,7.07755102 18.0128571,4.56658163 C18.0128571,2.05561224 20.0185714,0.0260204082 22.5,0.0260204082 C24.9814286,0.0260204082 26.9871429,2.05561224 26.9871429,4.56658163 C26.9871429,7.07755102 24.9814286,9.10714286 22.5,9.10714286"/>
        </g>
      </g>
    </g>
  </g>
</svg>
