<svg xmlns="http://www.w3.org/2000/svg" xmlns:xlink="http://www.w3.org/1999/xlink" width="255" height="335" viewBox="0 0 255 335">
  <defs>
    <rect id="graphql-the-next-parts-a" width="235" height="315"/>
    <linearGradient id="graphql-the-next-parts-c" x1="102.905%" x2="0%" y1="50.002%" y2="49.998%">
      <stop offset="0%" stop-color="#892744"/>
      <stop offset="100%" stop-color="#CE3562"/>
    </linearGradient>
    <linearGradient id="graphql-the-next-parts-d" x1="102.905%" x2="0%" y1="87.823%" y2="16.362%">
      <stop offset="0%" stop-color="#892744"/>
      <stop offset="100%" stop-color="#CE3562"/>
    </linearGradient>
    <linearGradient id="graphql-the-next-parts-e" x1="102.905%" x2="0%" y1="78.684%" y2="24.49%">
      <stop offset="0%" stop-color="#892744"/>
      <stop offset="100%" stop-color="#CE3562"/>
    </linearGradient>
    <linearGradient id="graphql-the-next-parts-f" x1="102.905%" x2="0%" y1="81.851%" y2="21.673%">
      <stop offset="0%" stop-color="#892744"/>
      <stop offset="100%" stop-color="#CE3562"/>
    </linearGradient>
    <linearGradient id="graphql-the-next-parts-g" x1="102.905%" x2="0%" y1="54.616%" y2="45.894%">
      <stop offset="0%" stop-color="#892744"/>
      <stop offset="100%" stop-color="#CE3562"/>
    </linearGradient>
    <linearGradient id="graphql-the-next-parts-h" x1="56.896%" x2="43.483%" y1="106.22%" y2="0%">
      <stop offset="0%" stop-color="#892744"/>
      <stop offset="100%" stop-color="#CE3562"/>
    </linearGradient>
    <linearGradient id="graphql-the-next-parts-i" x1="102.905%" x2="0%" y1="73.912%" y2="28.733%">
      <stop offset="0%" stop-color="#892744"/>
      <stop offset="100%" stop-color="#CE3562"/>
    </linearGradient>
  </defs>
  <g fill="none" fill-rule="evenodd">
    <path fill="#FFF" fill-rule="nonzero" stroke="#FFF" stroke-width="10" d="M5,5 L5,330 L249.815334,330 L250,261 L250,5 L5,5 Z"/>
    <g transform="translate(10 10)">
      <mask id="graphql-the-next-parts-b" fill="#fff">
        <use xlink:href="#graphql-the-next-parts-a"/>
      </mask>
      <path stroke="#EDEDED" stroke-width="6" d="M204 228L8 89M203.5 250L98.5 324M-3 90L71 317M13.4209414 70.4679553L183.920941 40.5M189.5 62.5974069L70.1255 325" mask="url(#graphql-the-next-parts-b)"/>
      <circle cx="226" cy="238" r="31" fill="#E04B77" fill-rule="nonzero" mask="url(#graphql-the-next-parts-b)"/>
      <circle cx="76" cy="325" r="49" fill="#E04B77" fill-rule="nonzero" mask="url(#graphql-the-next-parts-b)"/>
      <circle cx="203.5" cy="25.5" r="45.5" fill="#E04B77" fill-rule="nonzero" mask="url(#graphql-the-next-parts-b)"/>
      <circle cx="-10" cy="78" r="31" fill="#E04B77" fill-rule="nonzero" mask="url(#graphql-the-next-parts-b)"/>
      <path fill="#892744" fill-rule="nonzero" d="M120.5,-100.556624 L340.666605,26.5566243 C342.21361,27.4497883 343.166605,29.1004234 343.166605,30.8867513 L343.166605,285.113249 C343.166605,286.899577 342.21361,288.550212 340.666605,289.443376 L120.5,416.556624 C118.952995,417.449788 117.047005,417.449788 115.5,416.556624 L-104.666605,289.443376 C-106.21361,288.550212 -107.166605,286.899577 -107.166605,285.113249 L-107.166605,30.8867513 C-107.166605,29.1004234 -106.21361,27.4497883 -104.666605,26.5566243 L115.5,-100.556624 C117.047005,-101.449788 118.952995,-101.449788 120.5,-100.556624 Z" mask="url(#graphql-the-next-parts-b)"/>
      <path stroke="url(#graphql-the-next-parts-c)" stroke-width="4" d="M285.15625,158 L-41,158" mask="url(#graphql-the-next-parts-b)" transform="rotate(7 122.5 158)"/>
      <path stroke="url(#graphql-the-next-parts-d)" stroke-width="4" d="M48,194 L-41,266.979819" mask="url(#graphql-the-next-parts-b)"/>
      <g fill-rule="nonzero" mask="url(#graphql-the-next-parts-b)">
        <g transform="translate(-95 -54)">
          <path stroke="url(#graphql-the-next-parts-e)" stroke-width="4" d="M304,269 L108,130"/>
          <path stroke="url(#graphql-the-next-parts-f)" stroke-width="4" d="M310,295 L217,363.84421"/>
          <path stroke="url(#graphql-the-next-parts-g)" stroke-width="4" d="M108,119 L279,70"/>
          <path stroke="url(#graphql-the-next-parts-h)" stroke-width="4" d="M282.81275,101 L187.5,365"/>
          <path stroke="url(#graphql-the-next-parts-i)" stroke-width="4" d="M98.5,324.278623 L167,369"/>
          <path fill="#CE3562" d="M302.5,1.44337567 L358.121778,33.5566243 C359.668784,34.4497883 360.621778,36.1004234 360.621778,37.8867513 L360.621778,102.113249 C360.621778,103.899577 359.668784,105.550212 358.121778,106.443376 L302.5,138.556624 C300.952995,139.449788 299.047005,139.449788 297.5,138.556624 L241.878222,106.443376 C240.331216,105.550212 239.378222,103.899577 239.378222,102.113249 L239.378222,37.8867513 C239.378222,36.1004234 240.331216,34.4497883 241.878222,33.5566243 L297.5,1.44337567 C299.047005,0.550211698 300.952995,0.550211698 302.5,1.44337567 Z"/>
          <path fill="#892744" d="M302.5,5.44337567 L354.657677,35.5566243 C356.204682,36.4497883 357.157677,38.1004234 357.157677,39.8867513 L357.157677,100.113249 C357.157677,101.899577 356.204682,103.550212 354.657677,104.443376 L302.5,134.556624 C300.952995,135.449788 299.047005,135.449788 297.5,134.556624 L245.342323,104.443376 C243.795318,103.550212 242.842323,101.899577 242.842323,100.113249 L242.842323,39.8867513 C242.842323,38.1004234 243.795318,36.4497883 245.342323,35.5566243 L297.5,5.44337567 C299.047005,4.5502117 300.952995,4.5502117 302.5,5.44337567 Z"/>
          <path fill="#CE3562" d="M340,241.443376 L370.940054,259.306624 C372.48706,260.199788 373.440054,261.850423 373.440054,263.636751 L373.440054,299.363249 C373.440054,301.149577 372.48706,302.800212 370.940054,303.693376 L340,321.556624 C338.452995,322.449788 336.547005,322.449788 335,321.556624 L304.059946,303.693376 C302.51294,302.800212 301.559946,301.149577 301.559946,299.363249 L301.559946,263.636751 C301.559946,261.850423 302.51294,260.199788 304.059946,259.306624 L335,241.443376 C336.547005,240.550212 338.452995,240.550212 340,241.443376 Z" transform="rotate(-30 337.5 281.5)"/>
          <path fill="#892744" d="M340,244.943376 L367.908965,261.056624 C369.455971,261.949788 370.408965,263.600423 370.408965,265.386751 L370.408965,297.613249 C370.408965,299.399577 369.455971,301.050212 367.908965,301.943376 L340,318.056624 C338.452995,318.949788 336.547005,318.949788 335,318.056624 L307.091035,301.943376 C305.544029,301.050212 304.591035,299.399577 304.591035,297.613249 L304.591035,265.386751 C304.591035,263.600423 305.544029,261.949788 307.091035,261.056624 L335,244.943376 C336.547005,244.050212 338.452995,244.050212 340,244.943376 Z" transform="rotate(-30 337.5 281.5)"/>
          <path fill="#CE3562" d="M79.5,64.4433757 L122.997423,89.5566243 C124.544428,90.4497883 125.497423,92.1004234 125.497423,93.8867513 L125.497423,144.113249 C125.497423,145.899577 124.544428,147.550212 122.997423,148.443376 L79.5,173.556624 C77.9529946,174.449788 76.0470054,174.449788 74.5,173.556624 L31.0025774,148.443376 C29.455572,147.550212 28.5025774,145.899577 28.5025774,144.113249 L28.5025774,93.8867513 C28.5025774,92.1004234 29.455572,90.4497883 31.0025774,89.5566243 L74.5,64.4433757 C76.0470054,63.5502117 77.9529946,63.5502117 79.5,64.4433757 Z" transform="rotate(30 77 119)"/>
          <path fill="#892744" d="M79.5070416,68.4433757 L119.540363,91.5566243 C121.087368,92.4497883 122.040363,94.1004234 122.040363,95.8867513 L122.040363,142.113249 C122.040363,143.899577 121.087368,145.550212 119.540363,146.443376 L79.5070416,169.556624 C77.9600362,170.449788 76.0540469,170.449788 74.5070416,169.556624 L34.4737206,146.443376 C32.9267152,145.550212 31.9737206,143.899577 31.9737206,142.113249 L31.9737206,95.8867513 C31.9737206,94.1004234 32.9267152,92.4497883 34.4737206,91.5566243 L74.5070416,68.4433757 C76.0540469,67.5502117 77.9600362,67.5502117 79.5070416,68.4433757 Z" transform="rotate(30 77.007 119)"/>
          <path fill="#CE3562" d="M73.5070416,256.450417 L108.34421,276.563666 C109.891216,277.45683 110.84421,279.107465 110.84421,280.893793 L110.84421,321.12029 C110.84421,322.906618 109.891216,324.557253 108.34421,325.450417 L73.5070416,345.563666 C71.9600362,346.45683 70.0540469,346.45683 68.5070416,345.563666 L33.669873,325.450417 C32.1228676,324.557253 31.169873,322.906618 31.169873,321.12029 L31.169873,280.893793 C31.169873,279.107465 32.1228676,277.45683 33.669873,276.563666 L68.5070416,256.450417 C70.0540469,255.557253 71.9600362,255.557253 73.5070416,256.450417 Z" transform="rotate(30 71.007 301.007)"/>
          <path fill="#892744" d="M73.5070416,261.450417 L104.014083,279.063666 C105.561088,279.95683 106.514083,281.607465 106.514083,283.393793 L106.514083,318.62029 C106.514083,320.406618 105.561088,322.057253 104.014083,322.950417 L73.5070416,340.563666 C71.9600362,341.45683 70.0540469,341.45683 68.5070416,340.563666 L38,322.950417 C36.4529946,322.057253 35.5,320.406618 35.5,318.62029 L35.5,283.393793 C35.5,281.607465 36.4529946,279.95683 38,279.063666 L68.5070416,261.450417 C70.0540469,260.557253 71.9600362,260.557253 73.5070416,261.450417 Z" transform="rotate(30 71.007 301.007)"/>
          <path fill="#CE3562" d="M190.020181,329.943376 L233.517604,355.056624 C235.064609,355.949788 236.017604,357.600423 236.017604,359.386751 L236.017604,409.613249 C236.017604,411.399577 235.064609,413.050212 233.517604,413.943376 L190.020181,439.056624 C188.473176,439.949788 186.567187,439.949788 185.020181,439.056624 L141.522759,413.943376 C139.975753,413.050212 139.022759,411.399577 139.022759,409.613249 L139.022759,359.386751 C139.022759,357.600423 139.975753,355.949788 141.522759,355.056624 L185.020181,329.943376 C186.567187,329.050212 188.473176,329.050212 190.020181,329.943376 Z" transform="rotate(30 187.52 384.5)"/>
          <path fill="#892744" d="M190.020181,333.943376 L230.053502,357.056624 C231.600508,357.949788 232.553502,359.600423 232.553502,361.386751 L232.553502,407.613249 C232.553502,409.399577 231.600508,411.050212 230.053502,411.943376 L190.020181,435.056624 C188.473176,435.949788 186.567187,435.949788 185.020181,435.056624 L144.98686,411.943376 C143.439855,411.050212 142.48686,409.399577 142.48686,407.613249 L142.48686,361.386751 C142.48686,359.600423 143.439855,357.949788 144.98686,357.056624 L185.020181,333.943376 C186.567187,333.050212 188.473176,333.050212 190.020181,333.943376 Z" transform="rotate(30 187.52 384.5)"/>
        </g>
      </g>
      <path fill="#CE3562" fill-rule="nonzero" d="M120.5,73.4433757 L189.978185,113.556624 C191.52519,114.449788 192.478185,116.100423 192.478185,117.886751 L192.478185,198.113249 C192.478185,199.899577 191.52519,201.550212 189.978185,202.443376 L120.5,242.556624 C118.952995,243.449788 117.047005,243.449788 115.5,242.556624 L46.0218153,202.443376 C44.4748099,201.550212 43.5218153,199.899577 43.5218153,198.113249 L43.5218153,117.886751 C43.5218153,116.100423 44.4748099,114.449788 46.0218153,113.556624 L115.5,73.4433757 C117.047005,72.5502117 118.952995,72.5502117 120.5,73.4433757 Z" mask="url(#graphql-the-next-parts-b)"/>
      <path fill="#E04B77" fill-rule="nonzero" d="M120.5,110.443376 L157.935245,132.056624 C159.48225,132.949788 160.435245,134.600423 160.435245,136.386751 L160.435245,179.613249 C160.435245,181.399577 159.48225,183.050212 157.935245,183.943376 L120.5,205.556624 C118.952995,206.449788 117.047005,206.449788 115.5,205.556624 L78.0647552,183.943376 C76.5177498,183.050212 75.5647552,181.399577 75.5647552,179.613249 L75.5647552,136.386751 C75.5647552,134.600423 76.5177498,132.949788 78.0647552,132.056624 L115.5,110.443376 C117.047005,109.550212 118.952995,109.550212 120.5,110.443376 Z" mask="url(#graphql-the-next-parts-b)"/>
      <g mask="url(#graphql-the-next-parts-b)">
        <g transform="translate(96 133)">
          <polygon fill="#FFF" points="4.174 38.856 2.326 37.776 22.917 1.689 24.765 2.769"/>
          <polygon fill="#FFF" points="1.903 34.893 43.084 34.893 43.084 37.053 1.903 37.053"/>
          <path fill="#FFF" fill-rule="nonzero" d="M23.3161714,48.1411378 L2.71774286,36.106699 L3.78488571,34.236352 L24.3833143,46.2707908 L23.3161714,48.1411378 Z M41.2099714,16.7762679 L20.6115429,4.74182908 L21.6786857,2.87148214 L42.2771143,14.9059209 L41.2099714,16.7762679 Z"/>
          <polygon fill="#FFF" points="3.791 16.768 2.723 14.898 23.322 2.863 24.389 4.734"/>
          <path fill="#FFF" fill-rule="nonzero" d="M40.8301714,38.8566658 L20.2394571,2.76896173 L22.0878,1.6891148 L42.6785143,37.7768189 L40.8301714,38.8566658 Z M3.53571429,13.4655612 L5.67,13.4655612 L5.67,37.5344388 L3.53571429,37.5344388 L3.53571429,13.4655612 Z M39.33,13.4655612 L41.4642857,13.4655612 L41.4642857,37.5344388 L39.33,37.5344388 L39.33,13.4655612 Z"/>
          <polygon fill="#FFF" points="22.953 47.227 22.021 45.593 39.936 35.127 40.868 36.76"/>
          <path fill="#F6F6F6" d="M44.2928571,38.2369898 C43.0585714,40.4096939 40.3071429,41.1512755 38.16,39.9022959 C36.0128571,38.6533163 35.28,35.8691327 36.5142857,33.6964286 C37.7485714,31.5237245 40.5,30.7821429 42.6471429,32.0311224 C44.8071429,33.2931122 45.54,36.0642857 44.2928571,38.2369898 M8.47285714,17.3035714 C7.23857143,19.4762755 4.48714286,20.2178571 2.34,18.9688776 C0.192857143,17.719898 -0.54,14.9357143 0.694285714,12.7630102 C1.92857143,10.5903061 4.68,9.84872449 6.82714286,11.0977041 C8.97428571,12.3596939 9.70714286,15.1308673 8.47285714,17.3035714 M0.707142857,38.2369898 C-0.527142857,36.0642857 0.205714286,33.2931122 2.35285714,32.0311224 C4.5,30.7821429 7.23857143,31.5237245 8.48571429,33.6964286 C9.72,35.8691327 8.98714286,38.6403061 6.84,39.9022959 C4.68,41.1512755 1.94142857,40.4096939 0.707142857,38.2369898 M36.5271429,17.3035714 C35.2928571,15.1308673 36.0257143,12.3596939 38.1728571,11.0977041 C40.32,9.84872449 43.0585714,10.5903061 44.3057143,12.7630102 C45.54,14.9357143 44.8071429,17.7068878 42.66,18.9688776 C40.5128571,20.2178571 37.7614286,19.4762755 36.5271429,17.3035714 M22.5,50.9739796 C20.0185714,50.9739796 18.0128571,48.9443878 18.0128571,46.4334184 C18.0128571,43.922449 20.0185714,41.8928571 22.5,41.8928571 C24.9814286,41.8928571 26.9871429,43.922449 26.9871429,46.4334184 C26.9871429,48.9313776 24.9814286,50.9739796 22.5,50.9739796 M22.5,9.10714286 C20.0185714,9.10714286 18.0128571,7.07755102 18.0128571,4.56658163 C18.0128571,2.05561224 20.0185714,0.0260204082 22.5,0.0260204082 C24.9814286,0.0260204082 26.9871429,2.05561224 26.9871429,4.56658163 C26.9871429,7.07755102 24.9814286,9.10714286 22.5,9.10714286"/>
        </g>
      </g>
    </g>
  </g>
</svg>
