<svg xmlns="http://www.w3.org/2000/svg" xmlns:xlink="http://www.w3.org/1999/xlink" width="255" height="335" viewBox="0 0 255 335">
  <defs>
    <rect id="using-graphql-a" width="235" height="315"/>
    <path id="using-graphql-d" d="M49.2142857,41.9857143 C47.8428571,44.3714286 44.7857143,45.1857143 42.4,43.8142857 C40.0142857,42.4428571 39.2,39.3857143 40.5714286,37 C41.9428571,34.6142857 45,33.8 47.3857143,35.1714286 C49.7857143,36.5571429 50.6,39.6 49.2142857,41.9857143 M9.41428571,19 C8.04285714,21.3857143 4.98571429,22.2 2.6,20.8285714 C0.214285714,19.4571429 -0.6,16.4 0.771428571,14.0142857 C2.14285714,11.6285714 5.2,10.8142857 7.58571429,12.1857143 C9.97142857,13.5714286 10.7857143,16.6142857 9.41428571,19 M0.785714286,41.9857143 C-0.585714286,39.6 0.228571429,36.5571429 2.61428571,35.1714286 C5,33.8 8.04285714,34.6142857 9.42857143,37 C10.8,39.3857143 9.98571429,42.4285714 7.6,43.8142857 C5.2,45.1857143 2.15714286,44.3714286 0.785714286,41.9857143 M40.5857143,19 C39.2142857,16.6142857 40.0285714,13.5714286 42.4142857,12.1857143 C44.8,10.8142857 47.8428571,11.6285714 49.2285714,14.0142857 C50.6,16.4 49.7857143,19.4428571 47.4,20.8285714 C45.0142857,22.2 41.9571429,21.3857143 40.5857143,19 M25,55.9714286 C22.2428571,55.9714286 20.0142857,53.7428571 20.0142857,50.9857143 C20.0142857,48.2285714 22.2428571,46 25,46 C27.7571429,46 29.9857143,48.2285714 29.9857143,50.9857143 C29.9857143,53.7285714 27.7571429,55.9714286 25,55.9714286 M25,10 C22.2428571,10 20.0142857,7.77142857 20.0142857,5.01428571 C20.0142857,2.25714286 22.2428571,0.0285714286 25,0.0285714286 C27.7571429,0.0285714286 29.9857143,2.25714286 29.9857143,5.01428571 C29.9857143,7.77142857 27.7571429,10 25,10"/>
    <filter id="using-graphql-c" width="102%" height="103.6%" x="-1%" y="-.9%" filterUnits="objectBoundingBox">
      <feOffset dy="1" in="SourceAlpha" result="shadowOffsetOuter1"/>
      <feColorMatrix in="shadowOffsetOuter1" values="0 0 0 0 0   0 0 0 0 0   0 0 0 0 0  0 0 0 0.303611866 0"/>
    </filter>
    <filter id="using-graphql-e" width="102%" height="103.6%" x="-1%" y="-.9%" filterUnits="objectBoundingBox">
      <feOffset dx="1" dy="1" in="SourceAlpha" result="shadowOffsetInner1"/>
      <feComposite in="shadowOffsetInner1" in2="SourceAlpha" k2="-1" k3="1" operator="arithmetic" result="shadowInnerInner1"/>
      <feColorMatrix in="shadowInnerInner1" values="0 0 0 0 1   0 0 0 0 1   0 0 0 0 1  0 0 0 1 0"/>
    </filter>
    <linearGradient id="using-graphql-f" x1="100%" x2="0%" y1="50%" y2="50%">
      <stop offset="0%" stop-color="#E04B77"/>
      <stop offset="100%" stop-color="#CD4069"/>
    </linearGradient>
    <linearGradient id="using-graphql-g" x1="50%" x2="50%" y1="0%" y2="100%">
      <stop offset="0%" stop-color="#EC85AE"/>
      <stop offset="100%" stop-color="#E04B77"/>
    </linearGradient>
  </defs>
  <g fill="none" fill-rule="evenodd">
    <path fill="#E04B77" fill-rule="nonzero" stroke="#FFF" stroke-width="10" d="M5,5 L5,330 L249.815334,330 L250,261 L250,5 L5,5 Z"/>
    <g transform="translate(10 10)">
      <mask id="using-graphql-b" fill="#fff">
        <use xlink:href="#using-graphql-a"/>
      </mask>
      <g mask="url(#using-graphql-b)">
        <g transform="translate(95 130)">
          <polygon fill="#FFF" points="4.638 42.666 2.585 41.48 25.463 1.854 27.517 3.04"/>
          <polygon fill="#FFF" points="2.114 38.314 47.871 38.314 47.871 40.686 2.114 40.686"/>
          <path fill="#FFF" fill-rule="nonzero" d="M25.9068571,52.8608571 L3.01971429,39.6465714 L4.20542857,37.5928571 L27.0925714,50.8071429 L25.9068571,52.8608571 Z M45.7888571,18.421 L22.9017143,5.20671429 L24.0874286,3.153 L46.9745714,16.3672857 L45.7888571,18.421 Z"/>
          <polygon fill="#FFF" points="4.212 18.412 3.026 16.358 25.913 3.144 27.099 5.198"/>
          <path fill="#FFF" fill-rule="nonzero" d="M45.3668571,42.6661429 L22.4882857,3.04042857 L24.542,1.85471429 L47.4205714,41.4804286 L45.3668571,42.6661429 Z M3.92857143,14.7857143 L6.3,14.7857143 L6.3,41.2142857 L3.92857143,41.2142857 L3.92857143,14.7857143 Z M43.7,14.7857143 L46.0714286,14.7857143 L46.0714286,41.2142857 L43.7,41.2142857 L43.7,14.7857143 Z"/>
          <polygon fill="#FFF" points="25.503 51.857 24.467 50.063 44.373 38.57 45.409 40.364"/>
          <g>
            <use fill="#000" filter="url(#using-graphql-c)" xlink:href="#using-graphql-d"/>
            <use fill="#F6F6F6" xlink:href="#using-graphql-d"/>
            <use fill="#000" filter="url(#using-graphql-e)" xlink:href="#using-graphql-d"/>
          </g>
        </g>
      </g>
      <g fill-rule="nonzero" mask="url(#using-graphql-b)">
        <g transform="rotate(-68 106.728 295.246)">
          <path stroke="url(#using-graphql-f)" stroke-width="6" d="M196.969193,55.958981 L340.969193,322.958981"/>
          <path stroke="url(#using-graphql-f)" stroke-width="6" d="M48.039852,55.732395 L192.039852,322.732395" transform="matrix(-1 0 0 1 240.08 0)"/>
          <path stroke="url(#using-graphql-f)" stroke-width="6" d="M35.7934541,311.981597 L361.147898,311.981597"/>
          <polygon stroke="url(#using-graphql-f)" stroke-width="6" points="194.696 31.849 356.21 124.849 356.21 310.849 194.696 403.849 33.182 310.849 33.182 124.849"/>
          <circle cx="346.823" cy="311.982" r="32" fill="url(#using-graphql-g)" stroke="url(#using-graphql-f)" stroke-width="6" transform="rotate(-135 346.823 311.982)"/>
          <circle cx="100.444" cy="308.311" r="28" fill="url(#using-graphql-g)" stroke="url(#using-graphql-f)" stroke-width="6" transform="rotate(-15 100.444 308.31)"/>
          <circle cx="34.672" cy="311.624" r="32.417" fill="#E04B77" stroke="#CD4069" stroke-width="4.167"/>
          <circle cx="358.098" cy="146.88" r="45.5" fill="url(#using-graphql-g)" stroke="url(#using-graphql-f)" stroke-width="6" transform="rotate(120 358.098 146.88)"/>
          <circle cx="195.064" cy="404.287" r="34.5" fill="#E04B77" stroke="url(#using-graphql-f)" stroke-width="6"/>
        </g>
      </g>
    </g>
  </g>
</svg>
