<svg xmlns="http://www.w3.org/2000/svg" xmlns:xlink="http://www.w3.org/1999/xlink" width="255" height="335" viewBox="0 0 255 335">
  <defs>
    <polygon id="behavior-driven-javascript-a" points="0 0 0 315 163.974 315 235 315 235 246.741 235 0"/>
  </defs>
  <g fill="none" fill-rule="evenodd">
    <path fill="#FFF" fill-rule="nonzero" stroke="#FFF" stroke-width="10" d="M5,5 L5,330 L178,330 L250,330 L250,5 L5,5 Z"/>
    <g transform="translate(10 10)">
      <mask id="behavior-driven-javascript-b" fill="#fff">
        <use xlink:href="#behavior-driven-javascript-a"/>
      </mask>
      <use fill="#FFE538" fill-rule="nonzero" xlink:href="#behavior-driven-javascript-a"/>
      <g fill="#FBD724" mask="url(#behavior-driven-javascript-b)">
        <g transform="translate(56 100.5)">
          <path d="M105.032471,29.5589268 C103.764085,26.5859317 98.9607529,28.4261161 100.372518,31.5371512 C104.607812,41.4395902 106.163012,51.6235415 104.607812,62.2332976 C104.183181,65.4880878 109.267765,66.1954049 109.692424,62.9406146 C111.247624,51.3417463 109.692424,40.1678341 105.032471,29.558078 L105.032471,29.5589268 Z"/>
          <path d="M114.208941,48.7937073 C112.372518,53.3194049 109.692424,57.425239 106.019576,60.8180976 C103.620706,63.0837756 106.725459,67.0402244 109.124329,64.9182732 C113.359624,60.9561659 116.7456,56.2867415 118.863247,50.7719317 C120.142659,47.6608683 115.482776,45.6825024 114.2088,48.7937073 L114.208941,48.7937073 Z"/>
          <path d="M107.856 59.8292683C104.326588 56.7182049 100.797176 53.6071415 97.4112 50.4904195 95.0123294 48.3684683 91.9075765 52.4686439 94.3064471 54.5905951L104.751247 63.9294439C107.293553 66.195122 110.398306 62.0948049 107.856 59.8292683zM96.2809412 20.3638049C89.928 13.7161561 81.7383529 9.61032195 72.5618824 9.19045854 69.3136941 9.04678829 68.6078118 14.141678 71.856 14.2854049 79.7641412 14.7108985 86.8235294 17.8219902 92.1825882 23.4805268 94.4436706 25.8787561 98.5410353 22.7676785 96.2799529 20.3639463L96.2809412 20.3638049z"/>
          <path d="M94.3072941,20.5010244 C89.5095529,20.926518 84.7061647,21.2083415 79.9087059,21.6338351 C76.6605176,21.9156585 77.3664,27.0105766 80.6145882,26.7287815 C85.4123294,26.3032878 90.2157176,26.0214644 95.0131765,25.5959707 C98.1179294,25.3141473 97.5554824,20.2192293 94.3072941,20.5010244 Z"/>
          <path d="M98.1176471 21.9156585C96.9871341 16.964439 96 12.1569463 94.8694588 7.20629268 94.1635765 3.95150244 89.0789647 4.65881951 89.7848471 7.91360976 90.91536 12.8648293 91.9024941 17.672322 93.0330353 22.6229756 93.7389176 25.734039 98.8235294 25.1704488 98.1176471 21.9156585zM101.791059 73.8313171C98.5428706 81.468078 93.3204706 87.6958634 86.2616471 92.0772683 83.4381176 93.7736976 86.6862776 97.8795317 89.3664 96.1774439 97.1311059 91.3699512 103.059388 84.2967805 106.588518 75.8095415 107.856904 72.7039951 103.059106 70.863839 101.790776 73.8313171L101.791059 73.8313171z"/>
          <path d="M86.5425882,81.3302927 L84.1437176,93.2109561 C83.4378353,96.4657463 88.5224471,97.0293366 89.2283294,93.9182732 C90.0775906,89.9561659 90.7835294,85.9940585 91.6272,82.0376098 C92.3275624,78.7828195 87.2484706,78.2192293 86.5425882,81.3302927 Z"/>
          <path d="M101.503059 92.0843415C96.9865412 92.3661649 92.3265882 92.6479883 87.8100706 92.7916585 84.5618824 92.9353288 85.2677647 98.0246732 88.5159529 97.8866049 93.0324706 97.6047815 97.6924235 97.322958 102.208941 97.1792878 105.457129 96.8919473 104.894541 91.9407561 101.503059 92.0843415zM57.8823529 9.04673171C48.1434353 9.32855512 39.2484706 12.301522 31.2028235 17.8163317 28.5227294 19.6564878 31.6274541 23.7566634 34.3075765 21.9165073 41.6476235 16.9652878 49.6929882 14.4178146 58.4515765 14.2797463 61.8375529 13.9979229 61.1316706 9.04673171 57.8835671 9.04673171L57.8823529 9.04673171z"/>
          <path d="M55.9087059,11.4501951 C52.8039529,15.2685756 49.5557647,18.9488878 46.4510118,22.7672683 C44.3333647,25.3147415 48.4252235,28.282078 50.5428706,25.8783317 C53.6476235,22.0599512 56.8958118,18.379639 60.0005647,14.5612585 C62.1182118,12.0137854 58.0263529,9.04644878 55.9087059,11.4501951 Z"/>
          <path d="M59.856 8.19512195C56.4700235 5.64764878 53.0784 3.10017561 49.6924235.558360976 47.0123294-1.41986341 44.0453647 2.6803122 46.5876706 4.65853659 49.9736471 7.20600976 53.3652706 9.75348293 56.7512471 12.2952976 59.4368471 14.279039 62.5417412 10.1733463 59.856 8.19512195zM22.5882353 24.4634146C15.6728471 30.6855415 11.1506824 38.6097561 9.60112941 47.804878 9.03862588 51.0596683 14.1176471 51.6232585 14.6857412 48.5121951 15.9541271 40.7317073 19.7703529 33.8028293 25.6986353 28.5630244 28.092 26.3028634 24.9872329 22.1971707 22.5883765 24.4628488L22.5882353 24.4634146z"/>
          <path d="M22.5882353,26.159561 L21.4577224,41.4390244 C21.1764706,44.6938146 26.2554635,45.4011317 26.5423341,42.1463415 L27.6728471,26.866878 C27.9540988,23.4740195 22.8696,22.7667024 22.5882353,26.159561 Z"/>
          <path d="M23.0131765 23.6118049C18.3532235 25.7337561 13.5554824 27.9994341 8.89552941 30.1213854 5.92856471 31.5360195 7.90839529 36.2054439 10.8697412 34.7908098 15.5296941 32.6688585 20.3274353 30.4031805 24.9873882 28.2812293 27.9543529 26.8665951 25.9745224 22.1971707 23.0131765 23.6118049zM21.6014118 79.4898537C16.5168 73.124 13.8367059 65.6253073 14.1179294 57.4187317 14.2613082 54.1639415 9.17675294 53.4566244 9.03331765 56.7114146 8.60868706 66.1883317 11.5756235 75.1016585 17.5039059 82.6006341 19.7649882 85.1481073 23.7189176 82.0369873 21.6012706 79.4895707L21.6014118 79.4898537z"/>
          <path d="M23.7190588,64.2174634 C20.4708706,61.3881951 17.0848941,58.4152 13.8367059,55.5859317 C11.2944,53.4639805 8.33308235,57.5641561 10.7319529,59.6861073 C13.9801412,62.5153756 17.3661176,65.4883707 20.6143059,68.317639 C23.1511059,70.4395902 26.2613647,66.3394146 23.7190588,64.2174634 Z"/>
          <path d="M8.61458824 56.1483902C6.07228235 60.1104976 3.67341176 64.2106732 1.13110588 68.1727805-.561882353 71.0020488 3.52997647 74.1131122 5.22296471 71.2838439 7.76527059 67.3217366 10.1641412 63.221561 12.7064471 59.2594537 14.3994353 56.4357024 10.3075765 53.319122 8.61458824 56.1483902zM47.4381176 99.0132195C39.9546353 97.3167902 33.1764706 93.7802049 27.8174118 88.2597366 25.5563294 85.9940585 21.4644706 89.1107239 23.7255529 91.3708 30.0784941 97.8803805 37.8432 102.124283 46.7387294 104.102507 49.9759059 104.815356 50.5438588 99.7203951 47.4390918 99.013078L47.4381176 99.0132195z"/>
          <path d="M30.4969412,101.560976 C29.0851765,97.1733463 27.8168471,92.7913756 26.4050824,88.4037463 C25.4179482,85.2926829 20.7580235,87.2709356 21.7451294,90.3819707 C23.1568941,94.7696 24.4252235,99.1515707 25.8369882,103.5392 C26.6807435,106.65578 31.3406118,104.672011 30.4969412,101.560976 Z"/>
          <path d="M40.0912941 86.7073171C35.1501176 86.2818234 30.3523765 86 25.4117647 85.5745063 22.1635765 85.2926829 21.4576941 90.381999 24.7058824 90.6694527 29.6470588 91.0949463 34.4448 91.3767698 39.3854118 91.8022634 42.6336 92.0840868 43.3394824 86.9892537 40.0912941 86.7073171zM75.1044706 97.3170732C69.3139765 100.290068 63.3856941 101.704702 56.8955294 101.842771 53.6473412 101.842771 54.3532235 106.937717 57.6014118 106.937717 64.3790118 106.794047 71.0131765 105.241288 77.0851765 102.130224 79.9087059 100.571863 78.0723106 95.7588537 75.1054588 97.3172146L75.1044706 97.3170732z"/>
          <path d="M61.8367059,93.2174634 C59.7190588,95.9030049 57.6014118,98.450478 55.3403294,101.141678 C53.2226824,103.689151 57.3145412,106.800215 59.4321882,104.252741 C61.5498353,101.5672 63.6674824,99.0197268 65.9285647,96.3285268 C68.0462118,93.7810537 63.9543529,90.6699902 61.8367059,93.2174634 Z"/>
          <path d="M69.3204706,109.485756 C65.5098353,107.08201 61.6992,104.534537 57.8829176,102.13079 C55.2028235,100.434361 52.0924235,104.396468 54.7781647,106.230966 C58.5888,108.634712 62.3994353,111.182185 66.2157176,113.585932 C69.0337412,115.282361 72.0007059,111.182185 69.3204706,109.485756 Z"/>
        </g>
      </g>
      <path fill="#323330" d="M110.5,161.32 C110.5,162.440006 110.373335,163.613327 110.12,164.84 C109.866665,166.066673 109.400003,167.193328 108.72,168.22 C108.039997,169.246672 107.093339,170.09333 105.88,170.76 C104.666661,171.42667 103.10001,171.76 101.18,171.76 C98.779988,171.76 96.780008,171.140006 95.18,169.9 C93.579992,168.659994 92.513336,167.066676 91.98,165.12 L98.02,163.08 C98.2066676,163.82667 98.5466642,164.426664 99.04,164.88 C99.5333358,165.333336 100.139996,165.56 100.86,165.56 C101.980006,165.56 102.719998,165.173337 103.08,164.4 C103.440002,163.626663 103.62,162.61334 103.62,161.36 L103.62,142.68 L110.5,142.68 L110.5,161.32 Z M131.14,150.04 C130.55333,149.29333 129.786671,148.700002 128.84,148.26 C127.893329,147.819998 126.980004,147.6 126.1,147.6 C125.646664,147.6 125.186669,147.64 124.72,147.72 C124.253331,147.8 123.833335,147.953332 123.46,148.18 C123.086665,148.406668 122.773335,148.699998 122.52,149.06 C122.266665,149.420002 122.14,149.879997 122.14,150.44 C122.14,150.920002 122.239999,151.319998 122.44,151.64 C122.640001,151.960002 122.933331,152.239999 123.32,152.48 C123.706669,152.720001 124.166664,152.939999 124.7,153.14 C125.233336,153.340001 125.83333,153.546666 126.5,153.76 C127.460005,154.080002 128.459995,154.433331 129.5,154.82 C130.540005,155.206669 131.486662,155.719997 132.34,156.36 C133.193338,157.000003 133.899997,157.793329 134.46,158.74 C135.020003,159.686671 135.3,160.86666 135.3,162.28 C135.3,163.906675 135.000003,165.313327 134.4,166.5 C133.799997,167.686673 132.993338,168.666663 131.98,169.44 C130.966662,170.213337 129.806673,170.786665 128.5,171.16 C127.193327,171.533335 125.846674,171.72 124.46,171.72 C122.433323,171.72 120.473343,171.36667 118.58,170.66 C116.686657,169.95333 115.11334,168.946673 113.86,167.64 L118.34,163.08 C119.033337,163.933338 119.946661,164.646664 121.08,165.22 C122.213339,165.793336 123.339994,166.08 124.46,166.08 C124.966669,166.08 125.459998,166.026667 125.94,165.92 C126.420002,165.813333 126.839998,165.640001 127.2,165.4 C127.560002,165.159999 127.846666,164.840002 128.06,164.44 C128.273334,164.039998 128.38,163.560003 128.38,163 C128.38,162.466664 128.246668,162.013335 127.98,161.64 C127.713332,161.266665 127.333336,160.926668 126.84,160.62 C126.346664,160.313332 125.733337,160.033335 125,159.78 C124.266663,159.526665 123.433338,159.253335 122.5,158.96 C121.593329,158.666665 120.706671,158.320002 119.84,157.92 C118.973329,157.519998 118.200003,157.00667 117.52,156.38 C116.839997,155.75333 116.293335,154.993338 115.88,154.1 C115.466665,153.206662 115.26,152.120006 115.26,150.84 C115.26,149.266659 115.579997,147.920006 116.22,146.8 C116.860003,145.679994 117.699995,144.760004 118.74,144.04 C119.780005,143.319996 120.953327,142.793335 122.26,142.46 C123.566673,142.126665 124.88666,141.96 126.22,141.96 C127.820008,141.96 129.453325,142.25333 131.12,142.84 C132.786675,143.42667 134.24666,144.293328 135.5,145.44 L131.14,150.04 Z" mask="url(#behavior-driven-javascript-b)"/>
    </g>
  </g>
</svg>
