<svg xmlns="http://www.w3.org/2000/svg" xmlns:xlink="http://www.w3.org/1999/xlink" width="255" height="336" viewBox="0 0 255 336">
  <defs>
    <polygon id="engineer-onboarding-a" points="0 0 0 315 163.974 315 235 315 235 246.741 235 0"/>
  </defs>
  <g fill="none" fill-rule="evenodd">
    <g transform="translate(0 .5)">
      <path fill="#FFF" fill-rule="nonzero" stroke="#FFF" stroke-width="10" d="M5,5 L5,330 L178,330 L250,330 L250,5 L5,5 Z"/>
      <g transform="translate(10 10)">
        <use fill="#F2F2F2" fill-rule="nonzero" xlink:href="#engineer-onboarding-a"/>
      </g>
    </g>
    <g fill="#323330" transform="translate(81 143)">
      <path d="M56.008,9.637 C56.008,14.7932 51.8322,18.969 46.676,18.969 C41.5237,18.969 37.344,14.7932 37.344,9.637 C37.344,4.4847 41.5237,0.305 46.676,0.305 C51.8322,0.305 56.008,4.4847 56.008,9.637"/>
      <path d="M82.23 13.086C82.23 17.3751 78.7534 20.8516 74.4683 20.8516 70.1792 20.8516 66.7027 17.375 66.7027 13.086 66.7027 8.7969 70.1793 5.3204 74.4683 5.3204 78.7535 5.3204 82.23 8.797 82.23 13.086M93.086 44.656L87.0704 30.094C86.26962 30.50806 85.7735 30.60962 84.5587 30.98072 83.6212 31.25416 79.5353 32.25802 70.0507 32.25802 67.3398 32.25802 65.0741 32.172083 63.1757 32.05099L63.1757 42.94599C63.1757 45.86789 65.5429 48.23899 68.4687 48.23899L80.4687 48.23899C82.746 48.23899 84.6757 46.78979 85.4218 44.77019L86.496 47.37569C87.24991 49.19599 89.3319 50.06319 91.1522 49.31319 92.9686 48.56319 93.8358 46.48119 93.0858 44.65699L93.086 44.656zM26.652 13.086C26.652 17.3751 23.1754 20.8516 18.8903 20.8516 14.6012 20.8516 11.1247 17.375 11.1247 13.086 11.1247 8.8008 14.6013 5.3243 18.8903 5.3243 23.1755 5.3243 26.652 8.8009 26.652 13.086M.2695 44.656L6.2851 30.094C7.08588 30.50806 7.582 30.60962 8.7968 30.98072 9.7343 31.25416 13.8202 32.25802 23.3048 32.25802 26.0157 32.25802 28.2814 32.172083 30.1798 32.05099L30.1798 42.94599C30.1798 45.86789 27.8087 48.23899 24.8868 48.23899L12.8868 48.23899C10.6095 48.23899 8.6798 46.78979 7.9376 44.77019L6.8634 47.37569C6.10949 49.19599 4.0275 50.06319 2.2072 49.31319.3869 48.56319-.4803 46.48119.2697 44.65699L.2695 44.656z" opacity=".5"/>
      <path d="M84.352,23 C84.352,23 74.9809,24.2734 69.946,24.2734 C66.5632,24.2734 61.2351,23.8359 58.094,23.4609 C56.9729,22.46871 55.5042,22 53.8909,22 L39.4649,22 C37.8516,22 36.3829,22.46875 35.2618,23.4609 C32.1212,23.83981 26.793,24.34371 23.4138,24.34371 C18.3786,24.34371 9.0078,23.03511 9.0078,23.03511 C7.1562,23.03511 5.6523,24.51951 5.6523,26.37101 C5.6523,28.22651 6.60542,29.00381 9.4179,29.83981 C9.4179,29.83981 12.5976,30.98821 23.2579,30.98821 C27.5821,30.98821 31.004,30.77337 33.004,30.52337 L33.004,43.99637 C33.000094,47.51587 35.9493,50.00027 39.4649,50.00027 L53.8909,50.00027 C57.4065,50.00027 60.0003,47.51587 60.0003,44.00027 L60.0003,30.52727 C63.0003,30.77727 65.598,30.98821 69.9222,30.98821 C80.5782,30.98821 83.8752,29.83591 83.8752,29.83591 C86.6877,28.99997 87.676,28.21481 87.676,26.35931 C87.676,24.50381 86.2033,22.99991 84.3518,22.99991 L84.352,23 Z"/>
    </g>
  </g>
</svg>
