<svg xmlns="http://www.w3.org/2000/svg" xmlns:xlink="http://www.w3.org/1999/xlink" width="255" height="335" viewBox="0 0 255 335">
  <defs>
    <polygon id="heroku-publisher-a" points="0 0 0 315 163.974 315 235 315 235 246.741 235 0"/>
  </defs>
  <g fill="none" fill-rule="evenodd">
    <path fill="#FFF" fill-rule="nonzero" stroke="#FFF" stroke-width="10" d="M5,5 L5,330 L178,330 L250,330 L250,5 L5,5 Z"/>
    <g transform="translate(10 10)">
      <mask id="heroku-publisher-b" fill="#fff">
        <use xlink:href="#heroku-publisher-a"/>
      </mask>
      <use fill="#6762A6" fill-rule="nonzero" opacity=".1" xlink:href="#heroku-publisher-a"/>
      <g mask="url(#heroku-publisher-b)">
        <g transform="translate(43 131)">
          <g transform="translate(6.67 5.512)">
            <path fill="#6762A6" d="M29.0879047,41.8256338 L4.42101583,41.8256338 C2.31087741,41.8256338 0.600722043,40.1236221 0.600722043,38.0239088 L0.600722043,5.7627148 C0.600722043,3.66300154 2.31100343,1.96086435 4.4208895,1.96086435 L29.0877787,1.96086435 C31.1975406,1.96086435 32.9083274,3.66300154 32.9083274,5.7627148 L32.9083274,38.0239088 C32.9083274,40.1236221 31.1975406,41.8256338 29.0877787,41.8256338 L29.0879047,41.8256338 Z"/>
            <path fill="#FFF" fill-rule="nonzero" d="M20.8473443,36.3403692 L20.8473443,20.5089591 C20.8473443,20.5089591 21.8820227,16.7204282 8.10255248,22.0588012 C8.07728553,22.12653 8.07728553,7.4193648 8.07728553,7.4193648 L12.5796212,7.39170978 L12.5796212,16.8147851 C12.5796212,16.8147851 25.1859095,11.8733596 25.1859095,20.5623524 L25.1859095,36.3403692 L20.8474545,36.3403585 L20.8473443,36.3403692 Z M23.4128911,13.0947474 L18.6373368,13.0947474 C20.3563306,11.0030764 21.9124502,7.41923907 21.9124502,7.41923907 L26.8503746,7.41923907 C26.8503746,7.41923907 26.0049557,9.75480892 23.4130203,13.0947474 L23.4128911,13.0947474 Z M8.15911579,36.3129759 L8.15911579,27.2974033 L12.6889755,31.8055665 L8.15911579,36.3129759 Z"/>
          </g>
          <path fill="#6762A6" fill-rule="nonzero" d="M57.3989645,40.709713 L57.3989645,27.7396539 C57.3989645,26.8251877 56.7251882,26.4306743 55.9312208,26.4306743 C54.3394468,26.4306743 52.3512158,26.8252364 50.5466037,27.6169591 L50.5466037,40.709713 L46.8759213,40.709713 L46.8759213,16.6275246 L50.5462303,16.6275246 L50.5462303,24.5723736 C52.2908889,23.93391 54.3705458,23.3864612 56.4509503,23.3864612 C59.7851392,23.3864612 61.0396705,25.4260089 61.0396705,28.2255765 L61.0396705,40.709713 L57.3989645,40.709713 Z M67.8905345,32.8547285 C68.012745,37.2082944 68.8696555,38.0611754 71.5604739,38.0611754 C73.6715976,38.0611754 76.0577621,37.3604597 77.8938568,36.6600889 L78.5053832,39.3996169 C76.5471253,40.2834677 74.1613358,41.1355859 71.3172766,41.1355859 C65.1982239,41.1355859 64.2494511,37.7874499 64.2494511,32.4583081 C64.2494511,29.5364174 64.4641326,26.8871444 65.167545,24.4515488 C67.0028818,23.7512024 69.4505029,23.3860888 72.5392634,23.3860888 C77.5577779,23.3860888 79.0866,26.1569487 79.0866,30.9975537 L79.0866,32.8547285 L67.8905739,32.8547285 L67.8905345,32.8547285 Z M72.5392161,26.4306743 C71.4394318,26.4306743 69.695145,26.4613957 68.2573792,26.73385 C68.1052476,27.4648079 67.9205108,28.4698284 67.8594055,30.327385 L75.5072779,30.327385 C75.5072779,27.7996816 75.0482779,26.4306625 72.5391845,26.4306711 L72.5392161,26.4306743 Z M85.9677789,27.6169591 L85.9677789,40.709713 L82.2967184,40.709713 L82.2967184,25.9734695 C85.3866,24.2993921 88.6597026,23.7817651 90.8019395,23.6296178 L90.8019395,26.6741946 C89.3030842,26.7957289 87.4055447,26.9784861 85.96815,27.6169591 L85.9677789,27.6169591 Z M100.498358,41.1355859 C95.0215737,41.1355859 92.5439684,38.4568517 92.5439684,32.3367393 C92.5439684,25.8518912 95.8170868,23.3864612 100.498358,23.3864612 C105.973658,23.3864612 108.452005,26.0648324 108.452005,32.1845826 C108.452005,38.6697929 105.178145,41.1355859 100.498358,41.1355859 Z M100.498358,26.4310467 C97.6835289,26.4310467 96.1236,28.0439579 96.1236,32.3367393 C96.1236,37.0259309 97.4388474,38.0611754 100.498358,38.0611754 C103.312453,38.0611754 104.872761,36.4773538 104.872761,32.1845826 C104.872761,27.4953902 103.557513,26.4306743 100.498358,26.4306743 L100.498358,26.4310467 Z M126.162411,40.709713 L121.848347,40.709713 C120.839621,38.030597 119.431453,35.2903249 117.259618,32.9155224 L115.332095,32.9155224 L115.332095,40.709713 L111.661413,40.709713 L111.661413,16.6275246 L115.332095,16.6275246 L115.332095,30.4489759 L117.045655,30.4489759 C118.911726,28.5306348 120.349121,26.1569487 121.358968,23.8119805 L125.488295,23.8119805 C124.081626,26.6436162 122.277016,29.1399963 120.257684,31.1799164 C122.674587,34.2244925 124.571005,37.4518139 126.162032,40.709713 L126.162411,40.709713 Z M133.04325,41.1355387 C129.709437,41.1355387 128.455263,39.0963823 128.455263,36.2949431 L128.455263,23.8119334 L132.095226,23.8119334 L132.095226,36.7514046 C132.095226,37.6657773 132.767384,38.0611283 133.562968,38.0611283 C135.154003,38.0611283 137.325837,37.6658276 139.131197,36.873727 L139.131197,23.8119334 L142.802242,23.8119334 L142.802242,38.4866381 C138.458218,40.8618697 135.123276,41.1355859 133.04325,41.1355859 L133.04325,41.1355387 Z"/>
        </g>
      </g>
    </g>
  </g>
</svg>
