<svg xmlns="http://www.w3.org/2000/svg" xmlns:xlink="http://www.w3.org/1999/xlink" width="255" height="335" viewBox="0 0 255 335">
  <defs>
    <polygon id="npm-publisher-a" points="0 0 0 315 163.974 315 235 315 235 246.741 235 0"/>
  </defs>
  <g fill="none" fill-rule="evenodd">
    <path fill="#FFF" fill-rule="nonzero" stroke="#FFF" stroke-width="10" d="M5,5 L5,330 L178,330 L250,330 L250,5 L5,5 Z"/>
    <g transform="translate(10 10)">
      <mask id="npm-publisher-b" fill="#fff">
        <use xlink:href="#npm-publisher-a"/>
      </mask>
      <use fill="#FFEFEF" fill-rule="nonzero" xlink:href="#npm-publisher-a"/>
      <g mask="url(#npm-publisher-b)">
        <g transform="translate(68 141)">
          <path fill="#CB3837" fill-rule="nonzero" d="M0,0 L100,0 L100,33.4285714 L50,33.4285714 L50,39 L27.7777778,39 L27.7777778,33.4285714 L0,33.4285714 L0,0 Z M5.55555556,27.8571429 L16.6666667,27.8571429 L16.6666667,11.1428571 L22.2222222,11.1428571 L22.2222222,27.8571429 L27.7777778,27.8571429 L27.7777778,5.57142857 L5.55555556,5.57142857 L5.55555556,27.8571429 Z M33.3333333,5.57142857 L33.3333333,33.4285714 L44.4444444,33.4285714 L44.4444444,27.8571429 L55.5555556,27.8571429 L55.5555556,5.57142857 L33.3333333,5.57142857 Z M44.4444444,11.1428571 L50,11.1428571 L50,22.2857143 L44.4444444,22.2857143 L44.4444444,11.1428571 Z M61.1111111,5.57142857 L61.1111111,27.8571429 L72.2222222,27.8571429 L72.2222222,11.1428571 L77.7777778,11.1428571 L77.7777778,27.8571429 L83.3333333,27.8571429 L83.3333333,11.1428571 L88.8888889,11.1428571 L88.8888889,27.8571429 L94.4444444,27.8571429 L94.4444444,5.57142857 L61.1111111,5.57142857 Z"/>
          <polygon fill="#FFF" points="5.556 27.857 16.667 27.857 16.667 11.143 22.222 11.143 22.222 27.857 27.778 27.857 27.778 5.571 5.556 5.571"/>
          <path fill="#FFF" fill-rule="nonzero" d="M33.3333333,5.57142857 L33.3333333,33.4285714 L44.4444444,33.4285714 L44.4444444,27.8571429 L55.5555556,27.8571429 L55.5555556,5.57142857 L33.3333333,5.57142857 Z M50,22.2857143 L44.4444444,22.2857143 L44.4444444,11.1428571 L50,11.1428571 L50,22.2857143 Z"/>
          <polygon fill="#FFF" points="61.111 5.571 61.111 27.857 72.222 27.857 72.222 11.143 77.778 11.143 77.778 27.857 83.333 27.857 83.333 11.143 88.889 11.143 88.889 27.857 94.444 27.857 94.444 5.571"/>
        </g>
      </g>
    </g>
  </g>
</svg>
