<svg xmlns="http://www.w3.org/2000/svg" xmlns:xlink="http://www.w3.org/1999/xlink" width="255" height="335" viewBox="0 0 255 335">
  <defs>
    <polygon id="accessibility-and-ux-design-a" points="0 0 0 315 163.974 315 235 315 235 246.741 235 0"/>
  </defs>
  <g fill="none" fill-rule="evenodd">
    <path fill="#FFF" fill-rule="nonzero" stroke="#FFF" stroke-width="10" d="M5,5 L5,330 L178,330 L250,330 L250,5 L5,5 Z"/>
    <g transform="translate(10 10)">
      <mask id="accessibility-and-ux-design-b" fill="#fff">
        <use xlink:href="#accessibility-and-ux-design-a"/>
      </mask>
      <use fill="#F2F2F2" fill-rule="nonzero" xlink:href="#accessibility-and-ux-design-a"/>
      <g fill="#323330" fill-rule="nonzero" mask="url(#accessibility-and-ux-design-b)">
        <path d="M73.898,37 C73.898,16.699 57.398,0.102 37,0.102 C16.602,0.102 0.102,16.7 0.102,37 C0.102,57.3 16.7,73.898 37,73.898 C57.3,73.898 73.898,57.3 73.898,37 Z M37,11.301 C40.1016,11.301 42.6016,13.801 42.6016,16.9026 C42.6016,20.0042 40.1016,22.5042 37,22.5042 C33.8984,22.5042 31.3984,20.0042 31.3984,16.9026 C31.3984,13.8987 33.8984,11.301 37,11.301 Z M31.3984,60.199 C30.8984,61.3006 29.8984,61.8982 28.7968,61.8982 C28.39836,61.8982 27.99602,61.79664 27.5976,61.59742 C26.0976,60.8982 25.496,59.19902 26.1992,57.69902 C26.1992,57.69902 31.6992,45.09702 32.6992,40.50002 C33.09764,38.89842 33.30076,34.60162 33.39842,32.60162 C33.39842,31.9024 32.99998,31.30082 32.39842,31.10162 L20.00042,27.50002 C18.39882,27.00002 17.50042,25.30082 18.00042,23.80082 C18.50042,22.30082 20.19962,21.60162 21.69962,22.00002 C21.69962,22.00002 33.00062,25.60162 37.00062,25.60162 C41.00062,25.60162 52.50062,21.90242 52.50062,21.90242 C54.00062,21.50398 55.69982,22.40242 56.10222,23.90242 C56.50066,25.40242 55.60222,27.10162 54.10222,27.50402 L41.80122,31.20322 C41.19966,31.40244 40.69962,32.004 40.80122,32.70322 C40.90278,34.70322 41.102,39.00402 41.50044,40.60162 C42.50044,45.20322 48.00044,57.80062 48.00044,57.80062 C48.69966,59.30062 48.00044,60.99982 46.60204,61.69902 C46.2036,61.89824 45.80126,61.9998 45.40284,61.9998 C44.30124,61.9998 43.20364,61.39824 42.80124,60.3006 L37.00044,48.1986 L31.3984,60.199 Z" transform="translate(81 120.5)"/>
      </g>
    </g>
  </g>
</svg>
