<svg xmlns="http://www.w3.org/2000/svg" xmlns:xlink="http://www.w3.org/1999/xlink" width="255" height="335" viewBox="0 0 255 335">
  <defs>
    <polygon id="css-animations-a" points="0 0 0 315 163.974 315 235 315 235 246.741 235 0"/>
    <linearGradient id="css-animations-c" x1="51.692%" x2="50%" y1="63.612%" y2="100%">
      <stop offset="0%" stop-color="#264DE4"/>
      <stop offset="100%" stop-color="#8DA0E9"/>
    </linearGradient>
  </defs>
  <g fill="none" fill-rule="evenodd">
    <path fill="#FFF" fill-rule="nonzero" stroke="#FFF" stroke-width="10" d="M5,5 L5,330 L178,330 L250,330 L250,5 L5,5 Z"/>
    <g transform="translate(10 10)">
      <mask id="css-animations-b" fill="#fff">
        <use xlink:href="#css-animations-a"/>
      </mask>
      <use fill="#E43E26" fill-rule="nonzero" xlink:href="#css-animations-a"/>
      <circle cx="-46" cy="8" r="340" fill="#264DE4" fill-rule="nonzero" mask="url(#css-animations-b)"/>
      <path fill="#182C7D" fill-rule="nonzero" d="M242.624732,120.687738 C234.251987,120.222039 226.313819,119.420443 219.114655,118.272431 C194.030382,114.272375 159.161562,116.557008 114.557936,125.157298 L113.800621,121.229643 C158.82174,112.548853 194.119805,110.236096 219.744556,114.322339 C227.320768,115.530477 235.741284,116.348185 244.634256,116.78834 C244.633866,116.954172 242.514901,120.624327 242.624732,120.687738 Z" mask="url(#css-animations-b)" opacity=".3" transform="rotate(-30 179.217 118.76)"/>
      <path stroke="#FFF" stroke-dasharray="5 15" d="M-11,305.5 C-4.33333333,235.520667 19.6666667,183.020667 61,148 C123,95.469 202,93.5 258,20" mask="url(#css-animations-b)" opacity=".7" style="mix-blend-mode:overlay"/>
      <g fill-rule="nonzero" stroke="#2142C5" stroke-dasharray="5" stroke-width="2" mask="url(#css-animations-b)">
        <path d="M4.00177669e-11,28.4941176 C16.1458526,0.390606365 34.767652,-6.81967073 55.8653981,6.86328636" transform="rotate(-1 8106.9 -9212.976)"/>
      </g>
      <circle cx="-216" cy="-132" r="340" fill="url(#css-animations-c)" fill-rule="nonzero" mask="url(#css-animations-b)"/>
      <circle cx="-227" cy="-124" r="340" fill="#264DE4" fill-rule="nonzero" mask="url(#css-animations-b)"/>
    </g>
    <g fill-rule="nonzero" transform="translate(56 264)">
      <path stroke="#FFF" stroke-linecap="square" stroke-width="3" d="M0,6.5 L142.683594,6.5"/>
      <path stroke="#9AAEFA" stroke-linecap="square" stroke-width="3" d="M17,6.5 L142.683594,6.5"/>
      <circle cx="17" cy="7" r="7" fill="#FFF"/>
    </g>
    <g transform="translate(56 147)">
      <path fill="#FFF" d="M12.992 31.224L8.256 24.12 6.368 24.184 6.368 31 2.816 31 2.816 8.568 6.368 8.248 6.368 21.624 8.256 21.592C9.888 19.512 11.296 17.336 12.704 14.968L16.352 15.256C14.784 17.72 13.088 20.216 11.264 22.584L16.8 30.776 12.992 31.224zM32.848 31.384C22.544 31.48 19.824 28.504 19.824 23.32 19.824 18.424 23.408 14.648 27.6 14.648 32.08 14.648 34.224 18.168 33.648 23.704L23.376 23.992C23.76 27.192 26.16 28.248 33.2 28.408L32.848 31.384zM26.96 17.56C24.784 17.56 23.504 18.904 23.344 21.88 25.04 21.816 28.272 21.72 30.256 21.656 30.16 19.128 29.168 17.56 26.96 17.56zM38.272 36.664L37.984 33.464C41.76 32.92 42.752 32.568 43.68 30.424L43.072 30.2C41.568 26.84 38.272 18.36 37.056 15.192L40.672 14.936C41.984 18.456 43.68 23.256 45.152 26.776L45.472 26.776C46.464 23.704 48.64 16.12 49.056 15.064L52.48 15.064C51.328 18.68 49.76 23.48 48 28.216 45.696 34.648 44 36.152 38.272 36.664zM70.072 28.344L69.752 31 57.432 31 57.432 28.344 61.464 28.344 61.464 18.456 57.24 18.456 57.56 15.736 61.464 15.736 61.464 15.704C61.464 11.608 63.768 8.536 71.224 8.152L71.448 11.608C65.624 11.8 65.016 12.312 65.016 15.16L65.016 15.736 70.392 15.736 70.392 18.456 65.016 18.456 65.016 28.344 70.072 28.344zM87.048 31L75.112 31 75.112 28.312 78.984 28.312C78.92 23.992 78.888 20.664 78.824 17.848L75.048 17.592 75.336 15.064 81.928 15.064C81.96 15.224 82.152 17.016 82.216 17.816 83.656 16.152 85.928 14.84 88.936 14.456L89.096 18.232C86.344 18.392 84.136 18.968 82.344 19.832 82.408 22.232 82.44 24.92 82.504 28.312L87.336 28.312 87.048 31zM99.096 28.664C100.312 28.664 101.624 28.184 102.744 27.416 102.68 26.488 102.68 25.432 102.648 24.12 97.72 23.608 96.408 24.664 96.408 26.424 96.408 27.832 97.464 28.664 99.096 28.664zM103.192 31.096C103.16 30.968 103 29.944 102.904 29.176 101.688 30.36 99.992 31.416 97.688 31.416 94.84 31.416 92.888 29.848 92.888 27.256 92.888 24.056 95.896 21.496 102.616 21.784 102.424 18.712 100.664 17.976 93.816 17.752L94.168 14.744C103.768 14.904 106.168 16.888 106.168 23.096 106.168 26.2 106.296 28.728 106.456 30.936L103.192 31.096zM115.496 17.688C114.888 17.688 114.28 17.976 113.704 18.52 113.768 21.496 113.8 25.752 113.8 31L110.504 31C110.504 23.832 110.504 18.808 110.376 15.192L113.416 15 113.544 16.376C114.408 15.416 115.528 14.648 116.84 14.648 118.088 14.648 118.824 15.288 119.144 16.376 120.008 15.416 121.128 14.648 122.536 14.648 124.36 14.648 125.256 15.928 125.256 18.296L125.256 31 121.96 31 121.96 19.544C121.96 18.168 121.576 17.688 120.744 17.688 120.168 17.688 119.656 17.944 119.176 18.424L119.176 31 116.648 31 116.648 19.512C116.648 18.168 116.296 17.688 115.496 17.688zM141.848 31.384C131.544 31.48 128.824 28.504 128.824 23.32 128.824 18.424 132.408 14.648 136.6 14.648 141.08 14.648 143.224 18.168 142.648 23.704L132.376 23.992C132.76 27.192 135.16 28.248 142.2 28.408L141.848 31.384zM135.96 17.56C133.784 17.56 132.504 18.904 132.344 21.88 134.04 21.816 137.272 21.72 139.256 21.656 139.16 19.128 138.168 17.56 135.96 17.56z"/>
      <polygon fill="#264DE4" fill-rule="nonzero" points="18 22 151 34.781 151 47.781 18 32.414" transform="matrix(1 0 0 -1 0 69.781)"/>
    </g>
    <path stroke="#2142C5" stroke-dasharray="5" stroke-width="3" d="M184,233 C194.49341,233 203,224.49341 203,214 C203,203.50659 194.49341,195 184,195 C173.50659,195 165,203.50659 165,214 C165,224.49341 173.50659,233 184,233 Z"/>
    <path stroke="#E43E26" stroke-width="5" d="M203,214 C203,203.50659 194.49341,195 184,195"/>
    <path stroke="#E43E26" stroke-width="5" d="M197.435029,233 C193.996705,229.561676 189.246705,227.435029 184,227.435029" transform="matrix(1 0 0 -1 0 460.435)"/>
    <circle cx="184" cy="214" r="6" fill="#2142C5" fill-rule="nonzero"/>
    <circle cx="89" cy="98" r="3" fill="#2142C5" fill-rule="nonzero"/>
    <circle cx="92" cy="80" r="7" fill="#2142C5" fill-rule="nonzero"/>
    <circle cx="74" cy="87" r="2" fill="#2142C5" fill-rule="nonzero"/>
  </g>
</svg>
