<svg xmlns="http://www.w3.org/2000/svg" xmlns:xlink="http://www.w3.org/1999/xlink" width="255" height="335" viewBox="0 0 255 335">
  <defs>
    <polygon id="csspro-a" points="0 0 0 315 163.974 315 235 315 235 246.741 235 0"/>
    <rect id="csspro-d" width="60" height="60" x="88" y="138" rx="3"/>
    <filter id="csspro-c" width="310%" height="310%" x="-105%" y="-80%" filterUnits="objectBoundingBox">
      <feMorphology in="SourceAlpha" radius="9" result="shadowSpreadOuter1"/>
      <feOffset dy="15" in="shadowSpreadOuter1" result="shadowOffsetOuter1"/>
      <feGaussianBlur in="shadowOffsetOuter1" result="shadowBlurOuter1" stdDeviation="27.5"/>
      <feComposite in="shadowBlurOuter1" in2="SourceAlpha" operator="out" result="shadowBlurOuter1"/>
      <feColorMatrix in="shadowBlurOuter1" values="0 0 0 0 0   0 0 0 0 0   0 0 0 0 0  0 0 0 0.15 0"/>
    </filter>
  </defs>
  <g fill="none" fill-rule="evenodd">
    <path fill="#FFF" fill-rule="nonzero" stroke="#FFF" stroke-width="10" d="M5,5 L5,330 L178,330 L250,330 L250,5 L5,5 Z"/>
    <g transform="translate(10 10)">
      <mask id="csspro-b" fill="#fff">
        <use xlink:href="#csspro-a"/>
      </mask>
      <use fill="#264DE4" fill-rule="nonzero" xlink:href="#csspro-a"/>
      <rect width="131" height="60" x="17" y="208" fill="#5170E9" fill-rule="nonzero" mask="url(#csspro-b)" rx="3"/>
      <rect width="86" height="12" x="25" y="220" fill="#243FA9" fill-rule="nonzero" mask="url(#csspro-b)" rx="6"/>
      <rect width="33" height="7" x="25" y="237" fill="#243FA9" fill-rule="nonzero" mask="url(#csspro-b)" rx="3.5"/>
      <rect width="58" height="7" x="25" y="247" fill="#243FA9" fill-rule="nonzero" mask="url(#csspro-b)" rx="3.5"/>
      <rect width="60" height="60" x="17" y="48" stroke="#FFF" stroke-linecap="square" stroke-width="2" mask="url(#csspro-b)" opacity=".2" rx="3"/>
      <rect width="60" height="130" x="158" y="138" stroke="#FFF" stroke-linecap="square" stroke-width="2" mask="url(#csspro-b)" opacity=".2" rx="3"/>
      <rect width="60" height="60" x="17" y="138" stroke="#FFF" stroke-linecap="square" stroke-width="2" mask="url(#csspro-b)" opacity=".2" rx="3"/>
      <rect width="130" height="60" x="88" y="48" stroke="#FFF" stroke-linecap="square" stroke-width="2" mask="url(#csspro-b)" opacity=".2" rx="3"/>
      <rect width="86" height="12" x="100" y="61" fill="#243FA9" fill-rule="nonzero" mask="url(#csspro-b)" rx="6"/>
      <rect width="33" height="7" x="100" y="78" fill="#243FA9" fill-rule="nonzero" mask="url(#csspro-b)" rx="3.5"/>
      <rect width="58" height="7" x="100" y="88" fill="#243FA9" fill-rule="nonzero" mask="url(#csspro-b)" rx="3.5"/>
      <g fill-rule="nonzero" mask="url(#csspro-b)">
        <use fill="#000" filter="url(#csspro-c)" xlink:href="#csspro-d"/>
        <rect width="50" height="50" x="93" y="143" fill="#FFF" fill-rule="evenodd" stroke="#FFF" stroke-linejoin="square" stroke-width="10" rx="3"/>
      </g>
      <g mask="url(#csspro-b)">
        <g transform="translate(102 147)">
          <polygon fill="#264DE4" points="31.803 9.065 28.914 42.091 15.926 45.764 2.974 42.096 .087 9.065"/>
          <polygon fill="#2965F1" points="26.44 39.988 28.909 11.766 15.945 11.766 15.945 42.956"/>
          <polygon fill="#EBEBEB" points="6.704 24.017 7.06 28.068 15.945 28.068 15.945 24.017"/>
          <polygon fill="#EBEBEB" points="15.945 15.817 15.932 15.817 5.989 15.817 6.35 19.868 15.945 19.868"/>
          <polygon fill="#EBEBEB" points="15.945 38.752 15.945 34.538 15.928 34.542 11.506 33.324 11.223 30.093 9.075 30.093 7.238 30.093 7.794 36.454 15.927 38.758"/>
          <polygon fill="#000" points="7.552 .089 12.361 .089 12.361 2.141 9.563 2.141 9.563 4.193 12.361 4.193 12.361 6.245 7.552 6.245"/>
          <polygon fill="#000" points="13.322 .089 18.131 .089 18.131 1.873 15.333 1.873 15.333 2.23 18.131 2.23 18.131 6.334 13.322 6.334 13.322 4.46 16.12 4.46 16.12 4.104 13.322 4.104"/>
          <polygon fill="#000" points="19.093 .089 23.902 .089 23.902 1.873 21.104 1.873 21.104 2.23 23.902 2.23 23.902 6.334 19.093 6.334 19.093 4.46 21.891 4.46 21.891 4.104 19.093 4.104"/>
          <polygon fill="#FFF" points="20.821 28.068 20.36 33.322 15.932 34.541 15.932 38.756 24.071 36.454 24.131 35.77 25.064 25.105 25.161 24.017 25.878 15.817 15.932 15.817 15.932 19.868 21.526 19.868 21.165 24.017 15.932 24.017 15.932 28.068"/>
        </g>
      </g>
    </g>
    <g stroke-width="2" transform="translate(168 253)">
      <path stroke="#F8E71C" stroke-dasharray="5" d="M0,0 L25,0 L25,25 L0,25 L0,0 Z"/>
      <path fill="#F8E71C" stroke="#264DE4" d="M13.0004825,14.9997003 C13.000497,14.9996993 13.0005133,14.9996987 13.0005315,14.9996987 C13.0005496,14.9996987 13.0005659,14.9996993 13.0005804,14.9997003 Z M12.7036703,7.8738596 L16.4146383,11.5855919 C17.1961626,12.3671162 17.1961626,13.6322812 16.4146383,14.4138055 L14.4146383,16.4138055 C14.0352904,16.7931534 13.5265867,16.9996987 13.0005315,16.9996987 C12.4744763,16.9996987 11.9657726,16.7931534 11.5863519,16.4137327 L7.87531638,12.7019328 L6.89867011,15.6305572 C6.61836994,16.47552 5.83351571,17.0440437 4.95675835,16.9994394 C4.08068317,16.9794832 3.31936122,16.3926549 3.07700753,15.5494199 L-0.922992466,1.54941985 C-1.12274364,0.850290737 -0.927422678,0.0994393243 -0.413575299,-0.414408054 C0.100387469,-0.928370822 0.85671192,-1.12356927 1.54925261,-0.922825221 L15.5480482,3.07683149 C16.391795,3.31675948 16.9802615,4.07945817 17.000271,4.95587362 C17.0202773,5.83215048 16.4656836,6.61873858 15.6336955,6.89740327 L12.7036703,7.8738596 Z" transform="translate(19 18)"/>
    </g>
    <rect width="201" height="16" x="27" y="30" stroke="#FFF" stroke-linecap="square" stroke-width="2" opacity=".2" rx="3"/>
    <rect width="201" height="16" x="27" y="289" stroke="#FFF" stroke-linecap="square" stroke-width="2" opacity=".2" rx="3"/>
    <rect width="201" height="12" x="27" y="126" fill="#5170E9" fill-rule="nonzero" rx="3"/>
    <text fill="#F8E71C" font-family="InterUI-Black, Inter UI" font-size="12" font-weight="700">
      <tspan x="175" y="266">PRO</tspan>
    </text>
    <g fill="#243FA9" transform="translate(42 73)">
      <path fill-rule="nonzero" d="M27,0 L3,0 C1.34375,0 0,1.34375 0,3 L0,27 C0,28.65625 1.34375,30 3,30 L27,30 C28.65625,30 30,28.65625 30,27 L30,3 C30,1.34375 28.65625,0 27,0 Z M3,2 L27,2 C27.265625,2 27.51955,2.10547 27.70705,2.29297 C27.89455,2.48047 28.00002,2.734375 28.00002,3.00002 L28.00002,19.31452 L23.61917,15.47467 C22.92582,14.84382 21.86527,14.84382 21.16997,15.47467 L14.60947,21.22467 C13.91612,21.85747 12.85362,21.85747 12.16027,21.22467 L10.12512,19.43952 C9.42982,18.80867 8.36927,18.80867 7.67592,19.43952 L1.99992,24.41412 L1.99992,3.00012 C1.99992,2.44737 2.447185,2.00012 2.99992,2.00012 L3,2 Z"/>
      <path d="M25.5995,6.92 C25.5995,10.5001 20.2305,10.5001 20.2305,6.92 C20.2305,3.3399 25.5995,3.3399 25.5995,6.92"/>
    </g>
  </g>
</svg>
