<svg xmlns="http://www.w3.org/2000/svg" xmlns:xlink="http://www.w3.org/1999/xlink" width="255" height="335" viewBox="0 0 255 335">
  <defs>
    <polygon id="html5kickoff-a" points="0 0 0 315 163.974 315 235 315 235 246.741 235 0"/>
    <radialGradient id="html5kickoff-c" fx="50%" fy="50%">
      <stop offset="0%" stop-color="#FFF5F2"/>
      <stop offset="100%" stop-color="#FFF5F2" stop-opacity="0"/>
    </radialGradient>
  </defs>
  <g fill="none" fill-rule="evenodd">
    <path fill="#FFF" fill-rule="nonzero" d="M10,10 L10,325 L178,325 L245,325 L245,10 L10,10 Z M3,0 L252,0 C253.656854,-1.64917633e-14 255,1.34314575 255,3 L255,332 C255,333.656854 253.656854,335 252,335 L3,335 C1.34314575,335 -2.18300001e-15,333.656854 -5.32907052e-15,332 L0,3 C-2.02906125e-16,1.34314575 1.34314575,7.48448398e-16 3,0 Z"/>
    <g transform="translate(10 10)">
      <mask id="html5kickoff-b" fill="#fff">
        <use xlink:href="#html5kickoff-a"/>
      </mask>
      <use fill="#FFF5F2" fill-rule="nonzero" xlink:href="#html5kickoff-a"/>
      <g fill="#E1D6D3" mask="url(#html5kickoff-b)">
        <g transform="translate(29 27)">
          <path d="M13.104 35L13.104 25.316 6.696 25.316 6.696 35 2.484 35 2.484 12.68 6.696 12.68 6.696 22.148 13.104 22.148 13.104 12.68 17.352 12.68 17.352 35 13.104 35zM37.656 35L22.68 35 22.68 31.652 28.728 31.652 28.728 18.26 23.256 18.404 23.184 15.488 28.728 14.912 28.728 12.284 32.58 11.96 32.58 31.652 37.98 31.652 37.656 35zM15.948 233.892L16.092 237.348C9.432 236.772 7.38 237.564 7.38 238.824 7.38 241.236 16.992 242.28 16.992 246.78 16.992 249.876 13.68 252.648 3.348 252.18L3.492 248.76C10.62 249.228 12.816 248.4 12.816 246.996 12.816 244.44 3.24 243.792 3.24 239.292 3.24 236.196 6.552 233.244 15.948 233.892zM36.504 252.432C24.912 252.54 21.852 249.192 21.852 243.36 21.852 237.852 25.884 233.604 30.6 233.604 35.64 233.604 38.052 237.564 37.404 243.792L25.848 244.116C26.28 247.716 28.98 248.904 36.9 249.084L36.504 252.432zM29.88 236.88C27.432 236.88 25.992 238.392 25.812 241.74 27.72 241.668 31.356 241.56 33.588 241.488 33.48 238.644 32.364 236.88 29.88 236.88zM56.88 252L42.084 252 42.084 248.976 47.628 248.976 47.628 229.968 42.264 229.68 42.624 226.836 51.66 226.836 51.66 248.976 57.204 248.976 56.88 252zM76.104 252.432C64.512 252.54 61.452 249.192 61.452 243.36 61.452 237.852 65.484 233.604 70.2 233.604 75.24 233.604 77.652 237.564 77.004 243.792L65.448 244.116C65.88 247.716 68.58 248.904 76.5 249.084L76.104 252.432zM69.48 236.88C67.032 236.88 65.592 238.392 65.412 241.74 67.32 241.668 70.956 241.56 73.188 241.488 73.08 238.644 71.964 236.88 69.48 236.88zM81.792 243.324C81.792 238.32 85.104 233.856 95.832 233.82L96.084 237.6C87.12 237.312 85.752 239.364 85.752 242.82 85.752 247.428 88.272 249.3 96.336 248.832L95.94 252.144C84.744 253.08 81.792 248.868 81.792 243.324zM115.668 252.288C107.604 252.432 104.976 250.632 104.976 246.024L104.976 237.132 101.304 237.132 101.664 234.072 104.976 234.072 104.976 229.248 108.936 228.888 108.936 234.072 115.704 234.072 115.704 237.132 108.936 237.132 108.936 245.412C108.936 248.22 110.628 248.868 116.1 248.976L115.668 252.288zM151.668 252.288C143.604 252.432 140.976 250.632 140.976 246.024L140.976 237.132 137.304 237.132 137.664 234.072 140.976 234.072 140.976 229.248 144.936 228.888 144.936 234.072 151.704 234.072 151.704 237.132 144.936 237.132 144.936 245.412C144.936 248.22 146.628 248.868 152.1 248.976L151.668 252.288zM164.772 249.192C165.96 249.192 166.968 248.76 167.832 248.076 167.76 245.304 167.724 241.812 167.724 237.492 166.824 237.204 165.96 237.024 165.168 237.024 162.432 237.024 160.524 239.04 160.524 243 160.524 247.248 162.288 249.192 164.772 249.192zM168.264 252.108L168.048 250.308C166.824 251.496 165.168 252.468 163.116 252.468 159.336 252.468 156.564 249.336 156.564 244.008 156.564 237.384 161.208 233.604 166.896 233.604 167.184 233.604 167.436 233.604 167.724 233.64L167.724 226.764 171.72 226.404 171.72 234.036C171.72 242.424 171.792 247.932 171.972 251.892L168.264 252.108zM75.456 32.012L75.096 35 61.236 35 61.236 32.012 65.772 32.012 65.772 20.888 61.02 20.888 61.38 17.828 65.772 17.828 65.772 17.792C65.772 13.184 68.364 9.728 76.752 9.296L77.004 13.184C70.452 13.4 69.768 13.976 69.768 17.18L69.768 17.828 75.816 17.828 75.816 20.888 69.768 20.888 69.768 32.012 75.456 32.012zM90.9 14.372L86.76 14.372 87.012 9.332 91.224 9.332 90.9 14.372zM96.912 35L80.748 35 80.748 31.976 86.976 31.976 86.976 20.204 80.676 19.916 81 17.072 91.008 17.072 91.008 31.976 97.236 31.976 96.912 35zM102.492 41.3L102.132 37.7C110.088 37.052 111.024 36.44 111.132 31.904 109.944 32.768 108.432 33.416 106.524 33.416 102.78 33.416 99.936 30.572 99.936 25.964 99.936 20.276 104.364 16.64 109.656 16.64 111.456 16.64 113.256 16.964 115.056 17.504 115.128 19.484 115.164 27.224 115.164 30.14 115.164 36.692 112.716 40.796 102.492 41.3zM108.072 30.284C109.116 30.284 110.16 29.996 111.132 29.528L111.132 20.492C110.124 20.204 109.152 20.024 108.216 20.024 105.66 20.024 103.896 21.716 103.896 25.028 103.896 28.592 105.732 30.284 108.072 30.284zM131.508 35.072L131.292 33.056C129.852 34.316 128.052 35.468 125.568 35.468 122.436 35.468 120.456 33.668 120.456 29.276L120.456 17.216 124.452 16.964 124.452 27.872C124.452 31.04 125.604 32.048 127.44 32.048 128.772 32.048 129.96 31.58 131.04 30.824 130.968 27.512 130.932 22.868 130.932 17.072L134.928 17.072C134.928 25.136 135 30.788 135.216 34.892L131.508 35.072zM153.504 35L140.076 35 140.076 31.976 144.432 31.976C144.36 27.116 144.324 23.372 144.252 20.204L140.004 19.916 140.328 17.072 147.744 17.072C147.78 17.252 147.996 19.268 148.068 20.168 149.688 18.296 152.244 16.82 155.628 16.388L155.808 20.636C152.712 20.816 150.228 21.464 148.212 22.436 148.284 25.136 148.32 28.16 148.392 31.976L153.828 31.976 153.504 35zM174.204 35.432C162.612 35.54 159.552 32.192 159.552 26.36 159.552 20.852 163.584 16.604 168.3 16.604 173.34 16.604 175.752 20.564 175.104 26.792L163.548 27.116C163.98 30.716 166.68 31.904 174.6 32.084L174.204 35.432zM167.58 19.88C165.132 19.88 163.692 21.392 163.512 24.74 165.42 24.668 169.056 24.56 171.288 24.488 171.18 21.644 170.064 19.88 167.58 19.88zM10.296 63.224C8.964 63.224 7.812 63.656 6.768 64.304L6.768 78.2 2.772 78.2 2.772 52.964 6.768 52.604 6.768 61.892C8.136 60.74 9.9 59.804 12.168 59.804 15.3 59.804 17.316 61.64 17.316 65.996L17.316 78.2 13.32 78.2 13.32 67.4C13.32 64.232 12.168 63.224 10.296 63.224zM36.504 78.632C24.912 78.74 21.852 75.392 21.852 69.56 21.852 64.052 25.884 59.804 30.6 59.804 35.64 59.804 38.052 63.764 37.404 69.992L25.848 70.316C26.28 73.916 28.98 75.104 36.9 75.284L36.504 78.632zM29.88 63.08C27.432 63.08 25.992 64.592 25.812 67.94 27.72 67.868 31.356 67.76 33.588 67.688 33.48 64.844 32.364 63.08 29.88 63.08zM48.708 75.572C50.076 75.572 51.552 75.032 52.812 74.168 52.74 73.124 52.74 71.936 52.704 70.46 47.16 69.884 45.684 71.072 45.684 73.052 45.684 74.636 46.872 75.572 48.708 75.572zM53.316 78.308C53.28 78.164 53.1 77.012 52.992 76.148 51.624 77.48 49.716 78.668 47.124 78.668 43.92 78.668 41.724 76.904 41.724 73.988 41.724 70.388 45.108 67.508 52.668 67.832 52.452 64.376 50.472 63.548 42.768 63.296L43.164 59.912C53.964 60.092 56.664 62.324 56.664 69.308 56.664 72.8 56.808 75.644 56.988 78.128L53.316 78.308zM69.372 75.392C70.56 75.392 71.568 74.96 72.432 74.276 72.36 71.504 72.324 68.012 72.324 63.692 71.424 63.404 70.56 63.224 69.768 63.224 67.032 63.224 65.124 65.24 65.124 69.2 65.124 73.448 66.888 75.392 69.372 75.392zM72.864 78.308L72.648 76.508C71.424 77.696 69.768 78.668 67.716 78.668 63.936 78.668 61.164 75.536 61.164 70.208 61.164 63.584 65.808 59.804 71.496 59.804 71.784 59.804 72.036 59.804 72.324 59.84L72.324 52.964 76.32 52.604 76.32 60.236C76.32 68.624 76.392 74.132 76.572 78.092L72.864 78.308zM95.904 78.632C84.312 78.74 81.252 75.392 81.252 69.56 81.252 64.052 85.284 59.804 90 59.804 95.04 59.804 97.452 63.764 96.804 69.992L85.248 70.316C85.68 73.916 88.38 75.104 96.3 75.284L95.904 78.632zM89.28 63.08C86.832 63.08 85.392 64.592 85.212 67.94 87.12 67.868 90.756 67.76 92.988 67.688 92.88 64.844 91.764 63.08 89.28 63.08zM114.804 78.2L101.376 78.2 101.376 75.176 105.732 75.176C105.66 70.316 105.624 66.572 105.552 63.404L101.304 63.116 101.628 60.272 109.044 60.272C109.08 60.452 109.296 62.468 109.368 63.368 110.988 61.496 113.544 60.02 116.928 59.588L117.108 63.836C114.012 64.016 111.528 64.664 109.512 65.636 109.584 68.336 109.62 71.36 109.692 75.176L115.128 75.176 114.804 78.2zM15.948 146.492L16.092 149.948C9.432 149.372 7.38 150.164 7.38 151.424 7.38 153.836 16.992 154.88 16.992 159.38 16.992 162.476 13.68 165.248 3.348 164.78L3.492 161.36C10.62 161.828 12.816 161 12.816 159.596 12.816 157.04 3.24 156.392 3.24 151.892 3.24 148.796 6.552 145.844 15.948 146.492zM36.504 165.032C24.912 165.14 21.852 161.792 21.852 155.96 21.852 150.452 25.884 146.204 30.6 146.204 35.64 146.204 38.052 150.164 37.404 156.392L25.848 156.716C26.28 160.316 28.98 161.504 36.9 161.684L36.504 165.032zM29.88 149.48C27.432 149.48 25.992 150.992 25.812 154.34 27.72 154.268 31.356 154.16 33.588 154.088 33.48 151.244 32.364 149.48 29.88 149.48zM42.192 155.924C42.192 150.92 45.504 146.456 56.232 146.42L56.484 150.2C47.52 149.912 46.152 151.964 46.152 155.42 46.152 160.028 48.672 161.9 56.736 161.432L56.34 164.744C45.144 165.68 42.192 161.468 42.192 155.924zM76.068 164.888C68.004 165.032 65.376 163.232 65.376 158.624L65.376 149.732 61.704 149.732 62.064 146.672 65.376 146.672 65.376 141.848 69.336 141.488 69.336 146.672 76.104 146.672 76.104 149.732 69.336 149.732 69.336 158.012C69.336 160.82 71.028 161.468 76.5 161.576L76.068 164.888zM91.8 143.972L87.66 143.972 87.912 138.932 92.124 138.932 91.8 143.972zM97.812 164.6L81.648 164.6 81.648 161.576 87.876 161.576 87.876 149.804 81.576 149.516 81.9 146.672 91.908 146.672 91.908 161.576 98.136 161.576 97.812 164.6zM108.324 165.14C103.896 165.14 100.728 161.864 100.728 156.068 100.728 150.236 104.724 146.132 109.476 146.132 113.976 146.132 117.072 149.408 117.072 155.24 117.072 161.216 113.112 165.14 108.324 165.14zM109.044 161.9C111.456 161.9 113.04 159.92 113.04 155.96 113.04 151.64 111.384 149.408 108.792 149.408 106.38 149.408 104.796 151.388 104.796 155.312 104.796 159.668 106.452 161.9 109.044 161.9zM129.096 149.624C127.728 149.624 126.576 150.092 125.46 150.812 125.532 154.16 125.604 158.84 125.604 164.6L121.572 164.6C121.572 156.536 121.5 150.884 121.284 146.816L124.992 146.6 125.208 148.652C126.648 147.356 128.484 146.204 130.968 146.204 134.1 146.204 136.116 148.04 136.116 152.396L136.116 164.6 132.12 164.6 132.12 153.8C132.12 150.632 130.932 149.624 129.096 149.624zM147.996 63.224C146.664 63.224 145.512 63.656 144.468 64.304L144.468 78.2 140.472 78.2 140.472 52.964 144.468 52.604 144.468 61.892C145.836 60.74 147.6 59.804 149.868 59.804 153 59.804 155.016 61.64 155.016 65.996L155.016 78.2 151.02 78.2 151.02 67.4C151.02 64.232 149.868 63.224 147.996 63.224zM174.672 70.676C174.672 74.78 170.46 78.02 160.704 78.668L160.488 74.996C168.336 74.312 170.928 73.196 170.928 70.928 170.928 69.092 168.372 67.652 161.064 66.932L161.748 55.88 173.988 55.88 173.7 59.372 165.096 59.336 164.772 64.34C172.368 65.276 174.672 67.796 174.672 70.676zM164.916 161.612C167.652 161.612 169.776 159.668 169.776 155.708 169.776 151.568 168.012 149.48 165.6 149.48 164.52 149.48 163.404 149.912 162.432 150.632 162.468 153.188 162.54 156.5 162.576 161.18 163.368 161.468 164.052 161.612 164.916 161.612zM162.576 170.504L158.58 170.864 158.58 164.708C158.58 155.456 158.544 150.38 158.364 146.816L162.036 146.6 162.216 148.436C163.476 147.212 165.132 146.204 167.22 146.204 170.964 146.204 173.736 149.516 173.736 154.736 173.736 161.288 169.128 165.068 163.512 165.068 163.188 165.068 162.9 165.068 162.576 165.032L162.576 170.504zM8.208 122.768C6.228 122.768 4.464 122.444 2.808 121.796L2.808 97.064 6.804 96.704 6.804 105.848C7.992 104.768 9.576 103.904 11.52 103.904 15.3 103.904 18.036 107.216 18.036 112.436 18.036 118.88 13.392 122.768 8.208 122.768zM9.648 119.312C12.384 119.312 14.076 117.476 14.076 113.408 14.076 109.268 12.348 107.18 9.9 107.18 8.856 107.18 7.776 107.576 6.804 108.26L6.804 118.808C7.74 119.132 8.64 119.312 9.648 119.312zM35.604 122.3L22.176 122.3 22.176 119.276 26.532 119.276C26.46 114.416 26.424 110.672 26.352 107.504L22.104 107.216 22.428 104.372 29.844 104.372C29.88 104.552 30.096 106.568 30.168 107.468 31.788 105.596 34.344 104.12 37.728 103.688L37.908 107.936C34.812 108.116 32.328 108.764 30.312 109.736 30.384 112.436 30.42 115.46 30.492 119.276L35.928 119.276 35.604 122.3zM13.608 208.772L13.392 206.756C11.952 208.016 10.152 209.168 7.668 209.168 4.536 209.168 2.556 207.368 2.556 202.976L2.556 190.916 6.552 190.664 6.552 201.572C6.552 204.74 7.704 205.748 9.54 205.748 10.872 205.748 12.06 205.28 13.14 204.524 13.068 201.212 13.032 196.568 13.032 190.772L17.028 190.772C17.028 198.836 17.1 204.488 17.316 208.592L13.608 208.772zM37.08 208.7L22.284 208.7 22.284 205.676 27.828 205.676 27.828 186.668 22.464 186.38 22.824 183.536 31.86 183.536 31.86 205.676 37.404 205.676 37.08 208.7zM75.456 118.412L75.096 121.4 61.236 121.4 61.236 118.412 65.772 118.412 65.772 107.288 61.02 107.288 61.38 104.228 65.772 104.228 65.772 104.192C65.772 99.584 68.364 96.128 76.752 95.696L77.004 99.584C70.452 99.8 69.768 100.376 69.768 103.58L69.768 104.228 75.816 104.228 75.816 107.288 69.768 107.288 69.768 118.412 75.456 118.412zM87.624 121.94C83.196 121.94 80.028 118.664 80.028 112.868 80.028 107.036 84.024 102.932 88.776 102.932 93.276 102.932 96.372 106.208 96.372 112.04 96.372 118.016 92.412 121.94 87.624 121.94zM88.344 118.7C90.756 118.7 92.34 116.72 92.34 112.76 92.34 108.44 90.684 106.208 88.092 106.208 85.68 106.208 84.096 108.188 84.096 112.112 84.096 116.468 85.752 118.7 88.344 118.7zM107.424 121.94C102.996 121.94 99.828 118.664 99.828 112.868 99.828 107.036 103.824 102.932 108.576 102.932 113.076 102.932 116.172 106.208 116.172 112.04 116.172 118.016 112.212 121.94 107.424 121.94zM108.144 118.7C110.556 118.7 112.14 116.72 112.14 112.76 112.14 108.44 110.484 106.208 107.892 106.208 105.48 106.208 103.896 108.188 103.896 112.112 103.896 116.468 105.552 118.7 108.144 118.7zM134.568 121.688C126.504 121.832 123.876 120.032 123.876 115.424L123.876 106.532 120.204 106.532 120.564 103.472 123.876 103.472 123.876 98.648 127.836 98.288 127.836 103.472 134.604 103.472 134.604 106.532 127.836 106.532 127.836 114.812C127.836 117.62 129.528 118.268 135 118.376L134.568 121.688zM154.404 121.832C142.812 121.94 139.752 118.592 139.752 112.76 139.752 107.252 143.784 103.004 148.5 103.004 153.54 103.004 155.952 106.964 155.304 113.192L143.748 113.516C144.18 117.116 146.88 118.304 154.8 118.484L154.404 121.832zM147.78 106.28C145.332 106.28 143.892 107.792 143.712 111.14 145.62 111.068 149.256 110.96 151.488 110.888 151.38 108.044 150.264 106.28 147.78 106.28zM173.304 121.4L159.876 121.4 159.876 118.376 164.232 118.376C164.16 113.516 164.124 109.772 164.052 106.604L159.804 106.316 160.128 103.472 167.544 103.472C167.58 103.652 167.796 105.668 167.868 106.568 169.488 104.696 172.044 103.22 175.428 102.788L175.608 107.036C172.512 107.216 170.028 107.864 168.012 108.836 168.084 111.536 168.12 114.56 168.192 118.376L173.628 118.376 173.304 121.4zM76.68 207.8L61.884 207.8 61.884 204.776 67.428 204.776 67.428 185.768 62.064 185.48 62.424 182.636 71.46 182.636 71.46 204.776 77.004 204.776 76.68 207.8zM91.8 187.172L87.66 187.172 87.912 182.132 92.124 182.132 91.8 187.172zM97.812 207.8L81.648 207.8 81.648 204.776 87.876 204.776 87.876 193.004 81.576 192.716 81.9 189.872 91.908 189.872 91.908 204.776 98.136 204.776 97.812 207.8zM125.172 204.992C126.36 204.992 127.368 204.56 128.232 203.876 128.16 201.104 128.124 197.612 128.124 193.292 127.224 193.004 126.36 192.824 125.568 192.824 122.832 192.824 120.924 194.84 120.924 198.8 120.924 203.048 122.688 204.992 125.172 204.992zM128.664 207.908L128.448 206.108C127.224 207.296 125.568 208.268 123.516 208.268 119.736 208.268 116.964 205.136 116.964 199.808 116.964 193.184 121.608 189.404 127.296 189.404 127.584 189.404 127.836 189.404 128.124 189.44L128.124 182.564 132.12 182.204 132.12 189.836C132.12 198.224 132.192 203.732 132.372 207.692L128.664 207.908zM147.6 187.172L143.46 187.172 143.712 182.132 147.924 182.132 147.6 187.172zM153.612 207.8L137.448 207.8 137.448 204.776 143.676 204.776 143.676 193.004 137.376 192.716 137.7 189.872 147.708 189.872 147.708 204.776 153.936 204.776 153.612 207.8zM164.916 203.912C166.572 199.232 168.048 194.48 169.416 189.872L173.448 189.872C171.612 195.848 169.38 202.004 167.112 207.944L162.252 207.944C160.02 202.004 157.896 195.92 156.024 190.016L160.056 189.728C161.46 194.372 162.972 199.196 164.664 203.912L164.916 203.912z"/>
        </g>
      </g>
    </g>
    <circle cx="126" cy="166" r="49" fill="url(#html5kickoff-c)" fill-rule="nonzero"/>
    <g transform="translate(111 144)">
      <path fill="#000" fill-rule="nonzero" d="M3.01604632,0 L5.03258892,0 L5.03258892,2.04192073 L6.89131514,2.04192073 L6.89131514,0 L8.90785773,0 L8.90785773,6.17949695 L6.89131514,6.17949695 L6.89131514,4.11966463 L5.05012407,4.11966463 L5.05012407,6.17949695 L3.01604632,6.17949695 M11.573201,2.05983232 L9.79338296,2.05983232 L9.79338296,0 L15.3783292,0 L15.3783292,2.05983232 L13.5897436,2.05983232 L13.5897436,6.17949695 L11.573201,6.17949695 M16.2638544,0 L18.3768404,0 L19.6744417,2.17625762 L20.972043,0 L23.0850289,0 L23.0850289,6.17949695 L21.0684864,6.17949695 L21.0684864,3.11661585 L19.6569065,5.33765244 L18.2453267,3.11661585 L18.2453267,6.17949695 L16.2638544,6.17949695 M24.0845327,0 L26.1010753,0 L26.1010753,4.13757622 L28.9593052,4.13757622 L28.9593052,6.17949695 L24.0845327,6.17949695"/>
      <polyline fill="#E44D26" points="2.893 42.343 0 9.171 31.809 9.171 28.915 42.325 15.878 46.015"/>
      <polyline fill="#F16529" points="15.957 43.033 15.957 11.732 28.959 11.732 26.478 40.032"/>
      <path fill="#EBEBEB" fill-rule="nonzero" d="M5.96195203,15.7890625 L15.9569892,15.7890625 L15.9569892,19.8549924 L10.3282051,19.8549924 L10.6964433,24.019436 L15.9569892,24.019436 L15.9569892,28.0764101 L7.04913151,28.0764101 M7.22448304,30.1183308 L11.2224979,30.1183308 L11.5030604,33.3692835 L15.9569892,34.5872713 L15.9569892,38.8323171 L7.78560794,36.503811"/>
      <path fill="#FFF" fill-rule="nonzero" d="M25.9169562,15.7890625 L15.9394541,15.7890625 L15.9394541,19.8549924 L25.5487179,19.8549924 M25.1892473,24.019436 L15.9394541,24.019436 L15.9394541,28.0853659 L20.8492969,28.0853659 L20.3846154,33.3692835 L15.9394541,34.5872713 L15.9394541,38.8144055 L24.0933002,36.503811"/>
    </g>
  </g>
</svg>
