<svg xmlns="http://www.w3.org/2000/svg" xmlns:xlink="http://www.w3.org/1999/xlink" width="255" height="335" viewBox="0 0 255 335">
  <defs>
    <polygon id="htmlpro-a" points="0 0 0 315 163.974 315 235 315 235 246.741 235 0"/>
    <rect id="htmlpro-d" width="96" height="96" x="70" y="110" rx="48"/>
    <filter id="htmlpro-c" width="231.2%" height="231.2%" x="-65.6%" y="-50%" filterUnits="objectBoundingBox">
      <feMorphology in="SourceAlpha" radius="9" result="shadowSpreadOuter1"/>
      <feOffset dy="15" in="shadowSpreadOuter1" result="shadowOffsetOuter1"/>
      <feGaussianBlur in="shadowOffsetOuter1" result="shadowBlurOuter1" stdDeviation="27.5"/>
      <feComposite in="shadowBlurOuter1" in2="SourceAlpha" operator="out" result="shadowBlurOuter1"/>
      <feColorMatrix in="shadowBlurOuter1" values="0 0 0 0 0   0 0 0 0 0   0 0 0 0 0  0 0 0 0.15 0"/>
    </filter>
  </defs>
  <g fill="none" fill-rule="evenodd">
    <path fill="#38FFC3" fill-rule="nonzero" stroke="#FFF" stroke-width="10" d="M5,5 L5,330 L178,330 L250,330 L250,5 L5,5 Z"/>
    <g transform="translate(10 10)">
      <mask id="htmlpro-b" fill="#fff">
        <use xlink:href="#htmlpro-a"/>
      </mask>
      <use fill="#E44D26" fill-rule="nonzero" xlink:href="#htmlpro-a"/>
      <g fill="#CD431F" mask="url(#htmlpro-b)">
        <g transform="translate(29 29)">
          <path d="M15.948 16.892L16.092 20.348C9.432 19.772 7.38 20.564 7.38 21.824 7.38 24.236 16.992 25.28 16.992 29.78 16.992 32.876 13.68 35.648 3.348 35.18L3.492 31.76C10.62 32.228 12.816 31.4 12.816 29.996 12.816 27.44 3.24 26.792 3.24 22.292 3.24 19.196 6.552 16.244 15.948 16.892zM29.916 31.112C31.572 26.432 33.048 21.68 34.416 17.072L38.448 17.072C36.612 23.048 34.38 29.204 32.112 35.144L27.252 35.144C25.02 29.204 22.896 23.12 21.024 17.216L25.056 16.928C26.46 21.572 27.972 26.396 29.664 31.112L29.916 31.112zM43.992 41.3L43.632 37.7C51.588 37.052 52.524 36.44 52.632 31.904 51.444 32.768 49.932 33.416 48.024 33.416 44.28 33.416 41.436 30.572 41.436 25.964 41.436 20.276 45.864 16.64 51.156 16.64 52.956 16.64 54.756 16.964 56.556 17.504 56.628 19.484 56.664 27.224 56.664 30.14 56.664 36.692 54.216 40.796 43.992 41.3zM49.572 30.284C50.616 30.284 51.66 29.996 52.632 29.528L52.632 20.492C51.624 20.204 50.652 20.024 49.716 20.024 47.16 20.024 45.396 21.716 45.396 25.028 45.396 28.592 47.232 30.284 49.572 30.284zM15.948 233.892L16.092 237.348C9.432 236.772 7.38 237.564 7.38 238.824 7.38 241.236 16.992 242.28 16.992 246.78 16.992 249.876 13.68 252.648 3.348 252.18L3.492 248.76C10.62 249.228 12.816 248.4 12.816 246.996 12.816 244.44 3.24 243.792 3.24 239.292 3.24 236.196 6.552 233.244 15.948 233.892zM36.504 252.432C24.912 252.54 21.852 249.192 21.852 243.36 21.852 237.852 25.884 233.604 30.6 233.604 35.64 233.604 38.052 237.564 37.404 243.792L25.848 244.116C26.28 247.716 28.98 248.904 36.9 249.084L36.504 252.432zM29.88 236.88C27.432 236.88 25.992 238.392 25.812 241.74 27.72 241.668 31.356 241.56 33.588 241.488 33.48 238.644 32.364 236.88 29.88 236.88zM56.88 252L42.084 252 42.084 248.976 47.628 248.976 47.628 229.968 42.264 229.68 42.624 226.836 51.66 226.836 51.66 248.976 57.204 248.976 56.88 252zM76.104 252.432C64.512 252.54 61.452 249.192 61.452 243.36 61.452 237.852 65.484 233.604 70.2 233.604 75.24 233.604 77.652 237.564 77.004 243.792L65.448 244.116C65.88 247.716 68.58 248.904 76.5 249.084L76.104 252.432zM69.48 236.88C67.032 236.88 65.592 238.392 65.412 241.74 67.32 241.668 70.956 241.56 73.188 241.488 73.08 238.644 71.964 236.88 69.48 236.88zM81.792 243.324C81.792 238.32 85.104 233.856 95.832 233.82L96.084 237.6C87.12 237.312 85.752 239.364 85.752 242.82 85.752 247.428 88.272 249.3 96.336 248.832L95.94 252.144C84.744 253.08 81.792 248.868 81.792 243.324zM115.668 252.288C107.604 252.432 104.976 250.632 104.976 246.024L104.976 237.132 101.304 237.132 101.664 234.072 104.976 234.072 104.976 229.248 108.936 228.888 108.936 234.072 115.704 234.072 115.704 237.132 108.936 237.132 108.936 245.412C108.936 248.22 110.628 248.868 116.1 248.976L115.668 252.288zM151.668 252.288C143.604 252.432 140.976 250.632 140.976 246.024L140.976 237.132 137.304 237.132 137.664 234.072 140.976 234.072 140.976 229.248 144.936 228.888 144.936 234.072 151.704 234.072 151.704 237.132 144.936 237.132 144.936 245.412C144.936 248.22 146.628 248.868 152.1 248.976L151.668 252.288zM164.772 249.192C165.96 249.192 166.968 248.76 167.832 248.076 167.76 245.304 167.724 241.812 167.724 237.492 166.824 237.204 165.96 237.024 165.168 237.024 162.432 237.024 160.524 239.04 160.524 243 160.524 247.248 162.288 249.192 164.772 249.192zM168.264 252.108L168.048 250.308C166.824 251.496 165.168 252.468 163.116 252.468 159.336 252.468 156.564 249.336 156.564 244.008 156.564 237.384 161.208 233.604 166.896 233.604 167.184 233.604 167.436 233.604 167.724 233.64L167.724 226.764 171.72 226.404 171.72 234.036C171.72 242.424 171.792 247.932 171.972 251.892L168.264 252.108zM86.116 31.112C87.772 26.432 89.248 21.68 90.616 17.072L94.648 17.072C92.812 23.048 90.58 29.204 88.312 35.144L83.452 35.144C81.22 29.204 79.096 23.12 77.224 17.216L81.256 16.928C82.66 21.572 84.172 26.396 85.864 31.112L86.116 31.112zM108.4 14.372L104.26 14.372 104.512 9.332 108.724 9.332 108.4 14.372zM114.412 35L98.248 35 98.248 31.976 104.476 31.976 104.476 20.204 98.176 19.916 98.5 17.072 108.508 17.072 108.508 31.976 114.736 31.976 114.412 35zM125.572 32.192C126.76 32.192 127.768 31.76 128.632 31.076 128.56 28.304 128.524 24.812 128.524 20.492 127.624 20.204 126.76 20.024 125.968 20.024 123.232 20.024 121.324 22.04 121.324 26 121.324 30.248 123.088 32.192 125.572 32.192zM129.064 35.108L128.848 33.308C127.624 34.496 125.968 35.468 123.916 35.468 120.136 35.468 117.364 32.336 117.364 27.008 117.364 20.384 122.008 16.604 127.696 16.604 127.984 16.604 128.236 16.604 128.524 16.64L128.524 9.764 132.52 9.404 132.52 17.036C132.52 25.424 132.592 30.932 132.772 34.892L129.064 35.108zM152.104 35.432C140.512 35.54 137.452 32.192 137.452 26.36 137.452 20.852 141.484 16.604 146.2 16.604 151.24 16.604 153.652 20.564 153.004 26.792L141.448 27.116C141.88 30.716 144.58 31.904 152.5 32.084L152.104 35.432zM145.48 19.88C143.032 19.88 141.592 21.392 141.412 24.74 143.32 24.668 146.956 24.56 149.188 24.488 149.08 21.644 147.964 19.88 145.48 19.88zM164.524 35.54C160.096 35.54 156.928 32.264 156.928 26.468 156.928 20.636 160.924 16.532 165.676 16.532 170.176 16.532 173.272 19.808 173.272 25.64 173.272 31.616 169.312 35.54 164.524 35.54zM165.244 32.3C167.656 32.3 169.24 30.32 169.24 26.36 169.24 22.04 167.584 19.808 164.992 19.808 162.58 19.808 160.996 21.788 160.996 25.712 160.996 30.068 162.652 32.3 165.244 32.3zM8.208 78.668C6.228 78.668 4.464 78.344 2.808 77.696L2.808 52.964 6.804 52.604 6.804 61.748C7.992 60.668 9.576 59.804 11.52 59.804 15.3 59.804 18.036 63.116 18.036 68.336 18.036 74.78 13.392 78.668 8.208 78.668zM9.648 75.212C12.384 75.212 14.076 73.376 14.076 69.308 14.076 65.168 12.348 63.08 9.9 63.08 8.856 63.08 7.776 63.476 6.804 64.16L6.804 74.708C7.74 75.032 8.64 75.212 9.648 75.212zM33.408 78.272L33.192 76.256C31.752 77.516 29.952 78.668 27.468 78.668 24.336 78.668 22.356 76.868 22.356 72.476L22.356 60.416 26.352 60.164 26.352 71.072C26.352 74.24 27.504 75.248 29.34 75.248 30.672 75.248 31.86 74.78 32.94 74.024 32.868 70.712 32.832 66.068 32.832 60.272L36.828 60.272C36.828 68.336 36.9 73.988 37.116 78.092L33.408 78.272zM56.268 78.488C48.204 78.632 45.576 76.832 45.576 72.224L45.576 63.332 41.904 63.332 42.264 60.272 45.576 60.272 45.576 55.448 49.536 55.088 49.536 60.272 56.304 60.272 56.304 63.332 49.536 63.332 49.536 71.612C49.536 74.42 51.228 75.068 56.7 75.176L56.268 78.488zM76.068 78.488C68.004 78.632 65.376 76.832 65.376 72.224L65.376 63.332 61.704 63.332 62.064 60.272 65.376 60.272 65.376 55.448 69.336 55.088 69.336 60.272 76.104 60.272 76.104 63.332 69.336 63.332 69.336 71.612C69.336 74.42 71.028 75.068 76.5 75.176L76.068 78.488zM88.524 78.74C84.096 78.74 80.928 75.464 80.928 69.668 80.928 63.836 84.924 59.732 89.676 59.732 94.176 59.732 97.272 63.008 97.272 68.84 97.272 74.816 93.312 78.74 88.524 78.74zM89.244 75.5C91.656 75.5 93.24 73.52 93.24 69.56 93.24 65.24 91.584 63.008 88.992 63.008 86.58 63.008 84.996 64.988 84.996 68.912 84.996 73.268 86.652 75.5 89.244 75.5zM109.296 63.224C107.928 63.224 106.776 63.692 105.66 64.412 105.732 67.76 105.804 72.44 105.804 78.2L101.772 78.2C101.772 70.136 101.7 64.484 101.484 60.416L105.192 60.2 105.408 62.252C106.848 60.956 108.684 59.804 111.168 59.804 114.3 59.804 116.316 61.64 116.316 65.996L116.316 78.2 112.32 78.2 112.32 67.4C112.32 64.232 111.132 63.224 109.296 63.224zM15.948 146.492L16.092 149.948C9.432 149.372 7.38 150.164 7.38 151.424 7.38 153.836 16.992 154.88 16.992 159.38 16.992 162.476 13.68 165.248 3.348 164.78L3.492 161.36C10.62 161.828 12.816 161 12.816 159.596 12.816 157.04 3.24 156.392 3.24 151.892 3.24 148.796 6.552 145.844 15.948 146.492zM36.504 165.032C24.912 165.14 21.852 161.792 21.852 155.96 21.852 150.452 25.884 146.204 30.6 146.204 35.64 146.204 38.052 150.164 37.404 156.392L25.848 156.716C26.28 160.316 28.98 161.504 36.9 161.684L36.504 165.032zM29.88 149.48C27.432 149.48 25.992 150.992 25.812 154.34 27.72 154.268 31.356 154.16 33.588 154.088 33.48 151.244 32.364 149.48 29.88 149.48zM42.192 155.924C42.192 150.92 45.504 146.456 56.232 146.42L56.484 150.2C47.52 149.912 46.152 151.964 46.152 155.42 46.152 160.028 48.672 161.9 56.736 161.432L56.34 164.744C45.144 165.68 42.192 161.468 42.192 155.924zM76.068 164.888C68.004 165.032 65.376 163.232 65.376 158.624L65.376 149.732 61.704 149.732 62.064 146.672 65.376 146.672 65.376 141.848 69.336 141.488 69.336 146.672 76.104 146.672 76.104 149.732 69.336 149.732 69.336 158.012C69.336 160.82 71.028 161.468 76.5 161.576L76.068 164.888zM91.8 143.972L87.66 143.972 87.912 138.932 92.124 138.932 91.8 143.972zM97.812 164.6L81.648 164.6 81.648 161.576 87.876 161.576 87.876 149.804 81.576 149.516 81.9 146.672 91.908 146.672 91.908 161.576 98.136 161.576 97.812 164.6zM108.324 165.14C103.896 165.14 100.728 161.864 100.728 156.068 100.728 150.236 104.724 146.132 109.476 146.132 113.976 146.132 117.072 149.408 117.072 155.24 117.072 161.216 113.112 165.14 108.324 165.14zM109.044 161.9C111.456 161.9 113.04 159.92 113.04 155.96 113.04 151.64 111.384 149.408 108.792 149.408 106.38 149.408 104.796 151.388 104.796 155.312 104.796 159.668 106.452 161.9 109.044 161.9zM129.096 149.624C127.728 149.624 126.576 150.092 125.46 150.812 125.532 154.16 125.604 158.84 125.604 164.6L121.572 164.6C121.572 156.536 121.5 150.884 121.284 146.816L124.992 146.6 125.208 148.652C126.648 147.356 128.484 146.204 130.968 146.204 134.1 146.204 136.116 148.04 136.116 152.396L136.116 164.6 132.12 164.6 132.12 153.8C132.12 150.632 130.932 149.624 129.096 149.624zM155.104 78.432C143.512 78.54 140.452 75.192 140.452 69.36 140.452 63.852 144.484 59.604 149.2 59.604 154.24 59.604 156.652 63.564 156.004 69.792L144.448 70.116C144.88 73.716 147.58 74.904 155.5 75.084L155.104 78.432zM148.48 62.88C146.032 62.88 144.592 64.392 144.412 67.74 146.32 67.668 149.956 67.56 152.188 67.488 152.08 64.644 150.964 62.88 148.48 62.88zM165.508 63.024C164.824 63.024 164.14 63.348 163.492 63.96 163.564 67.308 163.6 72.096 163.6 78L159.892 78C159.892 69.936 159.892 64.284 159.748 60.216L163.168 60 163.312 61.548C164.284 60.468 165.544 59.604 167.02 59.604 168.424 59.604 169.252 60.324 169.612 61.548 170.584 60.468 171.844 59.604 173.428 59.604 175.48 59.604 176.488 61.044 176.488 63.708L176.488 78 172.78 78 172.78 65.112C172.78 63.564 172.348 63.024 171.412 63.024 170.764 63.024 170.188 63.312 169.648 63.852L169.648 78 166.804 78 166.804 65.076C166.804 63.564 166.408 63.024 165.508 63.024zM164.916 161.612C167.652 161.612 169.776 159.668 169.776 155.708 169.776 151.568 168.012 149.48 165.6 149.48 164.52 149.48 163.404 149.912 162.432 150.632 162.468 153.188 162.54 156.5 162.576 161.18 163.368 161.468 164.052 161.612 164.916 161.612zM162.576 170.504L158.58 170.864 158.58 164.708C158.58 155.456 158.544 150.38 158.364 146.816L162.036 146.6 162.216 148.436C163.476 147.212 165.132 146.204 167.22 146.204 170.964 146.204 173.736 149.516 173.736 154.736 173.736 161.288 169.128 165.068 163.512 165.068 163.188 165.068 162.9 165.068 162.576 165.032L162.576 170.504zM8.208 122.768C6.228 122.768 4.464 122.444 2.808 121.796L2.808 97.064 6.804 96.704 6.804 105.848C7.992 104.768 9.576 103.904 11.52 103.904 15.3 103.904 18.036 107.216 18.036 112.436 18.036 118.88 13.392 122.768 8.208 122.768zM9.648 119.312C12.384 119.312 14.076 117.476 14.076 113.408 14.076 109.268 12.348 107.18 9.9 107.18 8.856 107.18 7.776 107.576 6.804 108.26L6.804 118.808C7.74 119.132 8.64 119.312 9.648 119.312zM35.604 122.3L22.176 122.3 22.176 119.276 26.532 119.276C26.46 114.416 26.424 110.672 26.352 107.504L22.104 107.216 22.428 104.372 29.844 104.372C29.88 104.552 30.096 106.568 30.168 107.468 31.788 105.596 34.344 104.12 37.728 103.688L37.908 107.936C34.812 108.116 32.328 108.764 30.312 109.736 30.384 112.436 30.42 115.46 30.492 119.276L35.928 119.276 35.604 122.3zM13.608 208.772L13.392 206.756C11.952 208.016 10.152 209.168 7.668 209.168 4.536 209.168 2.556 207.368 2.556 202.976L2.556 190.916 6.552 190.664 6.552 201.572C6.552 204.74 7.704 205.748 9.54 205.748 10.872 205.748 12.06 205.28 13.14 204.524 13.068 201.212 13.032 196.568 13.032 190.772L17.028 190.772C17.028 198.836 17.1 204.488 17.316 208.592L13.608 208.772zM37.08 208.7L22.284 208.7 22.284 205.676 27.828 205.676 27.828 186.668 22.464 186.38 22.824 183.536 31.86 183.536 31.86 205.676 37.404 205.676 37.08 208.7zM75.456 118.412L75.096 121.4 61.236 121.4 61.236 118.412 65.772 118.412 65.772 107.288 61.02 107.288 61.38 104.228 65.772 104.228 65.772 104.192C65.772 99.584 68.364 96.128 76.752 95.696L77.004 99.584C70.452 99.8 69.768 100.376 69.768 103.58L69.768 104.228 75.816 104.228 75.816 107.288 69.768 107.288 69.768 118.412 75.456 118.412zM87.624 121.94C83.196 121.94 80.028 118.664 80.028 112.868 80.028 107.036 84.024 102.932 88.776 102.932 93.276 102.932 96.372 106.208 96.372 112.04 96.372 118.016 92.412 121.94 87.624 121.94zM88.344 118.7C90.756 118.7 92.34 116.72 92.34 112.76 92.34 108.44 90.684 106.208 88.092 106.208 85.68 106.208 84.096 108.188 84.096 112.112 84.096 116.468 85.752 118.7 88.344 118.7zM107.424 121.94C102.996 121.94 99.828 118.664 99.828 112.868 99.828 107.036 103.824 102.932 108.576 102.932 113.076 102.932 116.172 106.208 116.172 112.04 116.172 118.016 112.212 121.94 107.424 121.94zM108.144 118.7C110.556 118.7 112.14 116.72 112.14 112.76 112.14 108.44 110.484 106.208 107.892 106.208 105.48 106.208 103.896 108.188 103.896 112.112 103.896 116.468 105.552 118.7 108.144 118.7zM134.568 121.688C126.504 121.832 123.876 120.032 123.876 115.424L123.876 106.532 120.204 106.532 120.564 103.472 123.876 103.472 123.876 98.648 127.836 98.288 127.836 103.472 134.604 103.472 134.604 106.532 127.836 106.532 127.836 114.812C127.836 117.62 129.528 118.268 135 118.376L134.568 121.688zM154.404 121.832C142.812 121.94 139.752 118.592 139.752 112.76 139.752 107.252 143.784 103.004 148.5 103.004 153.54 103.004 155.952 106.964 155.304 113.192L143.748 113.516C144.18 117.116 146.88 118.304 154.8 118.484L154.404 121.832zM147.78 106.28C145.332 106.28 143.892 107.792 143.712 111.14 145.62 111.068 149.256 110.96 151.488 110.888 151.38 108.044 150.264 106.28 147.78 106.28zM173.304 121.4L159.876 121.4 159.876 118.376 164.232 118.376C164.16 113.516 164.124 109.772 164.052 106.604L159.804 106.316 160.128 103.472 167.544 103.472C167.58 103.652 167.796 105.668 167.868 106.568 169.488 104.696 172.044 103.22 175.428 102.788L175.608 107.036C172.512 107.216 170.028 107.864 168.012 108.836 168.084 111.536 168.12 114.56 168.192 118.376L173.628 118.376 173.304 121.4zM76.68 207.8L61.884 207.8 61.884 204.776 67.428 204.776 67.428 185.768 62.064 185.48 62.424 182.636 71.46 182.636 71.46 204.776 77.004 204.776 76.68 207.8zM91.8 187.172L87.66 187.172 87.912 182.132 92.124 182.132 91.8 187.172zM97.812 207.8L81.648 207.8 81.648 204.776 87.876 204.776 87.876 193.004 81.576 192.716 81.9 189.872 91.908 189.872 91.908 204.776 98.136 204.776 97.812 207.8zM125.172 204.992C126.36 204.992 127.368 204.56 128.232 203.876 128.16 201.104 128.124 197.612 128.124 193.292 127.224 193.004 126.36 192.824 125.568 192.824 122.832 192.824 120.924 194.84 120.924 198.8 120.924 203.048 122.688 204.992 125.172 204.992zM128.664 207.908L128.448 206.108C127.224 207.296 125.568 208.268 123.516 208.268 119.736 208.268 116.964 205.136 116.964 199.808 116.964 193.184 121.608 189.404 127.296 189.404 127.584 189.404 127.836 189.404 128.124 189.44L128.124 182.564 132.12 182.204 132.12 189.836C132.12 198.224 132.192 203.732 132.372 207.692L128.664 207.908zM147.6 187.172L143.46 187.172 143.712 182.132 147.924 182.132 147.6 187.172zM153.612 207.8L137.448 207.8 137.448 204.776 143.676 204.776 143.676 193.004 137.376 192.716 137.7 189.872 147.708 189.872 147.708 204.776 153.936 204.776 153.612 207.8zM164.916 203.912C166.572 199.232 168.048 194.48 169.416 189.872L173.448 189.872C171.612 195.848 169.38 202.004 167.112 207.944L162.252 207.944C160.02 202.004 157.896 195.92 156.024 190.016L160.056 189.728C161.46 194.372 162.972 199.196 164.664 203.912L164.916 203.912z"/>
        </g>
      </g>
      <g fill-rule="nonzero" mask="url(#htmlpro-b)">
        <use fill="#000" filter="url(#htmlpro-c)" xlink:href="#htmlpro-d"/>
        <rect width="86" height="86" x="75" y="115" fill="#FFF" fill-rule="evenodd" stroke="#FFF" stroke-linejoin="square" stroke-width="10" rx="43"/>
      </g>
      <g mask="url(#htmlpro-b)">
        <g transform="translate(102 137)">
          <path fill="#000" fill-rule="nonzero" d="M3.01604632,0 L5.03258892,0 L5.03258892,2.04192073 L6.89131514,2.04192073 L6.89131514,0 L8.90785773,0 L8.90785773,6.17949695 L6.89131514,6.17949695 L6.89131514,4.11966463 L5.05012407,4.11966463 L5.05012407,6.17949695 L3.01604632,6.17949695 M11.573201,2.05983232 L9.79338296,2.05983232 L9.79338296,0 L15.3783292,0 L15.3783292,2.05983232 L13.5897436,2.05983232 L13.5897436,6.17949695 L11.573201,6.17949695 M16.2638544,0 L18.3768404,0 L19.6744417,2.17625762 L20.972043,0 L23.0850289,0 L23.0850289,6.17949695 L21.0684864,6.17949695 L21.0684864,3.11661585 L19.6569065,5.33765244 L18.2453267,3.11661585 L18.2453267,6.17949695 L16.2638544,6.17949695 M24.0845327,0 L26.1010753,0 L26.1010753,4.13757622 L28.9593052,4.13757622 L28.9593052,6.17949695 L24.0845327,6.17949695"/>
          <polyline fill="#E44D26" points="2.893 42.343 0 9.171 31.809 9.171 28.915 42.325 15.878 46.015"/>
          <polyline fill="#F16529" points="15.957 43.033 15.957 11.732 28.959 11.732 26.478 40.032"/>
          <path fill="#EBEBEB" fill-rule="nonzero" d="M5.96195203,15.7890625 L15.9569892,15.7890625 L15.9569892,19.8549924 L10.3282051,19.8549924 L10.6964433,24.019436 L15.9569892,24.019436 L15.9569892,28.0764101 L7.04913151,28.0764101 M7.22448304,30.1183308 L11.2224979,30.1183308 L11.5030604,33.3692835 L15.9569892,34.5872713 L15.9569892,38.8323171 L7.78560794,36.503811"/>
          <path fill="#FFF" fill-rule="nonzero" d="M25.9169562,15.7890625 L15.9394541,15.7890625 L15.9394541,19.8549924 L25.5487179,19.8549924 M25.1892473,24.019436 L15.9394541,24.019436 L15.9394541,28.0853659 L20.8492969,28.0853659 L20.3846154,33.3692835 L15.9394541,34.5872713 L15.9394541,38.8144055 L24.0933002,36.503811"/>
        </g>
      </g>
    </g>
    <path fill="#FFD764" d="M118.105588,234.703719 L118.105588,225.976446 L121.872633,225.976446 C122.520364,225.976446 123.08712,226.104286 123.572917,226.359969 C124.058715,226.615652 124.436552,226.975023 124.70644,227.438094 C124.976328,227.901164 125.11127,228.442352 125.11127,229.061673 C125.11127,229.686676 124.972777,230.227864 124.695787,230.685253 C124.418797,231.142642 124.031017,231.494911 123.532435,231.742071 C123.033852,231.989231 122.452182,232.11281 121.787406,232.11281 L120.474906,232.11281 L120.474906,234.703719 L118.105588,234.703719 Z M120.474906,230.271901 L121.310133,230.271901 C121.724908,230.271901 122.050189,230.163237 122.285986,229.945906 C122.521782,229.728576 122.639679,229.433834 122.639679,229.061673 C122.639679,228.686671 122.521782,228.394061 122.285986,228.183832 C122.050189,227.973604 121.724908,227.868492 121.310133,227.868492 L120.474906,227.868492 L120.474906,230.271901 Z M125.980588,234.703719 L125.980588,225.976446 L129.747633,225.976446 C130.395364,225.976446 130.96212,226.094343 131.447917,226.330139 C131.933715,226.565936 132.311552,226.905421 132.58144,227.348605 C132.851328,227.791789 132.98627,228.323034 132.98627,228.942355 C132.98627,229.547472 132.854879,230.060251 132.592094,230.480707 C132.329308,230.901164 131.966386,231.223604 131.503315,231.448037 L133.276042,234.703719 L130.702179,234.703719 L129.168088,231.823037 L128.349906,231.823037 L128.349906,234.703719 L125.980588,234.703719 Z M128.349906,229.982128 L129.185133,229.982128 C129.599908,229.982128 129.925189,229.901873 130.160986,229.741361 C130.396782,229.580849 130.514679,229.314516 130.514679,228.942355 C130.514679,228.567353 130.396782,228.294629 130.160986,228.124173 C129.925189,227.953718 129.599908,227.868492 129.185133,227.868492 L128.349906,227.868492 L128.349906,229.982128 Z M142.446497,230.340082 C142.446497,231.311678 142.257578,232.130562 141.879736,232.796759 C141.501893,233.462955 140.991955,233.967211 140.349906,234.309543 C139.707857,234.651874 138.991956,234.823037 138.202179,234.823037 C137.40672,234.823037 136.688688,234.650453 136.04806,234.305281 C135.407431,233.960109 134.898914,233.454432 134.522491,232.788236 C134.146069,232.122039 133.957861,231.305996 133.957861,230.340082 C133.957861,229.368487 134.146069,228.549603 134.522491,227.883406 C134.898914,227.21721 135.407431,226.712953 136.04806,226.370622 C136.688688,226.028291 137.40672,225.857128 138.202179,225.857128 C138.991956,225.857128 139.707857,226.028291 140.349906,226.370622 C140.991955,226.712953 141.501893,227.21721 141.879736,227.883406 C142.257578,228.549603 142.446497,229.368487 142.446497,230.340082 Z M140.008997,230.340082 C140.008997,229.555988 139.854879,228.956562 139.546639,228.541787 C139.238399,228.127012 138.79025,227.919628 138.202179,227.919628 C137.614108,227.919628 137.165959,228.127012 136.857719,228.541787 C136.549478,228.956562 136.395361,229.555988 136.395361,230.340082 C136.395361,231.124177 136.549478,231.723603 136.857719,232.138378 C137.165959,232.553153 137.614108,232.760537 138.202179,232.760537 C138.79025,232.760537 139.238399,232.553153 139.546639,232.138378 C139.854879,231.723603 140.008997,231.124177 140.008997,230.340082 Z" transform="rotate(-5 130.276 230.34)"/>
    <g transform="rotate(-9 629.865 -570.496)">
      <path fill="#FFD764" d="M46.456,5.109 C46.1016738,4.92992145 45.675199,4.97574105 45.367,5.226 L35.156,13.58 L24.786,0.38 C24.589551,0.150167794 24.3023492,0.0178333127 24,0.0178333127 C23.6976508,0.0178333127 23.410449,0.150167794 23.214,0.38 L12.844,13.58 L2.633,5.226 C2.32544156,4.9732211 1.89724065,4.92695146 1.54278345,5.10819565 C1.18832624,5.28943984 0.975138903,5.6636698 1,6.061 L2.831,36.242 C2.96187615,38.3520472 4.70989974,39.9971944 6.824,40 L41.176,40 C43.2901003,39.9971944 45.0381238,38.3520472 45.169,36.242 L47,6.061 C47.0243085,5.66367725 46.81065,5.28977503 46.456,5.109 Z"/>
      <polygon fill="#D3A133" points="2.574 32 45.426 32 45.547 30 2.453 30"/>
    </g>
  </g>
</svg>
