<svg xmlns="http://www.w3.org/2000/svg" xmlns:xlink="http://www.w3.org/1999/xlink" width="255" height="335" viewBox="0 0 255 335">
  <defs>
    <polygon id="less-a" points="0 0 0 315 163.974 315 235 315 235 246.741 235 0"/>
  </defs>
  <g fill="none" fill-rule="evenodd">
    <path fill="#FFF" fill-rule="nonzero" stroke="#FFF" stroke-width="10" d="M5,5 L5,330 L178,330 L250,330 L250,5 L5,5 Z"/>
    <g transform="translate(10 10)">
      <mask id="less-b" fill="#fff">
        <use xlink:href="#less-a"/>
      </mask>
      <use fill="#573E7F" fill-rule="nonzero" xlink:href="#less-a"/>
      <path fill="#FFF" fill-rule="nonzero" d="M145.438424,154.481766 C145.438424,152.535509 145.73399,151.387716 145.73399,149.291747 C145.73399,146.047985 144.551724,145 141.940887,145 L140.019704,145 L140.019704,147.295585 L140.610837,147.295585 C141.940887,147.295585 142.236453,147.744722 142.236453,149.391555 C142.236453,150.93858 142.08867,152.485605 142.08867,154.28215 C142.08867,156.577735 142.827586,157.476008 144.305419,157.825336 L144.305419,157.975048 C142.827586,158.324376 142.08867,159.222649 142.08867,161.518234 C142.08867,163.314779 142.236453,164.761996 142.236453,166.408829 C142.236453,168.105566 141.891626,168.554702 140.610837,168.554702 L140.610837,168.604607 L140.019704,168.604607 L140.019704,171 L141.940887,171 C144.551724,171 145.73399,169.952015 145.73399,166.708253 C145.73399,164.56238 145.438424,163.464491 145.438424,161.518234 C145.438424,160.47025 146.078818,159.372361 148,159.272553 L148,156.677543 C146.078818,156.627639 145.438424,155.52975 145.438424,154.481766 Z M135.536946,157.525912 C134.059113,156.927063 132.679803,156.577735 132.679803,155.579655 C132.679803,154.831094 133.270936,154.381958 134.35468,154.381958 C135.438424,154.381958 136.423645,154.831094 137.507389,155.629559 L139.477833,152.984645 C138.246305,152.036468 136.571429,151.038388 134.305419,151.038388 C130.955665,151.038388 128.689655,152.984645 128.689655,155.729367 C128.689655,158.174664 130.807882,159.422265 132.581281,160.120921 C134.108374,160.71977 135.586207,161.21881 135.586207,162.216891 C135.586207,162.965451 134.995074,163.464491 133.665025,163.464491 C132.433498,163.464491 131.20197,162.965451 129.871921,161.917466 L127.901478,164.8119 C129.37931,166.059501 131.64532,166.907869 133.517241,166.907869 C137.458128,166.907869 139.576355,164.8119 139.576355,162.067179 C139.576355,159.322457 137.458128,158.174664 135.536946,157.525912 Z M101.891626,163.165067 C101.546798,163.165067 101.103448,162.865643 101.103448,161.917466 L101.103448,147.395393 L101.103448,145.199616 L101.103448,145 L94.1083744,145 C91.4482759,145 90.2660099,146.047985 90.2660099,149.291747 C90.2660099,151.43762 90.5615764,152.635317 90.5615764,154.481766 C90.5615764,155.52975 89.9211823,156.627639 88,156.727447 L88,159.322457 C89.9211823,159.372361 90.5615764,160.47025 90.5615764,161.518234 C90.5615764,163.364683 90.2660099,164.462572 90.2660099,166.608445 C90.2660099,169.852207 91.4482759,170.900192 94.0591133,170.900192 L95.9802956,170.900192 L95.9802956,168.604607 L95.3891626,168.604607 C94.1576355,168.604607 93.7635468,168.105566 93.7635468,166.458733 C93.7635468,164.8119 93.91133,163.414587 93.91133,161.568138 C93.91133,159.272553 93.1724138,158.37428 91.6945813,158.024952 L91.6945813,157.87524 C93.1724138,157.525912 93.91133,156.627639 93.91133,154.332054 C93.91133,152.535509 93.7635468,151.088292 93.7635468,149.441459 C93.7635468,147.794626 94.1083744,147.345489 95.3891626,147.345489 L96.7192118,147.345489 C96.7192118,150.589251 96.7192118,161.667946 96.7192118,161.667946 C96.7192118,164.712092 97.7536946,166.708253 100.758621,166.708253 C101.694581,166.708253 102.433498,166.558541 102.975369,166.358925 L102.482759,163.115163 C102.187192,163.165067 102.039409,163.165067 101.891626,163.165067 Z M123.615764,157.525912 C122.08867,156.927063 120.70936,156.577735 120.70936,155.579655 C120.70936,154.831094 121.300493,154.381958 122.384236,154.381958 C123.46798,154.381958 124.453202,154.831094 125.536946,155.629559 L127.507389,152.984645 C126.275862,152.036468 124.600985,151.038388 122.334975,151.038388 C118.985222,151.038388 116.719212,152.984645 116.719212,155.729367 C116.719212,158.174664 118.837438,159.422265 120.610837,160.120921 C122.137931,160.71977 123.615764,161.21881 123.615764,162.216891 C123.615764,162.965451 123.024631,163.464491 121.694581,163.464491 C120.463054,163.464491 119.231527,162.965451 117.901478,161.917466 L115.980296,164.8119 C117.458128,166.059501 119.724138,166.907869 121.596059,166.907869 C125.536946,166.907869 127.655172,164.8119 127.655172,162.067179 C127.655172,159.322457 125.536946,158.174664 123.615764,157.525912 Z M109.083744,150.988484 C105.487685,150.988484 102.039409,154.03263 102.137931,158.823417 C102.137931,163.763916 105.339901,166.658349 109.576355,166.658349 C111.349754,166.658349 113.320197,166.009597 114.847291,164.961612 L113.369458,162.316699 C112.285714,162.965451 111.251232,163.264875 110.167488,163.264875 C108.197044,163.264875 106.669951,162.316699 106.275862,160.021113 L115.192118,160.021113 C115.241379,159.671785 115.339901,158.973129 115.339901,158.174664 C115.389163,154.132438 113.221675,150.988484 109.083744,150.988484 Z M106.275862,157.276392 C106.571429,155.28023 107.753695,154.332054 109.133005,154.332054 C110.906404,154.332054 111.596059,155.579655 111.596059,157.276392 L106.275862,157.276392 Z" mask="url(#less-b)"/>
    </g>
  </g>
</svg>
