<svg xmlns="http://www.w3.org/2000/svg" xmlns:xlink="http://www.w3.org/1999/xlink" width="255" height="335" viewBox="0 0 255 335">
  <defs>
    <polygon id="sass-scss-kickoff-a" points="0 0 0 315 163.974 315 235 315 235 246.741 235 0"/>
  </defs>
  <g fill="none" fill-rule="evenodd">
    <path fill="#FFF" fill-rule="nonzero" stroke="#FFF" stroke-width="10" d="M5,5 L5,330 L178,330 L250,330 L250,5 L5,5 Z"/>
    <g transform="translate(10 10)">
      <use fill="#CF649A" fill-rule="nonzero" xlink:href="#sass-scss-kickoff-a"/>
    </g>
    <path fill="#F2F2F2" fill-rule="nonzero" d="M55.094268,28.137177 C52.8565726,28.1500735 50.9189035,28.6990028 49.2937616,29.5163315 C48.6937092,28.3032987 48.0936568,27.2433633 47.9937731,26.4518275 C47.8812633,25.5324763 47.7437513,24.9705228 47.8812633,23.8725366 C48.0186503,22.7742949 48.6437048,21.2165054 48.6437048,21.0888177 C48.6310787,20.9738988 48.5060678,20.412073 47.2185804,20.3993043 C45.931093,20.3865355 44.8183709,20.6546796 44.69336,20.9994363 C44.568349,21.344193 44.3183272,22.1358566 44.155813,22.9530577 C43.9307934,24.1533218 41.5805882,28.4053211 40.2429714,30.6398553 C39.8054332,29.7715792 39.4304005,29.0054532 39.3552689,28.3924247 C39.2428841,27.4732012 39.1052471,26.9112477 39.2428841,25.8132615 C39.3803961,24.7150198 40.0054507,23.1573579 40.0054507,23.0296703 C39.9929496,22.9147514 39.8679387,22.3529256 38.5804513,22.3401568 C37.2927139,22.3273881 36.1802417,22.5955322 36.0552308,22.9402889 C35.9302199,23.2850456 35.7927079,24.1022467 35.5176839,24.8939102 C35.255036,25.6855738 32.1297631,32.7850082 31.3171922,34.6364794 C30.9046562,35.5813681 30.5422495,36.3347254 30.2796016,36.8454761 C30.0170787,37.3562267 30.2671005,36.8837824 30.2420983,36.9348574 C30.0170787,37.3689955 29.8920678,37.6116021 29.8920678,37.6116021 L29.8920678,37.6244985 C29.7170525,37.9437177 29.5295361,38.2500404 29.4419035,38.2500404 C29.379398,38.2500404 29.2543871,37.394533 29.4669056,36.2199342 C29.929446,33.7554345 31.0545442,29.9121633 31.0421682,29.7717069 C31.0421682,29.707863 31.2545617,29.0309907 30.3169799,28.6863617 C29.4044002,28.341605 29.0794968,28.9161995 29.0043653,28.9161995 C28.9293587,28.9161995 28.8668533,29.1204998 28.8668533,29.1204998 C28.8668533,29.1204998 29.8794417,24.7920155 26.9291841,24.7920155 C25.0790226,24.7920155 22.5287999,26.8477869 21.2661897,28.7247957 C20.4661198,29.1717025 18.7659714,30.1164636 16.9658143,31.1253239 C16.2782542,31.5083869 15.565692,31.9169874 14.8906331,32.2872817 L14.7532461,32.1338011 C11.177934,28.2393272 4.56485661,25.4812735 4.83988062,20.2460791 C4.93988935,18.3435328 5.58994611,13.3254074 17.5411145,7.24747434 C27.329469,2.26765524 35.1676533,3.6339133 36.5301473,6.67287983 C38.4678164,11.0142606 32.3422817,19.0841213 22.1665183,20.2460791 C18.29118,20.6929859 16.2533771,19.1607339 15.7409573,18.5861394 C15.2034104,17.9860073 15.1284038,17.9604698 14.9283864,18.0753887 C14.603358,18.2541514 14.8033755,18.7904396 14.9283864,19.1096588 C15.2284126,19.9140911 16.4785217,21.344193 18.6037072,22.059244 C20.4662449,22.6849136 25.0167671,23.0296703 30.5172473,20.8589799 C36.6802854,18.4201454 41.4932056,11.6526989 40.0805822,5.99613519 C38.6429567,0.237421303 29.2921404,-1.6523562 20.4538688,1.5526043 C15.1907843,3.46791933 9.49028662,6.45581079 5.38992864,10.3758222 C0.514503005,15.0236534 -0.260564661,19.0841213 0.0644637149,20.7695985 C1.20218804,26.7836877 9.31527134,30.7036992 12.5655551,33.6022093 C12.4030409,33.691463 12.2530278,33.7808443 12.1155158,33.8575846 C10.4903739,34.674658 4.30233369,37.9818963 2.75219836,41.4804108 C1.00204557,45.4387285 3.02722237,48.2862912 4.37734024,48.6693542 C8.55270476,49.8568496 12.828078,47.7244655 15.1407799,44.2130546 C17.4408557,40.7016437 17.1659567,36.1431939 16.103364,34.0618849 L16.0657357,33.9852723 L17.340847,33.2191463 C18.166044,32.7211644 18.978615,32.2614887 19.6910522,31.8655293 C19.2911423,32.976412 19.0034921,34.291595 18.8536041,36.20691 C18.6785888,38.4543407 19.5786674,41.3654919 20.766271,42.5146809 C21.2913169,43.0125351 21.9163715,43.0254316 22.3039053,43.0254316 C23.6790253,43.0254316 24.3040799,41.8633461 24.9916399,40.4716782 C25.8417141,38.7734322 26.5917796,36.8070421 26.5917796,36.8070421 C26.5917796,36.8070421 25.6541978,42.1316179 28.2169215,42.1316179 C29.1545034,42.1316179 30.0920852,40.8930475 30.5171223,40.2546092 L30.5171223,40.2673779 C30.5171223,40.2673779 30.5421245,40.2290716 30.5921289,40.1396903 C30.6445818,40.0604717 30.6946103,39.9796063 30.742142,39.8972114 L30.742142,39.8716738 C31.1171747,39.207698 31.9547478,37.6882147 33.204857,35.1727676 C34.8173728,31.9295008 36.3676331,27.8690329 36.3676331,27.8690329 C36.3676331,27.8690329 36.5176462,28.8649967 36.9801866,30.4993989 C37.2550856,31.4699529 37.855138,32.5296329 38.3176783,33.563903 C37.9426456,34.1001912 37.717626,34.4067693 37.717626,34.4067693 L37.730127,34.419538 C37.4302259,34.8281386 37.0925714,35.2624043 36.7426658,35.6964147 C35.4675545,37.2542043 33.9424214,39.0291906 33.7424039,39.5399413 C33.5048832,40.1399456 33.5548875,40.5868525 34.0174279,40.9445056 C34.3549574,41.199881 34.9550098,41.2508283 35.5925654,41.199881 C36.7426658,41.1231407 37.5427357,40.8295867 37.9427706,40.6506963 C38.5678252,40.4208585 39.2803874,40.0761018 39.9679474,39.5653511 C41.2180565,38.62059 41.9806231,37.2798695 41.9056166,35.4922422 C41.8681133,34.5090471 41.555586,33.5386208 41.1680522,32.6192696 C41.280562,32.4532756 41.3931968,32.287154 41.5055817,32.1085189 C43.4807541,29.1588061 45.0058872,25.915667 45.0058872,25.915667 C45.0058872,25.915667 45.1559003,26.9116308 45.6184407,28.5460329 C45.8558364,29.3760028 46.3310029,30.2827129 46.75604,31.1765266 C44.9058785,32.7215474 43.743277,34.5091748 43.3432421,35.6839013 C42.6056777,37.8545917 43.1807279,38.8377868 44.2683228,39.0676246 C44.7557404,39.1697747 45.4559265,38.9399369 45.9808474,38.7100991 C46.6309041,38.4930301 47.4184729,38.1226081 48.1436612,37.5736788 C49.3937703,36.6287901 50.5938751,35.3136071 50.5313696,33.5387485 C50.4938664,32.7215474 50.2813478,31.9171151 49.9938227,31.1509891 C51.5689602,30.4870132 53.6065131,30.1039502 56.194364,30.4231694 C61.7573497,31.0871453 62.8574457,34.6368625 62.6450522,36.1180394 C62.4325336,37.5993441 61.2699321,38.4164175 60.8822733,38.6717928 C60.4947395,38.9143994 60.3697285,39.0039084 60.4072318,39.1825435 C60.4572362,39.4508153 60.6322515,39.4379188 60.9697809,39.3869714 C61.4323213,39.3102312 63.8950363,38.1739386 63.9950451,35.4415501 C64.1450581,31.9296285 60.8822733,28.0989984 55.094268,28.137177 Z M12.1905224,42.9106404 C10.3528619,44.9664118 7.76513601,45.7453066 6.66503997,45.0813307 C5.47743628,44.3790486 5.93985165,41.3528508 8.20267421,39.1693917 C9.57779426,37.8414399 11.3654503,36.6156383 12.5405529,35.862281 C12.8030758,35.696287 13.2031108,35.4538082 13.6781522,35.1599988 C13.7531588,35.1090515 13.8031631,35.0833862 13.8031631,35.0833862 C13.8906708,35.0323112 13.9906795,34.9684673 14.0906882,34.9046235 C14.9282614,38.0202026 14.1281915,40.7527188 12.1905224,42.9106404 Z M25.6291956,33.5766717 C24.9916399,35.1727676 23.6415221,39.2715418 22.8289511,39.041704 C22.128765,38.8501725 21.7038529,35.7473621 22.6913141,32.6828581 C23.1913578,31.1377096 24.2539505,29.2991348 24.8790051,28.5839562 C25.8917185,27.4347672 26.9916895,27.0517042 27.2668386,27.5241485 C27.5918669,28.137177 26.0292305,32.5807079 25.6291956,33.5766717 Z M36.7176637,38.9906289 C36.4426396,39.131213 36.1926178,39.2332355 36.080108,39.1567506 C35.9926004,39.1056755 36.1924928,38.914144 36.1924928,38.914144 C36.1924928,38.914144 37.5801139,37.3946607 38.130162,36.6923786 C38.4426893,36.2839057 38.817722,35.8114613 39.2177569,35.2750454 L39.2177569,35.4282706 C39.2178819,37.2668454 37.4927313,38.492647 36.7176637,38.9906289 Z M45.2682851,36.9987013 C45.0682677,36.8454761 45.0933949,36.3730317 45.7683288,34.8918547 C46.0309767,34.3044915 46.6309041,33.3212964 47.6684947,32.3891764 C47.7935056,32.7722394 47.8686372,33.142406 47.8560111,33.4872904 C47.843635,35.7856684 46.2434953,36.6411758 45.2682851,36.9987013 Z" transform="translate(99 149)"/>
    <text fill="#FFD764" font-family="OperatorMono-Bold, Operator Mono" font-size="18" font-weight="bold" transform="rotate(-90 213.5 264)">
      <tspan x="178.5" y="270.5">@extend</tspan>
    </text>
    <text fill="#FFD764" font-family="OperatorMono-Bold, Operator Mono" font-size="33" font-weight="bold">
      <tspan x="166.55" y="59">+ — </tspan> <tspan x="166.55" y="99">* /</tspan>
    </text>
  </g>
</svg>
